<svg xmlns="http://www.w3.org/2000/svg" viewBox="0 0 219.92 162.74"><defs><style>.cls-1{fill:#f4f4f4;}.cls-1,.cls-2{opacity:0.6;}.cls-1,.cls-15,.cls-16,.cls-17,.cls-2,.cls-3,.cls-4,.cls-8{isolation:isolate;}.cls-2{fill:#989898;}.cls-3{fill:#ccc;}.cls-18,.cls-4{fill:#273b8a;}.cls-5{fill:#969696;}.cls-15,.cls-16,.cls-17,.cls-6{fill:#fff;}.cls-7{fill:#028373;}.cls-8{fill:#e6e6e5;}.cls-9{fill:#7c7b7b;}.cls-10{fill:#3f3f3f;}.cls-11{fill:#1ebaed;}.cls-12{fill:#5bb4da;}.cls-13{fill:#b0b1b1;}.cls-14{fill:#bac94a;}.cls-15{opacity:0.9;}.cls-16{opacity:0.8;}.cls-17{opacity:0.5;}.cls-19{fill:#88c540;}.cls-20{fill:#9ac7e7;}.cls-21{fill:#cdecf9;}.cls-22,.cls-24{fill:none;stroke-miterlimit:10;}.cls-22{stroke:#fff;}.cls-23{fill:#18244f;}.cls-24{stroke:#18244f;stroke-width:0.25px;}</style></defs><title>scheduled-deployments</title><g id="Layer_2" data-name="Layer 2"><g id="Layer_1-2" data-name="Layer 1"><rect class="cls-1" x="126.41" width="93.52" height="93.52"/><rect class="cls-2" x="126.41" width="93.52" height="93.52"/><polygon class="cls-3" points="190.72 93.52 126.41 93.52 126.41 0 219.92 0 219.92 64.31 190.72 93.52"/><rect class="cls-4" x="126.41" width="93.52" height="17.71"/><circle class="cls-5" cx="132.73" cy="8.85" r="3.45"/><circle class="cls-5" cx="212.45" cy="8.85" r="3.45"/><rect class="cls-6" x="132.73" y="25.03" width="12.65" height="12.65"/><rect class="cls-7" x="149.3" y="25.03" width="12.65" height="12.65"/><rect class="cls-7" x="165.86" y="25.03" width="12.65" height="12.65"/><rect class="cls-7" x="182.43" y="25.03" width="12.65" height="12.65"/><rect class="cls-7" x="199" y="25.03" width="12.65" height="12.65"/><rect class="cls-7" x="132.73" y="41.51" width="12.65" height="12.65"/><rect class="cls-7" x="149.3" y="41.51" width="12.65" height="12.65"/><rect class="cls-6" x="165.86" y="41.51" width="12.65" height="12.65"/><rect class="cls-6" x="182.43" y="41.51" width="12.65" height="12.65"/><rect class="cls-6" x="199" y="41.51" width="12.65" height="12.65"/><rect class="cls-6" x="132.73" y="57.99" width="12.65" height="12.65"/><rect class="cls-6" x="149.3" y="57.99" width="12.65" height="12.65"/><rect class="cls-6" x="165.86" y="57.99" width="12.65" height="12.65"/><rect class="cls-6" x="182.43" y="57.99" width="12.65" height="12.65"/><rect class="cls-6" x="199" y="57.99" width="12.65" height="12.65"/><rect class="cls-6" x="132.73" y="74.47" width="12.65" height="12.65"/><rect class="cls-6" x="149.3" y="74.47" width="12.65" height="12.65"/><rect class="cls-6" x="165.86" y="74.47" width="12.65" height="12.65"/><rect class="cls-6" x="182.43" y="74.47" width="12.65" height="12.65"/><polygon class="cls-8" points="190.72 93.52 190.72 64.31 219.92 64.31 190.72 93.52"/><path class="cls-9" d="M115.51,143.78H88.65c3.16,11.26-1.18,13-20.14,13v5.92h64.37v-5.92C114.12,156.82,112.35,155.24,115.51,143.78Z"/><path class="cls-10" d="M144.34,71.91H56.86a5.48,5.48,0,0,0-5.33,5.53v60.82a5.48,5.48,0,0,0,5.33,5.53h87.48c3,0,5.92-2.57,5.92-5.53V77.44C150.26,74.48,147.3,71.91,144.34,71.91Zm-1.58,7.5v56.67H59V79.41l83.72-.2Z"/><polygon class="cls-11" points="142.76 79.22 142.76 136.28 59.03 136.28 59.03 79.31 142.76 79.22"/><path class="cls-9" d="M59,136.28h0V79.41l76.63-.18,8.67-7.32H56.86a5.48,5.48,0,0,0-5.33,5.53v60.82a5.48,5.48,0,0,0,5.33,5.53H59l9.08-7.5Z"/><polygon class="cls-12" points="59.03 136.28 59.03 136.28 59.03 79.41 135.45 79.41 135.45 79.41 59.03 79.41 59.03 136.28"/><rect class="cls-13" x="68.71" y="156.82" width="64.57" height="5.92"/><circle class="cls-14" cx="100.5" cy="76.06" r="1.38"/><path class="cls-15" d="M100.89,106.86h-.2L83.32,96.79c-.2,0-.2-.2-.2-.39a.69.69,0,0,1,.2-.39l17.18-9.87h.59L118.47,96.2c.2,0,.2.2.2.39s0,.39-.2.39l-17.18,9.87Z"/><path class="cls-16" d="M98.33,131.15h-.2l-17.38-9.87c-.2,0-.2-.2-.2-.39V100.74c0-.2,0-.39.2-.39h.59l17.38,9.87c.2,0,.2.2.2.39v19.94a.69.69,0,0,1-.2.39C98.52,131.15,98.52,131.15,98.33,131.15Z"/><path class="cls-17" d="M103.26,131.15h-.2c-.2,0-.2-.2-.2-.39V110.81a.69.69,0,0,1,.2-.39l17.38-9.87H121c.2,0,.2.2.2.39v19.94a.69.69,0,0,1-.2.39l-17.38,9.87Z"/><circle class="cls-18" cx="35.92" cy="77.31" r="35.92"/><path class="cls-7" d="M66.58,79.08a30.8,30.8,0,0,1-32.64,28.85l3.78-61.25A30.6,30.6,0,0,1,66.58,79.08Z"/><path class="cls-19" d="M47.88,101.41A26.75,26.75,0,0,1,12.16,88.93l48.2-23.24A26.75,26.75,0,0,1,47.88,101.41Z"/><circle class="cls-20" cx="36.26" cy="77.31" r="22.77"/><path class="cls-21" d="M63.83,90A30.61,30.61,0,0,0,35.92,46.64l-.34,0V77.35Z"/><polyline class="cls-22" points="63.83 89.96 35.58 77.35 35.58 46.66"/><circle class="cls-23" cx="35.58" cy="77.31" r="2.19"/><line class="cls-24" x1="30.35" y1="77.31" x2="57.53" y2="77.31"/></g></g></svg>