<svg xmlns="http://www.w3.org/2000/svg" viewBox="0 0 245.14 184.18"><defs><style>.cls-1{fill:#7c7b7b;}.cls-2{fill:#9fa0a2;}.cls-3,.cls-7{fill:#fff;}.cls-3{opacity:0.2;isolation:isolate;}.cls-4{fill:#5bb4da;}.cls-5{fill:#b8d433;}.cls-6{fill:#273b8a;}.cls-8{fill:#cbebf5;opacity:0.8;}.cls-9{fill:#6b6b6b;}.cls-10{fill:#1a1a1a;}.cls-11{fill:#378ecd;}.cls-12{fill:#2272b9;opacity:0.4;}.cls-13{fill:#4a5ea5;}.cls-14{fill:#7786bb;}.cls-15{fill:#d5d83f;}</style></defs><title>virtual-machines</title><g id="Layer_2" data-name="Layer 2"><g id="Layer_1-2" data-name="Layer 1"><path class="cls-1" d="M174.83,86.84H142.52c3.88,13.71-1.33,15.68-24.19,15.68v7.18H196v-7.18c-22.85,0-25.09-2-21.21-15.68"/><path class="cls-2" d="M209.43,0H104.22a6.72,6.72,0,0,0-6.46,6.77V80.14a6.68,6.68,0,0,0,6.46,6.71H209.43c3.57,0,7.18-3.16,7.18-6.71V6.77C216.61,3.19,213,0,209.43,0"/><path class="cls-3" d="M209.5,0H104.21a6.72,6.72,0,0,0-6.46,6.77V80.14a6.69,6.69,0,0,0,6.46,6.71h2.5Z"/><polygon class="cls-4" points="207.33 9.15 207.33 77.7 106.77 77.7 106.77 9.15 207.33 9.15"/><polygon class="cls-4" points="106.77 77.7 106.9 77.7 106.9 9.15 198.85 9.01 198.85 9.01 106.77 9.15 106.77 77.7"/><rect class="cls-2" x="118.33" y="102.52" width="77.71" height="7.18"/><path class="cls-5" d="M158.41,5a1.69,1.69,0,1,1-1.69-1.69A1.69,1.69,0,0,1,158.41,5"/><rect class="cls-6" x="106.76" y="9.15" width="100.37" height="68.56"/><rect class="cls-7" x="115.13" y="19.43" width="25.09" height="41.13"/><rect class="cls-7" x="144.4" y="19.43" width="46" height="20.57"/><rect class="cls-7" x="144.4" y="43.42" width="20.91" height="17.14"/><rect class="cls-7" x="169.5" y="43.42" width="20.91" height="17.14"/><path class="cls-1" d="M71.69,161.71H48.85c2.74,9.69-.94,11.08-17.09,11.08v5.07H86.68v-5.07c-16.15,0-17.73-1.38-15-11.08"/><path class="cls-2" d="M96.14,100.34H21.79a4.75,4.75,0,0,0-4.56,4.78V157a4.72,4.72,0,0,0,4.56,4.74H96.14c2.52,0,5.07-2.23,5.07-4.74V105.13a5.21,5.21,0,0,0-5.07-4.78"/><path class="cls-3" d="M96.19,100.35H21.79a4.75,4.75,0,0,0-4.56,4.78V157a4.72,4.72,0,0,0,4.56,4.74h1.77Z"/><polygon class="cls-4" points="94.66 106.81 94.66 155.25 23.59 155.25 23.59 106.81 94.66 106.81"/><polygon class="cls-4" points="23.59 155.25 23.69 155.25 23.69 106.81 88.66 106.71 88.66 106.71 23.59 106.81 23.59 155.25"/><rect class="cls-2" x="31.76" y="172.79" width="54.92" height="5.07"/><path class="cls-5" d="M60.09,103.86a1.19,1.19,0,1,1-1.19-1.19,1.19,1.19,0,0,1,1.19,1.19"/><path class="cls-8" d="M237.81,110.6l-.26,0a15.15,15.15,0,0,0-24.86-15.24,19.89,19.89,0,0,0-39,3.38l-.5-.08A15.13,15.13,0,0,0,148.58,105a10.27,10.27,0,0,0-3.38-.58,10.13,10.13,0,0,0-10.34,10.09,10.45,10.45,0,0,0,10.22,10.58h24.33c.64.76,1.31,0,2,0h66.42a7.24,7.24,0,1,0,0-14.49Z"/><rect class="cls-9" y="177.8" width="181.92" height="6.38"/><path class="cls-10" d="M139.35,164h-3.81l.3-1.74H119.68l3.23,15.56h10.26l.3-1.78h5.88ZM137,173.63h-3.08l1.24-7.26H137Z"/><line class="cls-11" x1="87.05" y1="130.87" x2="70.5" y2="148.67"/><polygon class="cls-12" points="106.77 77.7 47.8 145.34 47.8 106.71 106.77 9.07 106.77 77.7"/><polygon class="cls-12" points="94.66 138.69 207.33 77.7 207.33 9.15 94.66 106.81 94.66 138.69"/><path class="cls-8" d="M91.31,72.56a11.91,11.91,0,0,0-2.06-23.63h-.12c.07-.76.1-1.52.1-2.29A25.81,25.81,0,0,0,39,38.43a17.64,17.64,0,0,0-5.77-1c-9.75,0-17.64,8.26-17.64,18s7.9,18,17.64,18h0S91.25,72.58,91.31,72.56Z"/><rect class="cls-6" x="47.8" y="106.71" width="46.86" height="31.98"/><rect class="cls-7" x="51.71" y="111.51" width="11.71" height="19.19"/><rect class="cls-7" x="65.37" y="111.51" width="21.48" height="9.59"/><rect class="cls-7" x="65.37" y="122.7" width="9.76" height="7.99"/><rect class="cls-7" x="77.09" y="122.7" width="9.76" height="7.99"/><rect class="cls-13" x="36.61" y="115" width="46.86" height="31.98"/><polygon class="cls-7" points="75.66 119.79 40.52 119.79 40.52 138.98 54.95 138.98 54.95 129.38 75.66 129.38 75.66 119.79"/><rect class="cls-7" x="54.18" y="130.98" width="9.76" height="7.99"/><rect class="cls-7" x="65.9" y="130.98" width="9.76" height="7.99"/><rect class="cls-14" x="23.59" y="123.28" width="46.86" height="31.98"/><rect class="cls-7" x="27.49" y="128.08" width="11.71" height="19.19"/><rect class="cls-7" x="41.16" y="139.27" width="9.76" height="7.99"/><polygon class="cls-7" points="41.16 128.07 41.16 137.67 52.87 137.67 52.87 147.26 62.64 147.26 62.64 128.07 41.16 128.07"/><ellipse class="cls-15" cx="76.9" cy="137.67" rx="11.89" ry="11.86"/><path class="cls-7" d="M71.79,143.43a7.66,7.66,0,0,1,1.39-12.27l1,1.66a5.78,5.78,0,0,0-2.89,5A5.69,5.69,0,0,0,73.1,142Z"/><polygon class="cls-7" points="77.25 130.26 75.52 133.5 73.79 136.74 71.84 133.62 69.9 130.51 73.57 130.38 77.25 130.26"/><path class="cls-7" d="M80.61,144.17l-1-1.66a5.75,5.75,0,0,0,1-9.2L82,131.9a7.66,7.66,0,0,1-1.39,12.27Z"/><polygon class="cls-7" points="76.54 145.08 78.27 141.84 80 138.6 81.95 141.71 83.9 144.83 80.22 144.95 76.54 145.08"/></g></g></svg>