<svg xmlns="http://www.w3.org/2000/svg" viewBox="0 0 331.55 197.73"><defs><style>.cls-1{fill:#2272b9;}.cls-16,.cls-2{fill:#273b8a;}.cls-3{fill:#7c7b7b;}.cls-4{fill:#3f3f3f;}.cls-5{fill:#1ebaed;}.cls-6{fill:#5bb4da;}.cls-7{fill:#b0b1b1;}.cls-8{fill:#bac94a;}.cls-9{fill:#6b6b6b;}.cls-10{fill:#ef97c0;}.cls-11{fill:#1a1a1a;}.cls-12{fill:#969696;}.cls-13{fill:#a8a7a8;}.cls-14{fill:#fbd118;}.cls-15{fill:#bc9e2f;}.cls-16,.cls-17{fill-rule:evenodd;}.cls-17{fill:#4a5ea5;}.cls-18{fill:#cbebf5;opacity:0.8;}.cls-19{fill:#1e1e1e;}.cls-20,.cls-22{fill:#b8d433;}.cls-21{fill:#7fbb42;}.cls-22{opacity:0.4;isolation:isolate;}.cls-23{fill:#fff;}</style></defs><title>virtual-security</title><g id="Layer_2" data-name="Layer 2"><g id="Layer_1-2" data-name="Layer 1"><path class="cls-1" d="M73.52,156.43c-13.8,0-22.87-3-28.61-6.19-10.64-5.92-16.26-16.06-16.26-29.32h8c0,10.47,4,17.77,12.15,22.33,11.21,6.24,30,6.82,52.78,1.65C123.38,140,147.4,130,167.48,117.53l4.22,6.8c-20.8,12.9-45.72,23.24-68.36,28.38A135.63,135.63,0,0,1,73.52,156.43Z"/><path class="cls-2" d="M73.47,156.4q-1.59,0-3.14-.05l.27-8c26.73.9,65.69-11.48,96.87-30.82l4.22,6.8C140,144,101.84,156.4,73.47,156.4Z"/><path class="cls-3" d="M104.26,169.34H79.33c2.93,10.45-1.1,12.1-18.7,12.1v5.5h59.76v-5.5C103,181.44,101.33,180,104.26,169.34Z"/><path class="cls-4" d="M131,102.62H49.82a5.09,5.09,0,0,0-4.95,5.13v56.46a5.09,5.09,0,0,0,4.95,5.13H131c2.75,0,5.5-2.38,5.5-5.13V107.75C136.53,105,133.78,102.62,131,102.62Zm-1.47,7v52.61H51.84V109.58l77.72-.18Z"/><polygon class="cls-5" points="129.38 109.58 129.38 162.38 51.84 162.38 51.84 109.58 129.56 109.58 129.38 109.58"/><path class="cls-3" d="M51.84,162.37h0V109.58h70.94l8.25-7H49.82a5.09,5.09,0,0,0-4.95,5.13v56.46a5.09,5.09,0,0,0,4.95,5.13h2l8.43-7Z"/><polygon class="cls-6" points="51.84 162.38 51.84 162.38 51.84 109.58 122.78 109.58 122.78 109.58 51.84 109.58 51.84 162.38"/><rect class="cls-7" x="60.82" y="181.44" width="59.94" height="5.5"/><circle class="cls-8" cx="90.33" cy="106.46" r="1.28"/><rect class="cls-9" y="187.08" width="178.1" height="10.65"/><path class="cls-10" d="M168.53,155.92h1a.41.41,0,0,1,.41.41v3.59a0,0,0,0,1,0,0h-1.84a0,0,0,0,1,0,0v-3.59A.41.41,0,0,1,168.53,155.92Z" transform="translate(52.02 -41.63) rotate(16.56)"/><rect class="cls-11" x="167.93" y="157.24" width="1.84" height="2.65" transform="translate(52.19 -41.55) rotate(16.56)"/><rect class="cls-12" x="167.9" y="157.41" width="1.84" height="2.48" transform="translate(52.21 -41.54) rotate(16.56)"/><rect class="cls-13" x="167.92" y="157.3" width="1.08" height="2.48" transform="translate(52.17 -41.44) rotate(16.56)"/><rect class="cls-14" x="163.89" y="157.64" width="1.84" height="29.04" transform="translate(273.71 384.15) rotate(-163.44)"/><rect class="cls-15" x="164.94" y="157.8" width="0.76" height="29.04" transform="translate(274.68 384.6) rotate(-163.44)"/><polygon class="cls-16" points="150.99 168.66 167.06 168.66 164.61 187.08 152.97 187.08 150.99 168.66"/><polygon class="cls-17" points="150.99 168.66 154.16 168.66 164.61 187.08 152.97 187.08 150.99 168.66"/><path class="cls-1" d="M171.7,124.33l-4.22-6.8c20.79-12.89,45.7-23.23,68.34-28.35,31.71-7.17,49.28-2.61,58.43,2.49,10.65,5.93,16.28,16.07,16.28,29.34h-8c0-10.48-4-17.79-12.17-22.35-11.22-6.24-30-6.84-52.77-1.68C215.78,101.92,191.76,111.88,171.7,124.33Z"/><path class="cls-2" d="M172.22,125.17,167,116.69c38.13-23.65,83.4-35.6,112-30.14l-12.59,7C240.17,93.9,202.07,106.66,172.22,125.17Z"/><path class="cls-18" d="M187,62.92l.25,0a14.47,14.47,0,0,0-2.5-28.72h-.15c.08-.92.13-1.85.13-2.79a31.37,31.37,0,0,0-61.11-10,21.44,21.44,0,1,0-7,41.69H186l0-.05c.31,0,.61-.06.91-.11Z"/><path class="cls-4" d="M187,160.75V18.64A12.93,12.93,0,0,1,200,5.7h51.67a12.93,12.93,0,0,1,12.93,12.93V160.76H187Z"/><rect class="cls-19" x="199.94" y="96.15" width="51.69" height="6.46"/><rect class="cls-19" x="199.94" y="115.54" width="51.69" height="6.46"/><rect class="cls-19" x="199.94" y="134.92" width="51.69" height="6.46"/><rect class="cls-19" x="199.94" y="25.08" width="51.69" height="6.46"/><rect class="cls-20" x="199.94" y="96.15" width="6.46" height="6.46"/><rect class="cls-20" x="199.94" y="115.54" width="6.46" height="6.46"/><rect class="cls-20" x="199.94" y="134.92" width="6.46" height="6.46"/><rect class="cls-20" x="199.94" y="25.08" width="6.46" height="6.46"/><path class="cls-18" d="M278.13,73.66l.13,0a7.81,7.81,0,0,0-1.35-15.49h-.08c0-.5.07-1,.07-1.5a16.92,16.92,0,0,0-33-5.38,11.57,11.57,0,1,0-3.78,22.5H277.6v0l.49-.06Z"/><path class="cls-18" d="M322.65,151.2c-.11,0-.21,0-.32,0a18.41,18.41,0,0,0-30.2-18.52,24.17,24.17,0,0,0-47.4,4.1l-.6-.1a18.38,18.38,0,0,0-29.91,7.66,12.56,12.56,0,1,0-4.11,24.44h29.42a16.32,16.32,0,0,0,2.39.18h80.72a8.9,8.9,0,1,0,0-17.79Z"/><path class="cls-1" d="M265.66,156.43a135.59,135.59,0,0,1-29.82-3.72c-22.64-5.13-47.55-15.48-68.36-28.38l4.22-6.8C191.78,130,215.8,140,237.61,144.9c22.83,5.18,41.57,4.59,52.78-1.65,8.18-4.55,12.15-11.85,12.15-22.33h8c0,13.26-5.62,23.39-16.26,29.32C288.53,153.44,279.46,156.43,265.66,156.43Z"/><path class="cls-1" d="M167.48,124.33C147.41,111.88,123.4,101.92,101.59,97,78.77,91.82,60,92.42,48.82,98.66c-8.19,4.56-12.17,11.87-12.17,22.35h-8c0-13.27,5.63-23.41,16.28-29.34,9.15-5.09,26.72-9.66,58.43-2.49C126,94.3,150.9,104.63,171.7,117.53Z"/><path class="cls-21" d="M196.2,57.06h0c-19.28-2.13-22.51-10.43-22.51-10.43s-4.34,10.93-32.08,10.93v44.83c0,5.42,3,10.5,7.18,14.94h0c9.46,10.06,24.9,16.83,24.9,16.83s32.08-14.06,32.08-31.77V57.55A87.12,87.12,0,0,1,196.2,57.06Z"/><path class="cls-22" d="M181.63,75.58,196.2,57.06c-19.28-2.13-22.51-10.43-22.51-10.43s-4.34,10.93-32.08,10.93v44.83c0,5.42,3,10.5,7.18,14.94l10.77-13.69Z"/><path class="cls-23" d="M186.42,89.44h-1.87V83.23a11.72,11.72,0,0,0-2.92-7.79h0l-.2-.23a10.49,10.49,0,0,0-15.48,0,11.72,11.72,0,0,0-3.12,8v6.22H161a1.4,1.4,0,0,0-1.4,1.4v12.63h0v3.81a1.4,1.4,0,0,0,1.4,1.4h25.45a1.4,1.4,0,0,0,1.4-1.4V90.85A1.4,1.4,0,0,0,186.42,89.44Zm-7,0H168V83.23a6.56,6.56,0,0,1,1.73-4.5,5.34,5.34,0,0,1,7.94,0,6.42,6.42,0,0,1,.68.88h0a6.66,6.66,0,0,1,1.05,3.61Z"/></g></g></svg>