
<svg width="303px" height="572px" viewBox="0 0 303 572" version="1.1" xmlns="http://www.w3.org/2000/svg" xmlns:xlink="http://www.w3.org/1999/xlink">
    <!-- Generator: Sketch 43.1 (39012) - http://www.bohemiancoding.com/sketch -->
    <desc>Created with Sketch.</desc>
    <defs></defs>
    <g id="Page-1" stroke="none" stroke-width="1" fill="none" fill-rule="evenodd">
        <g id="Contact" transform="translate(-145.000000, -192.000000)">
            <g id="Page-1" transform="translate(146.000000, 192.000000)">
                <path d="M248.600877,197.203735 C257.671169,188.577923 263.4352,184.419811 264.121733,182.647579" id="Stroke-1" stroke="#0F5BE8" stroke-width="2.185" stroke-linecap="round" stroke-linejoin="round"></path>
                <path d="M156.076716,382.368531 C155.560039,383.865925 155.016501,385.387802 154.446892,386.935741" id="Stroke-3" stroke="#0055ED" stroke-linecap="round" stroke-linejoin="round"></path>
                <path d="M159.491447,371.542434 C158.930528,373.516846 158.320628,375.537855 157.659376,377.608618" id="Stroke-5" stroke="#0055ED" stroke-linecap="round" stroke-linejoin="round"></path>
                <path d="M163.070503,356.297761 C162.434531,359.801948 161.629495,363.475934 160.633272,367.336304" id="Stroke-7" stroke="#0055ED" stroke-linecap="round" stroke-linejoin="round"></path>
                <path d="M0.0727614173,519.762898 L60.8423703,404.541733 C61.5660344,402.927453 62.0289898,401.208135 62.2130659,399.448539 C62.2130659,399.448539 62.3710711,314.825233 80.5677457,270.820324 C89.3149163,249.668052 142.205593,167.303474 144.670475,163.078232 C147.136147,158.85299 153.982515,118.98329 166.76909,120.043154 C171.325171,120.420662 176.162502,129.003827 179.13695,144.059904 C181.842,157.750478 180.61509,176.959929 175.323494,206.772763 C166.554202,218.804041 168.00153,226.204928 166.252412,228.868804 C130.436572,283.443136 172.660315,291.670117 163.799381,351.869154" id="Stroke-9" stroke="#0F5BE8" stroke-width="2.185" stroke-linecap="round" stroke-linejoin="round"></path>
                <path d="M190.253094,101.706946 C190.697088,100.456749 193.774241,96.0782923 196.235962,95.4535882 C198.698474,94.8280945 214.650684,94.5153476 217.779188,95.4535882 C220.906902,96.3910391 225.94648,101.434478 230.602894,107.022064 C239.615514,117.837894 230.501771,143.386787 222.682881,152.454868 C214.862411,161.522158 206.205304,168.934101 206.205304,168.934101 L198.072773,131.898078 C198.072773,131.898078 184.936217,116.715638 190.253094,101.706946 Z" id="Stroke-11" stroke="#0F5BE8" stroke-width="2.185" stroke-linecap="round" stroke-linejoin="round"></path>
                <path d="M206.20562,168.93418 L175.323494,206.772605" id="Stroke-13" stroke="#0F5BE8" stroke-width="2.185" stroke-linecap="round" stroke-linejoin="round"></path>
                <path d="M166.820046,227.525967 C166.820046,227.525967 167.354894,238.091442 175.821605,244.470372 C180.901474,248.296783 185.879429,250.164577 195.952264,246.748054 C203.514395,244.183688 225.551387,221.501641 236.620445,209.419028 C241.043802,204.589616 245.072936,200.558656 248.601193,197.203735" id="Stroke-15" stroke="#0F5BE8" stroke-width="2.185" stroke-linecap="round" stroke-linejoin="round"></path>
                <path d="M246.881148,213.760681 C251.949166,201.964753 261.646739,190.808535 264.121891,182.647894 C265.423854,178.353153 267.41788,136.655148 224.303778,150.495777" id="Stroke-17" stroke="#0F5BE8" stroke-width="2.185" stroke-linecap="round" stroke-linejoin="round"></path>
                <path d="M262.296693,203.915552 C251.05146,206.417527 213.928126,244.238576 211.841667,246.862175 C209.417866,249.910668 186.250347,275.359261 183.811536,279.321511 C181.371935,283.284552 171.175856,299.592406 180.387562,308.432245 C189.599268,317.271293 202.684473,314.46052 209.087635,310.498269 C215.490798,306.535229 276.190885,250.520366 278.630486,246.862175 C281.070087,243.204774 292.01274,230.035445 280.764347,213.943986 C274.83757,205.46428 266.933357,202.884119 262.296693,203.915552 Z" id="Stroke-19" stroke="#0F5BE8" stroke-width="2.185" stroke-linecap="round" stroke-linejoin="round"></path>
                <path d="M197.678866,213.773792 C194.616725,210.876934 183.705672,205.666065 175.323494,219.008353 C167.164103,231.997616 165.040512,245.824029 166.819651,247.202959 C168.541908,248.536082 184.693205,250.963029 197.106097,236.367385 C205.665242,226.304201 202.009,217.870302 197.678866,213.773792" id="Fill-21" fill="#FFFFFF"></path>
                <path d="M201.544939,280.108986 C197.722792,278.447321 191.818926,278.893538 182.642771,288.885643 C174.49049,297.7626 174.697477,310.838737 176.60381,312.232672 C179.390233,314.269476 191.789695,318.043762 203.452062,306.457122 C211.720477,298.241987 210.169655,290.245618 207.872259,285.978519 C207.872259,285.978519 206.847595,283.899068 205.340225,282.759437 C203.866036,281.645868 201.544939,280.108986 201.544939,280.108986" id="Fill-23" fill="#FFFFFF"></path>
                <path d="M201.544939,280.108986 C197.722792,278.447321 191.818926,278.893538 182.642771,288.885643 C174.49049,297.7626 174.697477,310.838737 176.60381,312.232672 C179.390233,314.269476 191.789695,318.043762 203.452062,306.457122 C211.720477,298.241987 210.169655,290.245618 207.872259,285.978519" id="Stroke-25" stroke="#0055ED" stroke-linecap="round" stroke-linejoin="round"></path>
                <path d="M266.378759,259.424728 C266.856725,258.952449 287.261523,252.226811 295.083572,261.512867 C302.905622,270.798132 301.92915,294.561367 295.083572,313.318283 C285.726502,338.953261 262.067586,377.665165 230.739885,417.608313 C218.54109,433.161943 199.015591,445.09371 183.098142,459.93971 C181.356924,461.564257 179.890635,463.440738 178.669255,465.485439 C158.911488,498.548156 148.42705,533.120113 142.072869,570.257226" id="Stroke-27" stroke="#0F5BE8" stroke-width="2.185" stroke-linecap="round" stroke-linejoin="round"></path>
                <path d="M216.728216,304.28669 C216.728216,304.28669 198.103348,319.329341 206.513177,329.406741 C212.669851,336.783145 219.712145,340.343405 266.119867,310.252574 C285.568733,297.641608 285.753599,306.422214 285.753599,306.422214" id="Stroke-29" stroke="#0F5BE8" stroke-width="2.185" stroke-linecap="round" stroke-linejoin="round"></path>
                <path d="M225.281198,313.800118 C221.814563,311.084907 216.925091,311.188366 209.08408,318.495271 C201.24623,325.799016 200.545477,331.542186 201.431886,333.116188 C202.908445,335.740576 210.233569,338.025366 221.560965,330.484691 C229.686385,325.074802 228.62696,316.420558 225.281198,313.800118" id="Fill-31" fill="#FFFFFF"></path>
                <path d="M227.736126,318.991401 C227.522029,316.718458 226.570837,314.811175 225.281514,313.800276 C221.814879,311.085065 216.924617,311.188524 209.084396,318.495428 C201.246546,325.799174 200.545793,331.542344 201.431412,333.116346 C202.907971,335.740734 210.233885,338.025524 221.561281,330.484849 C223.03626,329.503171 224.207869,328.414085 225.118769,327.273665" id="Stroke-33" stroke="#0055ED" stroke-linecap="round" stroke-linejoin="round"></path>
                <path d="M226.685312,324.774296 C227.051884,323.995588 227.319703,323.211351 227.497459,322.438172" id="Stroke-35" stroke="#0055ED" stroke-linecap="round" stroke-linejoin="round"></path>
                <path d="M155.463419,155.215886 C158.986936,151.699063 162.100429,147.138171 162.467792,141.814366 C163.354991,128.955414 166.902999,111.218875 164.242191,109.445063 C161.580592,107.672041 145.503558,145.765559 144.67087,163.078785 C144.67087,163.078785 150.476773,160.192194 155.463419,155.215886" id="Fill-37" fill="#FFFFFF"></path>
                <path d="M144.670712,163.07839 C144.670712,163.07839 147.552728,161.645756 151.001193,159.058487" id="Stroke-39" stroke="#0055ED" stroke-linecap="round" stroke-linejoin="round"></path>
                <path d="M164.242428,109.445379 C161.580829,107.671567 145.503005,145.765875 144.671107,163.078311" id="Stroke-41" stroke="#0F5BE8" stroke-width="2.185" stroke-linecap="round" stroke-linejoin="round"></path>
                <path d="M159.587909,150.134854 C161.152951,147.644726 162.258198,144.853697 162.468345,141.813892 C163.355544,128.95573 166.903552,111.21919 164.242744,109.445379" id="Stroke-43" stroke="#0055ED" stroke-linecap="round" stroke-linejoin="round"></path>
                <path d="M156.44471,154.195509 C156.960598,153.636356 157.462264,153.055089 157.94181,152.451709" id="Stroke-45" stroke="#0055ED" stroke-linecap="round" stroke-linejoin="round"></path>
                <path d="M153.178979,157.317924 C153.767549,156.816423 154.359278,156.284122 154.943108,155.724178" id="Stroke-47" stroke="#0055ED" stroke-linecap="round" stroke-linejoin="round"></path>
                <path d="M224.303699,135.142432 C224.94836,134.941832 225.604872,134.721487 226.274024,134.481399" id="Stroke-49" stroke="#0055ED" stroke-linecap="round" stroke-linejoin="round"></path>
                <path d="M218.871478,136.456206 C219.647284,136.324315 220.445211,136.163993 221.265258,135.97208" id="Stroke-51" stroke="#0055ED" stroke-linecap="round" stroke-linejoin="round"></path>
                <path d="M198.07309,130.935986 C198.07309,130.935986 203.740738,137.603181 215.210339,136.884495" id="Stroke-53" stroke="#0055ED" stroke-linecap="round" stroke-linejoin="round"></path>
                <path d="M219.544265,103.734984 C215.755299,99.4394526 209.77875,95.6888592 199.914483,98.7539367 C196.735417,99.7419325 201.196695,100.331887 209.17122,106.344367 C214.148386,110.09654 219.199023,117.006193 224.052945,117.82044 C226.724813,118.268237 225.342267,110.308197 219.544265,103.734984" id="Fill-55" fill="#FFFFFF"></path>
                <path d="M219.544265,103.734984 C215.755299,99.4394526 209.77875,95.6888592 199.914483,98.7539367 C196.735417,99.7419325 201.196695,100.331887 209.17122,106.344367 C214.148386,110.09654 219.199023,117.006193 224.052945,117.82044 C226.724813,118.268237 225.342267,110.308197 219.544265,103.734984 Z" id="Stroke-57" stroke="#0055ED" stroke-linecap="round" stroke-linejoin="round"></path>
                <path d="M231.375382,184.928814 C232.163828,186.295897 232.871692,187.859632 233.468161,189.648449" id="Stroke-59" stroke="#0055ED" stroke-linecap="round" stroke-linejoin="round"></path>
                <path d="M211.841509,175.952189 C212.053236,175.952189 222.944538,173.638968 229.875438,182.675457" id="Stroke-61" stroke="#0055ED" stroke-linecap="round" stroke-linejoin="round"></path>
                <path d="M237.254994,263.296787 C238.04423,264.953714 238.665981,266.900485 239.033343,269.188433" id="Stroke-63" stroke="#0055ED" stroke-linecap="round" stroke-linejoin="round"></path>
                <path d="M230.239719,255.875367 C232.031499,256.84046 233.897541,258.261247 235.474433,260.350175" id="Stroke-65" stroke="#0055ED" stroke-linecap="round" stroke-linejoin="round"></path>
                <path d="M223.282195,253.831613 C223.282195,253.831613 225.322833,253.885317 227.95204,254.848831" id="Stroke-67" stroke="#0055ED" stroke-linecap="round" stroke-linejoin="round"></path>
                <path d="M252.189887,287.527721 C252.189887,287.527721 263.678449,290.604645 262.566882,301.848528" id="Stroke-69" stroke="#0055ED" stroke-linecap="round" stroke-linejoin="round"></path>
                <polyline id="Stroke-71" stroke="#0F5BE8" stroke-width="2.185" stroke-linecap="round" stroke-linejoin="round" points="190.222994 100.182937 182.517868 68.1698183 157.29628 5.36929544 149.090277 7.31211701 157.538028 73.9524766 169.461894 121.197791"></polyline>
                <path d="M206.673947,168.526978 L197.868315,131.946648" id="Stroke-73" stroke="#0F5BE8" stroke-width="2.185" stroke-linecap="round" stroke-linejoin="round"></path>
                <path d="M222.825481,235.632272 L220.610247,226.135349" id="Stroke-75" stroke="#0F5BE8" stroke-width="2.185" stroke-linecap="round" stroke-linejoin="round"></path>
                <path d="M222.90954,333.44007 L230.290755,362.22463 C230.290755,362.22463 242.769219,366.431708 252.190282,357.627409 L244.132015,323.703059" id="Stroke-77" stroke="#0F5BE8" stroke-width="2.185" stroke-linecap="round" stroke-linejoin="round"></path>
                <path d="M200.680018,244.032764 L203.45143,255.876078" id="Stroke-79" stroke="#0F5BE8" stroke-width="2.185" stroke-linecap="round" stroke-linejoin="round"></path>
                <path d="M180.504328,164.389557 L186.807157,189.925815" id="Stroke-81" stroke="#0F5BE8" stroke-width="2.185" stroke-linecap="round" stroke-linejoin="round"></path>
                <path d="M156.406157,65.0249746 L178.782071,58.8687574" id="Stroke-83" stroke="#0055ED" stroke-linecap="round" stroke-linejoin="round"></path>
                <path d="M157.751651,74.8395405 C157.769822,74.915358 182.518184,68.1699762 182.518184,68.1699762" id="Stroke-85" stroke="#0055ED" stroke-linecap="round" stroke-linejoin="round"></path>
                <path d="M232.976212,362.851151 L234.041167,366.546461 C234.041167,366.546461 240.211272,368.658292 245.909732,366.546461 C251.226608,364.576787 251.86732,362.14826 251.86732,362.14826 L251.419375,358.311582" id="Stroke-87" stroke="#0055ED" stroke-linecap="round" stroke-linejoin="round"></path>
                <path d="M258.866557,345.164682 C260.180371,345.797284 261.455473,346.377761 262.642883,346.868205" id="Stroke-89" stroke="#0055ED" stroke-linecap="round" stroke-linejoin="round"></path>
                <path d="M247.784622,339.323976 C250.194992,340.657099 253.112559,342.261902 256.021436,343.749819" id="Stroke-91" stroke="#0055ED" stroke-linecap="round" stroke-linejoin="round"></path>
                <path d="M178.631097,272.192462 C180.070524,274.327196 181.761971,276.760462 183.695165,279.42118" id="Stroke-93" stroke="#0055ED" stroke-linecap="round" stroke-linejoin="round"></path>
                <path d="M175.323573,267.140336 C175.8521,267.973538 176.45884,268.916517 177.142213,269.955848" id="Stroke-95" stroke="#0055ED" stroke-linecap="round" stroke-linejoin="round"></path>
                <path d="M172.714353,262.86992 C172.714353,262.86992 173.135437,263.60756 173.957854,264.95016" id="Stroke-97" stroke="#0055ED" stroke-linecap="round" stroke-linejoin="round"></path>
                <path d="M281.438634,323.579619 C282.139387,323.859196 282.865422,324.125346 283.615156,324.374912" id="Stroke-99" stroke="#0055ED" stroke-linecap="round" stroke-linejoin="round"></path>
                <path d="M276.366745,321.103074 C277.231823,321.607734 278.152204,322.098968 279.127886,322.566508" id="Stroke-101" stroke="#0055ED" stroke-linecap="round" stroke-linejoin="round"></path>
                <path d="M266.119551,312.232514 C266.119551,312.232514 268.703727,315.97521 274.013493,319.613657" id="Stroke-103" stroke="#0055ED" stroke-linecap="round" stroke-linejoin="round"></path>
                <path d="M152.832552,6.42615878 L151.465807,0.394724481" id="Stroke-105" stroke="#0055ED" stroke-linecap="round" stroke-linejoin="round"></path>
                <path d="M197.106413,213.258154 C196.219214,212.495241 194.993093,211.598858 193.506264,210.864377" id="Stroke-107" stroke="#0055ED" stroke-linecap="round" stroke-linejoin="round"></path>
                <path d="M200.680018,217.675151 C200.13016,216.682417 199.503669,215.789982 198.846367,215.011274" id="Stroke-109" stroke="#0055ED" stroke-linecap="round" stroke-linejoin="round"></path>
                <path d="M190.727583,209.820702 C186.455912,208.715821 180.665019,210.957964 175.323652,218.252232 C166.338683,230.523599 164.937177,245.777117 166.819809,247.202643 C170.565324,250.039478 186.312127,248.532607 196.316229,237.40403 C201.999678,231.082752 203.434366,224.543499 201.707368,219.90679" id="Stroke-111" stroke="#0055ED" stroke-linecap="round" stroke-linejoin="round"></path>
                <path d="M206.47178,283.89891 C206.248992,283.635918 206.029365,283.405307 205.820798,283.209445 C205.361793,282.779023 204.829315,282.271204 204.208354,281.768914" id="Fill-113" fill="#FFFFFF"></path>
            </g>
        </g>
    </g>
</svg>