
<svg width="421px" height="447px" viewBox="0 0 421 447" version="1.1" xmlns="http://www.w3.org/2000/svg" xmlns:xlink="http://www.w3.org/1999/xlink">
    <!-- Generator: Sketch 43.1 (39012) - http://www.bohemiancoding.com/sketch -->
    <desc>Created with Sketch.</desc>
    <defs></defs>
    <g id="Page-1" stroke="none" stroke-width="1" fill="none" fill-rule="evenodd" stroke-linecap="round" stroke-linejoin="round">
        <g id="About" transform="translate(-132.000000, -289.000000)">
            <g id="Group-2" transform="translate(133.000000, 290.000000)">
                <g id="Group">
                    <g id="Page-1">
                        <path d="M143.01548,60.8882485 C144.774938,55.7003743 149.130086,49.0648952 154.610207,48.8642964 C171.609306,48.2400449 173.116021,80.0768713 173.116021,80.0768713 L173.950001,88.5843563 L175.596962,94.3665419 L180.904587,116.394985 C180.904587,116.394985 186.084715,133.799925 186.459706,137.729566 C186.834697,141.659207 187.58468,154.009506 187.834424,154.633009 C188.084168,155.256512 191.459088,187.442141 189.459636,194.428668 C188.561907,197.564895 184.61775,202.930165 180.3451,208.097081 C175.101974,214.439147 169.647352,220.838099 168.147388,221.748278 C158.613612,227.533458 147.085634,258.799177 130.835767,252.561901" id="Stroke-1" stroke="#0F5BE8" stroke-width="2.185"></path>
                        <path d="M79.2120084,286.669386 C79.2120084,286.669386 88.9572788,252.444087 87.336567,249.069087 C79.3920042,232.515195 79.2592573,223.941841 77.7592927,220.947829 C76.259328,217.953817 71.3949426,211.30262 69.8417292,207.387949 C63.8418706,197.65741 50.5874329,183.200823 50.5874329,179.458308 C50.5874329,175.715793 49.8374506,170.476272 50.5874329,165.236751 C51.3374153,159.997231 57.3372739,154.75771 57.3372739,154.75771 C57.3372739,154.75771 52.3588912,145.277171 53.8588559,137.792141 C54.4280924,134.951572 61.2941806,125.250973 61.2941806,125.250973 L67.7507785,110.609506 L62.086162,94.605015 C62.086162,94.605015 54.0876005,61.6940868 62.3374061,54.2090569 C63.0873884,38.490494 69.4442386,23.8939371 69.4442386,23.8939371 L75.5070957,15.8430389 C83.006919,9.10651198 93.9056622,0.910404192 93.9056622,0.910404192 C93.9056622,0.910404192 107.58759,11.4448353 94.7283928,26.8939371 C91.7817122,30.4336078 93.2104286,28.0578593 91.7817122,30.4336078 C91.2874739,31.2562126 91.7817122,45.6072605 91.7817122,45.6072605 C91.7817122,45.6072605 102.211716,44.6027695 105.211646,45.3512725 C108.211575,46.0997754 140.585312,55.2068114 142.835259,60.4463323 C145.085206,65.6858533 145.137705,70.9672904 136.460409,77.4126497 C131.086036,81.4044162 114.680923,77.0728293 114.680923,77.0728293 L133.085489,97.122979 L139.83533,110.596033 L145.226953,119.161901 C145.420448,119.469536 146.286678,120.429865 146.537922,120.69259 C147.182157,121.36774 148.973115,122.059356 150.173836,123.009955 C150.86382,123.557111 151.106814,124.793638 151.506555,125.841542 C151.553054,125.962051 151.601053,126.081063 151.652051,126.195584 C151.774299,126.468039 151.913045,126.718039 152.081041,126.92762 C152.723026,127.730763 153.465509,127.536153 154.27249,128.029416 C155.409463,128.724027 156.631184,130.006213 157.499664,130.583308 C152.696027,121.454566 145.892187,103.44259 144.158228,92.3407934 C143.768237,89.8452844 143.23125,88.9485778 142.846509,87.0997754 C142.846509,87.0997754 141.325545,80.1873503 141.493541,72.7030689" id="Stroke-3" stroke="#0F5BE8" stroke-width="2.185"></path>
                        <path d="M186.084115,200.621856 C186.084115,200.621856 174.897379,219.315719 173.397414,223.619611 C171.897449,227.923503 150.336957,301.927246 148.54525,326.780539" id="Stroke-5" stroke="#0F5BE8" stroke-width="2.185"></path>
                        <path d="M91.7819372,45.6071856 C91.7819372,45.6071856 75.9783096,46.1371257 62.3376311,54.208982" id="Stroke-7" stroke="#0F5BE8" stroke-width="2.185"></path>
                        <path d="M117.336235,77.661976 C117.336235,77.661976 100.532881,73.905988 98.4299306,73.7091317 C94.4512743,73.3371257 77.7379182,76.8558383 74.518244,77.661976" id="Stroke-9" stroke="#0055ED"></path>
                        <path d="M93.6286937,74.1416916 C93.6286937,74.1416916 90.6400141,80.3228293 81.8667209,80.2786677" id="Stroke-11" stroke="#0055ED"></path>
                        <path d="M96.2639066,73.749476 C96.2639066,73.749476 94.8396902,80.8834581 96.8706423,93.4657934" id="Stroke-13" stroke="#0F5BE8" stroke-width="2.185"></path>
                        <path d="M67.7510035,110.609656 C67.7510035,110.609656 80.0867128,89.6380988 88.8367566,91.1351048 C97.352056,92.5916916 111.312227,99.0101048 136.708129,117.060254 C138.087346,118.040045 139.165071,119.385105 139.813055,120.946482 C141.712011,125.521332 145.475422,131.712201 147.963113,137.166542 C149.579325,140.712201 154.275715,146.480913 152.157015,151.959207 C150.735048,155.636602 146.244904,160.364147 139.826555,155.520584 C135.398659,152.179266 124.586164,141.284805 124.586164,141.284805 C124.586164,141.284805 111.376725,134.204716 100.442733,128.838698 C95.7448438,126.533308 91.4669446,124.544536 88.8367566,123.569985" id="Stroke-15" stroke="#0F5BE8" stroke-width="2.185"></path>
                        <path d="M100.442583,128.838997 C100.442583,128.838997 91.0865536,138.664596 80.8365451,137.728967" id="Stroke-17" stroke="#0055ED"></path>
                        <path d="M57.3376489,154.757784 C57.3376489,154.757784 81.3273336,144.543713 90.6398641,145.551946 C99.9516447,146.560928 136.429285,166.93518 137.446261,171.779491 C138.266742,175.683683 139.62871,183.229341 139.158471,187.298204 C139.033974,188.375299 138.78798,189.21512 138.36499,189.689671 C136.343037,191.95988 132.214384,192.462126 129.687694,190.948653 C127.160254,189.43518 124.275072,184.077395 124.275072,184.077395 L91.5533426,172.130539" id="Stroke-19" stroke="#0F5BE8" stroke-width="2.185"></path>
                        <path d="M71.3950926,181.366916 C81.7560985,184.393114 98.6187011,174.710479 98.6187011,174.710479" id="Stroke-21" stroke="#0055ED"></path>
                        <path d="M65.9075469,187.298278 C76.2685528,190.324476 99.5682537,175.05726 99.5682537,175.05726" id="Stroke-23" stroke="#0055ED"></path>
                        <path d="M100.442583,175.375973 C100.442583,175.375973 87.5683865,195.995734 74.1752021,198.265943" id="Stroke-25" stroke="#0055ED"></path>
                        <path d="M135.828774,75.7738772 C121.040623,73.7716317 117.877197,65.5081587 122.146847,58.2042665 C125.058278,53.2237275 140.513914,58.2042665 140.513914,58.2042665 C140.513914,58.2042665 145.823789,62.9901946 142.523867,68.7042665 C139.224694,74.4175898 135.828774,75.7738772 135.828774,75.7738772 Z" id="Stroke-27" stroke="#0055ED"></path>
                        <path d="M162.896911,138.414596 C162.896911,138.414596 161.494444,134.285853 157.500039,130.583757" id="Stroke-29" stroke="#0055ED"></path>
                        <path d="M91.7819372,30.4339072 C91.7819372,30.4339072 89.2372472,37.1539671 83.897373,40.3029192" id="Stroke-31" stroke="#0055ED"></path>
                        <path d="M78.1954824,13.4866018 C78.1954824,13.4866018 85.8888011,17.4895958 95.142083,2.04423653" id="Stroke-33" stroke="#0055ED"></path>
                        <path d="M152.080816,145.48226 C152.080816,145.48226 147.66342,134.499476 142.428544,139.048877 C139.343866,141.729266 140.264095,149.622979 145.915962,157.526422" id="Stroke-35" stroke="#0055ED"></path>
                        <path d="M143.918159,91.0582335 C143.918159,91.0582335 145.892112,95.4901198 153.316937,95.0312874" id="Stroke-37" stroke="#0055ED"></path>
                        <path d="M151.590478,129.86235 C151.590478,129.86235 151.975969,128.623578 151.652726,126.196183" id="Stroke-39" stroke="#0055ED"></path>
                        <path d="M147.625921,121.454491 C147.625921,121.454491 145.062482,120.500898 144.158003,120.646108" id="Stroke-41" stroke="#0055ED"></path>
                        <path d="M111.655719,134.499251 C111.655719,134.499251 107.962056,146.100299 105.468365,147.735778" id="Stroke-43" stroke="#0055ED"></path>
                        <path d="M123.229896,140.561452 C123.229896,140.561452 119.113993,155.343638 116.320309,156.763548" id="Stroke-45" stroke="#0055ED"></path>
                        <path d="M138.195869,175.674551 C138.195869,175.674551 141.456042,190.64985 146.383426,195.327246 C151.310809,200.003892 163.684768,204.680539 162.897286,217.897605" id="Stroke-47" stroke="#0055ED"></path>
                        <path d="M145.891962,55.0405689 C145.891962,55.0405689 149.567626,50.1850299 155.835228,50.7157186 C161.040855,51.1565868 162.865562,52.1588323 166.537476,55.9911677" id="Stroke-49" stroke="#0055ED"></path>
                        <path d="M95.9269395,85.1988772 C95.9269395,85.1988772 98.1453873,89.8201347 100.442583,89.7400449" id="Stroke-51" stroke="#0055ED"></path>
                        <path d="M139.158246,187.298278 C139.158246,187.298278 138.645258,183.221931 135.774326,185.289296 C133.642876,186.823728 133.45388,189.450225 133.89337,191.814746" id="Stroke-53" stroke="#0055ED"></path>
                        <path d="M340.227458,110.408982 C339.547974,114.072904 339.412227,116.812425 338.01276,119.685928 C338.01276,121.777246 336.047056,127.050449 335.824312,128.732335" id="Stroke-55" stroke="#0055ED"></path>
                        <path d="M293.174167,275.266392 C293.174167,275.266392 290.820722,247.972231 289.476004,242.269386 C288.131285,236.565793 279.055749,209.056063 279.055749,205.030614 C279.055749,197.422829 287.459301,170.139895 288.80402,164.436302 C290.148738,158.733458 290.48473,152.841243 293.174167,147.735704 C295.862853,142.630165 303.931163,131.663099 307.964568,121.043338 C311.998723,110.423578 325.28316,78.2521707 333.134725,80.3277695 C336.469896,81.2087575 338.923089,84.3659431 340.472552,88.3988772" id="Stroke-57" stroke="#0F5BE8" stroke-width="2.185"></path>
                        <path d="M373.616371,260.795584 C373.616371,260.795584 374.829842,255.805314 374.829842,254.558308 C374.829842,253.310554 381.579683,243.580015 382.079922,242.33226 C382.58016,241.085254 395.579603,221.124925 395.829348,219.627919 C396.079842,218.130913 404.829135,208.400374 405.329374,207.651871 C405.829612,206.903368 414.329162,195.17732 415.579382,189.937799 C416.828853,184.698278 413.078941,177.749177 413.078941,177.749177 C413.078941,177.749177 414.079417,175.466243 414.8294,174.96774 C415.579382,174.468488 416.828853,169.228967 417.079347,167.48271 C417.329091,165.735704 413.078941,147.52238 411.829471,145.276871 C410.57925,143.031362 408.579047,128.061302 408.579047,126.813548 C408.579047,125.566542 411.829471,106.603967 411.829471,105.606213 L411.829471,83.1511228 C411.829471,83.1511228 409.079285,77.9116018 405.579118,75.9153443 C402.0797,73.9198353 365.080072,71.6743263 361.080416,74.4183383 C357.080761,77.1630988 335.581017,90.8854042 331.330867,95.8756737 C327.081468,100.865943 335.158777,108.361452 340.227158,110.409356 C344.214064,112.019386 369.080478,99.3689371 369.080478,99.3689371 C369.080478,99.3689371 387.579542,100.615943 389.829489,100.615943 C392.079436,100.615943 394.829621,101.614446 394.829621,101.614446" id="Stroke-59" stroke="#0F5BE8" stroke-width="2.185"></path>
                        <path d="M390.090333,73.7747006 L390.090333,64.9371257 C390.090333,64.9371257 379.58008,54.2088323 379.58008,49.9670659 C379.58008,45.7252994 381.590033,38.9887725 384.835207,37.991018 C388.07963,36.9932635 411.079338,55.8832335 411.079338,55.8832335 C411.079338,55.8832335 418.828906,79.6579341 418.828906,84.8974551 C418.828906,90.136976 411.829321,98.869012 411.829321,98.869012" id="Stroke-61" stroke="#0F5BE8" stroke-width="2.185"></path>
                        <path d="M371.088106,99.5023204 C371.088106,99.5023204 370.517369,105.405015 366.756958,108.360853" id="Stroke-63" stroke="#0055ED" stroke-width="1.5"></path>
                        <path d="M408.579122,126.813548 C408.579122,126.813548 400.829555,104.49244 396.329661,104.175823 C391.829767,103.859207 386.330146,101.863698 383.079723,103.110704 C379.83005,104.358458 350.830483,113.091243 347.580809,115.086751 C344.331136,117.083009 323.980366,143.851722 322.605648,146.669087 C321.893915,148.128668 322.09641,149.850225 323.098386,151.126422 C325.019841,153.571781 328.763753,156.804566 334.330872,155.00741 C342.831171,152.26265 350.830483,142.032859 350.830483,142.032859 L359.330783,137.043338 L381.579758,134.049326 L389.079582,129.116692" id="Stroke-65" stroke="#0F5BE8" stroke-width="2.185"></path>
                        <path d="M381.579758,134.048952 C381.579758,134.048952 384.830182,136.04521 385.32967,137.791467" id="Stroke-67" stroke="#0055ED"></path>
                        <path d="M413.596129,176.689147 L404.669839,159.904716 C404.669839,159.904716 391.851141,141.296183 389.753441,140.597829 C387.65574,139.900225 385.780034,138.241542 383.455089,137.791692 C381.130144,137.341841 377.755973,135.915195 373.616071,137.791692 C369.476919,139.668189 351.99633,146.878518 351.298097,147.111302 C350.598363,147.343338 342.458805,151.763249 342.450555,152.460853 C342.440806,153.158458 339.644871,171.069386 339.644871,171.766991 C339.644871,172.465344 338.01291,182.32238 338.01291,182.32238 C338.01291,182.32238 341.508578,186.653967 345.703979,183.862799 C349.89863,181.071632 357.823693,174.093338 358.056188,172.465344 C358.289432,170.83735 358.988416,167.055913 357.357204,166.969087" id="Stroke-69" stroke="#0F5BE8" stroke-width="2.185"></path>
                        <path d="M380.856175,163.182111 C380.856175,163.182111 371.263151,168.036153 368.189724,168.286153 C365.117046,168.536153 358.300457,168.890943 358.300457,168.890943" id="Stroke-71" stroke="#0055ED"></path>
                        <path d="M374.245456,166.265644 C374.245456,166.265644 374.978939,171.388398 375.804669,172.799326 C373.616221,175.150374 368.855333,181.399626 370.033555,184.800075 C367.794858,188.906362 357.994089,197.606213 358.300082,198.664596" id="Stroke-73" stroke="#0055ED"></path>
                        <path d="M375.804744,172.798952 C375.804744,172.798952 376.865969,175.385778 384.994278,179.971108" id="Stroke-75" stroke="#0055ED"></path>
                        <path d="M370.033405,184.800225 C370.033405,184.800225 376.511753,195.842141 380.398911,197.253817" id="Stroke-77" stroke="#0055ED"></path>
                        <path d="M338.012685,119.685928 C338.012685,119.685928 335.69374,121.557186 331.371591,121.557186" id="Stroke-79" stroke="#0055ED"></path>
                        <path d="M328.360337,82.2973802 C328.360337,82.2973802 331.618261,80.4523204 335.741663,81.5892964" id="Stroke-81" stroke="#0055ED"></path>
                        <path d="M384.835357,37.9913174 C384.835357,37.9913174 388.150278,39.3760479 389.407999,42.780988 C390.664219,46.1859281 396.948321,49.5908683 398.026046,49.4112275 C399.10302,49.2323353 401.731708,48.4935629 400.926977,47.8842814" id="Stroke-83" stroke="#0055ED"></path>
                        <path d="M338.410401,89.902994 C338.410401,89.902994 345.291488,86.0025449 348.355166,90.642515 C353.110804,97.8438623 341.065338,106.489072 335.158477,107.136527" id="Stroke-85" stroke="#0055ED"></path>
                        <path d="M328.88105,137.791467 C328.925299,137.739072 335.158402,132.870808 335.312149,138.992814 C335.432896,143.794461 334.025929,148.141766 328.182817,155.005539" id="Stroke-87" stroke="#0055ED"></path>
                        <path d="M339.644497,171.767216 C339.644497,171.767216 344.548631,171.303892 340.621723,184.30015" id="Stroke-89" stroke="#0055ED"></path>
                        <path d="M360.776599,136.848503 C360.776599,136.848503 363.460035,142.116467 365.38149,141.310329" id="Stroke-91" stroke="#0055ED"></path>
                        <path d="M329.840503,136.514147 C329.840503,136.514147 325.801848,140.109955 321.799192,139.924326" id="Stroke-93" stroke="#0055ED"></path>
                        <path d="M358.300307,198.664371 C358.300307,198.664371 314.581587,214.138922 314.081349,236.843263" id="Stroke-95" stroke="#0055ED"></path>
                        <path d="M374.747944,255.390868 C378.885597,256.137874 377.079639,259.298802 377.079639,259.298802 C362.829975,268.031587 345.080893,268.53009 338.01306,270.027096 C330.945226,271.524102 305.581574,274.019611 297.832007,275.266617 C290.081689,276.514371 265.832511,285.496407 265.832511,285.496407 C265.832511,285.496407 275.932523,267.748653 292.257388,265.269611" id="Stroke-97" stroke="#0F5BE8" stroke-width="2.185"></path>
                        <path d="M265.832736,285.496183 C265.832736,285.496183 289.83217,309.69753 292.582355,313.440045 C295.331791,317.18256 298.33172,324.418338 296.831755,327.661602 C295.331791,330.905614 289.582426,342.133159 289.582426,343.130913" id="Stroke-99" stroke="#0F5BE8" stroke-width="2.185"></path>
                        <path d="M297.097624,326.841467 C298.228597,319.71497 300.852036,312.117665 304.749694,306.040569 C305.414178,305.005389 306.137911,303.928293 306.215159,302.701497" id="Stroke-101" stroke="#0055ED"></path>
                        <path d="M377.079864,259.298578 C377.079864,259.298578 374.693421,274.571781 374.895166,277.184057 C375.096161,279.796332 379.525557,291.249177 379.928297,294.463249 C380.331038,297.678817 381.740255,306.719985 383.552212,308.528368 C385.364169,310.3375 391.001036,316.566542 391.403777,317.369686 C391.806517,318.173578 396.034168,324.40262 396.034168,324.40262 C396.034168,324.40262 402.879256,334.047081 404.691214,344.696781 C404.691214,344.696781 410.328831,363.383159 400.866304,393.321781" id="Stroke-103" stroke="#0F5BE8" stroke-width="2.185"></path>
                        <path d="M324.953918,394.704491 C324.583426,392.863174 322.886966,391.628892 321.288754,390.637874 C312.997699,385.499401 303.760167,381.885629 294.179143,380.030838 C291.31121,379.475449 288.37353,379.064521 285.710342,377.866168 C285.199604,377.636377 284.678367,377.357186 284.382874,376.883383 C284.049132,376.348204 284.069381,375.670808 284.142129,375.04506 C284.406123,372.786078 285.225104,370.592964 286.508324,368.713473 C288.074287,366.42006 290.418731,364.316018 290.437481,361.53982 C290.455481,358.767365 288.130535,356.616916 286.014085,354.820509 C285.426849,354.322006 284.814864,353.783832 284.574869,353.052545 C284.310125,352.24491 284.55012,351.366168 284.837363,350.566018 C285.888838,347.635629 287.583798,344.937275 289.767747,342.714222 C289.767747,342.714222 293.04367,347.710479 301.657217,347.911078 C310.269264,348.112425 349.326093,348.112425 363.218766,339.472455 C377.109939,330.832485 384.417016,331.609431 392.138085,318.562275" id="Stroke-105" stroke="#0F5BE8" stroke-width="2.185"></path>
                        <path d="M284.665842,353.626048 C279.772957,359.902994 278.342741,368.194162 278.056248,376.141766 C277.769005,384.089371 278.457488,392.11482 277.11652,399.954641 C276.292289,404.771257 274.712827,409.441168 273.998093,414.275749 C272.766622,422.612575 274.211088,431.322156 278.068997,438.817665" id="Stroke-107" stroke="#0F5BE8" stroke-width="2.185"></path>
                        <path d="M286.830816,346.454566 C286.830816,346.454566 292.753426,353.31235 298.391044,353.625973 C304.027911,353.938847 330.401789,356.188099 349.930579,350.039895 C369.459369,343.89244 388.372423,334.649925 389.78689,331.837051 C391.202107,329.024177 396.034243,324.402171 396.034243,324.402171" id="Stroke-109" stroke="#0055ED"></path>
                        <path d="M300.709839,373.654341 C302.452798,369.480689 306.280708,366.45 310.454359,364.688772 C314.628011,362.929042 319.174404,362.283084 323.663798,361.669311 C333.292071,360.354192 342.956343,359.115419 352.382871,356.763623 C365.58856,353.467964 378.243762,347.987425 389.674243,340.611677" id="Stroke-111" stroke="#0055ED"></path>
                        <path d="M374.335604,366.841018 C380.180966,357.958533 392.110935,354.880689 398.659781,346.500449" id="Stroke-113" stroke="#0055ED"></path>
                        <path d="M403.441293,383.973278 C403.441293,383.973278 404.489768,387.494237 409.92564,398.143937" id="Stroke-115" stroke="#0F5BE8" stroke-width="2.185"></path>
                        <path d="M166.102711,330.654865 C155.890952,332.085254 147.828642,326.54259 106.443867,305.62268 C65.0583419,284.702769 80.8642195,280.698278 80.8642195,280.698278 C80.8642195,280.698278 73.8376351,280.053817 72.7621604,284.881662 C71.6874357,289.709506 68.283266,300.549326 66.1338166,305.767889 C63.9836173,310.987201 48.9344719,341.740943 47.1427641,343.70726 C45.3518063,345.674326 42.4846239,347.105464 42.4846239,347.105464 C42.4846239,347.105464 36.5732632,346.746931 32.0936187,354.793338 C27.6147243,362.839746 23.1365798,379.468488 23.3150756,380.362201 C23.4943214,381.256662 24.9275376,391.805314 26.8984912,397.884656 C28.8694447,403.963997 32.2728645,410.937799 33.7060807,416.12268 C35.139297,421.30756 43.0223612,426.136153 38.1849752,444.730464" id="Stroke-117" stroke="#0F5BE8" stroke-width="2.185"></path>
                        <path d="M151.927745,304.686751 C151.949494,304.578219 171.835276,314.205464 171.65678,330.118638 C171.65678,330.118638 171.65678,339.058757 166.102411,351.575225 C160.548792,364.090943 146.037384,404.14259 146.395875,406.824476 C146.753617,409.507111 146.740117,413.08271 146.389125,414.870883 C146.037384,416.659057 146.740117,424.883608 146.389125,427.20771 C146.037384,429.53256 145.141155,440.260853 145.141155,441.870135" id="Stroke-119" stroke="#0F5BE8" stroke-width="2.185"></path>
                        <path d="M24.4245245,387.119311 C24.4245245,387.119311 21.7028386,400.923952 18.2994188,403.964371 C14.894499,407.003293 9.87861722,414.691916 7.37067631,419.877545 C4.86273541,425.062425 0.562336749,439.724102 0.562336749,439.724102" id="Stroke-121" stroke="#0055ED" stroke-width="1.5"></path>
                        <path d="M43.3450786,346.653368 C42.01311,351.02238 45.4727785,355.268638 48.6684532,358.53735 C53.8485811,363.838249 59.2229545,369.273129 66.0627933,372.141392 C69.8599538,373.733458 73.9983563,374.479716 77.6552701,376.369686 C80.6859487,377.936302 83.2658879,380.226722 85.8863261,382.410105 C93.0824066,388.404117 100.823724,393.746931 108.983532,398.350225 C111.525972,399.785105 114.14416,401.161602 116.982843,401.847231 C121.437738,402.923578 126.202376,402.243937 130.602522,403.524626 C133.735199,404.437799 136.582132,406.320284 139.816805,406.750674 C143.051479,407.180314 145.14093,408.109207 146.693393,405.032111" id="Stroke-123" stroke="#0F5BE8" stroke-width="2.185"></path>
                        <path d="M38.5781909,348.542216 C37.811709,348.695659 37.513966,349.642515 37.5379654,350.422455 C37.5694647,351.404491 37.8709576,352.358832 38.2309491,353.272754 C41.3538755,361.211377 48.6564534,366.609581 55.6080396,371.569162 C59.2132047,374.141766 62.8183697,376.71512 66.4235348,379.286976 C70.3721917,382.104341 74.3260986,384.925449 78.5027501,387.392515 C82.7011512,389.872305 87.1050474,391.983084 91.5029438,394.09012 C100.540981,398.42021 109.578268,402.750299 118.616305,407.080389 C121.740731,408.577395 124.899657,410.087126 128.284327,410.831138 C133.162212,411.903743 138.35209,411.352096 143.086728,412.938922 C143.84196,413.191916 144.632442,413.502545 145.410923,413.336377 C146.190155,413.171707 146.861389,412.272006 146.465399,411.581886" id="Stroke-125" stroke="#0055ED"></path>
                    </g>
                </g>
            </g>
        </g>
    </g>
</svg>