<svg xmlns="http://www.w3.org/2000/svg" xmlns:xlink="http://www.w3.org/1999/xlink" viewBox="0 0 516.9 516.47"><defs><style>.cls-1{fill:url(#linear-gradient);}.cls-2{fill:url(#linear-gradient-2);}.cls-3{fill:url(#radial-gradient);}.cls-4{fill:url(#linear-gradient-3);}</style><linearGradient id="linear-gradient" x1="167.36" y1="504.12" x2="167.36" y2="208.85" gradientUnits="userSpaceOnUse"><stop offset="0.11" stop-color="#111"/><stop offset="0.22" stop-color="#141c16"/><stop offset="0.42" stop-color="#1c3822"/><stop offset="0.68" stop-color="#296636"/><stop offset="0.88" stop-color="#359048"/><stop offset="0.93" stop-color="#348e47"/><stop offset="0.95" stop-color="#338744"/><stop offset="0.96" stop-color="#2f7c3f"/><stop offset="0.97" stop-color="#2a6b38"/><stop offset="0.98" stop-color="#24552e"/><stop offset="0.99" stop-color="#1c3923"/><stop offset="1" stop-color="#141a15"/><stop offset="1" stop-color="#111"/></linearGradient><linearGradient id="linear-gradient-2" x1="5118.65" y1="504.12" x2="5118.65" y2="208.85" gradientTransform="matrix(-1, 0, 0, 1, 5467.27, 0)" xlink:href="#linear-gradient"/><radialGradient id="radial-gradient" cx="258.45" cy="258.23" r="258.34" gradientTransform="translate(0)" gradientUnits="userSpaceOnUse"><stop offset="0" stop-color="#002300"/><stop offset="0.57" stop-color="#00310a"/><stop offset="1" stop-color="#003f14"/></radialGradient><linearGradient id="linear-gradient-3" x1="258.45" y1="519.74" x2="258.45" y2="-3.79" gradientUnits="userSpaceOnUse"><stop offset="0.28" stop-color="#111"/><stop offset="0.37" stop-color="#111" stop-opacity="0.7"/><stop offset="0.63" stop-color="#111" stop-opacity="0.17"/><stop offset="1" stop-color="#111" stop-opacity="0"/></linearGradient></defs><title>tele-tap-logo</title><g id="Layer_2" data-name="Layer 2"><g id="Layer_1-2" data-name="Layer 1"><path class="cls-1" d="M98.9,207.31l37.78,73.52a5.72,5.72,0,0,0,5.12,3.18h17.31V491.85l76.7,15.28V207.31Z"/><path class="cls-2" d="M418,207.31l-38.8,73.52A5.72,5.72,0,0,1,374,284H356V485.54a5.72,5.72,0,0,1-5.72,5.72L285,507.13a5.72,5.72,0,0,1-5.72-5.72V213a5.72,5.72,0,0,1,5.72-5.72Z"/><path class="cls-3" d="M516.43,242.86A259.11,259.11,0,0,0,272.64.38c-2.81-.15-5.66-.24-8.51-.3-1.89,0-3.79-.08-5.68-.08s-3.79,0-5.68.08c-2.85.06-5.7.15-8.51.3a258.3,258.3,0,0,0-178.56,430c46.3,51.81,109.81,82.37,178.85,86.06l.65,0a11.87,11.87,0,0,0,6.71-2,2.08,2.08,0,0,0,.87-1.73V188.61a2.16,2.16,0,0,0-2.16-2.16H97.77a5.72,5.72,0,0,0-5.11,8.27l10.88,21.76a1.86,1.86,0,0,0,1.93,1.2H223.63a2.16,2.16,0,0,1,2.16,2.16v260.9a2.18,2.18,0,0,1-2.5,2.15A227.52,227.52,0,0,1,31.34,251.09C35.05,134.24,129.34,37.81,246,31.55c2.22-.12,4.49-.2,6.77-.25,1.89,0,3.78-.07,5.68-.07s3.79,0,5.68.07c2.28.05,4.55.13,6.77.25,116.66,6.25,210.95,102.69,214.66,219.53A227.52,227.52,0,0,1,293.6,482.89a2.18,2.18,0,0,1-2.5-2.15V219.83a2.16,2.16,0,0,1,2.16-2.16H411.44c1.32-.1,1.67-.54,1.93-1.2l10.88-21.76a5.72,5.72,0,0,0-5.11-8.27H266.29a2.16,2.16,0,0,0-2.16,2.16V512.7l.87,1.73a11.87,11.87,0,0,0,6.71,2l.65,0c69-3.68,132.55-34.25,178.85-86.06A256.78,256.78,0,0,0,516.43,242.86Z"/><path class="cls-4" d="M516.43,242.86A259.11,259.11,0,0,0,272.64.38c-2.81-.15-5.66-.24-8.51-.3-1.89,0-3.79-.08-5.68-.08s-3.79,0-5.68.08c-2.85.06-5.7.15-8.51.3a258.3,258.3,0,0,0-178.56,430c46.3,51.81,109.81,82.37,178.85,86.06l.65,0a11.87,11.87,0,0,0,6.71-2,2.08,2.08,0,0,0,.87-1.73V188.61a2.16,2.16,0,0,0-2.16-2.16H97.77a5.72,5.72,0,0,0-5.11,8.27l10.88,21.76a1.93,1.93,0,0,0,1.93,1.2H223.63a2.16,2.16,0,0,1,2.16,2.16l-.45,260.89a1.74,1.74,0,0,1-2.24,1.79A226.85,226.85,0,0,1,31.34,251.09C35.05,134.24,129.34,37.81,246,31.55c2.22-.12,4.49-.2,6.77-.25,1.89,0,3.78-.07,5.68-.07s3.79,0,5.68.07c2.28.05,4.55.13,6.77.25,116.66,6.25,210.95,102.69,214.66,219.53A227,227,0,0,1,293.6,482.6a2,2,0,0,1-2.24-2.24l-.26-260.53a2.16,2.16,0,0,1,2.16-2.16H411.44a1.85,1.85,0,0,0,1.93-1.2l10.88-21.76a5.72,5.72,0,0,0-5.11-8.27H266.29a2.16,2.16,0,0,0-2.16,2.16V512.7l.87,1.73a11.87,11.87,0,0,0,6.71,2l.65,0c69-3.68,132.55-34.25,178.85-86.06A256.78,256.78,0,0,0,516.43,242.86Z"/></g></g></svg>