<?xml version="1.0" encoding="utf-8"?>
<!-- Generator: Adobe Illustrator 21.0.0, SVG Export Plug-In . SVG Version: 6.00 Build 0)  -->
<svg version="1.1" id="Layer_1" xmlns="http://www.w3.org/2000/svg" xmlns:xlink="http://www.w3.org/1999/xlink" x="0px" y="0px"
	 viewBox="0 0 46 47" style="enable-background:new 0 0 46 47;" xml:space="preserve">
<style type="text/css">
	.st0{fill:#FFFFFF;}
</style>
<path id="Dribbble" class="st0" d="M34,39.3c-0.2-1.2-1.2-7-3.8-14c6.3-1,11.8,0.7,12.2,0.9C41.5,31.6,38.4,36.3,34,39.3L34,39.3
	L34,39.3z M23,42.6c-4.8,0-9.1-1.7-12.5-4.5c0.3,0.2,0.4,0.3,0.4,0.3s3.8-8.2,15.4-12.3c0,0,0.1,0,0.1,0c2.8,7.2,3.9,13.2,4.2,14.9
	C28.3,42.1,25.7,42.6,23,42.6L23,42.6L23,42.6z M3.4,23c0-0.2,0-0.4,0-0.6c0.3,0,10.1,0.2,20.2-2.8c0.6,1.1,1.1,2.2,1.6,3.3
	c-0.3,0.1-0.5,0.1-0.8,0.2c-10.6,3.4-16,13-16,13s0,0,0,0C5.3,32.6,3.4,28,3.4,23L3.4,23L3.4,23z M14.6,5.2
	c0.3,0.3,3.9,5.3,7.3,11.3C12.5,19.1,4.3,19,3.8,19C5.1,12.9,9.1,7.8,14.6,5.2L14.6,5.2L14.6,5.2z M18.3,3.9
	C18.3,3.9,18.3,3.9,18.3,3.9C18.3,3.9,18.3,3.9,18.3,3.9C18.3,3.9,18.3,3.9,18.3,3.9L18.3,3.9L18.3,3.9z M36,8.3
	c0,0.1-2.8,4.3-10.3,7.1c-3.4-6.2-7-11.1-7.3-11.5c1.5-0.4,3-0.6,4.6-0.6C28,3.4,32.5,5.2,36,8.3L36,8.3L36,8.3z M42.6,22.8
	c-0.3-0.1-6.9-1.5-13.7-0.6c-0.1-0.3-0.3-0.7-0.4-1c-0.4-1-0.8-1.9-1.3-2.9c7.8-3.2,10.9-7.7,10.9-7.8
	C40.9,13.9,42.6,18.1,42.6,22.8L42.6,22.8L42.6,22.8z M45.5,18.4c-0.3-1.5-0.8-2.9-1.3-4.3c-0.6-1.4-1.3-2.7-2.1-3.9
	c-0.8-1.2-1.8-2.4-2.8-3.4c-1-1-2.2-2-3.4-2.8c-1.2-0.8-2.5-1.5-3.9-2.1c-1.4-0.6-2.8-1-4.3-1.3C26.1,0.2,24.6,0,23,0
	c-1.6,0-3.1,0.2-4.6,0.5c-1.5,0.3-2.9,0.8-4.3,1.3c-1.4,0.6-2.7,1.3-3.9,2.1C8.9,4.8,7.8,5.7,6.7,6.7c-1,1-2,2.2-2.8,3.4
	c-0.8,1.2-1.5,2.5-2.1,3.9c-0.6,1.4-1,2.8-1.3,4.3C0.2,19.9,0,21.4,0,23c0,1.6,0.2,3.1,0.5,4.6c0.3,1.5,0.8,2.9,1.3,4.3
	c0.6,1.4,1.3,2.7,2.1,3.9c0.8,1.2,1.8,2.4,2.8,3.4c1,1,2.2,2,3.4,2.8c1.2,0.8,2.5,1.5,3.9,2.1c1.4,0.6,2.8,1,4.3,1.3
	c1.5,0.3,3.1,0.5,4.6,0.5c1.6,0,3.1-0.2,4.6-0.5c1.5-0.3,2.9-0.7,4.3-1.3c1.4-0.6,2.7-1.3,3.9-2.1c1.2-0.8,2.4-1.8,3.4-2.8
	c1-1,2-2.2,2.8-3.4c0.8-1.2,1.5-2.5,2.1-3.9c0.6-1.4,1-2.8,1.3-4.3c0.3-1.5,0.5-3.1,0.5-4.6C46,21.4,45.8,19.9,45.5,18.4L45.5,18.4
	L45.5,18.4z"/>
</svg>
