<svg xmlns="http://www.w3.org/2000/svg" xmlns:xlink="http://www.w3.org/1999/xlink" viewBox="0 0 1400 603.22"><defs><style>.cls-1,.cls-9{fill:#017dc3;}.cls-10,.cls-11,.cls-2,.cls-4,.cls-8{fill:none;}.cls-10,.cls-11,.cls-2,.cls-4,.cls-8,.cls-9{stroke:#fff;}.cls-2,.cls-8{stroke-miterlimit:10;}.cls-3{fill:url(#linear-gradient);}.cls-10,.cls-11,.cls-4,.cls-9{stroke-linecap:round;stroke-linejoin:round;}.cls-4{stroke-width:1.76px;}.cls-5{fill:url(#linear-gradient-2);}.cls-6{fill:url(#linear-gradient-3);}.cls-7{fill:url(#linear-gradient-4);}.cls-8{stroke-width:0.41px;}.cls-11,.cls-9{stroke-width:1.21px;}.cls-10{stroke-width:0.61px;}.cls-12{fill:#fff;}</style><linearGradient id="linear-gradient" x1="884.02" y1="151.66" x2="884.02" y2="194.21" gradientUnits="userSpaceOnUse"><stop offset="0" stop-color="#fff"/><stop offset="1" stop-color="#fff" stop-opacity="0"/></linearGradient><linearGradient id="linear-gradient-2" x1="1174.02" y1="385.66" x2="1174.02" y2="428.21" gradientTransform="matrix(-1, 0, 0, 1, 2348.04, 0)" xlink:href="#linear-gradient"/><linearGradient id="linear-gradient-3" x1="2190.81" y1="465.66" x2="2190.81" y2="508.21" gradientTransform="translate(-2033.58)" xlink:href="#linear-gradient"/><linearGradient id="linear-gradient-4" x1="603.76" y1="237.96" x2="603.76" y2="274.96" xlink:href="#linear-gradient"/></defs><title>go-go-background</title><g id="Layer_2" data-name="Layer 2"><g id="Layer_1-2" data-name="Layer 1"><rect class="cls-1" width="1400" height="603.22"/><line class="cls-2" x1="767.89" y1="240.05" x2="767.89" y2="246.54"/><line class="cls-2" x1="771.13" y1="243.29" x2="764.64" y2="243.29"/><line class="cls-2" x1="607.89" y1="140.05" x2="607.89" y2="146.54"/><line class="cls-2" x1="611.13" y1="143.29" x2="604.64" y2="143.29"/><line class="cls-2" x1="1287.89" y1="220.05" x2="1287.89" y2="226.54"/><line class="cls-2" x1="1291.13" y1="223.29" x2="1284.64" y2="223.29"/><line class="cls-2" x1="1097.89" y1="140.05" x2="1097.89" y2="146.54"/><line class="cls-2" x1="1101.13" y1="143.29" x2="1094.64" y2="143.29"/><line class="cls-2" x1="257.89" y1="140.05" x2="257.89" y2="146.54"/><line class="cls-2" x1="261.13" y1="143.29" x2="254.64" y2="143.29"/><line class="cls-2" x1="127.89" y1="380.05" x2="127.89" y2="386.54"/><line class="cls-2" x1="131.13" y1="383.29" x2="124.64" y2="383.29"/><path class="cls-3" d="M925,194a9,9,0,0,0-5.49,1.86,34.14,34.14,0,0,0-65.26-7.9A15.76,15.76,0,0,0,834,203.09H934A9.08,9.08,0,0,0,925,194Z"/><path class="cls-4" d="M902.94,171.6A34.15,34.15,0,0,0,854.21,188a15.78,15.78,0,0,0-17.28,5.95"/><path class="cls-4" d="M910.33,177.41a34.33,34.33,0,0,0-4.24-3.73"/><path class="cls-4" d="M933.72,200.66a9.07,9.07,0,0,0-14.25-4.79,34,34,0,0,0-6.29-15.09"/><path class="cls-4" d="M834.76,198.24a15.76,15.76,0,0,0-.57,2.4"/><path class="cls-5" d="M1133.07,428a9,9,0,0,1,5.49,1.86,34.14,34.14,0,0,1,65.26-7.9A15.76,15.76,0,0,1,1224,437.09H1124A9.08,9.08,0,0,1,1133.07,428Z"/><path class="cls-4" d="M1155.1,405.6A34.15,34.15,0,0,1,1203.83,422a15.78,15.78,0,0,1,17.28,5.95"/><path class="cls-4" d="M1147.72,411.41a34.33,34.33,0,0,1,4.24-3.73"/><path class="cls-4" d="M1124.32,434.66a9.07,9.07,0,0,1,14.25-4.79,34,34,0,0,1,6.29-15.09"/><path class="cls-4" d="M1223.29,432.24a15.76,15.76,0,0,1,.57,2.4"/><path class="cls-6" d="M198.18,508a9,9,0,0,0-5.49,1.86,34.14,34.14,0,0,0-65.26-7.9,15.76,15.76,0,0,0-20.22,15.11H207.26A9.08,9.08,0,0,0,198.18,508Z"/><path class="cls-4" d="M176.15,485.6A34.15,34.15,0,0,0,127.43,502a15.78,15.78,0,0,0-17.28,5.95"/><path class="cls-4" d="M183.54,491.41a34.33,34.33,0,0,0-4.24-3.73"/><path class="cls-4" d="M206.93,514.66a9.07,9.07,0,0,0-14.25-4.79,34,34,0,0,0-6.29-15.09"/><path class="cls-4" d="M108,512.24a15.76,15.76,0,0,0-.57,2.4"/><path class="cls-7" d="M628,255.5a20.88,20.88,0,0,0-10.5,2.83,22.31,22.31,0,0,0-40.43,3.44,15.08,15.08,0,0,0-18.54,14.72H649A21,21,0,0,0,628,255.5Z"/><path class="cls-4" d="M560.17,269.64a15,15,0,0,0-1.25,3.44"/><path class="cls-4" d="M598.07,247a22.32,22.32,0,0,0-21,14.78A15,15,0,0,0,561.9,267"/><path class="cls-4" d="M637.53,257.78a21,21,0,0,0-20,.55,22.34,22.34,0,0,0-15.39-11"/><path class="cls-4" d="M648.74,273.17a21,21,0,0,0-7.43-12.91"/><circle class="cls-8" cx="223" cy="297.22" r="1.8"/><circle class="cls-8" cx="871.73" cy="257.22" r="1.8"/><circle class="cls-8" cx="741.73" cy="97.22" r="1.8"/><circle class="cls-8" cx="471.73" cy="267.22" r="1.8"/><circle class="cls-8" cx="1161.73" cy="307.22" r="1.8"/><circle class="cls-8" cx="1311.73" cy="97.22" r="1.8"/><polyline class="cls-9" points="978.15 266.27 953.08 244.64 938.73 244.64 955.3 266.27"/><polyline class="cls-9" points="966.08 255.85 972.79 255.85 972.79 261.64"/><polyline class="cls-10" points="943.3 250.61 949.75 250.61 962.66 266.27"/><line class="cls-10" x1="948.79" y1="257.76" x2="955.65" y2="257.76"/><path class="cls-11" d="M939.34,266.27h58.22s19.41,5.66,19,11.52-17.18,9.5-17.18,9.5H945.8l-31.94-10.51v-5.26Z"/><polygon class="cls-9" points="920.54 276.78 934.89 276.78 917.3 292.75 908.21 292.75 920.54 276.78"/><polyline class="cls-9" points="911.84 260.61 908.21 255.45 917.91 255.45 923.18 260.61"/><polyline class="cls-9" points="968.34 296.49 972.79 296.49 972.79 303.72 962.78 303.72 961.17 302.43"/><rect class="cls-12" x="940.73" y="278.24" width="2.58" height="2.58"/><rect class="cls-12" x="946.21" y="278.24" width="2.58" height="2.58"/><rect class="cls-12" x="951.69" y="278.24" width="2.58" height="2.58"/><rect class="cls-12" x="957.18" y="278.24" width="2.58" height="2.58"/><rect class="cls-12" x="962.66" y="278.24" width="2.58" height="2.58"/><rect class="cls-12" x="968.14" y="278.24" width="2.58" height="2.58"/><rect class="cls-12" x="973.63" y="278.24" width="2.58" height="2.58"/><rect class="cls-12" x="979.11" y="278.24" width="2.58" height="2.58"/><rect class="cls-12" x="984.59" y="278.24" width="2.58" height="2.58"/><rect class="cls-12" x="990.07" y="278.24" width="2.58" height="2.58"/><polygon class="cls-12" points="1003.82 276.78 1003.82 280.82 1008.07 279.53 1011.2 276.78 1011.81 272.2 1009.09 270.71 1008.47 274.15 1006.15 275.77 1003.82 276.78"/><polygon class="cls-9" points="939.74 270.71 923.97 260.61 908.21 260.61 920.94 270.71 939.74 270.71"/><polygon class="cls-9" points="958.44 283.85 983.61 283.85 953.08 309.12 938.73 309.12 958.44 283.85"/><polyline class="cls-10" points="965.24 283.85 949.95 303.72 943.3 303.72"/><line class="cls-10" x1="954.27" y1="289.81" x2="960.86" y2="289.81"/><line class="cls-10" x1="955.51" y1="296.49" x2="948.79" y2="296.49"/></g></g></svg>