<svg xmlns="http://www.w3.org/2000/svg" xmlns:xlink="http://www.w3.org/1999/xlink" viewBox="0 0 1400 775.22"><defs><style>.cls-1,.cls-9{fill:#017dc3;}.cls-10,.cls-11,.cls-2,.cls-4,.cls-8{fill:none;}.cls-10,.cls-11,.cls-2,.cls-4,.cls-8,.cls-9{stroke:#fff;}.cls-2,.cls-8{stroke-miterlimit:10;}.cls-3{fill:url(#linear-gradient);}.cls-10,.cls-11,.cls-4,.cls-9{stroke-linecap:round;stroke-linejoin:round;}.cls-4{stroke-width:1.76px;}.cls-5{fill:url(#linear-gradient-2);}.cls-6{fill:url(#linear-gradient-3);}.cls-7{fill:url(#linear-gradient-4);}.cls-8{stroke-width:0.41px;}.cls-11,.cls-9{stroke-width:1.21px;}.cls-10{stroke-width:0.61px;}.cls-12{fill:#fff;}</style><linearGradient id="linear-gradient" x1="984.59" y1="144.48" x2="984.59" y2="187.02" gradientUnits="userSpaceOnUse"><stop offset="0" stop-color="#fff"/><stop offset="1" stop-color="#fff" stop-opacity="0"/></linearGradient><linearGradient id="linear-gradient-2" x1="1174.02" y1="435.02" x2="1174.02" y2="477.57" gradientTransform="matrix(-1, 0, 0, 1, 2348.04, 0)" xlink:href="#linear-gradient"/><linearGradient id="linear-gradient-3" x1="2190.81" y1="637.66" x2="2190.81" y2="680.21" gradientTransform="translate(-2033.58)" xlink:href="#linear-gradient"/><linearGradient id="linear-gradient-4" x1="402.8" y1="248.87" x2="402.8" y2="285.87" xlink:href="#linear-gradient"/></defs><title>go-go-background</title><g id="Layer_2" data-name="Layer 2"><g id="Layer_1-2" data-name="Layer 1"><rect class="cls-1" width="1400" height="775.22"/><line class="cls-2" x1="767.89" y1="289.41" x2="767.89" y2="295.9"/><line class="cls-2" x1="771.13" y1="292.66" x2="764.64" y2="292.66"/><line class="cls-2" x1="607.89" y1="189.41" x2="607.89" y2="195.9"/><line class="cls-2" x1="611.13" y1="192.66" x2="604.64" y2="192.66"/><line class="cls-2" x1="1287.89" y1="269.41" x2="1287.89" y2="275.9"/><line class="cls-2" x1="1291.13" y1="272.66" x2="1284.64" y2="272.66"/><line class="cls-2" x1="1097.89" y1="189.41" x2="1097.89" y2="195.9"/><line class="cls-2" x1="1101.13" y1="192.66" x2="1094.64" y2="192.66"/><line class="cls-2" x1="257.89" y1="312.05" x2="257.89" y2="318.54"/><line class="cls-2" x1="261.13" y1="315.29" x2="254.64" y2="315.29"/><line class="cls-2" x1="127.89" y1="552.05" x2="127.89" y2="558.54"/><line class="cls-2" x1="131.13" y1="555.29" x2="124.64" y2="555.29"/><path class="cls-3" d="M1025.54,186.83a9,9,0,0,0-5.49,1.86,34.14,34.14,0,0,0-65.26-7.9,15.76,15.76,0,0,0-20.22,15.11h100.05A9.08,9.08,0,0,0,1025.54,186.83Z"/><path class="cls-4" d="M1003.51,164.42a34.15,34.15,0,0,0-48.73,16.37,15.78,15.78,0,0,0-17.28,5.95"/><path class="cls-4" d="M1010.9,170.23a34.33,34.33,0,0,0-4.24-3.73"/><path class="cls-4" d="M1034.29,193.48a9.07,9.07,0,0,0-14.25-4.79,34,34,0,0,0-6.29-15.09"/><path class="cls-4" d="M935.33,191.05a15.76,15.76,0,0,0-.57,2.4"/><path class="cls-5" d="M1133.07,477.37a9,9,0,0,1,5.49,1.86,34.14,34.14,0,0,1,65.26-7.9A15.76,15.76,0,0,1,1224,486.45H1124A9.08,9.08,0,0,1,1133.07,477.37Z"/><path class="cls-4" d="M1155.1,455a34.15,34.15,0,0,1,48.73,16.37,15.78,15.78,0,0,1,17.28,5.95"/><path class="cls-4" d="M1147.72,460.78A34.33,34.33,0,0,1,1152,457"/><path class="cls-4" d="M1124.32,484a9.07,9.07,0,0,1,14.25-4.79,34,34,0,0,1,6.29-15.09"/><path class="cls-4" d="M1223.29,481.6a15.76,15.76,0,0,1,.57,2.4"/><path class="cls-6" d="M198.18,680a9,9,0,0,0-5.49,1.86,34.14,34.14,0,0,0-65.26-7.9,15.76,15.76,0,0,0-20.22,15.11H207.26A9.08,9.08,0,0,0,198.18,680Z"/><path class="cls-4" d="M176.15,657.6A34.15,34.15,0,0,0,127.43,674a15.78,15.78,0,0,0-17.28,5.95"/><path class="cls-4" d="M183.54,663.41a34.33,34.33,0,0,0-4.24-3.73"/><path class="cls-4" d="M206.93,686.66a9.07,9.07,0,0,0-14.25-4.79,34,34,0,0,0-6.29-15.09"/><path class="cls-4" d="M108,684.24a15.76,15.76,0,0,0-.57,2.4"/><path class="cls-7" d="M427,266.41a20.88,20.88,0,0,0-10.5,2.83,22.31,22.31,0,0,0-40.43,3.44,15.08,15.08,0,0,0-18.54,14.72H448A21,21,0,0,0,427,266.41Z"/><path class="cls-4" d="M359.21,280.55A15,15,0,0,0,358,284"/><path class="cls-4" d="M397.11,257.91a22.32,22.32,0,0,0-21,14.78,15,15,0,0,0-15.16,5.2"/><path class="cls-4" d="M436.57,268.69a21,21,0,0,0-20,.55,22.34,22.34,0,0,0-15.39-11"/><path class="cls-4" d="M447.78,284.07a21,21,0,0,0-7.43-12.91"/><circle class="cls-8" cx="223" cy="469.22" r="1.8"/><circle class="cls-8" cx="871.73" cy="306.58" r="1.8"/><circle class="cls-8" cx="741.73" cy="146.58" r="1.8"/><circle class="cls-8" cx="471.73" cy="316.58" r="1.8"/><circle class="cls-8" cx="1161.73" cy="356.58" r="1.8"/><circle class="cls-8" cx="1311.73" cy="146.58" r="1.8"/><polyline class="cls-9" points="1023.58 315.63 998.51 294 984.16 294 1000.74 315.63"/><polyline class="cls-9" points="1011.51 305.22 1018.22 305.22 1018.22 311.01"/><polyline class="cls-10" points="988.73 299.97 995.18 299.97 1008.09 315.63"/><line class="cls-10" x1="994.22" y1="307.13" x2="1001.08" y2="307.13"/><path class="cls-11" d="M984.77,315.63H1043s19.41,5.66,19,11.52-17.18,9.5-17.18,9.5H991.24L959.3,326.14v-5.26Z"/><polygon class="cls-9" points="965.97 326.14 980.32 326.14 962.73 342.11 953.64 342.11 965.97 326.14"/><polyline class="cls-9" points="957.27 309.97 953.64 304.82 963.34 304.82 968.61 309.97"/><polyline class="cls-9" points="1013.77 345.85 1018.22 345.85 1018.22 353.08 1008.22 353.08 1006.6 351.8"/><rect class="cls-12" x="986.16" y="327.61" width="2.58" height="2.58"/><rect class="cls-12" x="991.64" y="327.61" width="2.58" height="2.58"/><rect class="cls-12" x="997.12" y="327.61" width="2.58" height="2.58"/><rect class="cls-12" x="1002.61" y="327.61" width="2.58" height="2.58"/><rect class="cls-12" x="1008.09" y="327.61" width="2.58" height="2.58"/><rect class="cls-12" x="1013.57" y="327.61" width="2.58" height="2.58"/><rect class="cls-12" x="1019.06" y="327.61" width="2.58" height="2.58"/><rect class="cls-12" x="1024.54" y="327.61" width="2.58" height="2.58"/><rect class="cls-12" x="1030.02" y="327.61" width="2.58" height="2.58"/><rect class="cls-12" x="1035.51" y="327.61" width="2.58" height="2.58"/><polygon class="cls-12" points="1049.25 326.14 1049.25 330.19 1053.5 328.9 1056.63 326.14 1057.24 321.56 1054.52 320.08 1053.9 323.52 1051.58 325.13 1049.25 326.14"/><polygon class="cls-9" points="985.17 320.08 969.4 309.97 953.64 309.97 966.37 320.08 985.17 320.08"/><polygon class="cls-9" points="1003.87 333.22 1029.04 333.22 998.51 358.49 984.16 358.49 1003.87 333.22"/><polyline class="cls-10" points="1010.67 333.22 995.38 353.08 988.73 353.08"/><line class="cls-10" x1="999.7" y1="339.17" x2="1006.29" y2="339.17"/><line class="cls-10" x1="1000.94" y1="345.85" x2="994.22" y2="345.85"/></g></g></svg>