<svg xmlns="http://www.w3.org/2000/svg" xmlns:xlink="http://www.w3.org/1999/xlink" viewBox="0 0 1400 775.22"><defs><style>.cls-1,.cls-9{fill:#017dc3;}.cls-10,.cls-11,.cls-2,.cls-4,.cls-8{fill:none;}.cls-10,.cls-11,.cls-2,.cls-4,.cls-8,.cls-9{stroke:#fff;}.cls-2,.cls-8{stroke-miterlimit:10;}.cls-3{fill:url(#linear-gradient);}.cls-10,.cls-11,.cls-4,.cls-9{stroke-linecap:round;stroke-linejoin:round;}.cls-4{stroke-width:1.76px;}.cls-5{fill:url(#linear-gradient-2);}.cls-6{fill:url(#linear-gradient-3);}.cls-7{fill:url(#linear-gradient-4);}.cls-8{stroke-width:0.41px;}.cls-11,.cls-9{stroke-width:1.21px;}.cls-10{stroke-width:0.61px;}.cls-12{fill:#fff;}</style><linearGradient id="linear-gradient" x1="884.02" y1="201.02" x2="884.02" y2="243.57" gradientUnits="userSpaceOnUse"><stop offset="0" stop-color="#fff"/><stop offset="1" stop-color="#fff" stop-opacity="0"/></linearGradient><linearGradient id="linear-gradient-2" x1="1174.02" y1="435.02" x2="1174.02" y2="477.57" gradientTransform="matrix(-1, 0, 0, 1, 2348.04, 0)" xlink:href="#linear-gradient"/><linearGradient id="linear-gradient-3" x1="2190.81" y1="637.66" x2="2190.81" y2="680.21" gradientTransform="translate(-2033.58)" xlink:href="#linear-gradient"/><linearGradient id="linear-gradient-4" x1="603.76" y1="287.32" x2="603.76" y2="324.33" xlink:href="#linear-gradient"/></defs><title>go-go-background</title><g id="Layer_2" data-name="Layer 2"><g id="Layer_1-2" data-name="Layer 1"><rect class="cls-1" width="1400" height="775.22"/><line class="cls-2" x1="767.89" y1="289.41" x2="767.89" y2="295.9"/><line class="cls-2" x1="771.13" y1="292.66" x2="764.64" y2="292.66"/><line class="cls-2" x1="607.89" y1="189.41" x2="607.89" y2="195.9"/><line class="cls-2" x1="611.13" y1="192.66" x2="604.64" y2="192.66"/><line class="cls-2" x1="1287.89" y1="269.41" x2="1287.89" y2="275.9"/><line class="cls-2" x1="1291.13" y1="272.66" x2="1284.64" y2="272.66"/><line class="cls-2" x1="1097.89" y1="189.41" x2="1097.89" y2="195.9"/><line class="cls-2" x1="1101.13" y1="192.66" x2="1094.64" y2="192.66"/><line class="cls-2" x1="257.89" y1="312.05" x2="257.89" y2="318.54"/><line class="cls-2" x1="261.13" y1="315.29" x2="254.64" y2="315.29"/><line class="cls-2" x1="127.89" y1="552.05" x2="127.89" y2="558.54"/><line class="cls-2" x1="131.13" y1="555.29" x2="124.64" y2="555.29"/><path class="cls-3" d="M925,243.37a9,9,0,0,0-5.49,1.86,34.14,34.14,0,0,0-65.26-7.9A15.76,15.76,0,0,0,834,252.45H934A9.08,9.08,0,0,0,925,243.37Z"/><path class="cls-4" d="M902.94,221a34.15,34.15,0,0,0-48.73,16.37,15.78,15.78,0,0,0-17.28,5.95"/><path class="cls-4" d="M910.33,226.78a34.33,34.33,0,0,0-4.24-3.73"/><path class="cls-4" d="M933.72,250a9.07,9.07,0,0,0-14.25-4.79,34,34,0,0,0-6.29-15.09"/><path class="cls-4" d="M834.76,247.6a15.76,15.76,0,0,0-.57,2.4"/><path class="cls-5" d="M1133.07,477.37a9,9,0,0,1,5.49,1.86,34.14,34.14,0,0,1,65.26-7.9A15.76,15.76,0,0,1,1224,486.45H1124A9.08,9.08,0,0,1,1133.07,477.37Z"/><path class="cls-4" d="M1155.1,455a34.15,34.15,0,0,1,48.73,16.37,15.78,15.78,0,0,1,17.28,5.95"/><path class="cls-4" d="M1147.72,460.78A34.33,34.33,0,0,1,1152,457"/><path class="cls-4" d="M1124.32,484a9.07,9.07,0,0,1,14.25-4.79,34,34,0,0,1,6.29-15.09"/><path class="cls-4" d="M1223.29,481.6a15.76,15.76,0,0,1,.57,2.4"/><path class="cls-6" d="M198.18,680a9,9,0,0,0-5.49,1.86,34.14,34.14,0,0,0-65.26-7.9,15.76,15.76,0,0,0-20.22,15.11H207.26A9.08,9.08,0,0,0,198.18,680Z"/><path class="cls-4" d="M176.15,657.6A34.15,34.15,0,0,0,127.43,674a15.78,15.78,0,0,0-17.28,5.95"/><path class="cls-4" d="M183.54,663.41a34.33,34.33,0,0,0-4.24-3.73"/><path class="cls-4" d="M206.93,686.66a9.07,9.07,0,0,0-14.25-4.79,34,34,0,0,0-6.29-15.09"/><path class="cls-4" d="M108,684.24a15.76,15.76,0,0,0-.57,2.4"/><path class="cls-7" d="M628,304.87a20.88,20.88,0,0,0-10.5,2.83,22.31,22.31,0,0,0-40.43,3.44,15.08,15.08,0,0,0-18.54,14.72H649A21,21,0,0,0,628,304.87Z"/><path class="cls-4" d="M560.17,319a15,15,0,0,0-1.25,3.44"/><path class="cls-4" d="M598.07,296.37a22.32,22.32,0,0,0-21,14.78,15,15,0,0,0-15.16,5.2"/><path class="cls-4" d="M637.53,307.15a21,21,0,0,0-20,.55,22.34,22.34,0,0,0-15.39-11"/><path class="cls-4" d="M648.74,322.53a21,21,0,0,0-7.43-12.91"/><circle class="cls-8" cx="223" cy="469.22" r="1.8"/><circle class="cls-8" cx="871.73" cy="306.58" r="1.8"/><circle class="cls-8" cx="741.73" cy="146.58" r="1.8"/><circle class="cls-8" cx="471.73" cy="316.58" r="1.8"/><circle class="cls-8" cx="1161.73" cy="356.58" r="1.8"/><circle class="cls-8" cx="1311.73" cy="146.58" r="1.8"/><polyline class="cls-9" points="978.15 315.63 953.08 294 938.73 294 955.3 315.63"/><polyline class="cls-9" points="966.08 305.22 972.79 305.22 972.79 311.01"/><polyline class="cls-10" points="943.3 299.97 949.75 299.97 962.66 315.63"/><line class="cls-10" x1="948.79" y1="307.13" x2="955.65" y2="307.13"/><path class="cls-11" d="M939.34,315.63h58.22s19.41,5.66,19,11.52-17.18,9.5-17.18,9.5H945.8l-31.94-10.51v-5.26Z"/><polygon class="cls-9" points="920.54 326.14 934.89 326.14 917.3 342.11 908.21 342.11 920.54 326.14"/><polyline class="cls-9" points="911.84 309.97 908.21 304.82 917.91 304.82 923.18 309.97"/><polyline class="cls-9" points="968.34 345.85 972.79 345.85 972.79 353.08 962.78 353.08 961.17 351.8"/><rect class="cls-12" x="940.73" y="327.61" width="2.58" height="2.58"/><rect class="cls-12" x="946.21" y="327.61" width="2.58" height="2.58"/><rect class="cls-12" x="951.69" y="327.61" width="2.58" height="2.58"/><rect class="cls-12" x="957.18" y="327.61" width="2.58" height="2.58"/><rect class="cls-12" x="962.66" y="327.61" width="2.58" height="2.58"/><rect class="cls-12" x="968.14" y="327.61" width="2.58" height="2.58"/><rect class="cls-12" x="973.63" y="327.61" width="2.58" height="2.58"/><rect class="cls-12" x="979.11" y="327.61" width="2.58" height="2.58"/><rect class="cls-12" x="984.59" y="327.61" width="2.58" height="2.58"/><rect class="cls-12" x="990.07" y="327.61" width="2.58" height="2.58"/><polygon class="cls-12" points="1003.82 326.14 1003.82 330.19 1008.07 328.9 1011.2 326.14 1011.81 321.56 1009.09 320.08 1008.47 323.52 1006.15 325.13 1003.82 326.14"/><polygon class="cls-9" points="939.74 320.08 923.97 309.97 908.21 309.97 920.94 320.08 939.74 320.08"/><polygon class="cls-9" points="958.44 333.22 983.61 333.22 953.08 358.49 938.73 358.49 958.44 333.22"/><polyline class="cls-10" points="965.24 333.22 949.95 353.08 943.3 353.08"/><line class="cls-10" x1="954.27" y1="339.17" x2="960.86" y2="339.17"/><line class="cls-10" x1="955.51" y1="345.85" x2="948.79" y2="345.85"/></g></g></svg>