<svg xmlns="http://www.w3.org/2000/svg" xmlns:xlink="http://www.w3.org/1999/xlink" viewBox="0 0 1027.27 715.57"><defs><style>.cls-1,.cls-10,.cls-4,.cls-8{fill:none;}.cls-2{fill:#cce5f3;}.cls-3{clip-path:url(#clip-path);}.cls-4,.cls-7,.cls-8{stroke:#45a0d3;stroke-width:2.78px;}.cls-10,.cls-4{stroke-linecap:round;stroke-linejoin:round;}.cls-5{fill:#aad4eb;}.cls-6,.cls-7{fill:#fff;}.cls-7,.cls-8{stroke-miterlimit:10;}.cls-9{fill:#5b92cb;}.cls-10{stroke:#fff;stroke-width:2.08px;}.cls-11,.cls-13{fill:#8fc596;}.cls-12{fill:#f8b8b4;}.cls-13{font-size:10.73px;font-family:Lato-Bold, Lato;font-weight:700;}.cls-14{fill:#f38183;}.cls-15{font-size:22px;font-family:SofiaProRegular, Sofia Pro;}.cls-16{letter-spacing:-0.01em;}.cls-17{letter-spacing:0em;}.cls-18{fill:#e3e8f5;}.cls-19{letter-spacing:-0.02em;}.cls-20{letter-spacing:-0.01em;}.cls-21{letter-spacing:-0.01em;}</style><clipPath id="clip-path"><path class="cls-1" d="M329.39,430.74,221.95,715.57s51.07-.06,78.58-3.93,37.58-23.14,37.58-23.14S463.86,448.8,470.95,438.76s14.71-12.52,14.71-12.52V289.33s-7.63-2.47-14.71-12.52S338.11,27.07,338.11,27.07,328,7.81,300.53,3.93,221.95,0,221.95,0L329.39,290.7Z"/></clipPath></defs><title>plane</title><g id="Layer_2" data-name="Layer 2"><g id="Layer_1-2" data-name="Layer 1"><path class="cls-2" d="M329.39,430.74,221.95,715.57s51.07-.06,78.58-3.93,37.58-23.14,37.58-23.14S463.86,448.8,470.95,438.76s14.71-12.52,14.71-12.52V289.33s-7.63-2.47-14.71-12.52S338.11,27.07,338.11,27.07,328,7.81,300.53,3.93,221.95,0,221.95,0L329.39,290.7Z"/><g class="cls-3"><path class="cls-4" d="M385.2,294.89s-9.2-3.46-14.84-16.75L266.22,32.88s-2.6-7.07-12.1-6.87c-10,.21-22.54-.2-22.54-.2"/><path class="cls-4" d="M385.2,420.51S376,424,370.36,437.26L266.22,682.52s-2.6,7.07-12.1,6.87c-10-.21-22.54.2-22.54.2"/><path class="cls-4" d="M297.31,106.09c-13.35-.23-23.17-.46-36.52-.69"/><path class="cls-4" d="M297.21,609.55l-36.43.63"/></g><path class="cls-5" d="M56.17,390.35,8.6,513.82l102.61,3.91s47.09-66.31,54.8-77.27c11.07-15.74,18.91-17.91,18.91-17.91V293s-7.84-2.17-18.91-17.91c-7.71-11-54.8-77.27-54.8-77.27L8.6,201.75,56.17,325.22Z"/><path class="cls-2" d="M0,357.93c-.07,7.77,3.72,28.21,7.07,28.76s36.83,1.93,62.86,5.13,54.52,26.19,108.9,30.3C269.6,429,544,426.24,544,426.24H862.45c49,0,83.54-13.25,107.85-22.88,51.07-20.22,57-41.79,57-45.43,0-4.46-5.91-25.51-57-45.73-24.31-9.63-58.84-22.88-107.85-22.88H544s-274.37-2.74-365.15,4.12c-54.37,4.11-82.87,27.09-108.9,30.3s-59.51,4.58-62.86,5.13-7.14,21-7.07,28.76Z"/><path class="cls-6" d="M961.77,352.31c-.39-10.83-3-21.56-8.56-30.12a2.23,2.23,0,0,0-1.87-1H933a2.2,2.2,0,0,0-2.05,3,85.84,85.84,0,0,1,4.88,30.42.63.63,0,0,0,.65.65h22.44A2.85,2.85,0,0,0,961.77,352.31Z"/><path class="cls-6" d="M923.92,304a1.78,1.78,0,0,0-1.73,2.72,75.42,75.42,0,0,1,6.21,11.64,1.1,1.1,0,0,0,1,.67h19.16a1.13,1.13,0,0,0,.84-1.88C943.53,310.26,935.22,305.38,923.92,304Z"/><path class="cls-7" d="M90.92,357.22s0,12,19.65,27.09c25.22,19.28,51.17,31,93.89,33.38,106.75,5.88,337,2.66,339.53,2.63H862.45c14.3,0,27.51.38,39.18-3,6.24-1.81,9.85-7.53,15.42-28.11a132.49,132.49,0,0,0,4.76-31.64v-.3A132.49,132.49,0,0,0,917,325.64c-5.57-20.58-9.18-26.3-15.42-28.11-11.67-3.38-24.88-3-39.18-3H544c-2.57,0-232.78-3.25-339.53,2.63-42.72,2.35-68.67,14.1-93.89,33.38C90.87,345.59,90.92,357.22,90.92,357.22Z"/><path class="cls-8" d="M159.66,312.68a151.37,151.37,0,0,1,4.62,14.75,126.73,126.73,0,0,1,4.57,30.17v.31a126.71,126.71,0,0,1-4.57,30.19,151.59,151.59,0,0,1-4.62,14.73l-.71,1.82c-17.8-5.73-31.63-14.16-45-24.41-15.64-12-17.3-21.4-17.45-22.67.16-1.23,1.85-10.35,17.45-22.28,13.39-10.24,27.2-18.66,45-24.39Z"/><path class="cls-6" d="M961.77,363.26c-.39,10.83-3,21.56-8.56,30.12a2.23,2.23,0,0,1-1.87,1H933a2.2,2.2,0,0,1-2.05-3A85.84,85.84,0,0,0,935.82,361a.63.63,0,0,1,.65-.65h22.44A2.85,2.85,0,0,1,961.77,363.26Z"/><path class="cls-6" d="M923.92,411.57a1.78,1.78,0,0,1-1.73-2.72,75.42,75.42,0,0,0,6.21-11.64,1.1,1.1,0,0,1,1-.67h19.16a1.13,1.13,0,0,1,.84,1.88C943.53,405.3,935.22,410.19,923.92,411.57Z"/><path class="cls-8" d="M921.64,362h-42a3.42,3.42,0,0,0-3.42,3.23,143.74,143.74,0,0,1-4.72,28.57c-4.16,15.39-7.23,23.53-11.12,26.88"/><path class="cls-8" d="M921.64,353.22h-42a3.42,3.42,0,0,1-3.42-3.23,143.74,143.74,0,0,0-4.72-28.57c-4.16-15.39-7.23-23.53-11.12-26.88"/><path class="cls-4" d="M844.94,365.28a143.74,143.74,0,0,1-4.72,28.57c-4.16,15.39-7.23,23.53-11.12,26.88"/><path class="cls-4" d="M844.94,350a143.74,143.74,0,0,0-4.72-28.57C836.06,306,833,297.88,829.1,294.53"/><path class="cls-8" d="M258.68,419.09c-3.25-4-6.05-11.93-9.7-25.4a143.74,143.74,0,0,1-4.72-28.57,3.42,3.42,0,0,0-3.42-3.23H198.59a3.42,3.42,0,0,0-3.42,3.23,143.74,143.74,0,0,1-4.72,28.57c-2,7.45-6,17.46-7.76,21.79"/><path class="cls-8" d="M258.76,295.75c-3.29,4-6.11,11.92-9.78,25.5a143.74,143.74,0,0,0-4.72,28.57,3.42,3.42,0,0,1-3.42,3.23H198.59a3.42,3.42,0,0,1-3.42-3.23,143.74,143.74,0,0,0-4.72-28.57,229.53,229.53,0,0,0-7.76-21.89"/><circle class="cls-9" cx="902.03" cy="318.93" r="2.47"/><path class="cls-9" d="M898.54,322V315.8a.84.84,0,0,0-.85-.85h-6.6a.84.84,0,0,0-.85.85V316h-6.42a.84.84,0,0,0-.85.85v4a.84.84,0,0,0,.85.85h6.42V322a.84.84,0,0,0,.85.85h6.6A.85.85,0,0,0,898.54,322Z"/><path class="cls-9" d="M904.49,330.61a2.47,2.47,0,1,1-2.47-2.47A2.47,2.47,0,0,1,904.49,330.61ZM888,327.38v0Zm0,6.18v0Zm2.24,1v-.37h-1.64a.68.68,0,0,1-.59-.6v-1.25l-4.18,0a.84.84,0,0,1-.85-.85v-2.11a.84.84,0,0,1,.85-.85H888v-1.26a.68.68,0,0,1,.59-.6h1.66v-.17a.84.84,0,0,1,.85-.85l6.59,2.15a.84.84,0,0,1,.85.85v3.78a.84.84,0,0,1-.85.85l-6.59,2.15A.86.86,0,0,1,890.25,334.6Z"/><path class="cls-9" d="M888,333.56v0Z"/><path class="cls-9" d="M898.54,332.45v-3.77a.84.84,0,0,0-.85-.85l-6.59-2.15a.84.84,0,0,0-.85.85v.17h-1.66a.68.68,0,0,0-.59.6v1.26h-4.18a.84.84,0,0,0-.85.85v2.12a.84.84,0,0,0,.85.85l4.18,0v1.25a.68.68,0,0,0,.59.6h1.66v.37a.84.84,0,0,0,.85.85l6.59-2.15A.86.86,0,0,0,898.54,332.45Z"/><circle class="cls-9" cx="902.02" cy="330.61" r="2.47"/><path class="cls-9" d="M888,327.38v0Z"/><circle class="cls-9" cx="230.1" cy="319.3" r="2.47"/><path class="cls-9" d="M226.61,322.37v-6.19a.84.84,0,0,0-.85-.85h-6.6a.84.84,0,0,0-.85.85v.17h-6.42a.84.84,0,0,0-.85.85v4a.84.84,0,0,0,.85.85h6.42v.37a.84.84,0,0,0,.85.85h6.6A.85.85,0,0,0,226.61,322.37Z"/><path class="cls-9" d="M232.57,331a2.47,2.47,0,1,1-2.47-2.47A2.47,2.47,0,0,1,232.57,331Zm-16.48-3.24v0Zm0,6.18v0Zm2.24,1v-.37h-1.64a.68.68,0,0,1-.59-.6v-1.25l-4.18,0a.84.84,0,0,1-.85-.85v-2.11a.84.84,0,0,1,.85-.85h4.18v-1.26a.68.68,0,0,1,.59-.6h1.66v-.17a.84.84,0,0,1,.85-.85l6.59,2.15a.84.84,0,0,1,.85.85v3.78a.84.84,0,0,1-.85.85l-6.59,2.15A.86.86,0,0,1,218.33,335Z"/><path class="cls-9" d="M216.09,333.93v0Z"/><path class="cls-9" d="M226.61,332.82v-3.77a.84.84,0,0,0-.85-.85l-6.59-2.15a.84.84,0,0,0-.85.85v.17h-1.66a.68.68,0,0,0-.59.6v1.26H211.9a.84.84,0,0,0-.85.85v2.12a.84.84,0,0,0,.85.85l4.18,0V334a.68.68,0,0,0,.59.6h1.66V335a.84.84,0,0,0,.85.85l6.59-2.15A.86.86,0,0,0,226.61,332.82Z"/><circle class="cls-9" cx="230.1" cy="330.98" r="2.47"/><path class="cls-9" d="M216.09,327.75v0Z"/><circle class="cls-9" cx="228.07" cy="385.29" r="2.47"/><path class="cls-9" d="M224.58,388.35v-6.19a.84.84,0,0,0-.85-.85h-6.6a.84.84,0,0,0-.85.85v.17h-6.42a.84.84,0,0,0-.85.85v4a.84.84,0,0,0,.85.85h6.42v.37a.84.84,0,0,0,.85.85h6.6A.85.85,0,0,0,224.58,388.35Z"/><path class="cls-9" d="M230.53,397a2.47,2.47,0,1,1-2.47-2.47A2.47,2.47,0,0,1,230.53,397Zm-16.48-3.24v0Zm0,6.18v0Zm2.24,1v-.37h-1.64a.68.68,0,0,1-.59-.6v-1.25l-4.18,0a.84.84,0,0,1-.85-.85v-2.11a.84.84,0,0,1,.85-.85h4.18v-1.26a.68.68,0,0,1,.59-.6h1.66v-.17a.84.84,0,0,1,.85-.85l6.59,2.15a.84.84,0,0,1,.85.85v3.78a.84.84,0,0,1-.85.85l-6.59,2.15A.86.86,0,0,1,216.29,401Z"/><path class="cls-9" d="M214.05,399.92v0Z"/><path class="cls-9" d="M224.58,398.81V395a.84.84,0,0,0-.85-.85l-6.59-2.15a.84.84,0,0,0-.85.85v.17h-1.66a.68.68,0,0,0-.59.6v1.26h-4.18a.84.84,0,0,0-.85.85v2.12a.84.84,0,0,0,.85.85l4.18,0V400a.68.68,0,0,0,.59.6h1.66V401a.84.84,0,0,0,.85.85l6.59-2.15A.86.86,0,0,0,224.58,398.81Z"/><circle class="cls-9" cx="228.07" cy="396.97" r="2.47"/><path class="cls-9" d="M214.05,393.73v0Z"/><path class="cls-9" d="M894.77,392.26a.53.53,0,0,1,.46.28l0,.07h0a3.09,3.09,0,0,0,2.79,1.76,28.21,28.21,0,0,0,6-.65h.05a.43.43,0,0,0,.31-.42.43.43,0,0,0-.42-.43H904c-.32,0-1.55.09-3.33.13l-1.74,0a.53.53,0,0,1-.06-1.06h.06l2.2-.1,3-.14a.42.42,0,0,0,0-.83l-3-.14-2.21-.1h-.05a.54.54,0,0,1,.05-1.07l1.74,0c1.76,0,3,.11,3.34.13H904a.43.43,0,0,0,.12-.84h-.07a28.21,28.21,0,0,0-6-.65,3.09,3.09,0,0,0-2.79,1.77.3.3,0,0,1,0,.06h0a.54.54,0,0,1-.47.28h0c-1.6-.06-4.32-.18-6.62-.29-1.59-.07-3-.15-3.66-.19h0a1.35,1.35,0,0,0-1,.42,1.5,1.5,0,0,0-.45,1h0a1.5,1.5,0,0,0,.44,1,1.34,1.34,0,0,0,1,.42h0c.68,0,2.06-.12,3.66-.19l6.62-.29h0Z"/><path class="cls-9" d="M896.6,385.9h7.47a.43.43,0,0,0,.29-.75h0c-1.1-1-3.9-2.74-10.33-2.74-1.88,0-2.17,1-3.62.95h0c-2.26-.1-5-.31-5.93-.38h0a1.47,1.47,0,0,0-1.42,1.45h0a1.47,1.47,0,0,0,1.42,1.45h0S896.14,385.91,896.6,385.9Z"/><path class="cls-9" d="M133.66,362.32a.53.53,0,0,1,.46.28l0,.07h0a3.09,3.09,0,0,0,2.79,1.76,28.21,28.21,0,0,0,6-.65H143a.43.43,0,0,0,.31-.42.43.43,0,0,0-.42-.43h-.08c-.32,0-1.55.09-3.33.13l-1.74,0a.53.53,0,0,1-.06-1.06h.06l2.2-.1,3-.14a.42.42,0,0,0,0-.83l-3-.14-2.21-.1h-.05a.54.54,0,0,1,.05-1.07l1.74,0c1.76,0,3,.11,3.34.13h.08a.43.43,0,0,0,.12-.84H143a28.21,28.21,0,0,0-6-.65,3.09,3.09,0,0,0-2.79,1.77.3.3,0,0,1,0,.06h0a.54.54,0,0,1-.47.28h0c-1.6-.06-4.32-.18-6.62-.29-1.59-.07-3-.15-3.66-.19h0a1.35,1.35,0,0,0-1,.42,1.5,1.5,0,0,0-.45,1h0a1.5,1.5,0,0,0,.44,1,1.34,1.34,0,0,0,1,.42h0c.68,0,2.06-.12,3.66-.19l6.62-.29h0Z"/><path class="cls-9" d="M135.49,356H143a.43.43,0,0,0,.29-.75h0c-1.1-1-3.9-2.74-10.33-2.74-1.88,0-2.17,1-3.62.95h0c-2.26-.1-5-.31-5.93-.38h0a1.47,1.47,0,0,0-1.42,1.45h0a1.47,1.47,0,0,0,1.42,1.45h0S135,356,135.49,356Z"/><rect class="cls-5" x="789.94" y="297.38" width="24.16" height="26.7" rx="2.11" ry="2.11" transform="translate(1112.75 -491.28) rotate(90)"/><path class="cls-10" d="M802.3,319.87h-5a2.79,2.79,0,0,1-2.47-3V304.63a2.79,2.79,0,0,1,2.47-3H802"/><rect class="cls-5" x="790.18" y="323.73" width="24.16" height="26.7" rx="2.11" ry="2.11" transform="translate(1139.34 -465.19) rotate(90)"/><path class="cls-10" d="M802.55,346.21h-5a2.79,2.79,0,0,1-2.47-3V331a2.79,2.79,0,0,1,2.47-3h4.71"/><rect class="cls-5" x="790.18" y="364.47" width="24.16" height="26.7" rx="2.11" ry="2.11" transform="translate(1180.08 -424.44) rotate(90)"/><path class="cls-10" d="M802.55,387h-5a2.79,2.79,0,0,1-2.47-3V371.72a2.79,2.79,0,0,1,2.47-3h4.71"/><rect class="cls-5" x="790.18" y="390.82" width="24.16" height="26.7" rx="2.11" ry="2.11" transform="translate(1206.43 -398.1) rotate(90)"/><path class="cls-10" d="M802.55,413.3h-5a2.79,2.79,0,0,1-2.47-3V398.06a2.79,2.79,0,0,1,2.47-3h4.71"/><rect class="cls-5" x="758.57" y="297.38" width="24.16" height="26.7" rx="2.11" ry="2.11" transform="translate(1081.38 -459.91) rotate(90)"/><path class="cls-10" d="M770.93,319.87h-5a2.79,2.79,0,0,1-2.47-3V304.63a2.79,2.79,0,0,1,2.47-3h4.71"/><rect class="cls-5" x="758.81" y="323.73" width="24.16" height="26.7" rx="2.11" ry="2.11" transform="translate(1107.97 -433.81) rotate(90)"/><path class="cls-10" d="M771.17,346.21h-5a2.79,2.79,0,0,1-2.47-3V331a2.79,2.79,0,0,1,2.47-3h4.71"/><rect class="cls-5" x="758.81" y="364.47" width="24.16" height="26.7" rx="2.11" ry="2.11" transform="translate(1148.71 -393.07) rotate(90)"/><path class="cls-10" d="M771.17,387h-5a2.79,2.79,0,0,1-2.47-3V371.72a2.79,2.79,0,0,1,2.47-3h4.71"/><rect class="cls-5" x="758.81" y="390.82" width="24.16" height="26.7" rx="2.11" ry="2.11" transform="translate(1175.06 -366.73) rotate(90)"/><path class="cls-10" d="M771.17,413.3h-5a2.79,2.79,0,0,1-2.47-3V398.06a2.79,2.79,0,0,1,2.47-3h4.71"/><rect class="cls-5" x="727.19" y="297.38" width="24.16" height="26.7" rx="2.11" ry="2.11" transform="translate(1050.01 -428.54) rotate(90)"/><path class="cls-10" d="M739.56,319.87h-5a2.79,2.79,0,0,1-2.47-3V304.63a2.79,2.79,0,0,1,2.47-3h4.71"/><rect class="cls-5" x="727.44" y="323.73" width="24.16" height="26.7" rx="2.11" ry="2.11" transform="translate(1076.6 -402.44) rotate(90)"/><path class="cls-10" d="M739.8,346.21h-5a2.79,2.79,0,0,1-2.47-3V331a2.79,2.79,0,0,1,2.47-3h4.71"/><rect class="cls-5" x="727.44" y="364.47" width="24.16" height="26.7" rx="2.11" ry="2.11" transform="translate(1117.34 -361.7) rotate(90)"/><path class="cls-10" d="M739.8,387h-5a2.79,2.79,0,0,1-2.47-3V371.72a2.79,2.79,0,0,1,2.47-3h4.71"/><rect class="cls-5" x="727.44" y="390.82" width="24.16" height="26.7" rx="2.11" ry="2.11" transform="translate(1143.69 -335.35) rotate(90)"/><path class="cls-10" d="M739.8,413.3h-5a2.79,2.79,0,0,1-2.47-3V398.06a2.79,2.79,0,0,1,2.47-3h4.71"/><rect class="cls-11" x="695.82" y="297.38" width="24.16" height="26.7" rx="2.11" ry="2.11" transform="translate(1018.64 -397.17) rotate(90)"/><path class="cls-10" d="M708.18,319.87h-5a2.79,2.79,0,0,1-2.47-3V304.63a2.79,2.79,0,0,1,2.47-3h4.71"/><rect class="cls-5" x="696.07" y="323.73" width="24.16" height="26.7" rx="2.11" ry="2.11" transform="translate(1045.23 -371.07) rotate(90)"/><path class="cls-10" d="M708.43,346.21h-5a2.79,2.79,0,0,1-2.47-3V331a2.79,2.79,0,0,1,2.47-3h4.71"/><rect class="cls-5" x="696.07" y="364.47" width="24.16" height="26.7" rx="2.11" ry="2.11" transform="translate(1085.97 -330.33) rotate(90)"/><path class="cls-10" d="M708.43,387h-5a2.79,2.79,0,0,1-2.47-3V371.72a2.79,2.79,0,0,1,2.47-3h4.71"/><rect class="cls-5" x="696.07" y="390.82" width="24.16" height="26.7" rx="2.11" ry="2.11" transform="translate(1112.31 -303.98) rotate(90)"/><path class="cls-10" d="M708.43,413.3h-5a2.79,2.79,0,0,1-2.47-3V398.06a2.79,2.79,0,0,1,2.47-3h4.71"/><rect class="cls-12" x="664.45" y="297.38" width="24.16" height="26.7" rx="2.11" ry="2.11" transform="translate(987.26 -365.8) rotate(90)"/><path class="cls-10" d="M676.81,319.87h-5a2.79,2.79,0,0,1-2.47-3V304.63a2.79,2.79,0,0,1,2.47-3h4.71"/><rect class="cls-5" x="664.7" y="323.73" width="24.16" height="26.7" rx="2.11" ry="2.11" transform="translate(1013.85 -339.7) rotate(90)"/><path class="cls-10" d="M677.06,346.21h-5a2.79,2.79,0,0,1-2.47-3V331a2.79,2.79,0,0,1,2.47-3h4.71"/><rect class="cls-5" x="664.7" y="364.47" width="24.16" height="26.7" rx="2.11" ry="2.11" transform="translate(1054.6 -298.95) rotate(90)"/><path class="cls-10" d="M677.06,387h-5a2.79,2.79,0,0,1-2.47-3V371.72a2.79,2.79,0,0,1,2.47-3h4.71"/><rect class="cls-5" x="664.7" y="390.82" width="24.16" height="26.7" rx="2.11" ry="2.11" transform="translate(1080.94 -272.61) rotate(90)"/><path class="cls-10" d="M677.06,413.3h-5a2.79,2.79,0,0,1-2.47-3V398.06a2.79,2.79,0,0,1,2.47-3h4.71"/><rect class="cls-5" x="633.08" y="297.38" width="24.16" height="26.7" rx="2.11" ry="2.11" transform="translate(955.89 -334.42) rotate(90)"/><path class="cls-10" d="M645.44,319.87h-5a2.79,2.79,0,0,1-2.47-3V304.63a2.79,2.79,0,0,1,2.47-3h4.71"/><rect class="cls-5" x="633.33" y="323.73" width="24.16" height="26.7" rx="2.11" ry="2.11" transform="translate(982.48 -308.33) rotate(90)"/><path class="cls-10" d="M645.69,346.21h-5a2.79,2.79,0,0,1-2.47-3V331a2.79,2.79,0,0,1,2.47-3h4.71"/><rect class="cls-12" x="633.33" y="364.47" width="24.16" height="26.7" rx="2.11" ry="2.11" transform="translate(1023.23 -267.58) rotate(90)"/><path class="cls-10" d="M645.69,387h-5a2.79,2.79,0,0,1-2.47-3V371.72a2.79,2.79,0,0,1,2.47-3h4.71"/><rect class="cls-5" x="633.33" y="390.82" width="24.16" height="26.7" rx="2.11" ry="2.11" transform="translate(1049.57 -241.24) rotate(90)"/><path class="cls-10" d="M645.69,413.3h-5a2.79,2.79,0,0,1-2.47-3V398.06a2.79,2.79,0,0,1,2.47-3h4.71"/><rect class="cls-5" x="601.71" y="297.38" width="24.16" height="26.7" rx="2.11" ry="2.11" transform="translate(924.52 -303.05) rotate(90)"/><path class="cls-10" d="M614.07,319.87h-5a2.79,2.79,0,0,1-2.47-3V304.63a2.79,2.79,0,0,1,2.47-3h4.71"/><rect class="cls-5" x="601.95" y="323.73" width="24.16" height="26.7" rx="2.11" ry="2.11" transform="translate(951.11 -276.95) rotate(90)"/><path class="cls-10" d="M614.32,346.21h-5a2.79,2.79,0,0,1-2.47-3V331a2.79,2.79,0,0,1,2.47-3H614"/><rect class="cls-5" x="601.95" y="364.47" width="24.16" height="26.7" rx="2.11" ry="2.11" transform="translate(991.85 -236.21) rotate(90)"/><path class="cls-10" d="M614.32,387h-5a2.79,2.79,0,0,1-2.47-3V371.72a2.79,2.79,0,0,1,2.47-3H614"/><rect class="cls-12" x="601.95" y="390.82" width="24.16" height="26.7" rx="2.11" ry="2.11" transform="translate(1018.2 -209.87) rotate(90)"/><path class="cls-10" d="M614.32,413.3h-5a2.79,2.79,0,0,1-2.47-3V398.06a2.79,2.79,0,0,1,2.47-3H614"/><rect class="cls-5" x="550.91" y="297.84" width="15.52" height="17.15" rx="1.36" ry="1.36" transform="translate(865.08 -252.25) rotate(90)"/><rect class="cls-5" x="550.91" y="332.6" width="15.52" height="17.15" rx="1.36" ry="1.36" transform="translate(899.85 -217.49) rotate(90)"/><rect class="cls-5" x="550.91" y="315.22" width="15.52" height="17.15" rx="1.36" ry="1.36" transform="translate(882.46 -234.87) rotate(90)"/><rect class="cls-5" x="527.86" y="298.65" width="17.15" height="15.52" rx="1.72" ry="1.72"/><rect class="cls-5" x="527.86" y="333.42" width="17.15" height="15.52" rx="1.72" ry="1.72"/><rect class="cls-12" x="527.86" y="316.04" width="17.15" height="15.52" rx="1.72" ry="1.72"/><rect class="cls-5" x="505.62" y="298.65" width="17.15" height="15.52" rx="1.72" ry="1.72"/><rect class="cls-5" x="505.62" y="333.42" width="17.15" height="15.52" rx="1.72" ry="1.72"/><rect class="cls-12" x="505.62" y="316.04" width="17.15" height="15.52" rx="1.72" ry="1.72"/><rect class="cls-5" x="483.39" y="298.65" width="17.15" height="15.52" rx="1.72" ry="1.72"/><rect class="cls-5" x="483.39" y="333.42" width="17.15" height="15.52" rx="1.72" ry="1.72"/><rect class="cls-5" x="483.39" y="316.04" width="17.15" height="15.52" rx="1.72" ry="1.72"/><rect class="cls-12" x="461.15" y="298.65" width="17.15" height="15.52" rx="1.72" ry="1.72"/><rect class="cls-5" x="461.15" y="333.42" width="17.15" height="15.52" rx="1.72" ry="1.72"/><rect class="cls-5" x="461.15" y="316.04" width="17.15" height="15.52" rx="1.72" ry="1.72"/><rect class="cls-12" x="438.92" y="298.65" width="17.15" height="15.52" rx="1.72" ry="1.72"/><rect class="cls-5" x="438.92" y="333.42" width="17.15" height="15.52" rx="1.72" ry="1.72"/><rect class="cls-5" x="438.92" y="316.04" width="17.15" height="15.52" rx="1.72" ry="1.72"/><rect class="cls-12" x="416.68" y="298.65" width="17.15" height="15.52" rx="1.72" ry="1.72"/><rect class="cls-5" x="416.68" y="333.42" width="17.15" height="15.52" rx="1.72" ry="1.72"/><rect class="cls-5" x="416.68" y="316.04" width="17.15" height="15.52" rx="1.72" ry="1.72"/><rect class="cls-5" x="394.45" y="298.65" width="17.15" height="15.52" rx="1.72" ry="1.72"/><rect class="cls-5" x="394.45" y="333.42" width="17.15" height="15.52" rx="1.72" ry="1.72"/><rect class="cls-5" x="394.45" y="316.04" width="17.15" height="15.52" rx="1.72" ry="1.72"/><rect class="cls-5" x="372.22" y="298.65" width="17.15" height="15.52" rx="1.72" ry="1.72"/><rect class="cls-5" x="372.22" y="333.42" width="17.15" height="15.52" rx="1.72" ry="1.72"/><rect class="cls-5" x="372.22" y="316.04" width="17.15" height="15.52" rx="1.72" ry="1.72"/><rect class="cls-5" x="349.98" y="298.65" width="17.15" height="15.52" rx="1.72" ry="1.72"/><rect class="cls-5" x="349.98" y="333.42" width="17.15" height="15.52" rx="1.72" ry="1.72"/><rect class="cls-5" x="349.98" y="316.04" width="17.15" height="15.52" rx="1.72" ry="1.72"/><rect class="cls-5" x="327.75" y="298.65" width="17.15" height="15.52" rx="1.72" ry="1.72"/><rect class="cls-5" x="327.75" y="333.42" width="17.15" height="15.52" rx="1.72" ry="1.72"/><rect class="cls-5" x="327.75" y="316.04" width="17.15" height="15.52" rx="1.72" ry="1.72"/><rect class="cls-5" x="305.51" y="298.65" width="17.15" height="15.52" rx="1.72" ry="1.72"/><rect class="cls-5" x="305.51" y="333.42" width="17.15" height="15.52" rx="1.72" ry="1.72"/><rect class="cls-5" x="305.51" y="316.04" width="17.15" height="15.52" rx="1.72" ry="1.72"/><rect class="cls-5" x="283.28" y="298.65" width="17.15" height="15.52" rx="1.72" ry="1.72"/><rect class="cls-5" x="283.28" y="333.42" width="17.15" height="15.52" rx="1.72" ry="1.72"/><rect class="cls-5" x="283.28" y="316.04" width="17.15" height="15.52" rx="1.72" ry="1.72"/><rect class="cls-5" x="261.86" y="297.84" width="15.52" height="17.15" rx="1.36" ry="1.36" transform="translate(576.03 36.79) rotate(90)"/><rect class="cls-5" x="261.86" y="332.6" width="15.52" height="17.15" rx="1.36" ry="1.36" transform="translate(610.8 71.56) rotate(90)"/><rect class="cls-5" x="261.86" y="315.22" width="15.52" height="17.15" rx="1.36" ry="1.36" transform="translate(593.42 54.18) rotate(90)"/><rect class="cls-5" x="550.77" y="364.93" width="15.52" height="17.15" rx="1.36" ry="1.36" transform="translate(932.04 -185.03) rotate(90)"/><rect class="cls-5" x="550.77" y="399.69" width="15.52" height="17.15" rx="1.36" ry="1.36" transform="translate(966.8 -150.27) rotate(90)"/><rect class="cls-5" x="550.77" y="382.31" width="15.52" height="17.15" rx="1.36" ry="1.36" transform="translate(949.42 -167.65) rotate(90)"/><rect class="cls-5" x="527.72" y="365.74" width="17.15" height="15.52" rx="1.72" ry="1.72"/><rect class="cls-5" x="527.72" y="400.51" width="17.15" height="15.52" rx="1.72" ry="1.72"/><rect class="cls-5" x="527.72" y="383.12" width="17.15" height="15.52" rx="1.72" ry="1.72"/><rect class="cls-5" x="505.49" y="365.74" width="17.15" height="15.52" rx="1.72" ry="1.72"/><rect class="cls-5" x="505.49" y="400.51" width="17.15" height="15.52" rx="1.72" ry="1.72"/><rect class="cls-5" x="505.49" y="383.12" width="17.15" height="15.52" rx="1.72" ry="1.72"/><rect class="cls-5" x="483.25" y="365.74" width="17.15" height="15.52" rx="1.72" ry="1.72"/><rect class="cls-5" x="483.25" y="400.51" width="17.15" height="15.52" rx="1.72" ry="1.72"/><rect class="cls-5" x="483.25" y="383.12" width="17.15" height="15.52" rx="1.72" ry="1.72"/><rect class="cls-5" x="461.02" y="365.74" width="17.15" height="15.52" rx="1.72" ry="1.72"/><rect class="cls-5" x="461.02" y="400.51" width="17.15" height="15.52" rx="1.72" ry="1.72"/><rect class="cls-5" x="461.02" y="383.12" width="17.15" height="15.52" rx="1.72" ry="1.72"/><rect class="cls-5" x="438.79" y="365.74" width="17.15" height="15.52" rx="1.72" ry="1.72"/><rect class="cls-5" x="438.79" y="400.51" width="17.15" height="15.52" rx="1.72" ry="1.72"/><rect class="cls-5" x="438.79" y="383.12" width="17.15" height="15.52" rx="1.72" ry="1.72"/><rect class="cls-5" x="416.55" y="365.74" width="17.15" height="15.52" rx="1.72" ry="1.72"/><rect class="cls-5" x="416.55" y="400.51" width="17.15" height="15.52" rx="1.72" ry="1.72"/><rect class="cls-5" x="416.55" y="383.12" width="17.15" height="15.52" rx="1.72" ry="1.72"/><rect class="cls-5" x="394.32" y="365.74" width="17.15" height="15.52" rx="1.72" ry="1.72"/><rect class="cls-5" x="394.32" y="400.51" width="17.15" height="15.52" rx="1.72" ry="1.72"/><rect class="cls-5" x="394.32" y="383.12" width="17.15" height="15.52" rx="1.72" ry="1.72"/><rect class="cls-5" x="372.08" y="365.74" width="17.15" height="15.52" rx="1.72" ry="1.72"/><rect class="cls-5" x="372.08" y="400.51" width="17.15" height="15.52" rx="1.72" ry="1.72"/><rect class="cls-5" x="372.08" y="383.12" width="17.15" height="15.52" rx="1.72" ry="1.72"/><rect class="cls-5" x="349.85" y="365.74" width="17.15" height="15.52" rx="1.72" ry="1.72"/><rect class="cls-5" x="349.85" y="400.51" width="17.15" height="15.52" rx="1.72" ry="1.72"/><rect class="cls-5" x="349.85" y="383.12" width="17.15" height="15.52" rx="1.72" ry="1.72"/><rect class="cls-5" x="327.61" y="365.74" width="17.15" height="15.52" rx="1.72" ry="1.72"/><rect class="cls-5" x="327.61" y="400.51" width="17.15" height="15.52" rx="1.72" ry="1.72"/><rect class="cls-5" x="327.61" y="383.12" width="17.15" height="15.52" rx="1.72" ry="1.72"/><rect class="cls-5" x="305.38" y="365.74" width="17.15" height="15.52" rx="1.72" ry="1.72"/><rect class="cls-5" x="305.38" y="400.51" width="17.15" height="15.52" rx="1.72" ry="1.72"/><rect class="cls-5" x="305.38" y="383.12" width="17.15" height="15.52" rx="1.72" ry="1.72"/><rect class="cls-5" x="283.14" y="365.74" width="17.15" height="15.52" rx="1.72" ry="1.72"/><rect class="cls-5" x="283.14" y="400.51" width="17.15" height="15.52" rx="1.72" ry="1.72"/><rect class="cls-5" x="283.14" y="383.12" width="17.15" height="15.52" rx="1.72" ry="1.72"/><rect class="cls-5" x="261.73" y="364.93" width="15.52" height="17.15" rx="1.36" ry="1.36" transform="translate(642.99 104.02) rotate(90)"/><rect class="cls-5" x="261.73" y="399.69" width="15.52" height="17.15" rx="1.36" ry="1.36" transform="translate(677.75 138.78) rotate(90)"/><rect class="cls-5" x="261.73" y="382.31" width="15.52" height="17.15" rx="1.36" ry="1.36" transform="translate(660.37 121.4) rotate(90)"/><text class="cls-13" transform="translate(820.66 306.98) rotate(90)">A</text><text class="cls-13" transform="translate(800.67 353.88) rotate(90)">1</text><text class="cls-13" transform="translate(768.93 353.88) rotate(90)">2</text><text class="cls-13" transform="translate(737.19 353.88) rotate(90)">3</text><text class="cls-13" transform="translate(705.44 353.88) rotate(90)">4</text><text class="cls-13" transform="translate(673.7 353.88) rotate(90)">5</text><text class="cls-13" transform="translate(641.96 353.88) rotate(90)">6</text><text class="cls-13" transform="translate(610.22 353.88) rotate(90)">7</text><text class="cls-13" transform="translate(553.96 353.77) rotate(90)">8</text><text class="cls-13" transform="translate(531.94 353.77) rotate(90)">9</text><text class="cls-13" transform="translate(509.91 350.66) rotate(90)">10</text><text class="cls-13" transform="translate(487.89 350.66) rotate(90)">11</text><text class="cls-13" transform="translate(465.87 350.66) rotate(90)">12</text><text class="cls-13" transform="translate(443.85 350.66) rotate(90)">13</text><text class="cls-13" transform="translate(421.82 350.66) rotate(90)">14</text><text class="cls-13" transform="translate(399.8 350.66) rotate(90)">15</text><text class="cls-13" transform="translate(377.78 350.66) rotate(90)">16</text><text class="cls-13" transform="translate(355.76 350.66) rotate(90)">17</text><text class="cls-13" transform="translate(333.74 350.66) rotate(90)">18</text><text class="cls-13" transform="translate(311.72 350.66) rotate(90)">19</text><text class="cls-13" transform="translate(289.69 350.66) rotate(90)">20</text><text class="cls-13" transform="translate(267.67 350.66) rotate(90)">21</text><text class="cls-13" transform="translate(820.6 333.79) rotate(90)">B</text><text class="cls-13" transform="translate(820.6 374.56) rotate(90)">E</text><text class="cls-13" transform="translate(820.6 401.13) rotate(90)">F</text><text class="cls-13" transform="translate(571.73 302.84) rotate(90)">A</text><text class="cls-13" transform="translate(571.73 320.53) rotate(90)">B</text><text class="cls-13" transform="translate(571.73 338.07) rotate(90)">C</text><text class="cls-13" transform="translate(571.73 370.24) rotate(90)">D</text><text class="cls-13" transform="translate(571.73 405.3) rotate(90)">F</text><text class="cls-13" transform="translate(571.73 387.77) rotate(90)">E</text><path class="cls-14" d="M850.87,298.56a.45.45,0,0,1,.78,0l2.34,4.05,2.34,4.05a.45.45,0,0,1-.39.68h-9.36a.45.45,0,0,1-.39-.68l2.34-4.05Z"/><path class="cls-14" d="M850.87,416.09a.45.45,0,0,0,.78,0L854,412l2.34-4.05a.45.45,0,0,0-.39-.68h-9.36a.45.45,0,0,0-.39.68l2.34,4.05Z"/><path class="cls-14" d="M590.33,298.66a.45.45,0,0,1,.78,0l2.34,4.05,2.34,4.05a.45.45,0,0,1-.39.68H586a.45.45,0,0,1-.39-.68l2.34-4.05Z"/><path class="cls-14" d="M590.33,416.19a.45.45,0,0,0,.78,0l2.34-4.05,2.34-4.05a.45.45,0,0,0-.39-.68H586a.45.45,0,0,0-.39.68l2.34,4.05Z"/><path class="cls-14" d="M173.67,305.95a.45.45,0,0,1,.78,0l2.34,4.05,2.34,4.05a.45.45,0,0,1-.39.68h-9.36a.45.45,0,0,1-.39-.68l2.34-4.05Z"/><path class="cls-14" d="M173.67,408.94a.45.45,0,0,0,.78,0l2.34-4.05,2.34-4.05a.45.45,0,0,0-.39-.68h-9.36a.45.45,0,0,0-.39.68l2.34,4.05Z"/><rect class="cls-11" x="865.97" y="110.52" width="30.19" height="30.19"/><text class="cls-15" transform="translate(911.06 132.14)">Selec<tspan class="cls-16" x="53.68" y="0">t</tspan><tspan class="cls-17" x="60.74" y="0">ed</tspan></text><rect class="cls-18" x="865.97" y="52.02" width="30.19" height="30.19"/><text class="cls-15" transform="translate(911.06 73.65)"><tspan class="cls-19">A</tspan><tspan class="cls-20" x="13.66" y="0">v</tspan><tspan x="24.64" y="0">ailable</tspan></text><rect class="cls-12" x="865.97" y="169.02" width="30.19" height="30.19"/><text class="cls-15" transform="translate(911.06 190.64)">O<tspan class="cls-21" x="17.51" y="0">c</tspan><tspan x="28.51" y="0">cupied</tspan></text></g></g></svg>