<svg width="48px" height="47px" viewBox="164 1 48 47" version="1.1" xmlns="http://www.w3.org/2000/svg" xmlns:xlink="http://www.w3.org/1999/xlink">
	<defs></defs>
	<path d="M187.9985,1 C174.746,1 164,11.7870921 164,25.096644 C164,35.7406712 170.876,44.7718301 180.4145,47.9584121 C181.6145,48.1797862 182.0525,47.4358488 182.0525,46.7973276 C182.0525,46.2250681 182.0315,44.7100863 182.0195,42.6996482 C175.343,44.1558981 173.9345,39.4693938 173.9345,39.4693938 C172.844,36.6864054 171.2705,35.9454799 171.2705,35.9454799 C169.091,34.4500754 171.4355,34.4801943 171.4355,34.4801943 C173.843,34.6503662 175.1105,36.9634994 175.1105,36.9634994 C177.2525,40.6455377 180.728,39.5823398 182.096,38.9649018 C182.3135,37.4077535 182.9345,36.3460615 183.62,35.7436831 C178.2905,35.1352808 172.688,33.0691228 172.688,23.8361671 C172.688,21.2052792 173.6225,19.0547881 175.1585,17.3696344 C174.911,16.7597262 174.0875,14.3110578 175.3925,10.9934585 C175.3925,10.9934585 177.4085,10.3459017 181.9925,13.4632101 C183.908,12.9285993 185.96,12.6620468 188.0015,12.6515052 C190.04,12.6620468 192.0935,12.9285993 194.0105,13.4632101 C198.5915,10.3459017 200.603,10.9934585 200.603,10.9934585 C201.9125,14.3110578 201.089,16.7597262 200.8415,17.3696344 C202.3805,19.0547881 203.309,21.2052792 203.309,23.8361671 C203.309,33.0917119 197.6975,35.1292571 192.3515,35.7256117 C193.2125,36.4695491 193.9805,37.9393525 193.9805,40.1877301 C193.9805,43.4089489 193.9505,46.0067059 193.9505,46.7973276 C193.9505,47.4418726 194.3825,48.1918338 195.6005,47.9554002 C205.13,44.7627944 212,35.7376593 212,25.096644 C212,11.7870921 201.254,1 187.9985,1" id="Github" stroke="none" fill-rule="evenodd"></path>
</svg>