
<svg width="266px" height="490px" viewBox="0 0 266 490" version="1.1" xmlns="http://www.w3.org/2000/svg" xmlns:xlink="http://www.w3.org/1999/xlink">
    <!-- Generator: Sketch 43.1 (39012) - http://www.bohemiancoding.com/sketch -->
    <desc>Created with Sketch.</desc>
    <defs></defs>
    <g id="Page-1" stroke="none" stroke-width="1" fill="none" fill-rule="evenodd">
        <g id="Work" transform="translate(-176.000000, -268.000000)">
            <g id="Page-1" transform="translate(177.000000, 270.000000)">
                <path d="M125.24103,189.267478 C123.579473,186.322405 121.460541,183.634884 118.982855,181.331193 C118.351821,180.744747 117.694344,180.180417 116.969691,179.713829 C116.480157,179.399916 115.960608,179.130236 115.500374,178.774944 C115.030136,178.411091 114.631362,177.963765 114.181134,177.576368 C113.157043,176.695272 111.893545,176.143785 110.630047,175.664355 C108.923467,175.016553 106.908873,174.502877 105.358801,175.464592 C104.228228,176.165901 103.633641,177.557819 103.702961,178.8841 C103.768709,180.136898 104.349003,181.296234 104.917149,182.414905 C106.159922,184.859857 107.401981,187.305523 108.644754,189.751189 C109.117851,190.680798 109.595236,191.618969 110.254142,192.428722 C111.338263,193.761424 112.846885,194.671057 114.349791,195.506493 C115.029421,195.884615 115.729062,196.258457 116.495879,196.394724 C117.440644,196.563808 118.407563,196.357625 119.345182,196.153582 C120.17203,195.973082 120.999592,195.792582 121.80786,195.542879 C122.892696,195.207563 123.963239,194.732413 124.774364,193.93907 C125.584775,193.14644 126.100751,191.987817 125.904223,190.872 C125.803458,190.299109 125.526889,189.774019 125.24103,189.267478" id="Fill-1" fill="#FFFFFF"></path>
                <path d="M175.720707,167.848355 C175.662106,166.296628 175.242608,164.65572 174.082019,163.621948 C172.763493,162.447629 170.716026,162.33776 169.098777,163.049058 C167.482243,163.760355 166.25805,165.166542 165.401187,166.709708 C163.869696,169.46786 163.38302,172.664062 162.922787,175.783213 C162.777713,176.766331 162.631925,177.758723 162.706249,178.748262 C162.8356,180.470501 163.039989,183.678119 164.332073,184.82604 C165.67847,186.022476 168.538493,185.016528 169.837723,183.768012 C170.252219,183.369913 170.51378,182.841969 170.766051,182.324727 C171.290603,181.255996 171.813726,180.187266 172.338277,179.117823 C174.082734,175.557053 175.86864,171.810077 175.720707,167.848355" id="Fill-3" fill="#FFFFFF"></path>
                <path d="M134.039421,68.7996124 C133.366937,68.7311223 132.412167,69.5415879 132.048411,70.0224452 C131.541726,70.6838022 131.294457,71.3615684 131.463829,72.2626406 C131.59318,72.9732249 132.242796,73.4918943 132.749481,73.9563425 C133.393379,74.5499229 133.841464,74.9972486 134.626862,75.3924933 C136.138343,76.1416032 137.57693,76.9007013 139.192035,77.4678845 C140.085345,77.7825107 140.978656,78.0971369 141.864819,78.4345931 C142.567319,78.6971383 143.304121,79.3007068 144.048784,79.3363787 C144.919226,79.3749044 145.821827,79.108792 146.672973,78.9889344 C147.572715,78.8598021 148.68042,78.8626559 149.544429,79.0895292 C150.480618,79.3299578 151.393224,79.8193763 152.273671,80.237451 C152.903276,80.542089 153.176271,80.6626601 152.975455,79.8322182 C152.753914,78.9047487 151.864177,78.745652 151.377502,77.9515955 C150.525641,76.546836 148.589659,74.6369624 147.060312,74.0926092 C145.543114,73.5539634 145.065014,73.2550329 143.65144,72.5002155 C142.248585,71.7511055 140.858595,71.0761931 139.383561,70.4790455 C138.483819,70.1130518 137.128846,69.3832047 136.167644,69.3924794 L134.039421,68.7996124 Z" id="Fill-5" fill="#FFFFFF"></path>
                <path d="M91.4774027,378.529961 C91.519567,378.883113 91.5681631,379.224136 91.623191,379.551604" id="Stroke-7" stroke="#0055ED" stroke-linecap="round" stroke-linejoin="round"></path>
                <path d="M91.3245395,370.289181 C91.2373524,371.631871 91.2623651,371.64186 91.2437842,372.968141" id="Stroke-9" stroke="#0055ED" stroke-linecap="round" stroke-linejoin="round"></path>
                <path d="M91.7886321,364.412378 C91.6235483,365.74508 91.6942985,365.441155 91.5649472,366.929387" id="Stroke-11" stroke="#0055ED" stroke-linecap="round" stroke-linejoin="round"></path>
                <path d="M81.4122971,288.578909 C82.8694649,291.404837 84.012902,294.776545 84.6718077,298.796055 C86.1689957,307.948038 88.2450488,322.176133 88.2450488,328.15617 C88.2450488,334.132641 90.3568343,342.480579 91.2401395,344.591642 C92.1170129,346.699138 93.5270139,352.764075 93.0882199,355.313189 C93.0882199,355.313189 92.669436,357.596191 92.2342152,360.890848" id="Stroke-13" stroke="#0F5BE8" stroke-width="2.185" stroke-linecap="round" stroke-linejoin="round"></path>
                <path d="M124.011334,297.243257 C124.235019,297.83327 124.446555,298.361928 124.648086,298.822095" id="Stroke-15" stroke="#0055ED" stroke-linecap="round" stroke-linejoin="round"></path>
                <path d="M122.069064,291.603386 C122.409951,292.663555 122.737974,293.659515 123.053134,294.570575" id="Stroke-17" stroke="#0055ED" stroke-linecap="round" stroke-linejoin="round"></path>
                <path d="M78.7525908,161.462942 C85.2365942,169.681035 106.533826,236.234816 107.489311,239.458129 C108.196812,241.858848 116.244466,273.140252 121.594323,290.115083" id="Stroke-19" stroke="#0055ED" stroke-linecap="round" stroke-linejoin="round"></path>
                <path d="M194.14734,300.324168 C194.459641,300.648068 194.459641,300.648068 194.77766,300.975537" id="Stroke-21" stroke="#0055ED" stroke-linecap="round" stroke-linejoin="round"></path>
                <path d="M191.779353,297.81044 C192.107377,298.183568 192.445405,298.55955 192.789151,298.932678" id="Stroke-23" stroke="#0055ED" stroke-linecap="round" stroke-linejoin="round"></path>
                <path d="M187.705787,292.732045 C188.624825,293.948457 189.606037,295.189839 190.658713,296.438356" id="Stroke-25" stroke="#0055ED" stroke-linecap="round" stroke-linejoin="round"></path>
                <path d="M66.9183735,100.221493 C67.0191389,100.623158 78.8272716,111.474551 72.3525586,132.564493 C66.6968326,150.978328 64.8165931,152.049199 64.0076113,154.561928 C63.6009765,155.814011 63.6074083,159.753616 63.7574844,163.554101" id="Stroke-27" stroke="#0F5BE8" stroke-width="2.185" stroke-linecap="round" stroke-linejoin="round"></path>
                <path d="M95.592919,147.115418 C95.8459044,147.657631 96.0931727,148.215539 96.3332945,148.792711" id="Stroke-29" stroke="#0055ED" stroke-linecap="round" stroke-linejoin="round"></path>
                <path d="M92.4356031,141.654549 C93.0880769,142.614837 93.7870029,143.710678 94.4623455,144.926376" id="Stroke-31" stroke="#0055ED" stroke-linecap="round" stroke-linejoin="round"></path>
                <path d="M100.7371,109.345009 C99.2770735,115.389257 96.0332852,125.741956 88.9982881,133.154577 C88.9982881,133.154577 88.7417293,136.511303 89.193387,137.35102 C89.297011,137.545075 89.8108431,138.145076 90.5447868,139.086814" id="Stroke-33" stroke="#0F5BE8" stroke-width="2" stroke-linecap="round" stroke-linejoin="round"></path>
                <path d="M139.312096,156.067567 L132.2235,167.095892 C132.2235,167.095892 130.066692,165.928708 130.579809,163.411698 C130.937133,161.657354 132.85382,159.325839 136.609296,155.946283 C137.098116,155.507518 137.575501,155.033082 138.037878,154.536529" id="Stroke-35" stroke="#0F5BE8" stroke-width="2" stroke-linecap="round" stroke-linejoin="round"></path>
                <path d="M130.503914,125.219006 C133.040915,125.256105 136.403335,125.400933 137.180872,125.964549 C137.658972,127.582626 138.136357,129.298445 138.610168,130.534119 C139.091127,131.769794 137.960553,139.404294 144.385955,145.296579 C148.179308,148.773876 152.392159,149.105625 155.820327,148.59837" id="Stroke-37" stroke="#0055ED" stroke-linecap="round" stroke-linejoin="round"></path>
                <path d="M111.302602,150.23885 C111.302602,150.23885 111.056048,147.761079 112.108725,146.24003 C112.676156,145.413868 117.251334,139.774854 121.398438,134.528231" id="Stroke-39" stroke="#0055ED" stroke-linecap="round" stroke-linejoin="round"></path>
                <path d="M50.2385554,123.776149 C49.9205369,123.678408 49.4731671,123.46937 49.2001715,123.365922" id="Stroke-41" stroke="#0055ED" stroke-linecap="round" stroke-linejoin="round"></path>
                <path d="M52.9820185,124.472821 C52.4939137,124.433582 52.1001426,124.307303 51.6677804,124.222404" id="Stroke-43" stroke="#0055ED" stroke-linecap="round" stroke-linejoin="round"></path>
                <path d="M66.1192539,100.048056 C66.1192539,100.048056 66.5894924,110.02834 64.5363081,113.507778 C62.4838384,116.987928 59.553066,123.804829 56.6751776,124.347042 C55.9540975,124.479028 55.2594594,124.543951 54.6026977,124.551085" id="Stroke-45" stroke="#0055ED" stroke-linecap="round" stroke-linejoin="round"></path>
                <path d="M133.516728,69.0782813 C133.516728,69.0782813 129.000865,71.4811406 133.363793,74.5917304 C137.72672,77.7016068 141.501492,78.0190867 143.281681,79.161301 C145.06187,80.3020885 149.55129,76.2062407 154.489509,82.9161254" id="Stroke-47" stroke="#0055ED" stroke-linecap="round" stroke-linejoin="round"></path>
                <path d="M163.702254,172.359567 C162.987606,175.453748 163.364225,184.518691 164.332573,184.826183 C165.473867,185.18861 167.808622,184.826183 167.808622,184.826183 C167.808622,184.826183 170.377783,183.85234 172.979102,177.795965" id="Stroke-49" stroke="#0F5BE8" stroke-width="2" stroke-linecap="round" stroke-linejoin="round"></path>
                <path d="M164.332431,169.668193 C164.332431,169.668193 167.46116,160.541894 172.798153,162.637261 C177.183235,164.355934 174.739853,174.454649 174.656239,174.639429" id="Stroke-51" stroke="#0055ED" stroke-linecap="round" stroke-linejoin="round"></path>
                <path d="M61.1257923,301.595015 C60.7198721,301.520817 60.3010883,301.426643 59.8715847,301.312493" id="Stroke-53" stroke="#0055ED" stroke-linecap="round" stroke-linejoin="round"></path>
                <path d="M64.1602602,301.857631 C63.6757287,301.867619 63.1654698,301.85121 62.6330569,301.802697" id="Stroke-55" stroke="#0055ED" stroke-linecap="round" stroke-linejoin="round"></path>
                <path d="M57.145702,273.792477 C57.145702,273.792477 63.8126553,276.117572 64.5951951,277.486659 C65.3813081,278.858601 69.649902,287.529727 70.3909922,291.450782 C71.1249359,295.36827 70.4817525,299.387067 69.2532722,300.414417 C68.5128967,301.037249 66.7198443,301.806335 64.1599743,301.857703" id="Stroke-57" stroke="#0055ED" stroke-linecap="round" stroke-linejoin="round"></path>
                <path d="M157.341599,291.175609 C157.783251,291.826978 158.19203,292.346361 158.562932,292.70308" id="Stroke-59" stroke="#0055ED" stroke-linecap="round" stroke-linejoin="round"></path>
                <path d="M154.84033,286.807156 C155.145485,287.400023 155.437776,287.961499 155.726494,288.48659" id="Stroke-61" stroke="#0055ED" stroke-linecap="round" stroke-linejoin="round"></path>
                <path d="M103.004607,178.255918 C103.468414,179.164838 103.787147,179.799798 103.915784,180.023104 C104.383878,180.837137 113.742197,199.928739 122.701742,217.12973 C129.260783,229.722625 135.264543,240.551187 137.0383,244.485085 C139.818996,250.63064 148.778541,275.001683 154.840187,286.806942" id="Stroke-63" stroke="#0055ED" stroke-linecap="round" stroke-linejoin="round"></path>
                <path d="M69.9493396,178.154895 C71.0606176,180.966555 72.4020123,183.554194 73.8534628,184.70283 C80.266716,188.282862 87.7640906,184.041473 87.361029,182.578211 C87.3160061,182.416974 87.062306,180.512808 86.9515355,180.13968" id="Stroke-65" stroke="#0055ED" stroke-linecap="round" stroke-linejoin="round"></path>
                <path d="M68.6303134,174.451795 C68.8897307,175.262261 69.1763046,176.09627 69.4807447,176.925998" id="Stroke-67" stroke="#0055ED" stroke-linecap="round" stroke-linejoin="round"></path>
                <path d="M67.5318276,170.744628 C67.7297851,171.477329 67.9670483,172.307771 68.2336121,173.190294" id="Stroke-69" stroke="#0055ED" stroke-linecap="round" stroke-linejoin="round"></path>
                <path d="M66.7717992,167.757749 C66.7717992,167.757749 66.8954333,168.31209 67.1291233,169.220297" id="Stroke-71" stroke="#0055ED" stroke-linecap="round" stroke-linejoin="round"></path>
                <path d="M92.6107634,182.808937 C94.0436331,182.903111 95.7780843,182.64984 97.8248368,181.764464 C102.031971,179.948051 102.910274,178.3792 103.004607,178.255775" id="Stroke-73" stroke="#0055ED" stroke-linecap="round" stroke-linejoin="round"></path>
                <path d="M87.3060725,180.110572 C87.3353731,180.182629 88.6217399,181.984773 91.2916657,182.614739" id="Stroke-75" stroke="#0055ED" stroke-linecap="round" stroke-linejoin="round"></path>
                <path d="M115.000049,196.128112 C112.868968,195.242735 111.884897,193.666751 111.884897,193.666751 L108.272351,188.727619" id="Stroke-77" stroke="#0055ED" stroke-linecap="round" stroke-linejoin="round"></path>
                <path d="M124.973037,189.612354 C125.115966,189.787859 127.863789,194.074908 121.30832,196.167422 C119.573869,196.721764 118.098835,196.805949 116.863923,196.634011" id="Stroke-79" stroke="#0055ED" stroke-linecap="round" stroke-linejoin="round"></path>
                <path d="M165.365312,208.42864 C167.639322,210.944936 170.283521,212.531622 173.019194,211.380133 C174.254106,210.857896 176.774671,209.350402 176.962623,208.432207 C177.157722,207.514726 174.721486,202.82173 174.350584,201.81935" id="Stroke-81" stroke="#0055ED" stroke-linecap="round" stroke-linejoin="round"></path>
                <path d="M161.772561,203.343967 C162.11988,203.940401 163.235446,205.576314 163.619212,206.166328" id="Stroke-83" stroke="#0055ED" stroke-linecap="round" stroke-linejoin="round"></path>
                <path d="M158.368191,196.286923 C158.368191,196.286923 159.348688,198.861721 160.979515,201.913809" id="Stroke-85" stroke="#0055ED" stroke-linecap="round" stroke-linejoin="round"></path>
                <path d="M145.422838,146.697415 C145.360664,147.086238 145.364237,153.537145 146.159641,167.787356 C146.810685,170.950741 150.312462,175.086541 155.217092,175.817102" id="Stroke-87" stroke="#0F5BE8" stroke-width="2" stroke-linecap="round" stroke-linejoin="round"></path>
                <path d="M134.946024,108.124388 C135.160419,107.745553 135.407687,107.43378 135.679968,107.210474" id="Stroke-89" stroke="#0055ED" stroke-linecap="round" stroke-linejoin="round"></path>
                <path d="M133.964741,111.672744 C134.042637,110.92292 134.172703,110.232312 134.348507,109.615902" id="Stroke-91" stroke="#0055ED" stroke-linecap="round" stroke-linejoin="round"></path>
                <path d="M134.075011,116.406976 C133.932796,115.379625 133.86419,114.36797 133.867048,113.407682" id="Stroke-93" stroke="#0F5BE8" stroke-width="0.986" stroke-linecap="round" stroke-linejoin="round"></path>
                <path d="M137.3496,125.964477 C137.3496,125.964477 135.23853,121.946394 134.348793,117.89906" id="Stroke-95" stroke="#0055ED" stroke-linecap="round" stroke-linejoin="round"></path>
                <path d="M112.59583,116.319865 C112.368571,115.875393 112.187051,115.443763 112.030543,115.032109" id="Stroke-97" stroke="#0F5BE8" stroke-width="0.986" stroke-linecap="round" stroke-linejoin="round"></path>
                <path d="M115.513024,120.139969 C114.941305,119.614879 114.447483,119.0798 114.018694,118.544722" id="Stroke-99" stroke="#0F5BE8" stroke-width="0.986" stroke-linecap="round" stroke-linejoin="round"></path>
                <path d="M118.469309,122.267727 C117.761093,121.868201 117.127914,121.447273 116.552622,121.009222" id="Stroke-101" stroke="#0F5BE8" stroke-width="0.986" stroke-linecap="round" stroke-linejoin="round"></path>
                <path d="M107.677692,81.8010218 C107.512608,81.4892494 107.352527,81.1646351 107.206739,80.8314595" id="Stroke-103" stroke="#0055ED" stroke-linecap="round" stroke-linejoin="round"></path>
                <path d="M110.870597,86.0328508 C110.198828,85.4035985 109.558503,84.6901605 108.967489,83.8825486" id="Stroke-105" stroke="#0055ED" stroke-linecap="round" stroke-linejoin="round"></path>
                <path d="M113.681023,88.1376357 C113.156471,87.8258633 112.632634,87.4769921 112.118802,87.0860281" id="Stroke-107" stroke="#0055ED" stroke-linecap="round" stroke-linejoin="round"></path>
                <path d="M122.653217,90.7677964 C122.653217,90.7677964 119.002079,90.7677964 115.057936,88.8771856" id="Stroke-109" stroke="#0055ED" stroke-linecap="round" stroke-linejoin="round"></path>
                <path d="M85.3986764,97.3935668 C85.1485495,97.0432687 84.9184328,96.7058125 84.7104702,96.3819117" id="Stroke-111" stroke="#0055ED" stroke-linecap="round" stroke-linejoin="round"></path>
                <path d="M88.8100497,101.197618 C87.9910628,100.477759 87.2378236,99.6865567 86.5746301,98.8982076" id="Stroke-113" stroke="#0055ED" stroke-linecap="round" stroke-linejoin="round"></path>
                <path d="M93.0301904,103.775484 C92.0325415,103.425899 91.0906351,102.912938 90.2137618,102.29724" id="Stroke-115" stroke="#0055ED" stroke-linecap="round" stroke-linejoin="round"></path>
                <path d="M96.366883,104.268042 C96.1939381,104.270895 96.0159907,104.272322 95.8330408,104.272322 C95.3785245,104.272322 94.93044,104.229516 94.4880728,104.155319" id="Stroke-117" stroke="#0055ED" stroke-linecap="round" stroke-linejoin="round"></path>
                <path d="M104.214721,413.046022 C101.644846,410.149464 74.6790245,390.542046 70.7220172,380.421214 C69.4292186,377.106581 64.8033006,360.355769 64.8033006,360.355769 C64.4259664,358.712008 56.1424788,325.960208 56.1424788,323.842724 C56.1424788,321.728093 57.7668742,300.08381 57.6625356,298.812464 C57.5653434,297.541831 55.4478407,289.476414 55.0476377,286.661187 C54.648864,283.845961 55.0183371,272.430239 55.1419713,272.433092 C55.7429904,272.381725 57.1301226,273.065912 57.1301226,273.065912 C57.1301226,273.065912 75.65309,272.508717 82.4944175,290.607926 C81.02653,281.319676 77.875646,262.454948 76.9008658,255.151483 C75.4058217,249.194275 63.6991691,179.295897 63.8156568,174.02359 C63.9292859,168.753423 66.4341279,166.914893 66.4341279,166.914893 C66.4341279,166.914893 66.9172301,157.512493 71.0729095,156.733419 C75.6695269,155.872299 79.9738532,162.80549 80.8635902,164.631891 C80.8635902,164.631891 82.7817061,157.381934 85.4609223,156.440909 C93.4492601,153.637098 103.182054,178.274967 103.993895,179.68258 C104.038918,179.760345 103.7795,179.260938 103.993895,179.68258 C103.993895,179.68258 104.817884,175.130846 106.861063,174.460214 C109.876879,173.469962 117.331375,179.260938 119.744742,182.128959 C120.969649,183.584373 127.53941,192.301159 128.468453,193.507583 C129.391063,194.717573 159.277652,234.139306 160.983518,237.265591 C162.688668,240.389023 176.280563,272.709906 177.206747,274.554857 C177.849216,275.842613 180.666359,282.389834 186.247047,290.179863" id="Stroke-119" stroke="#0F5BE8" stroke-width="2.185" stroke-linecap="round" stroke-linejoin="round"></path>
                <polygon id="Stroke-121" stroke="#0F5BE8" stroke-width="2.185" stroke-linecap="round" stroke-linejoin="round" points="96.1309776 134.885306 83.3051859 141.13431 70.4872553 147.379033 57.3077127 153.800689 55.243094 149.699847 68.1067621 143.431581 81.7558285 136.782338 94.1156696 130.760921 99.2489878 128.259607 110.952067 122.558524 124.422472 115.994894 138.073682 109.344225 140.090419 113.467897 126.252686 120.209886 113.436899 126.453896 101.26501 132.383993"></polygon>
                <polyline id="Stroke-123" stroke="#0F5BE8" stroke-width="2.185" stroke-linecap="round" stroke-linejoin="round" points="139.166236 135.626569 126.252543 120.209886 120.693294 113.355173 65.6803884 45.5243385 67.7292849 61.7600479 72.8540273 75.8055026 110.778265 121.719521 116.063803 128.118347 145.960397 164.061355"></polyline>
                <polyline id="Stroke-125" stroke="#0F5BE8" stroke-width="2.185" stroke-linecap="round" stroke-linejoin="round" points="173.329709 178.255918 242.829249 263.949101 263.953536 307.160616 156.221745 176.74771"></polyline>
                <polyline id="Stroke-127" stroke="#0F5BE8" stroke-width="2.185" stroke-linecap="round" stroke-linejoin="round" points="85.4608508 155.287922 83.0010316 144.226065 81.2001181 136.12997 68.2299674 77.8106915"></polyline>
                <g id="Group-132" transform="translate(70.035526, 147.656703)">
                    <path d="M0.293434562,0.297575005 L2.17939123,8.53992465" id="Fill-129" fill="#FFFFFF"></path>
                    <path d="M0.293434562,0.297575005 L2.17939123,8.53992465" id="Stroke-131" stroke="#0F5BE8" stroke-width="3.01" stroke-linecap="round" stroke-linejoin="round"></path>
                </g>
                <polyline id="Stroke-133" stroke="#0F5BE8" stroke-width="2.185" stroke-linecap="round" stroke-linejoin="round" points="60.6093161 65.6281663 48.7811733 53.7572708 58.9906378 98.3892409"></polyline>
                <path d="M111.471473,123.948943 C113.321698,127.733732 117.894732,129.304009 121.685941,127.456918 C125.477864,125.609827 127.050805,121.044537 125.200581,117.259748 C123.350356,113.47496 118.777322,111.903969 114.986113,113.75106 C111.19419,115.598151 109.621249,120.163441 111.471473,123.948943" id="Fill-135" fill="#FFFFFF"></path>
                <path d="M111.471473,123.948943 C113.321698,127.733732 117.894732,129.304009 121.685941,127.456918 C125.477864,125.609827 127.050805,121.044537 125.200581,117.259748 C123.350356,113.47496 118.777322,111.903969 114.986113,113.75106 C111.19419,115.598151 109.621249,120.163441 111.471473,123.948943 Z" id="Stroke-137" stroke="#0F5BE8" stroke-width="2.185" stroke-linecap="round" stroke-linejoin="round"></path>
                <path d="M120.352264,124.728517 C118.073966,125.838627 115.316853,124.891181 114.20486,122.616741 C113.093582,120.343014 114.04192,117.589143 116.319504,116.479033 C118.597803,115.37035 121.354916,116.317083 122.466908,118.591523 C123.578901,120.86525 122.630563,123.618408 120.352264,124.728517 Z" id="Stroke-139" stroke="#0F5BE8" stroke-width="0.941" stroke-linecap="round" stroke-linejoin="round"></path>
                <path d="M59.9511965,66.9755653 C50.0140129,69.1593992 39.6344621,64.6012435 35.1121681,55.350806 C29.779463,44.4423384 34.6111997,31.1395727 45.904071,25.6375386 C57.1969422,20.1362179 70.6737785,24.5181543 76.0064836,35.4266219 C80.5287775,44.6770595 77.7416494,55.6497365 69.9041024,62.126327" id="Stroke-141" stroke="#0F5BE8" stroke-width="2.185" stroke-linecap="round" stroke-linejoin="round"></path>
                <path d="M52.9617939,71.7871341 C47.3653837,70.6342183 42.5279298,67.2546623 40.0016483,62.0865172 C35.3878794,52.6491588 40.2253332,40.8196427 50.8049856,35.6643394 C61.3860672,30.5097496 73.7030294,33.9813391 78.3167983,43.4186975 C80.7987716,48.496236 80.5572205,54.9214589 77.7686632,60.2194498" id="Stroke-143" stroke="#0F5BE8" stroke-width="2.185" stroke-linecap="round" stroke-linejoin="round"></path>
                <path d="M50.6245369,30.0363835 C51.1833918,31.1807381 50.7081507,32.5612407 49.561855,33.1198627 C48.4148446,33.6777712 47.0327149,33.2026215 46.4724307,32.0589803 C45.9135758,30.9139123 46.3895315,29.5341231 47.5358273,28.9755011 C48.682123,28.4168791 50.0649673,28.8920289 50.6245369,30.0363835 Z" id="Stroke-145" stroke="#0F5BE8" stroke-width="1.108" stroke-linecap="round" stroke-linejoin="round"></path>
                <path d="M50.5826585,23.7422191 L39.0082158,0.0653509242 C39.0082158,0.0653509242 36.6413009,0.0953153218 34.0378374,1.36452159 C31.2135476,2.74074356 29.9543375,4.47653831 29.9543375,4.47653831 L41.5287801,28.1534065" id="Stroke-147" stroke="#0F5BE8" stroke-width="2.185" stroke-linecap="round" stroke-linejoin="round"></path>
                <path d="M40.440085,2.9953696 C40.440085,2.9953696 38.0731701,3.025334 35.4697066,4.29382683 C32.6461315,5.6700488 31.3869213,7.40655699 31.3869213,7.40655699" id="Stroke-149" stroke="#0F5BE8" stroke-width="2" stroke-linecap="round" stroke-linejoin="round"></path>
                <polygon id="Fill-151" fill="#FFFFFF" points="107.306432 144.741738 102.173114 147.243052 88.0745338 118.402319 93.207852 115.901006"></polygon>
                <polygon id="Stroke-153" stroke="#0F5BE8" stroke-width="2.185" stroke-linecap="round" stroke-linejoin="round" points="107.306432 144.741738 102.173114 147.243052 88.0745338 118.402319 93.207852 115.901006"></polygon>
                <path d="M88.9796357,120.052145 L94.0329133,117.59007" id="Stroke-155" stroke="#0F5BE8" stroke-width="0.463" stroke-linecap="round" stroke-linejoin="round"></path>
                <path d="M89.9336197,122.018309 L94.9933291,119.55338" id="Stroke-157" stroke="#0F5BE8" stroke-width="0.463" stroke-linecap="round" stroke-linejoin="round"></path>
                <path d="M90.8869604,123.985115 L95.9531017,121.516619" id="Stroke-159" stroke="#0F5BE8" stroke-width="0.463" stroke-linecap="round" stroke-linejoin="round"></path>
                <path d="M91.8410158,125.951992 L96.9135889,123.480643" id="Stroke-161" stroke="#0F5BE8" stroke-width="0.462" stroke-linecap="round" stroke-linejoin="round"></path>
                <path d="M92.7943565,127.918085 L97.8726468,125.443881" id="Stroke-163" stroke="#0F5BE8" stroke-width="0.462" stroke-linecap="round" stroke-linejoin="round"></path>
                <path d="M93.7483404,129.884962 L98.8323479,127.407192" id="Stroke-165" stroke="#0F5BE8" stroke-width="0.462" stroke-linecap="round" stroke-linejoin="round"></path>
                <path d="M94.7023958,131.851054 L99.7928351,129.371144" id="Stroke-167" stroke="#0F5BE8" stroke-width="0.462" stroke-linecap="round" stroke-linejoin="round"></path>
                <path d="M95.6557365,133.817932 L100.752608,131.335167" id="Stroke-169" stroke="#0F5BE8" stroke-width="0.462" stroke-linecap="round" stroke-linejoin="round"></path>
                <path d="M96.6097204,135.784738 L101.713023,133.298406" id="Stroke-171" stroke="#0F5BE8" stroke-width="0.462" stroke-linecap="round" stroke-linejoin="round"></path>
                <path d="M97.5637758,137.750902 L102.672081,135.26243" id="Stroke-173" stroke="#0F5BE8" stroke-width="0.462" stroke-linecap="round" stroke-linejoin="round"></path>
                <path d="M98.5171166,139.717708 L103.632569,137.225669" id="Stroke-175" stroke="#0F5BE8" stroke-width="0.462" stroke-linecap="round" stroke-linejoin="round"></path>
                <path d="M99.4711005,141.683872 L104.59227,139.188979" id="Stroke-177" stroke="#0F5BE8" stroke-width="0.462" stroke-linecap="round" stroke-linejoin="round"></path>
                <path d="M100.425156,143.650678 L105.552042,141.152931" id="Stroke-179" stroke="#0F5BE8" stroke-width="0.462" stroke-linecap="round" stroke-linejoin="round"></path>
                <path d="M101.378497,145.617483 L106.512529,143.11617" id="Stroke-181" stroke="#0F5BE8" stroke-width="0.462" stroke-linecap="round" stroke-linejoin="round"></path>
                <path d="M82.5338661,138.046978 C84.3840903,141.831767 82.8111496,146.397057 79.0199407,148.244148 C75.2280172,150.091239 70.6549832,148.520962 68.804759,144.736173 C66.9545347,140.950671 68.5281901,136.385381 72.319399,134.53829 C76.1106078,132.691199 80.6836418,134.26219 82.5338661,138.046978" id="Fill-183" fill="#FFFFFF"></path>
                <path d="M82.5338661,138.046978 C84.3840903,141.831767 82.8111496,146.397057 79.0199407,148.244148 C75.2280172,150.091239 70.6549832,148.520962 68.804759,144.736173 C66.9545347,140.950671 68.5281901,136.385381 72.319399,134.53829 C76.1106078,132.691199 80.6836418,134.26219 82.5338661,138.046978 Z" id="Stroke-185" stroke="#0F5BE8" stroke-width="2.185" stroke-linecap="round" stroke-linejoin="round"></path>
                <path d="M77.6855496,145.515747 C75.407251,146.625857 72.6501382,145.678411 71.5381455,143.403971 C70.4268675,141.130244 71.3759204,138.376373 73.6527896,137.266263 C75.9310882,136.156867 78.6889157,137.104313 79.8009083,139.378753 C80.912901,141.65248 79.9638481,144.405638 77.6855496,145.515747 Z" id="Stroke-187" stroke="#0F5BE8" stroke-width="0.941" stroke-linecap="round" stroke-linejoin="round"></path>
                <path d="M152.169475,163.79139 C152.078715,165.734795 151.710671,167.183074 151.91649,169.469643 C151.91649,169.469643 154.900861,176.079647 157.357821,177.355274 C157.357821,177.355274 161.65643,176.631848 163.470207,173.136001" id="Stroke-189" stroke="#0055ED" stroke-linecap="round" stroke-linejoin="round"></path>
                <path d="M152.547024,159.792927 C152.442685,160.52206 152.351925,161.284725 152.283319,162.082349" id="Stroke-191" stroke="#0055ED" stroke-linecap="round" stroke-linejoin="round"></path>
                <path d="M153.108809,156.733633 C152.965879,157.333634 152.936578,157.506286 152.812944,158.174778" id="Stroke-193" stroke="#0055ED" stroke-linecap="round" stroke-linejoin="round"></path>
                <path d="M156.185155,148.598085 C156.185155,148.598085 154.690825,150.848268 153.518088,155.103213" id="Stroke-195" stroke="#0055ED" stroke-linecap="round" stroke-linejoin="round"></path>
                <path d="M162.379011,147.424123 C162.379011,147.424123 165.566342,149.931144 165.369099,152.431744 C165.170427,154.930918 165.053225,165.68885 165.021066,165.880051" id="Stroke-197" stroke="#0055ED" stroke-linecap="round" stroke-linejoin="round"></path>
                <path d="M163.36444,173.476454 C164.292053,170.679777 164.878779,166.616034 165.176787,165.004377 C165.612723,162.650032 169.341043,143.538454 169.341043,143.538454" id="Stroke-199" stroke="#0F5BE8" stroke-width="2" stroke-linecap="round" stroke-linejoin="round"></path>
                <path d="M174.487582,486.183124 C173.906573,485.356249 139.194679,434.209876 126.909162,427.931621 C114.973822,422.638624 105.955676,415.072614 103.386515,412.176769 C102.99989,411.742285 104.130464,412.922312 103.386515,412.176769 C103.386515,412.176769 97.5814276,437.592286 95.6675997,445.829641 C94.2697478,451.844637 90.3499022,468.42137 88.3381675,478.876805" id="Stroke-201" stroke="#0F5BE8" stroke-width="3" stroke-linecap="round" stroke-linejoin="round"></path>
                <path d="M184.382387,287.257265 C184.382387,287.257265 184.492443,288.350252 184.382387,287.257265 C184.268758,286.168558 179.925126,273.902418 178.287867,266.414172 C176.498388,258.232465 159.612679,214.541519 158.049744,209.972662 C156.490381,205.403805 154.859554,199.955279 158.062607,196.271085 C156.792677,192.324346 159.297519,187.058459 160.441671,187.079149 C161.980309,187.106973 163.8777,188.267023 165.072592,189.356443 C166.268198,190.44943 173.207432,200.651594 174.955462,202.960993 C179.191182,208.57147 204.465431,268.928328 205.712492,272.144507 C206.436431,274.010147 224.11254,308.581214 224.63209,316.578141 C225.151639,324.572214 227.587875,389.945968 230.09629,397.790933 C231.356215,401.740526 232.083727,409.977882 263.335294,463.4786" id="Stroke-203" stroke="#0F5BE8" stroke-width="2.185" stroke-linecap="round" stroke-linejoin="round"></path>
                <path d="M155.217164,177.35506 C152.890984,183.037594 151.575317,184.196931 151.237288,185.578147 C147.966343,198.875205 148.89753,217.894036 148.963277,220.722105" id="Stroke-205" stroke="#0F5BE8" stroke-width="2.185" stroke-linecap="round" stroke-linejoin="round"></path>
                <path d="M173.329709,178.255918 C174.68897,175.059716 176.429138,170.186221 178.333676,165.507494 C183.381236,153.108654 174.971256,145.166662 169.40629,144.907684 C169.02038,133.284351 165.662248,129.79778 162.685738,127.277917 C162.750771,124.566852 161.64521,119.076946 160.418159,113.005589 C159.18682,106.937798 155.372743,103.967042 147.349387,100.351338 C142.436895,98.1361131 132.987102,97.3741613 125.791309,96.7670255 C121.233997,96.381769 117.631455,95.8074514 116.507314,95.7625048 C114.507013,96.0685697 112.486703,97.3556119 110.114785,99.4224419" id="Stroke-207" stroke="#0F5BE8" stroke-width="2.185" stroke-linecap="round" stroke-linejoin="round"></path>
                <path d="M89.3362452,74.5788885 C97.8970163,71.0965975 111.934137,66.8915937 118.209463,65.2093068 C126.376463,63.0240461 131.45118,68.5917165 134.543463,69.5841088 C137.629314,70.5800683 149.083695,72.8859001 154.362802,82.9196926 C151.870824,82.7092284 151.273378,82.9196926 151.273378,82.9196926 C151.273378,82.9196926 147.918104,92.8200723 138.922112,92.5546733 C130.748681,92.311391 122.595259,91.0921253 122.295821,90.8937896 C122.067134,90.7404004 113.946586,95.3591983 109.179882,98.2878614" id="Stroke-209" stroke="#0F5BE8" stroke-width="2.185" stroke-linecap="round" stroke-linejoin="round"></path>
                <path d="M72.214703,93.2829509 C74.1342481,89.8020867 76.1895764,86.269855 78.3878344,83.1635458" id="Stroke-211" stroke="#0F5BE8" stroke-width="3" stroke-linecap="round" stroke-linejoin="round"></path>
                <path d="M0.0659620313,445.322101 C6.76364521,428.518495 13.8343748,410.21881 17.6963338,398.52342 C26.4507745,372.007782 35.0987327,342.982982 36.3072029,337.560853 C37.5149584,332.138011 47.2741946,300.297984 48.8857263,295.277521 C50.4965434,290.254204 56.02935,276.292935 48.3818993,256.908823 C40.7344486,237.525425 28.926316,215.738454 31.0702607,181.589743 C31.9149749,168.078653 29.8031894,154.921429 29.9689878,152.752577 C30.7808281,142.176572 47.2284571,124.362737 47.8780723,122.822425 C48.6834809,120.911838 49.9898578,116.394348 51.6013896,112.175075 C53.2122067,107.955803 60.5545025,94.8991734 62.8671042,93.1904893 C65.1832791,91.484659 66.6940455,99.8226093 66.7912376,100.221421" id="Stroke-213" stroke="#0F5BE8" stroke-width="2.185" stroke-linecap="round" stroke-linejoin="round"></path>
                <path d="M161.869538,127.004741 C161.869538,127.004741 160.518139,120.678686 155.684973,119.711978 C153.986254,119.371668 152.709177,119.705557 151.766556,120.334809" id="Stroke-215" stroke="#0055ED" stroke-linecap="round" stroke-linejoin="round"></path>
                <path d="M150.613829,121.417737 C149.742673,122.536407 149.41179,123.856981 149.395354,124.411323 C149.363194,125.568519 150.2465,141.424679 150.2465,141.424679 C150.2465,141.424679 154.580841,149.779039 158.851579,151.391409 C159.588381,151.668936 162.182554,146.751208 162.182554,146.751208 C162.182554,146.751208 163.68403,143.538596 161.967445,127.277917" id="Stroke-217" stroke="#0055ED" stroke-linecap="round" stroke-linejoin="round"></path>
                <path d="M242.829249,263.949315 L234.901656,271.992616" id="Stroke-219" stroke="#0F5BE8" stroke-width="1.785"></path>
                <path d="M246.1122,270.664265 L239.364491,277.395553" id="Stroke-221" stroke="#0F5BE8" stroke-width="0.892" stroke-linecap="round" stroke-linejoin="round"></path>
                <path d="M74.7348385,66.2719014 C76.6865428,70.2650141 75.026415,75.0814343 71.0272435,77.0291201 C67.028072,78.9782328 62.2034819,77.3209163 60.2510629,73.328517 C58.2993586,69.3354043 59.9594864,64.5189841 63.9586579,62.5705849 C67.958544,60.6221856 72.7831342,62.2787887 74.7348385,66.2719014" id="Fill-223" fill="#FFFFFF"></path>
                <path d="M74.7348385,66.2719014 C76.6865428,70.2650141 75.026415,75.0814343 71.0272435,77.0291201 C67.028072,78.9782328 62.2034819,77.3209163 60.2510629,73.328517 C58.2993586,69.3354043 59.9594864,64.5189841 63.9586579,62.5705849 C67.958544,60.6221856 72.7831342,62.2787887 74.7348385,66.2719014 Z" id="Stroke-225" stroke="#0F5BE8" stroke-width="2.185" stroke-linecap="round" stroke-linejoin="round"></path>
                <path d="M69.6932097,74.3008617 C67.2069485,75.5115661 64.1982794,74.4785078 62.9840921,71.9971703 C61.7713341,69.5151194 62.8068594,66.5108318 65.2931205,65.299414 C67.7786671,64.0887097 70.7880507,65.1224814 72.0008088,67.6038189 C73.2142815,70.0858698 72.1794708,73.0901574 69.6932097,74.3008617 Z" id="Stroke-227" stroke="#0F5BE8" stroke-width="0.941" stroke-linecap="round" stroke-linejoin="round"></path>
            </g>
        </g>
    </g>
</svg>