<svg xmlns="http://www.w3.org/2000/svg" viewBox="0 0 559.54 651.77"><defs><style>.cls-1,.cls-2,.cls-3,.cls-4{fill:none;stroke-linecap:round;stroke-linejoin:round;}.cls-1,.cls-4{stroke:#0f5be8;}.cls-1{stroke-width:2.18px;}.cls-2,.cls-3{stroke:#0055ed;}.cls-3{stroke-width:1.5px;}.cls-4{stroke-width:0.55px;}</style></defs><title>Asset 2</title><g id="Layer_2" data-name="Layer 2"><g id="Layer_2-2" data-name="Layer 2"><path class="cls-1" d="M176.82,394.67a16.89,16.89,0,0,1-2.37-.72"/><path class="cls-1" d="M186.77,393.58a17.27,17.27,0,0,1-4.7,1.33"/><path class="cls-1" d="M190.69,137.87c2.35-6.93,8.15-15.8,15.46-16.06,22.67-.83,24.67,41.7,24.67,41.7l1.11,11.37,2.2,7.72L241.21,212s6.91,23.25,7.41,28.5,1.5,21.75,1.83,22.58,4.83,43.83,2.17,53.17c-1.2,4.19-6.46,11.36-12.15,18.26-7,8.47-14.26,17-16.26,18.24-9.34,5.68-20.11,29.71-33.75,38.78"/><path class="cls-1" d="M105.62,439.51s13-45.73,10.83-50.23c-10.59-22.12-10.77-33.57-12.77-37.57s-8.49-12.89-10.56-18.12c-8-13-25.67-32.31-25.67-37.31s-1-12,0-19,9-14,9-14-6.64-12.67-4.64-22.67c.76-3.79,9.91-16.75,9.91-16.75l8.61-19.56-7.55-21.38s-10.67-44,.33-54c1-21,9.48-40.5,9.48-40.5l8.08-10.76c10-9,24.53-20,24.53-20s18.24,14.07,1.1,34.71c-3.93,4.73-2,1.55-3.93,4.73-.66,1.1,0,20.27,0,20.27s13.91-1.34,17.91-.34,47.17,13.17,50.17,20.17,3.07,14.06-8.5,22.67c-7.17,5.33-29-.45-29-.45l24.54,26.79,9,18,7.19,11.44a24.88,24.88,0,0,0,1.75,2c.86.9,3.25,1.83,4.85,3.1.92.73,1.24,2.38,1.78,3.78.06.16.13.32.19.47a4.52,4.52,0,0,0,.57,1c.86,1.07,1.85.81,2.92,1.47,1.52.93,3.15,2.64,4.3,3.41-6.4-12.2-15.48-36.26-17.79-51.09-.52-3.33-1.24-4.53-1.75-7a91.82,91.82,0,0,1-1.8-19.24"/><path class="cls-1" d="M248.12,324.55s-14.92,25-16.92,30.73S200.45,459.9,198.06,493.1"/><path class="cls-1" d="M122.38,117.45s-21.07.71-39.26,11.49"/><path class="cls-1" d="M101.33,159.81l-2,.46"/><path class="cls-1" d="M156.45,160.28s-22.41-5-25.21-5.28c-4.1-.38-18.31,2.33-26.56,4.08"/><path class="cls-2" d="M112.51,163.55a22.59,22.59,0,0,1-3.36.23"/><path class="cls-2" d="M124.84,155.57a15.86,15.86,0,0,1-9.58,7.37"/><path class="cls-1" d="M128.35,155.05s-1.9,9.53.81,26.34"/><path class="cls-1" d="M90.34,204.3s16.45-28,28.11-26c11.35,1.95,30,10.52,63.83,34.64a12,12,0,0,1,4.14,5.19c2.53,6.11,7.55,14.38,10.87,21.67,2.16,4.74,8.42,12.44,5.59,19.76-1.9,4.91-7.88,11.23-16.44,4.76-5.9-4.46-20.32-19-20.32-19s-17.61-9.46-32.19-16.63c-6.26-3.08-12-5.74-15.47-7"/><path class="cls-2" d="M108.92,240.6q-.57,0-1.13-.07"/><path class="cls-2" d="M114.8,240a23.9,23.9,0,0,1-3.78.56"/><path class="cls-2" d="M133.93,228.65s-7.09,7.46-16.43,10.59"/><path class="cls-1" d="M76.45,263.28s32-13.65,44.4-12.3,61.05,28.57,62.41,35c1.09,5.22,2.91,15.3,2.28,20.73a6,6,0,0,1-1.06,3.2c-2.7,3-8.2,3.7-11.57,1.68s-7.22-9.18-7.22-9.18l-43.63-16"/><path class="cls-2" d="M103.7,299.51c13-1,27.8-9.57,27.8-9.57"/><path class="cls-2" d="M97.94,299.4a24.47,24.47,0,0,0,3.36.21"/><path class="cls-2" d="M95.2,298.83q.49.14,1,.26"/><path class="cls-2" d="M97.94,306.59c15-3.18,34.82-16.19,34.82-16.19"/><path class="cls-2" d="M91.29,307.27a23.57,23.57,0,0,0,3.93-.21"/><path class="cls-2" d="M87.88,306.75a12.06,12.06,0,0,0,1.29.3"/><path class="cls-2" d="M100.53,321.06q-.81.2-1.63.34"/><path class="cls-2" d="M100.53,321.06"/><path class="cls-2" d="M105.22,319.37a28,28,0,0,1-3.1,1.23"/><path class="cls-2" d="M133.93,290.82s-12.13,19.47-26.61,27.48"/><path class="cls-2" d="M181.11,157.76c-19.72-2.68-23.94-13.71-18.24-23.47,3.88-6.65,24.49,0,24.49,0s7.08,6.39,2.68,14S181.11,157.76,181.11,157.76Z"/><path class="cls-2" d="M217.2,241.44A28.37,28.37,0,0,0,210,231"/><path class="cls-2" d="M113.14,109.54q-.62.44-1.27.83"/><path class="cls-2" d="M122.38,97.18a31.86,31.86,0,0,1-7,10.55"/><path class="cls-2" d="M104.26,74.54s10.26,5.35,22.6-15.29"/><path class="cls-2" d="M202.78,250.89s-5.89-14.67-12.87-8.6c-4.11,3.58-2.89,14.13,4.65,24.69"/><path class="cls-2" d="M197.79,182.76a17.66,17.66,0,0,0,6.64.73"/><path class="cls-2" d="M191.9,178.18a9,9,0,0,0,4,3.81"/><path class="cls-2" d="M202.13,230a12.58,12.58,0,0,0,.08-4.9"/><path class="cls-2" d="M196.84,218.78s-3.42-1.27-4.62-1.08"/><path class="cls-2" d="M141.26,253.35a3.62,3.62,0,0,1-.63.55"/><path class="cls-2" d="M144.11,248.63a32.52,32.52,0,0,1-1.58,3"/><path class="cls-2" d="M148.88,236.21s-1.68,5.3-3.75,10.14"/><path class="cls-2" d="M164.31,244.31s-5.49,19.75-9.21,21.65"/><path class="cls-2" d="M217.2,344.45a25.85,25.85,0,0,1,0,3.18"/><path class="cls-2" d="M216.06,338.65a21.82,21.82,0,0,1,.91,3.71"/><path class="cls-2" d="M184.27,291.22s4.35,20,10.92,26.26c4.82,4.58,15,9.16,19.63,18.23"/><path class="cls-2" d="M194.53,130.06s4.9-6.49,13.26-5.78c6.94.59,9.37,1.93,14.27,7"/><path class="cls-2" d="M127.91,170.35s3,6.17,6,6.07"/><path class="cls-2" d="M185.55,306.75s-.68-5.45-4.51-2.68c-2.84,2-3.09,5.56-2.51,8.72"/><path class="cls-2" d="M453.65,204c-.91,4.89-1.09,8.56-3,12.39,0,2.79-2.62,9.84-2.92,12.09"/><path class="cls-1" d="M390.91,424.28s-3.14-36.46-4.93-44.08-13.89-44.37-13.89-49.75c0-10.16,11.21-46.61,13-54.23s2.24-15.49,5.83-22.31,14.34-21.47,19.72-35.66,23.09-57.17,33.56-54.4c4.45,1.18,7.72,5.4,9.78,10.78"/><path class="cls-1" d="M500,189.8c7.5.49,17.89,1.14,19.77,1.14a23.57,23.57,0,0,1,6.67,1.33"/><path class="cls-1" d="M511.77,154.59c-13.71-.65-27.63-.5-30.32,1.36-5.33,3.67-34,22-39.67,28.67s5.1,16.68,11.86,19.42c5.32,2.15,38.47-14.75,38.47-14.75l7.9.52"/><path class="cls-1" d="M498.17,404.94s1.62-6.67,1.62-8.33,9-14.67,9.67-16.33,18-28.33,18.33-30.33,12-15,12.67-16,12-16.67,13.67-23.67S550.79,294,550.79,294s1.33-3,2.33-3.72,2.67-7.67,3-10-5.33-26.67-7-29.67-4.33-23-4.33-24.67,4.33-27,4.33-28.33v-30s-3.67-7-8.33-9.67c-2.31-1.32-15.57-2.72-29-3.36"/><path class="cls-1" d="M520.13,155.08V143.28s-14-14.33-14-20,2.68-14.67,7-16,35,23.9,35,23.9,10.33,31.76,10.33,38.76-9.33,18.67-9.33,18.67"/><path class="cls-3" d="M494.8,189.46s-.76,7.89-5.77,11.84"/><path class="cls-1" d="M544.79,225.94s-10.33-29.82-16.33-30.24-13.33-3.09-17.67-1.42-43,13.33-47.33,16-31.47,38.43-33.3,42.19a5.63,5.63,0,0,0,.66,6c2.56,3.27,7.55,7.59,15,5.18,11.33-3.67,22-17.33,22-17.33l11.33-6.67,29.67-4,10-6.59"/><path class="cls-2" d="M508.79,235.61s4.33,2.67,5,5"/><path class="cls-1" d="M551.47,292.58l-11.9-22.42s-17.09-24.86-19.89-25.79-5.3-3.15-8.4-3.75-7.6-2.51-13.12,0-28.83,12.14-29.76,12.45-11.78,6.22-11.8,7.15-3.74,24.86-3.74,25.79-2.18,14.1-2.18,14.1,4.66,5.79,10.26,2.06,16.16-13.05,16.47-15.23,1.24-7.23-.93-7.34"/><path class="cls-2" d="M504.78,276c-4,1.94-11,5.1-13.85,5.33-4.1.33-13.19.81-13.19.81"/><path class="cls-2" d="M507.82,274.53l-1.26.63"/><path class="cls-2" d="M499,278.65s1,6.84,2.08,8.73c-2.92,3.14-9.27,11.49-7.69,16-3,5.49-16.05,17.11-15.64,18.52"/><path class="cls-2" d="M511.35,295.81q.94.56,2,1.16"/><path class="cls-2" d="M501.08,287.38s1,2.35,7.39,6.62"/><path class="cls-2" d="M505.5,319.08a7,7,0,0,0,1.71,1"/><path class="cls-2" d="M500.36,313.71a42,42,0,0,0,3.13,3.6"/><path class="cls-2" d="M493.39,303.41s2.65,4.53,5.9,8.88"/><path class="cls-2" d="M443.87,218.81a19,19,0,0,1-2,.11"/><path class="cls-2" d="M450.69,216.42a12.91,12.91,0,0,1-5.23,2.15"/><path class="cls-2" d="M437.82,166.47a13.9,13.9,0,0,1,9.84-.95"/><path class="cls-2" d="M513.13,107.28a12.08,12.08,0,0,1,6.1,6.4c1.68,4.55,10.06,9.1,11.49,8.86s4.94-1.23,3.87-2"/><path class="cls-2" d="M451.22,176.63s9.18-5.21,13.26,1c6.34,9.62-9.72,21.17-17.6,22"/><path class="cls-2" d="M438.52,240.61c.06-.07,8.37-6.57,8.58,1.6.16,6.41-1.72,12.22-9.51,21.39"/><path class="cls-2" d="M452.87,286s6.54-.62,1.3,16.74"/><path class="cls-2" d="M481,239.35s3.58,7,6.14,6"/><path class="cls-2" d="M439.8,238.9s-5.39,4.8-10.72,4.56"/><path class="cls-2" d="M418.85,371.64q0,.65-.06,1.3"/><path class="cls-2" d="M420.5,364.4a27,27,0,0,0-1.28,4.49"/><path class="cls-2" d="M424.76,356.57a37.82,37.82,0,0,0-3,5"/><path class="cls-2" d="M477.75,321.94s-34.61,12.27-50.8,31.78"/><path class="cls-1" d="M499.68,397.72c5.52,1,3.11,5.22,3.11,5.22-19,11.67-42.67,12.33-52.09,14.33s-43.24,5.33-53.58,7-42.67,13.67-42.67,13.67,13.47-23.71,35.23-27"/><path class="cls-1" d="M354.45,437.94s32,32.33,35.67,37.33,7.67,14.67,5.67,19-9.67,19.33-9.67,20.67"/><path class="cls-2" d="M396.14,493.18a74.76,74.76,0,0,1,10.2-27.79,9.81,9.81,0,0,0,2-4.46"/><path class="cls-1" d="M502.79,402.94s-3.18,20.41-2.91,23.89,6.17,18.79,6.71,23.09,2.42,16.37,4.83,18.79,9.93,10.74,10.47,11.81,6.17,9.4,6.17,9.4,9.13,12.89,11.54,27.11c0,0,7.52,25-5.1,65"/><path class="cls-1" d="M419.52,573.47a107.54,107.54,0,0,0-27.28-9.23c-3.82-.74-7.74-1.29-11.29-2.89a3,3,0,0,1-2.09-3.77,19,19,0,0,1,3.15-8.46c2.09-3.06,5.21-5.88,5.24-9.58s-3.08-6.58-5.9-9a5.67,5.67,0,0,1-1.92-2.36,5.21,5.21,0,0,1,.35-3.32,29,29,0,0,1,6.57-10.49s4.37,6.67,15.85,6.94,63.56.27,82.08-11.27,28.27-10.5,38.56-27.94"/><path class="cls-1" d="M428.4,578.41q-2.11-1.31-4.27-2.52"/><path class="cls-1" d="M433.28,583.85a6.42,6.42,0,0,0-2.14-3.43"/><path class="cls-1" d="M379.56,529c-6.52,8.39-8.43,19.46-8.81,30.08s.54,21.34-1.25,31.81c-1.1,6.44-3.21,12.67-4.16,19.13a54.81,54.81,0,0,0,5.43,32.79"/><path class="cls-2" d="M382.45,519.38s7.9,9.16,15.41,9.58,42.68,3.42,68.72-4.79,51.26-20.56,53.14-24.32,8.33-9.93,8.33-9.93"/><path class="cls-2" d="M410.56,545.43a30.46,30.46,0,0,1,3.38-1.68c5.57-2.35,11.63-3.22,17.61-4,12.84-1.76,25.72-3.41,38.29-6.55a165.93,165.93,0,0,0,49.72-21.58"/><path class="cls-2" d="M403.85,551a23.14,23.14,0,0,1,3.73-3.56"/><path class="cls-2" d="M401,555.72a17.75,17.75,0,0,1,.9-1.84"/><path class="cls-2" d="M509,536.85c7.69-5.59,16.74-9.91,22.58-17.4"/><path class="cls-2" d="M503.55,541.34q1.19-1.15,2.48-2.21"/><path class="cls-2" d="M499.13,546.62a28.92,28.92,0,0,1,2.09-2.79"/><path class="cls-1" d="M537.93,569.51s1.4,4.7,8.65,18.93"/><path class="cls-1" d="M51.81,646.86q-.38,1.84-.89,3.82"/><path class="cls-1" d="M52.95,634.52a45,45,0,0,1-.34,7.53"/><path class="cls-1" d="M206.07,496.33c-11.31-3.92-28.42-13.4-64.14-31.5-55.18-27.95-34.11-33.3-34.11-33.3s-9.37-.86-10.8,5.59A236.38,236.38,0,0,1,88.18,465c-2.87,7-22.93,48.06-25.32,50.69a24.68,24.68,0,0,1-6.21,4.54s-7.88-.48-13.86,10.27-11.94,33-11.71,34.16S33.24,580,35.87,588.1s7.17,17.44,9.08,24.37c1.19,4.31,5.71,8.44,7.4,16.94"/><path class="cls-1" d="M215.85,498.5a30.06,30.06,0,0,1-4.62-.68"/><path class="cls-1" d="M221.48,498.28c-.73.1-1.46.18-2.19.23"/><path class="cls-1" d="M202.83,463.69c0-.14,26.29,12.61,26,33.87,0,0,0,11.94-7.41,28.67S194.72,596.46,195.2,600a40.54,40.54,0,0,1,0,10.75c-.47,2.39.47,13.38,0,16.48s-1.66,17.44-1.66,19.59"/><path class="cls-3" d="M32.57,573.71s-3.63,18.44-8.17,22.5S13.17,610.55,9.83,617.48.75,644,.75,644"/><path class="cls-1" d="M57.79,519.65c-1.78,5.84,2.84,11.51,7.1,15.88C71.8,542.61,79,549.87,88.09,553.7c5.06,2.13,10.58,3.12,15.46,5.65,4,2.09,7.48,5.15,11,8.07a207.31,207.31,0,0,0,30.8,21.3A42.26,42.26,0,0,0,156,593.39c5.94,1.44,12.29.53,18.16,2.24,4.18,1.22,8,3.73,12.29,4.31s7.1,1.82,9.17-2.3"/><path class="cls-2" d="M51.44,522.17c-1,.2-1.42,1.47-1.39,2.51a11.52,11.52,0,0,0,.92,3.81c4.16,10.61,13.9,17.82,23.17,24.44l14.42,10.31c5.26,3.76,10.54,7.53,16.11,10.83S116.14,580.21,122,583l36.15,17.36c4.17,2,8.38,4,12.89,5,6.5,1.43,13.42.7,19.74,2.82a6,6,0,0,0,3.1.53c1-.22,1.93-1.42,1.4-2.35"/><path class="cls-1" d="M185.55,301.81A138.38,138.38,0,1,0,113.4,36.39l6.84,25.17"/><line class="cls-1" x1="171.68" y1="250.79" x2="180.25" y2="282.3"/><line class="cls-1" x1="146.48" y1="158.08" x2="156.74" y2="195.8"/><line class="cls-1" x1="128.04" y1="90.23" x2="135.19" y2="116.54"/><line class="cls-4" x1="186.56" y1="295.9" x2="187.46" y2="301.15"/><line class="cls-4" x1="188.8" y1="297.36" x2="189.44" y2="300.8"/><line class="cls-4" x1="190.71" y1="296.99" x2="191.4" y2="300.42"/><line class="cls-4" x1="192.62" y1="296.59" x2="193.36" y2="300.01"/><line class="cls-4" x1="194.53" y1="296.16" x2="195.32" y2="299.57"/><line class="cls-4" x1="196.24" y1="293.86" x2="197.53" y2="299.04"/><line class="cls-4" x1="198.57" y1="295.15" x2="199.47" y2="298.54"/><line class="cls-4" x1="200.45" y1="294.64" x2="201.4" y2="298.01"/><line class="cls-4" x1="202.33" y1="294.1" x2="203.32" y2="297.46"/><line class="cls-4" x1="204.2" y1="293.53" x2="205.24" y2="296.88"/><line class="cls-4" x1="205.73" y1="291.12" x2="207.4" y2="296.18"/><line class="cls-4" x1="208.16" y1="292.24" x2="209.3" y2="295.54"/><line class="cls-4" x1="210" y1="291.59" x2="211.19" y2="294.88"/><line class="cls-4" x1="211.83" y1="290.91" x2="213.07" y2="294.18"/><line class="cls-4" x1="213.65" y1="290.21" x2="214.93" y2="293.46"/><line class="cls-4" x1="214.99" y1="287.65" x2="217.03" y2="292.58"/><line class="cls-4" x1="217.49" y1="288.58" x2="218.87" y2="291.8"/><line class="cls-4" x1="219.29" y1="287.82" x2="220.71" y2="291.02"/><line class="cls-4" x1="221.06" y1="287.01" x2="222.53" y2="290.18"/><line class="cls-4" x1="222.82" y1="286.16" x2="224.33" y2="289.31"/><line class="cls-4" x1="223.99" y1="283.56" x2="226.38" y2="288.32"/><line class="cls-4" x1="226.55" y1="284.32" x2="228.17" y2="287.42"/><line class="cls-4" x1="228.27" y1="283.38" x2="229.93" y2="286.47"/><line class="cls-4" x1="229.98" y1="282.45" x2="231.69" y2="285.51"/><line class="cls-4" x1="231.7" y1="281.52" x2="233.44" y2="284.55"/><line class="cls-4" x1="232.65" y1="278.79" x2="235.39" y2="283.37"/><line class="cls-4" x1="235.26" y1="279.35" x2="237.1" y2="282.33"/><line class="cls-4" x1="236.92" y1="278.33" x2="238.81" y2="281.28"/><line class="cls-4" x1="238.55" y1="277.26" x2="240.48" y2="280.19"/><line class="cls-4" x1="240.17" y1="276.16" x2="242.14" y2="279.06"/><line class="cls-4" x1="240.94" y1="273.42" x2="244.01" y2="277.78"/><line class="cls-4" x1="243.59" y1="273.79" x2="245.65" y2="276.62"/><line class="cls-4" x1="245.15" y1="272.61" x2="247.24" y2="275.41"/><line class="cls-4" x1="246.7" y1="271.44" x2="248.84" y2="274.21"/><line class="cls-4" x1="248.26" y1="270.25" x2="250.44" y2="272.99"/><line class="cls-4" x1="248.79" y1="267.42" x2="252.18" y2="271.54"/><line class="cls-4" x1="251.46" y1="267.58" x2="253.72" y2="270.25"/><line class="cls-4" x1="252.95" y1="266.33" x2="255.26" y2="268.97"/><line class="cls-4" x1="254.4" y1="265.02" x2="256.74" y2="267.62"/><line class="cls-4" x1="255.83" y1="263.7" x2="258.21" y2="266.26"/><line class="cls-4" x1="256.19" y1="260.87" x2="259.88" y2="264.72"/><line class="cls-4" x1="258.85" y1="260.83" x2="261.31" y2="263.32"/><line class="cls-4" x1="260.22" y1="259.44" x2="262.72" y2="261.89"/><line class="cls-4" x1="261.59" y1="258.04" x2="264.12" y2="260.46"/><line class="cls-4" x1="262.94" y1="256.63" x2="265.5" y2="259.01"/><line class="cls-4" x1="263.04" y1="253.75" x2="267.01" y2="257.31"/><line class="cls-4" x1="265.71" y1="253.52" x2="268.35" y2="255.82"/><line class="cls-4" x1="267" y1="252.06" x2="269.67" y2="254.32"/><line class="cls-4" x1="268.22" y1="250.54" x2="270.93" y2="252.76"/><line class="cls-4" x1="269.45" y1="249.02" x2="272.19" y2="251.2"/><line class="cls-4" x1="269.38" y1="246.18" x2="273.61" y2="249.43"/><line class="cls-4" x1="272" y1="245.72" x2="274.8" y2="247.82"/><line class="cls-4" x1="273.14" y1="244.14" x2="275.98" y2="246.2"/><line class="cls-4" x1="274.29" y1="242.57" x2="277.16" y2="244.58"/><line class="cls-4" x1="275.4" y1="240.96" x2="278.3" y2="242.93"/><line class="cls-4" x1="275.08" y1="238.1" x2="279.54" y2="241.03"/><line class="cls-4" x1="277.69" y1="237.48" x2="280.64" y2="239.35"/><line class="cls-4" x1="278.74" y1="235.83" x2="281.72" y2="237.67"/><line class="cls-4" x1="279.72" y1="234.15" x2="282.73" y2="235.94"/><line class="cls-4" x1="280.71" y1="232.46" x2="283.74" y2="234.21"/><line class="cls-4" x1="280.23" y1="229.66" x2="284.89" y2="232.25"/><line class="cls-4" x1="282.74" y1="228.82" x2="285.82" y2="230.48"/><line class="cls-4" x1="283.64" y1="227.09" x2="286.75" y2="228.7"/><line class="cls-4" x1="284.55" y1="225.36" x2="287.68" y2="226.93"/><line class="cls-4" x1="285.41" y1="223.61" x2="288.56" y2="225.13"/><line class="cls-4" x1="284.67" y1="220.83" x2="289.51" y2="223.07"/><line class="cls-4" x1="287.15" y1="219.83" x2="290.35" y2="221.25"/><line class="cls-4" x1="287.95" y1="218.05" x2="291.17" y2="219.43"/><line class="cls-4" x1="288.68" y1="216.24" x2="291.92" y2="217.57"/><line class="cls-4" x1="289.41" y1="214.43" x2="292.67" y2="215.71"/><line class="cls-4" x1="288.53" y1="211.73" x2="293.52" y2="213.61"/><line class="cls-4" x1="290.89" y1="210.53" x2="294.18" y2="211.72"/><line class="cls-4" x1="291.54" y1="208.69" x2="294.84" y2="209.83"/><line class="cls-4" x1="292.18" y1="206.85" x2="295.5" y2="207.94"/><line class="cls-4" x1="292.77" y1="204.99" x2="296.11" y2="206.03"/><line class="cls-4" x1="291.64" y1="202.34" x2="296.75" y2="203.85"/><line class="cls-4" x1="293.95" y1="200.99" x2="297.32" y2="201.93"/><line class="cls-4" x1="294.48" y1="199.11" x2="297.86" y2="200"/><line class="cls-4" x1="294.94" y1="197.21" x2="298.33" y2="198.06"/><line class="cls-4" x1="295.39" y1="195.32" x2="298.8" y2="196.11"/><line class="cls-4" x1="294.12" y1="192.78" x2="299.33" y2="193.9"/><line class="cls-4" x1="296.28" y1="191.25" x2="299.71" y2="191.93"/><line class="cls-4" x1="296.64" y1="189.33" x2="300.09" y2="189.97"/><line class="cls-4" x1="297.01" y1="187.41" x2="300.46" y2="188"/><line class="cls-4" x1="297.31" y1="185.48" x2="300.77" y2="186.02"/><line class="cls-4" x1="295.8" y1="183.04" x2="301.09" y2="183.77"/><line class="cls-4" x1="297.89" y1="181.36" x2="301.36" y2="181.79"/><line class="cls-4" x1="298.12" y1="179.42" x2="301.6" y2="179.8"/><line class="cls-4" x1="298.3" y1="177.47" x2="301.78" y2="177.8"/><line class="cls-4" x1="298.47" y1="175.53" x2="301.96" y2="175.81"/><line class="cls-4" x1="296.82" y1="173.21" x2="302.14" y2="173.54"/><line class="cls-4" x1="298.73" y1="171.37" x2="302.22" y2="171.54"/><line class="cls-4" x1="298.81" y1="169.42" x2="302.31" y2="169.54"/><line class="cls-4" x1="298.89" y1="167.47" x2="302.39" y2="167.54"/><line class="cls-4" x1="298.88" y1="165.52" x2="302.38" y2="165.53"/><line class="cls-4" x1="297.03" y1="163.33" x2="302.36" y2="163.26"/><line class="cls-4" x1="298.85" y1="161.36" x2="302.35" y2="161.26"/><line class="cls-4" x1="298.77" y1="159.41" x2="302.27" y2="159.26"/><line class="cls-4" x1="298.66" y1="157.46" x2="302.15" y2="157.26"/><line class="cls-4" x1="298.54" y1="155.51" x2="302.03" y2="155.26"/><line class="cls-4" x1="296.55" y1="153.46" x2="301.86" y2="152.99"/><line class="cls-4" x1="298.17" y1="151.36" x2="301.65" y2="151"/><line class="cls-4" x1="297.96" y1="149.42" x2="301.43" y2="149.01"/><line class="cls-4" x1="297.74" y1="147.48" x2="301.21" y2="147.02"/><line class="cls-4" x1="297.44" y1="145.55" x2="300.9" y2="145.04"/><line class="cls-4" x1="295.28" y1="143.66" x2="300.55" y2="142.79"/><line class="cls-4" x1="296.79" y1="141.44" x2="300.23" y2="140.82"/><line class="cls-4" x1="296.41" y1="139.52" x2="299.84" y2="138.85"/><line class="cls-4" x1="296.01" y1="137.61" x2="299.43" y2="136.89"/><line class="cls-4" x1="295.61" y1="135.7" x2="299.02" y2="134.93"/><line class="cls-4" x1="293.32" y1="133.98" x2="298.5" y2="132.72"/><line class="cls-4" x1="294.61" y1="131.66" x2="298" y2="130.78"/><line class="cls-4" x1="294.12" y1="129.77" x2="297.5" y2="128.84"/><line class="cls-4" x1="293.61" y1="127.88" x2="296.97" y2="126.91"/><line class="cls-4" x1="293.03" y1="126.02" x2="296.38" y2="125"/><line class="cls-4" x1="290.62" y1="124.47" x2="295.7" y2="122.83"/><line class="cls-4" x1="291.78" y1="122.04" x2="295.1" y2="120.92"/><line class="cls-4" x1="291.12" y1="120.21" x2="294.42" y2="119.04"/><line class="cls-4" x1="290.44" y1="118.38" x2="293.73" y2="117.16"/><line class="cls-4" x1="289.77" y1="116.54" x2="293.03" y2="115.28"/><line class="cls-4" x1="287.25" y1="115.17" x2="292.2" y2="113.17"/><line class="cls-4" x1="288.19" y1="112.69" x2="291.42" y2="111.33"/><line class="cls-4" x1="287.43" y1="110.89" x2="290.63" y2="109.48"/><line class="cls-4" x1="286.65" y1="109.1" x2="289.84" y2="107.65"/><line class="cls-4" x1="285.8" y1="107.34" x2="288.97" y2="105.84"/><line class="cls-4" x1="283.2" y1="106.16" x2="287.98" y2="103.8"/><line class="cls-4" x1="283.99" y1="103.59" x2="287.11" y2="102"/><line class="cls-4" x1="283.07" y1="101.87" x2="286.16" y2="100.23"/><line class="cls-4" x1="282.13" y1="100.16" x2="285.2" y2="98.47"/><line class="cls-4" x1="281.2" y1="98.44" x2="284.25" y2="96.71"/><line class="cls-4" x1="278.51" y1="97.46" x2="283.11" y2="94.75"/><line class="cls-4" x1="279.07" y1="94.86" x2="282.06" y2="93.04"/><line class="cls-4" x1="278.06" y1="93.19" x2="281.02" y2="91.33"/><line class="cls-4" x1="277.02" y1="91.54" x2="279.96" y2="89.63"/><line class="cls-4" x1="275.92" y1="89.92" x2="278.83" y2="87.98"/><line class="cls-4" x1="273.17" y1="89.14" x2="277.55" y2="86.1"/><line class="cls-4" x1="273.58" y1="86.48" x2="276.43" y2="84.44"/><line class="cls-4" x1="272.41" y1="84.92" x2="275.22" y2="82.84"/><line class="cls-4" x1="271.23" y1="83.36" x2="274.02" y2="81.24"/><line class="cls-4" x1="270.06" y1="81.8" x2="272.81" y2="79.64"/><line class="cls-4" x1="267.24" y1="81.24" x2="271.38" y2="77.88"/><line class="cls-4" x1="267.41" y1="78.58" x2="270.1" y2="76.34"/><line class="cls-4" x1="266.16" y1="77.08" x2="268.81" y2="74.8"/><line class="cls-4" x1="264.88" y1="75.61" x2="267.5" y2="73.29"/><line class="cls-4" x1="263.56" y1="74.18" x2="266.14" y2="71.81"/><line class="cls-4" x1="260.73" y1="73.81" x2="264.6" y2="70.14"/><line class="cls-4" x1="260.72" y1="71.13" x2="263.23" y2="68.69"/><line class="cls-4" x1="259.33" y1="69.76" x2="261.8" y2="67.28"/><line class="cls-4" x1="257.94" y1="68.39" x2="260.37" y2="65.88"/><line class="cls-4" x1="256.55" y1="67.02" x2="258.94" y2="64.47"/><line class="cls-4" x1="253.67" y1="66.9" x2="257.26" y2="62.95"/><line class="cls-4" x1="253.44" y1="64.24" x2="255.76" y2="61.62"/><line class="cls-4" x1="251.99" y1="62.94" x2="254.26" y2="60.29"/><line class="cls-4" x1="250.49" y1="61.69" x2="252.73" y2="59"/><line class="cls-4" x1="248.97" y1="60.47" x2="251.17" y2="57.74"/><line class="cls-4" x1="246.12" y1="60.52" x2="249.4" y2="56.32"/><line class="cls-4" x1="245.7" y1="57.88" x2="247.81" y2="55.09"/><line class="cls-4" x1="244.12" y1="56.74" x2="246.19" y2="53.91"/><line class="cls-4" x1="242.54" y1="55.59" x2="244.57" y2="52.74"/><line class="cls-4" x1="240.96" y1="54.44" x2="242.95" y2="51.56"/><line class="cls-4" x1="238.1" y1="54.75" x2="241.05" y2="50.32"/><line class="cls-4" x1="237.48" y1="52.16" x2="239.38" y2="49.22"/><line class="cls-4" x1="235.85" y1="51.09" x2="237.7" y2="48.12"/><line class="cls-4" x1="234.17" y1="50.08" x2="235.98" y2="47.09"/><line class="cls-4" x1="232.49" y1="49.1" x2="234.26" y2="46.08"/><line class="cls-4" x1="229.68" y1="49.57" x2="232.3" y2="44.93"/><line class="cls-4" x1="228.87" y1="47.03" x2="230.55" y2="43.96"/><line class="cls-4" x1="227.14" y1="46.13" x2="228.77" y2="43.03"/><line class="cls-4" x1="225.41" y1="45.22" x2="227" y2="42.1"/><line class="cls-4" x1="223.68" y1="44.33" x2="225.22" y2="41.18"/><line class="cls-4" x1="220.89" y1="45.05" x2="223.16" y2="40.23"/><line class="cls-4" x1="219.9" y1="42.58" x2="221.34" y2="39.39"/><line class="cls-4" x1="218.12" y1="41.76" x2="219.52" y2="38.55"/><line class="cls-4" x1="216.32" y1="41.01" x2="217.67" y2="37.78"/><line class="cls-4" x1="214.51" y1="40.28" x2="215.82" y2="37.03"/><line class="cls-4" x1="211.8" y1="41.16" x2="213.71" y2="36.18"/><line class="cls-4" x1="210.63" y1="38.76" x2="211.84" y2="35.47"/><line class="cls-4" x1="208.79" y1="38.12" x2="209.95" y2="34.81"/><line class="cls-4" x1="206.94" y1="37.47" x2="208.06" y2="34.16"/><line class="cls-4" x1="205.1" y1="36.84" x2="206.17" y2="33.5"/><line class="cls-4" x1="202.44" y1="37.97" x2="203.99" y2="32.86"/><line class="cls-4" x1="201.1" y1="35.66" x2="202.07" y2="32.3"/><line class="cls-4" x1="199.23" y1="35.11" x2="200.14" y2="31.73"/><line class="cls-4" x1="197.34" y1="34.63" x2="198.2" y2="31.24"/><line class="cls-4" x1="195.44" y1="34.17" x2="196.26" y2="30.77"/><line class="cls-4" x1="192.89" y1="35.44" x2="194.05" y2="30.24"/><line class="cls-4" x1="191.38" y1="33.25" x2="192.09" y2="29.82"/><line class="cls-4" x1="189.46" y1="32.88" x2="190.12" y2="29.44"/><line class="cls-4" x1="187.54" y1="32.52" x2="188.15" y2="29.07"/><line class="cls-4" x1="185.62" y1="32.17" x2="186.18" y2="28.71"/><line class="cls-4" x1="183.17" y1="33.68" x2="183.93" y2="28.4"/><line class="cls-4" x1="181.5" y1="31.59" x2="181.95" y2="28.12"/><line class="cls-4" x1="179.56" y1="31.32" x2="179.96" y2="27.84"/><line class="cls-4" x1="177.62" y1="31.14" x2="177.97" y2="27.66"/><line class="cls-4" x1="175.68" y1="30.97" x2="175.97" y2="27.48"/><line class="cls-4" x1="173.34" y1="32.6" x2="173.71" y2="27.28"/><line class="cls-4" x1="171.52" y1="30.67" x2="171.71" y2="27.17"/><line class="cls-4" x1="169.57" y1="30.59" x2="169.71" y2="27.09"/><line class="cls-4" x1="167.62" y1="30.51" x2="167.71" y2="27.01"/><line class="cls-4" x1="165.67" y1="30.47" x2="165.7" y2="26.97"/><line class="cls-4" x1="163.47" y1="32.32" x2="163.43" y2="26.99"/><line class="cls-4" x1="161.5" y1="30.5" x2="161.43" y2="27"/><line class="cls-4" x1="159.55" y1="30.54" x2="159.43" y2="27.04"/><line class="cls-4" x1="157.6" y1="30.65" x2="157.43" y2="27.16"/><line class="cls-4" x1="155.66" y1="30.76" x2="155.43" y2="27.27"/><line class="cls-4" x1="153.6" y1="32.72" x2="153.16" y2="27.4"/><line class="cls-4" x1="151.5" y1="31.1" x2="151.17" y2="27.61"/><line class="cls-4" x1="149.56" y1="31.31" x2="149.17" y2="27.83"/><line class="cls-4" x1="147.62" y1="31.52" x2="147.18" y2="28.04"/><line class="cls-4" x1="145.69" y1="31.78" x2="145.2" y2="28.32"/><line class="cls-4" x1="143.79" y1="33.94" x2="142.95" y2="28.67"/><line class="cls-4" x1="141.57" y1="32.43" x2="140.98" y2="28.98"/><line class="cls-4" x1="139.65" y1="32.77" x2="139" y2="29.33"/><line class="cls-4" x1="137.74" y1="33.17" x2="137.04" y2="29.74"/><line class="cls-4" x1="135.83" y1="33.57" x2="135.08" y2="30.15"/><line class="cls-4" x1="134.09" y1="35.82" x2="132.86" y2="30.63"/><line class="cls-4" x1="131.78" y1="34.52" x2="130.92" y2="31.13"/><line class="cls-4" x1="129.89" y1="35.02" x2="128.98" y2="31.63"/><line class="cls-4" x1="128" y1="35.51" x2="127.05" y2="32.14"/><line class="cls-4" x1="126.13" y1="36.07" x2="125.13" y2="32.71"/><line class="cls-4" x1="124.57" y1="38.48" x2="122.96" y2="33.39"/><line class="cls-4" x1="122.15" y1="37.31" x2="121.05" y2="33.99"/><line class="cls-4" x1="120.3" y1="37.93" x2="119.15" y2="34.63"/><line class="cls-4" x1="118.47" y1="38.61" x2="117.27" y2="35.32"/><line class="cls-4" x1="116.64" y1="39.28" x2="115.4" y2="36.01"/><path class="cls-1" d="M185.55,301.81A138.38,138.38,0,1,0,113.4,36.39"/><line class="cls-4" x1="179" y1="255.98" x2="173.85" y2="257.37"/><line class="cls-4" x1="177.71" y1="258.22" x2="174.33" y2="259.13"/><line class="cls-4" x1="178.18" y1="259.98" x2="174.81" y2="260.89"/><line class="cls-4" x1="178.66" y1="261.73" x2="175.29" y2="262.65"/><line class="cls-4" x1="179.14" y1="263.49" x2="175.76" y2="264.41"/><line class="cls-4" x1="181.45" y1="265.01" x2="176.31" y2="266.41"/><line class="cls-4" x1="180.16" y1="267.25" x2="176.78" y2="268.17"/><line class="cls-4" x1="180.64" y1="269.01" x2="177.26" y2="269.93"/><line class="cls-4" x1="181.12" y1="270.77" x2="177.74" y2="271.69"/><line class="cls-4" x1="181.6" y1="272.53" x2="178.22" y2="273.44"/><line class="cls-4" x1="183.91" y1="274.04" x2="178.76" y2="275.44"/><line class="cls-4" x1="182.62" y1="276.28" x2="179.24" y2="277.2"/><line class="cls-4" x1="183.1" y1="278.04" x2="179.72" y2="278.96"/><line class="cls-4" x1="183.57" y1="279.8" x2="180.2" y2="280.72"/><line class="cls-4" x1="184.05" y1="281.56" x2="180.67" y2="282.48"/><line class="cls-4" x1="152.89" y1="159.94" x2="147.75" y2="161.34"/><line class="cls-4" x1="151.62" y1="162.26" x2="148.25" y2="163.18"/><line class="cls-4" x1="152.13" y1="164.1" x2="148.75" y2="165.02"/><line class="cls-4" x1="152.63" y1="165.95" x2="149.25" y2="166.86"/><line class="cls-4" x1="153.13" y1="167.79" x2="149.75" y2="168.7"/><line class="cls-4" x1="155.46" y1="169.39" x2="150.32" y2="170.79"/><line class="cls-4" x1="154.19" y1="171.72" x2="150.82" y2="172.63"/><line class="cls-4" x1="154.69" y1="173.56" x2="151.32" y2="174.47"/><line class="cls-4" x1="155.19" y1="175.4" x2="151.82" y2="176.32"/><line class="cls-4" x1="155.7" y1="177.24" x2="152.32" y2="178.16"/><line class="cls-4" x1="158.03" y1="178.85" x2="152.89" y2="180.24"/><line class="cls-4" x1="156.76" y1="181.17" x2="153.39" y2="182.09"/><line class="cls-4" x1="157.26" y1="183.01" x2="153.89" y2="183.93"/><line class="cls-4" x1="157.76" y1="184.85" x2="154.39" y2="185.77"/><line class="cls-4" x1="158.26" y1="186.69" x2="154.89" y2="187.61"/><line class="cls-4" x1="160.6" y1="188.3" x2="155.45" y2="189.7"/><line class="cls-4" x1="159.33" y1="190.62" x2="155.95" y2="191.54"/><line class="cls-4" x1="159.83" y1="192.46" x2="156.46" y2="193.38"/><line class="cls-4" x1="160.33" y1="194.3" x2="156.96" y2="195.22"/><line class="cls-4" x1="160.83" y1="196.14" x2="157.46" y2="197.06"/><line class="cls-4" x1="133.52" y1="88.65" x2="128.37" y2="90.05"/><line class="cls-4" x1="132.24" y1="90.93" x2="128.86" y2="91.85"/><line class="cls-4" x1="132.73" y1="92.74" x2="129.35" y2="93.65"/><line class="cls-4" x1="133.22" y1="94.54" x2="129.84" y2="95.45"/><line class="cls-4" x1="133.7" y1="96.34" x2="130.33" y2="97.25"/><line class="cls-4" x1="136.03" y1="97.9" x2="130.88" y2="99.3"/><line class="cls-4" x1="134.75" y1="100.18" x2="131.37" y2="101.1"/><line class="cls-4" x1="135.24" y1="101.98" x2="131.86" y2="102.9"/><line class="cls-4" x1="135.73" y1="103.78" x2="132.35" y2="104.7"/><line class="cls-4" x1="136.22" y1="105.58" x2="132.84" y2="106.5"/><line class="cls-4" x1="138.54" y1="107.14" x2="133.4" y2="108.54"/><line class="cls-4" x1="137.26" y1="109.43" x2="133.88" y2="110.34"/><line class="cls-4" x1="137.75" y1="111.23" x2="134.37" y2="112.14"/><line class="cls-4" x1="138.24" y1="113.03" x2="134.86" y2="113.95"/><line class="cls-4" x1="138.73" y1="114.83" x2="135.35" y2="115.75"/><line class="cls-4" x1="119.68" y1="37.73" x2="114.53" y2="39.13"/><line class="cls-4" x1="118.46" y1="40.27" x2="115.09" y2="41.19"/><line class="cls-4" x1="119.02" y1="42.33" x2="115.65" y2="43.24"/><line class="cls-4" x1="119.58" y1="44.38" x2="116.2" y2="45.3"/><line class="cls-4" x1="120.14" y1="46.44" x2="116.76" y2="47.36"/><line class="cls-4" x1="122.54" y1="48.29" x2="117.4" y2="49.69"/><line class="cls-4" x1="121.33" y1="50.82" x2="117.96" y2="51.74"/><line class="cls-4" x1="121.89" y1="52.88" x2="118.51" y2="53.8"/><line class="cls-4" x1="122.45" y1="54.94" x2="119.07" y2="55.85"/><line class="cls-4" x1="123.01" y1="56.99" x2="119.63" y2="57.91"/><path class="cls-1" d="M179.3,130.14,161.78,65.68q1.24,0,2.49,0A99.4,99.4,0,0,1,212.43,252l-26-95.82"/><line class="cls-4" x1="173.77" y1="127.55" x2="178.92" y2="126.15"/><line class="cls-4" x1="175" y1="125.07" x2="178.38" y2="124.16"/><line class="cls-4" x1="174.46" y1="123.08" x2="177.84" y2="122.16"/><line class="cls-4" x1="173.92" y1="121.08" x2="177.3" y2="120.17"/><line class="cls-4" x1="173.38" y1="119.09" x2="176.76" y2="118.17"/><line class="cls-4" x1="171" y1="117.3" x2="176.14" y2="115.91"/><line class="cls-4" x1="172.22" y1="114.83" x2="175.6" y2="113.92"/><line class="cls-4" x1="171.68" y1="112.84" x2="175.06" y2="111.92"/><line class="cls-4" x1="171.14" y1="110.84" x2="174.52" y2="109.93"/><line class="cls-4" x1="170.6" y1="108.85" x2="173.98" y2="107.93"/><line class="cls-4" x1="168.22" y1="107.06" x2="173.37" y2="105.67"/><line class="cls-4" x1="169.45" y1="104.59" x2="172.83" y2="103.67"/><line class="cls-4" x1="168.91" y1="102.59" x2="172.29" y2="101.68"/><line class="cls-4" x1="168.37" y1="100.6" x2="171.75" y2="99.68"/><line class="cls-4" x1="167.83" y1="98.6" x2="171.21" y2="97.69"/><line class="cls-4" x1="165.45" y1="96.82" x2="170.6" y2="95.43"/><line class="cls-4" x1="166.68" y1="94.35" x2="170.06" y2="93.43"/><line class="cls-4" x1="166.14" y1="92.35" x2="169.52" y2="91.44"/><line class="cls-4" x1="165.6" y1="90.36" x2="168.98" y2="89.44"/><line class="cls-4" x1="165.06" y1="88.36" x2="168.44" y2="87.45"/><line class="cls-4" x1="162.68" y1="86.58" x2="167.82" y2="85.19"/><line class="cls-4" x1="163.91" y1="84.11" x2="167.28" y2="83.19"/><line class="cls-4" x1="163.37" y1="82.11" x2="166.74" y2="81.2"/><line class="cls-4" x1="162.83" y1="80.12" x2="166.2" y2="79.2"/><line class="cls-4" x1="162.29" y1="78.12" x2="165.66" y2="77.21"/><line class="cls-4" x1="159.9" y1="76.34" x2="165.05" y2="74.94"/><line class="cls-4" x1="161.13" y1="73.86" x2="164.51" y2="72.95"/><line class="cls-4" x1="160.59" y1="71.87" x2="163.97" y2="70.95"/><line class="cls-4" x1="160.05" y1="69.87" x2="163.43" y2="68.96"/><line class="cls-4" x1="159.51" y1="67.88" x2="162.89" y2="66.97"/><line class="cls-4" x1="207.17" y1="250.9" x2="212.31" y2="249.51"/><line class="cls-4" x1="208.45" y1="248.62" x2="211.82" y2="247.7"/><line class="cls-4" x1="207.96" y1="246.81" x2="211.34" y2="245.89"/><line class="cls-4" x1="207.47" y1="245" x2="210.85" y2="244.08"/><line class="cls-4" x1="206.98" y1="243.19" x2="210.36" y2="242.28"/><line class="cls-4" x1="204.65" y1="241.62" x2="209.8" y2="240.23"/><line class="cls-4" x1="205.93" y1="239.33" x2="209.31" y2="238.42"/><line class="cls-4" x1="205.44" y1="237.52" x2="208.82" y2="236.61"/><line class="cls-4" x1="204.95" y1="235.71" x2="208.33" y2="234.8"/><line class="cls-4" x1="204.46" y1="233.91" x2="207.84" y2="232.99"/><line class="cls-4" x1="202.14" y1="232.33" x2="207.29" y2="230.94"/><line class="cls-4" x1="203.42" y1="230.05" x2="206.8" y2="229.13"/><line class="cls-4" x1="202.93" y1="228.24" x2="206.31" y2="227.32"/><line class="cls-4" x1="202.44" y1="226.43" x2="205.82" y2="225.52"/><line class="cls-4" x1="201.95" y1="224.62" x2="205.33" y2="223.71"/><line class="cls-4" x1="199.63" y1="223.05" x2="204.77" y2="221.66"/><line class="cls-4" x1="200.91" y1="220.76" x2="204.28" y2="219.85"/><line class="cls-4" x1="200.42" y1="218.95" x2="203.79" y2="218.04"/><line class="cls-4" x1="199.93" y1="217.15" x2="203.3" y2="216.23"/><line class="cls-4" x1="199.44" y1="215.34" x2="202.81" y2="214.42"/><line class="cls-4" x1="197.11" y1="213.77" x2="202.26" y2="212.37"/><line class="cls-4" x1="198.39" y1="211.48" x2="201.77" y2="210.56"/><line class="cls-4" x1="197.9" y1="209.67" x2="201.28" y2="208.76"/><line class="cls-4" x1="197.41" y1="207.86" x2="200.79" y2="206.95"/><line class="cls-4" x1="196.92" y1="206.05" x2="200.3" y2="205.14"/><line class="cls-4" x1="194.6" y1="204.48" x2="199.75" y2="203.09"/><line class="cls-4" x1="195.88" y1="202.19" x2="199.26" y2="201.28"/><line class="cls-4" x1="195.39" y1="200.39" x2="198.77" y2="199.47"/><line class="cls-4" x1="194.9" y1="198.58" x2="198.28" y2="197.66"/><line class="cls-4" x1="194.41" y1="196.77" x2="197.79" y2="195.85"/><line class="cls-4" x1="192.08" y1="195.2" x2="197.23" y2="193.8"/><line class="cls-4" x1="193.36" y1="192.91" x2="196.74" y2="191.99"/><line class="cls-4" x1="192.87" y1="191.1" x2="196.25" y2="190.19"/><line class="cls-4" x1="192.39" y1="189.29" x2="195.76" y2="188.38"/><line class="cls-4" x1="191.9" y1="187.48" x2="195.27" y2="186.57"/><line class="cls-4" x1="189.57" y1="185.91" x2="194.72" y2="184.52"/><line class="cls-4" x1="190.85" y1="183.63" x2="194.23" y2="182.71"/><line class="cls-4" x1="190.36" y1="181.82" x2="193.74" y2="180.9"/><line class="cls-4" x1="189.87" y1="180.01" x2="193.25" y2="179.09"/><line class="cls-4" x1="189.38" y1="178.2" x2="192.76" y2="177.29"/><line class="cls-4" x1="187.06" y1="176.63" x2="192.2" y2="175.23"/><line class="cls-4" x1="188.34" y1="174.34" x2="191.72" y2="173.43"/><line class="cls-4" x1="187.85" y1="172.53" x2="191.23" y2="171.62"/><line class="cls-4" x1="187.36" y1="170.72" x2="190.74" y2="169.81"/><line class="cls-4" x1="186.87" y1="168.92" x2="190.25" y2="168"/><line class="cls-4" x1="184.54" y1="167.34" x2="189.69" y2="165.95"/><line class="cls-4" x1="185.82" y1="165.06" x2="189.2" y2="164.14"/><line class="cls-4" x1="185.33" y1="163.25" x2="188.71" y2="162.33"/><line class="cls-4" x1="184.84" y1="161.44" x2="188.22" y2="160.52"/><line class="cls-4" x1="184.35" y1="159.63" x2="187.73" y2="158.72"/><path class="cls-1" d="M161.78,65.68q1.24,0,2.49,0A99.4,99.4,0,0,1,212.43,252"/><polyline class="cls-1" points="451.25 176.64 509.38 1.09 555.31 22.8 525.23 113.65"/><polyline class="cls-1" points="463.01 301.57 428.51 405.77 382.58 384.06 444.39 197.37"/><line class="cls-1" x1="483.4" y1="239.99" x2="480.74" y2="248"/><line class="cls-1" x1="500.01" y1="189.8" x2="497.06" y2="198.73"/><line class="cls-1" x1="516.66" y1="139.53" x2="511.68" y2="154.56"/><line class="cls-4" x1="448.57" y1="202.28" x2="443.51" y2="200.61"/><line class="cls-4" x1="446.21" y1="203.58" x2="442.89" y2="202.48"/><line class="cls-4" x1="445.59" y1="205.46" x2="442.27" y2="204.36"/><line class="cls-4" x1="444.97" y1="207.33" x2="441.65" y2="206.23"/><line class="cls-4" x1="444.35" y1="209.21" x2="441.03" y2="208.11"/><line class="cls-4" x1="445.38" y1="211.91" x2="440.32" y2="210.23"/><line class="cls-4" x1="443.02" y1="213.21" x2="439.7" y2="212.11"/><line class="cls-4" x1="442.4" y1="215.08" x2="439.08" y2="213.98"/><line class="cls-4" x1="441.78" y1="216.96" x2="438.46" y2="215.86"/><line class="cls-4" x1="441.16" y1="218.83" x2="437.84" y2="217.73"/><line class="cls-4" x1="442.2" y1="221.53" x2="437.13" y2="219.86"/><line class="cls-4" x1="439.84" y1="222.83" x2="436.51" y2="221.73"/><line class="cls-4" x1="439.22" y1="224.71" x2="435.89" y2="223.61"/><line class="cls-4" x1="438.59" y1="226.58" x2="435.27" y2="225.48"/><line class="cls-4" x1="437.97" y1="228.46" x2="434.65" y2="227.36"/><line class="cls-4" x1="439.01" y1="231.16" x2="433.95" y2="229.48"/><line class="cls-4" x1="436.65" y1="232.46" x2="433.33" y2="231.36"/><line class="cls-4" x1="436.03" y1="234.33" x2="432.71" y2="233.23"/><line class="cls-4" x1="435.41" y1="236.21" x2="432.09" y2="235.11"/><line class="cls-4" x1="434.79" y1="238.08" x2="431.46" y2="236.98"/><line class="cls-4" x1="435.82" y1="240.78" x2="430.76" y2="239.11"/><line class="cls-4" x1="433.46" y1="242.08" x2="430.14" y2="240.98"/><line class="cls-4" x1="432.84" y1="243.96" x2="429.52" y2="242.86"/><line class="cls-4" x1="432.22" y1="245.83" x2="428.9" y2="244.73"/><line class="cls-4" x1="431.6" y1="247.71" x2="428.28" y2="246.61"/><line class="cls-4" x1="432.64" y1="250.41" x2="427.57" y2="248.73"/><line class="cls-4" x1="430.28" y1="251.71" x2="426.95" y2="250.61"/><line class="cls-4" x1="429.65" y1="253.58" x2="426.33" y2="252.48"/><line class="cls-4" x1="429.03" y1="255.46" x2="425.71" y2="254.36"/><line class="cls-4" x1="428.41" y1="257.33" x2="425.09" y2="256.23"/><line class="cls-4" x1="429.45" y1="260.03" x2="424.39" y2="258.36"/><line class="cls-4" x1="427.09" y1="261.33" x2="423.77" y2="260.23"/><line class="cls-4" x1="426.47" y1="263.21" x2="423.15" y2="262.11"/><line class="cls-4" x1="425.85" y1="265.08" x2="422.52" y2="263.98"/><line class="cls-4" x1="425.23" y1="266.96" x2="421.9" y2="265.86"/><line class="cls-4" x1="426.26" y1="269.66" x2="421.2" y2="267.98"/><line class="cls-4" x1="423.9" y1="270.96" x2="420.58" y2="269.86"/><line class="cls-4" x1="423.28" y1="272.83" x2="419.96" y2="271.73"/><line class="cls-4" x1="422.66" y1="274.71" x2="419.34" y2="273.61"/><line class="cls-4" x1="422.04" y1="276.58" x2="418.72" y2="275.48"/><line class="cls-4" x1="423.08" y1="279.28" x2="418.01" y2="277.61"/><line class="cls-4" x1="420.71" y1="280.58" x2="417.39" y2="279.48"/><line class="cls-4" x1="420.09" y1="282.46" x2="416.77" y2="281.36"/><line class="cls-4" x1="419.47" y1="284.33" x2="416.15" y2="283.23"/><line class="cls-4" x1="418.85" y1="286.21" x2="415.53" y2="285.11"/><line class="cls-4" x1="419.89" y1="288.91" x2="414.83" y2="287.23"/><line class="cls-4" x1="417.53" y1="290.21" x2="414.21" y2="289.11"/><line class="cls-4" x1="416.91" y1="292.08" x2="413.58" y2="290.98"/><line class="cls-4" x1="416.29" y1="293.96" x2="412.96" y2="292.86"/><line class="cls-4" x1="415.67" y1="295.83" x2="412.34" y2="294.73"/><line class="cls-4" x1="416.7" y1="298.53" x2="411.64" y2="296.86"/><line class="cls-4" x1="414.34" y1="299.83" x2="411.02" y2="298.73"/><line class="cls-4" x1="413.72" y1="301.71" x2="410.4" y2="300.61"/><line class="cls-4" x1="413.1" y1="303.58" x2="409.78" y2="302.48"/><line class="cls-4" x1="412.48" y1="305.46" x2="409.16" y2="304.36"/><line class="cls-4" x1="413.52" y1="308.16" x2="408.45" y2="306.48"/><line class="cls-4" x1="411.15" y1="309.46" x2="407.83" y2="308.36"/><line class="cls-4" x1="410.53" y1="311.33" x2="407.21" y2="310.23"/><line class="cls-4" x1="409.91" y1="313.21" x2="406.59" y2="312.11"/><line class="cls-4" x1="409.29" y1="315.08" x2="405.97" y2="313.98"/><line class="cls-4" x1="410.33" y1="317.78" x2="405.27" y2="316.11"/><line class="cls-4" x1="407.97" y1="319.08" x2="404.64" y2="317.98"/><line class="cls-4" x1="407.35" y1="320.96" x2="404.02" y2="319.86"/><line class="cls-4" x1="406.73" y1="322.83" x2="403.4" y2="321.73"/><line class="cls-4" x1="406.11" y1="324.71" x2="402.78" y2="323.61"/><line class="cls-4" x1="407.14" y1="327.41" x2="402.08" y2="325.73"/><line class="cls-4" x1="404.78" y1="328.71" x2="401.46" y2="327.61"/><line class="cls-4" x1="404.16" y1="330.58" x2="400.84" y2="329.48"/><line class="cls-4" x1="403.54" y1="332.46" x2="400.22" y2="331.36"/><line class="cls-4" x1="402.92" y1="334.33" x2="399.6" y2="333.23"/><line class="cls-4" x1="403.95" y1="337.03" x2="398.89" y2="335.36"/><line class="cls-4" x1="401.59" y1="338.33" x2="398.27" y2="337.23"/><line class="cls-4" x1="400.97" y1="340.21" x2="397.65" y2="339.11"/><line class="cls-4" x1="400.35" y1="342.08" x2="397.03" y2="340.98"/><line class="cls-4" x1="399.73" y1="343.96" x2="396.41" y2="342.86"/><line class="cls-4" x1="400.77" y1="346.66" x2="395.71" y2="344.98"/><line class="cls-4" x1="398.41" y1="347.96" x2="395.08" y2="346.86"/><line class="cls-4" x1="397.79" y1="349.83" x2="394.46" y2="348.73"/><line class="cls-4" x1="397.17" y1="351.71" x2="393.84" y2="350.61"/><line class="cls-4" x1="396.54" y1="353.58" x2="393.22" y2="352.48"/><line class="cls-4" x1="397.58" y1="356.28" x2="392.52" y2="354.61"/><line class="cls-4" x1="395.22" y1="357.58" x2="391.9" y2="356.48"/><line class="cls-4" x1="394.6" y1="359.46" x2="391.28" y2="358.36"/><line class="cls-4" x1="393.98" y1="361.33" x2="390.66" y2="360.23"/><line class="cls-4" x1="393.36" y1="363.21" x2="390.04" y2="362.11"/><line class="cls-4" x1="394.39" y1="365.91" x2="389.33" y2="364.23"/><line class="cls-4" x1="392.03" y1="367.21" x2="388.71" y2="366.11"/><line class="cls-4" x1="391.41" y1="369.08" x2="388.09" y2="367.98"/><line class="cls-4" x1="390.79" y1="370.96" x2="387.47" y2="369.86"/><line class="cls-4" x1="390.17" y1="372.83" x2="386.85" y2="371.73"/><line class="cls-4" x1="391.21" y1="375.53" x2="386.14" y2="373.86"/><line class="cls-4" x1="388.85" y1="376.83" x2="385.52" y2="375.73"/><line class="cls-4" x1="388.23" y1="378.71" x2="384.9" y2="377.61"/><line class="cls-4" x1="387.6" y1="380.58" x2="384.28" y2="379.48"/><line class="cls-4" x1="386.98" y1="382.46" x2="383.66" y2="381.36"/><line class="cls-4" x1="514.3" y1="3.75" x2="509.24" y2="2.08"/><line class="cls-4" x1="511.96" y1="5.01" x2="508.63" y2="3.91"/><line class="cls-4" x1="511.35" y1="6.84" x2="508.03" y2="5.74"/><line class="cls-4" x1="510.74" y1="8.67" x2="507.42" y2="7.57"/><line class="cls-4" x1="510.14" y1="10.5" x2="506.82" y2="9.4"/><line class="cls-4" x1="511.19" y1="13.15" x2="506.13" y2="11.48"/><line class="cls-4" x1="508.84" y1="14.41" x2="505.52" y2="13.31"/><line class="cls-4" x1="508.24" y1="16.24" x2="504.92" y2="15.14"/><line class="cls-4" x1="507.63" y1="18.07" x2="504.31" y2="16.97"/><line class="cls-4" x1="507.03" y1="19.9" x2="503.7" y2="18.8"/><line class="cls-4" x1="508.08" y1="22.56" x2="503.02" y2="20.88"/><line class="cls-4" x1="505.73" y1="23.81" x2="502.41" y2="22.71"/><line class="cls-4" x1="505.13" y1="25.64" x2="501.8" y2="24.54"/><line class="cls-4" x1="504.52" y1="27.47" x2="501.2" y2="26.37"/><line class="cls-4" x1="503.91" y1="29.31" x2="500.59" y2="28.21"/><line class="cls-4" x1="504.97" y1="31.96" x2="499.9" y2="30.28"/><line class="cls-4" x1="502.62" y1="33.21" x2="499.3" y2="32.11"/><line class="cls-4" x1="502.01" y1="35.05" x2="498.69" y2="33.94"/><line class="cls-4" x1="501.41" y1="36.88" x2="498.08" y2="35.78"/><line class="cls-4" x1="500.8" y1="38.71" x2="497.48" y2="37.61"/><line class="cls-4" x1="501.85" y1="41.36" x2="496.79" y2="39.68"/><line class="cls-4" x1="499.51" y1="42.62" x2="496.18" y2="41.52"/><line class="cls-4" x1="498.9" y1="44.45" x2="495.58" y2="43.35"/><line class="cls-4" x1="498.29" y1="46.28" x2="494.97" y2="45.18"/><line class="cls-4" x1="497.69" y1="48.11" x2="494.36" y2="47.01"/><line class="cls-4" x1="498.74" y1="50.76" x2="493.68" y2="49.09"/><line class="cls-4" x1="496.39" y1="52.02" x2="493.07" y2="50.92"/><line class="cls-4" x1="495.79" y1="53.85" x2="492.46" y2="52.75"/><line class="cls-4" x1="495.18" y1="55.68" x2="491.86" y2="54.58"/><line class="cls-4" x1="494.57" y1="57.51" x2="491.25" y2="56.41"/><line class="cls-4" x1="495.63" y1="60.16" x2="490.56" y2="58.49"/><line class="cls-4" x1="493.28" y1="61.42" x2="489.96" y2="60.32"/><line class="cls-4" x1="492.67" y1="63.25" x2="489.35" y2="62.15"/><line class="cls-4" x1="492.07" y1="65.08" x2="488.74" y2="63.98"/><line class="cls-4" x1="491.46" y1="66.91" x2="488.14" y2="65.81"/><line class="cls-4" x1="492.51" y1="69.57" x2="487.45" y2="67.89"/><line class="cls-4" x1="490.17" y1="70.82" x2="486.84" y2="69.72"/><line class="cls-4" x1="489.56" y1="72.65" x2="486.24" y2="71.55"/><line class="cls-4" x1="488.95" y1="74.48" x2="485.63" y2="73.38"/><line class="cls-4" x1="488.35" y1="76.32" x2="485.02" y2="75.22"/><line class="cls-4" x1="489.4" y1="78.97" x2="484.34" y2="77.29"/><line class="cls-4" x1="487.05" y1="80.22" x2="483.73" y2="79.12"/><line class="cls-4" x1="486.45" y1="82.06" x2="483.12" y2="80.96"/><line class="cls-4" x1="485.84" y1="83.89" x2="482.52" y2="82.79"/><line class="cls-4" x1="485.23" y1="85.72" x2="481.91" y2="84.62"/><line class="cls-4" x1="486.29" y1="88.37" x2="481.22" y2="86.69"/><line class="cls-4" x1="483.94" y1="89.63" x2="480.62" y2="88.53"/><line class="cls-4" x1="483.33" y1="91.46" x2="480.01" y2="90.36"/><line class="cls-4" x1="482.73" y1="93.29" x2="479.41" y2="92.19"/><line class="cls-4" x1="482.12" y1="95.12" x2="478.8" y2="94.02"/><line class="cls-4" x1="483.17" y1="97.77" x2="478.11" y2="96.1"/><line class="cls-4" x1="480.83" y1="99.03" x2="477.5" y2="97.93"/><line class="cls-4" x1="480.22" y1="100.86" x2="476.9" y2="99.76"/><line class="cls-4" x1="479.61" y1="102.69" x2="476.29" y2="101.59"/><line class="cls-4" x1="479.01" y1="104.52" x2="475.69" y2="103.42"/><line class="cls-4" x1="480.06" y1="107.18" x2="475" y2="105.5"/><line class="cls-4" x1="477.71" y1="108.43" x2="474.39" y2="107.33"/><line class="cls-4" x1="477.11" y1="110.26" x2="473.79" y2="109.16"/><line class="cls-4" x1="476.5" y1="112.09" x2="473.18" y2="110.99"/><line class="cls-4" x1="475.9" y1="113.92" x2="472.57" y2="112.82"/><line class="cls-4" x1="476.95" y1="116.58" x2="471.89" y2="114.9"/><line class="cls-4" x1="474.6" y1="117.83" x2="471.28" y2="116.73"/><line class="cls-4" x1="473.99" y1="119.66" x2="470.67" y2="118.56"/><line class="cls-4" x1="473.39" y1="121.5" x2="470.07" y2="120.39"/><line class="cls-4" x1="472.78" y1="123.33" x2="469.46" y2="122.23"/><line class="cls-4" x1="473.84" y1="125.98" x2="468.77" y2="124.3"/><line class="cls-4" x1="471.49" y1="127.23" x2="468.17" y2="126.13"/><line class="cls-4" x1="470.88" y1="129.07" x2="467.56" y2="127.97"/><line class="cls-4" x1="470.28" y1="130.9" x2="466.95" y2="129.8"/><line class="cls-4" x1="469.67" y1="132.73" x2="466.35" y2="131.63"/><line class="cls-4" x1="470.72" y1="135.38" x2="465.66" y2="133.71"/><line class="cls-4" x1="468.38" y1="136.64" x2="465.05" y2="135.54"/><line class="cls-4" x1="467.77" y1="138.47" x2="464.45" y2="137.37"/><line class="cls-4" x1="467.16" y1="140.3" x2="463.84" y2="139.2"/><line class="cls-4" x1="466.56" y1="142.13" x2="463.23" y2="141.03"/><line class="cls-4" x1="467.61" y1="144.78" x2="462.55" y2="143.11"/><line class="cls-4" x1="465.26" y1="146.04" x2="461.94" y2="144.94"/><line class="cls-4" x1="464.66" y1="147.87" x2="461.33" y2="146.77"/><line class="cls-4" x1="464.05" y1="149.7" x2="460.73" y2="148.6"/><line class="cls-4" x1="463.44" y1="151.53" x2="460.12" y2="150.43"/><line class="cls-4" x1="464.5" y1="154.19" x2="459.43" y2="152.51"/><line class="cls-4" x1="462.15" y1="155.44" x2="458.83" y2="154.34"/><line class="cls-4" x1="461.54" y1="157.27" x2="458.22" y2="156.17"/><line class="cls-4" x1="460.94" y1="159.1" x2="457.61" y2="158"/><line class="cls-4" x1="460.33" y1="160.93" x2="457.01" y2="159.83"/><line class="cls-4" x1="461.38" y1="163.59" x2="456.32" y2="161.91"/><line class="cls-4" x1="459.04" y1="164.84" x2="455.71" y2="163.74"/><line class="cls-4" x1="458.43" y1="166.67" x2="455.11" y2="165.57"/><line class="cls-4" x1="457.82" y1="168.51" x2="454.5" y2="167.41"/><line class="cls-4" x1="457.22" y1="170.34" x2="453.89" y2="169.24"/><line class="cls-1" x1="428.51" y1="405.77" x2="382.58" y2="384.06"/><line class="cls-4" x1="521.7" y1="109.79" x2="526.76" y2="111.47"/><line class="cls-4" x1="524.07" y1="108.46" x2="527.39" y2="109.56"/><line class="cls-4" x1="524.7" y1="106.56" x2="528.02" y2="107.66"/><line class="cls-4" x1="525.33" y1="104.65" x2="528.65" y2="105.75"/><line class="cls-4" x1="525.96" y1="102.74" x2="529.28" y2="103.84"/><line class="cls-4" x1="524.94" y1="100.01" x2="530" y2="101.68"/><line class="cls-4" x1="527.31" y1="98.68" x2="530.63" y2="99.78"/><line class="cls-4" x1="527.94" y1="96.77" x2="531.26" y2="97.87"/><line class="cls-4" x1="528.57" y1="94.86" x2="531.89" y2="95.96"/><line class="cls-4" x1="529.2" y1="92.96" x2="532.52" y2="94.06"/><line class="cls-4" x1="528.18" y1="90.22" x2="533.24" y2="91.89"/><line class="cls-4" x1="530.55" y1="88.89" x2="533.87" y2="89.99"/><line class="cls-4" x1="531.18" y1="86.98" x2="534.5" y2="88.08"/><line class="cls-4" x1="531.81" y1="85.07" x2="535.13" y2="86.17"/><line class="cls-4" x1="532.44" y1="83.17" x2="535.77" y2="84.27"/><line class="cls-4" x1="531.42" y1="80.43" x2="536.48" y2="82.1"/><line class="cls-4" x1="533.79" y1="79.1" x2="537.11" y2="80.2"/><line class="cls-4" x1="534.42" y1="77.19" x2="537.74" y2="78.29"/><line class="cls-4" x1="535.05" y1="75.28" x2="538.38" y2="76.38"/><line class="cls-4" x1="535.68" y1="73.38" x2="539.01" y2="74.48"/><line class="cls-4" x1="534.66" y1="70.64" x2="539.72" y2="72.32"/><line class="cls-4" x1="537.03" y1="69.31" x2="540.35" y2="70.41"/><line class="cls-4" x1="537.66" y1="67.4" x2="540.99" y2="68.5"/><line class="cls-4" x1="538.29" y1="65.5" x2="541.62" y2="66.6"/><line class="cls-4" x1="538.93" y1="63.59" x2="542.25" y2="64.69"/><line class="cls-4" x1="537.9" y1="60.85" x2="542.96" y2="62.53"/><line class="cls-4" x1="540.27" y1="59.52" x2="543.59" y2="60.62"/><line class="cls-4" x1="540.9" y1="57.61" x2="544.23" y2="58.71"/><line class="cls-4" x1="541.53" y1="55.71" x2="544.86" y2="56.81"/><line class="cls-4" x1="542.17" y1="53.8" x2="545.49" y2="54.9"/><line class="cls-4" x1="541.14" y1="51.06" x2="546.2" y2="52.74"/><line class="cls-4" x1="543.51" y1="49.73" x2="546.84" y2="50.83"/><line class="cls-4" x1="544.14" y1="47.82" x2="547.47" y2="48.92"/><line class="cls-4" x1="544.78" y1="45.92" x2="548.1" y2="47.02"/><line class="cls-4" x1="545.41" y1="44.01" x2="548.73" y2="45.11"/><line class="cls-4" x1="544.38" y1="41.27" x2="549.45" y2="42.95"/><line class="cls-4" x1="546.75" y1="39.94" x2="550.08" y2="41.04"/><line class="cls-4" x1="547.39" y1="38.04" x2="550.71" y2="39.14"/><line class="cls-4" x1="548.02" y1="36.13" x2="551.34" y2="37.23"/><line class="cls-4" x1="548.65" y1="34.22" x2="551.97" y2="35.32"/><line class="cls-4" x1="547.62" y1="31.48" x2="552.69" y2="33.16"/><line class="cls-4" x1="550" y1="30.15" x2="553.32" y2="31.25"/><line class="cls-4" x1="550.63" y1="28.25" x2="553.95" y2="29.35"/><line class="cls-4" x1="551.26" y1="26.34" x2="554.58" y2="27.44"/><line class="cls-4" x1="551.89" y1="24.43" x2="555.21" y2="25.53"/><line class="cls-4" x1="507.64" y1="152.26" x2="512.7" y2="153.93"/><line class="cls-4" x1="509.87" y1="151.33" x2="513.2" y2="152.43"/><line class="cls-4" x1="510.37" y1="149.83" x2="513.69" y2="150.93"/><line class="cls-4" x1="510.87" y1="148.32" x2="514.19" y2="149.42"/><line class="cls-4" x1="511.37" y1="146.82" x2="514.69" y2="147.92"/><line class="cls-4" x1="510.19" y1="144.54" x2="515.25" y2="146.22"/><line class="cls-4" x1="512.43" y1="143.62" x2="515.75" y2="144.72"/><line class="cls-4" x1="512.93" y1="142.11" x2="516.25" y2="143.21"/><line class="cls-4" x1="513.42" y1="140.61" x2="516.75" y2="141.71"/><line class="cls-4" x1="513.92" y1="139.11" x2="517.24" y2="140.21"/><line class="cls-4" x1="492.74" y1="197.25" x2="497.8" y2="198.93"/><line class="cls-4" x1="495.06" y1="196.08" x2="498.38" y2="197.18"/><line class="cls-4" x1="495.64" y1="194.33" x2="498.96" y2="195.43"/><line class="cls-4" x1="496.22" y1="192.57" x2="499.54" y2="193.67"/><line class="cls-4" x1="496.8" y1="190.82" x2="500.12" y2="191.92"/><line class="cls-4" x1="476.29" y1="246.94" x2="481.35" y2="248.61"/><line class="cls-4" x1="478.57" y1="245.86" x2="481.9" y2="246.96"/><line class="cls-4" x1="479.12" y1="244.21" x2="482.44" y2="245.31"/><line class="cls-4" x1="479.67" y1="242.55" x2="482.99" y2="243.65"/><line class="cls-4" x1="480.22" y1="240.9" x2="483.54" y2="242"/><line class="cls-4" x1="424.57" y1="403.13" x2="429.63" y2="404.81"/><line class="cls-4" x1="426.91" y1="401.9" x2="430.23" y2="403"/><line class="cls-4" x1="427.51" y1="400.09" x2="430.83" y2="401.19"/><line class="cls-4" x1="428.11" y1="398.28" x2="431.43" y2="399.38"/><line class="cls-4" x1="428.71" y1="396.47" x2="432.03" y2="397.57"/><line class="cls-4" x1="427.65" y1="393.85" x2="432.71" y2="395.52"/><line class="cls-4" x1="429.98" y1="392.62" x2="433.31" y2="393.72"/><line class="cls-4" x1="430.58" y1="390.81" x2="433.91" y2="391.91"/><line class="cls-4" x1="431.18" y1="389" x2="434.5" y2="390.1"/><line class="cls-4" x1="431.78" y1="387.19" x2="435.1" y2="388.29"/><line class="cls-4" x1="430.72" y1="384.57" x2="435.78" y2="386.24"/><line class="cls-4" x1="433.06" y1="383.33" x2="436.38" y2="384.43"/><line class="cls-4" x1="433.66" y1="381.53" x2="436.98" y2="382.63"/><line class="cls-4" x1="434.25" y1="379.72" x2="437.58" y2="380.82"/><line class="cls-4" x1="434.85" y1="377.91" x2="438.18" y2="379.01"/><line class="cls-4" x1="433.79" y1="375.28" x2="438.85" y2="376.96"/><line class="cls-4" x1="436.13" y1="374.05" x2="439.45" y2="375.15"/><line class="cls-4" x1="436.73" y1="372.25" x2="440.05" y2="373.35"/><line class="cls-4" x1="437.33" y1="370.44" x2="440.65" y2="371.54"/><line class="cls-4" x1="437.93" y1="368.63" x2="441.25" y2="369.73"/><line class="cls-4" x1="436.86" y1="366" x2="441.93" y2="367.68"/><line class="cls-4" x1="439.2" y1="364.77" x2="442.53" y2="365.87"/><line class="cls-4" x1="439.8" y1="362.96" x2="443.12" y2="364.06"/><line class="cls-4" x1="440.4" y1="361.16" x2="443.72" y2="362.26"/><line class="cls-4" x1="441" y1="359.35" x2="444.32" y2="360.45"/><line class="cls-4" x1="439.94" y1="356.72" x2="445" y2="358.4"/><line class="cls-4" x1="442.28" y1="355.49" x2="445.6" y2="356.59"/><line class="cls-4" x1="442.88" y1="353.68" x2="446.2" y2="354.78"/><line class="cls-4" x1="443.47" y1="351.87" x2="446.8" y2="352.97"/><line class="cls-4" x1="444.07" y1="350.07" x2="447.4" y2="351.17"/><line class="cls-4" x1="443.01" y1="347.44" x2="448.07" y2="349.12"/><line class="cls-4" x1="445.35" y1="346.21" x2="448.67" y2="347.31"/><line class="cls-4" x1="445.95" y1="344.4" x2="449.27" y2="345.5"/><line class="cls-4" x1="446.55" y1="342.59" x2="449.87" y2="343.69"/><line class="cls-4" x1="447.15" y1="340.78" x2="450.47" y2="341.88"/><line class="cls-4" x1="446.08" y1="338.16" x2="451.15" y2="339.83"/><line class="cls-4" x1="448.42" y1="336.93" x2="451.75" y2="338.03"/><line class="cls-4" x1="449.02" y1="335.12" x2="452.34" y2="336.22"/><line class="cls-4" x1="449.62" y1="333.31" x2="452.94" y2="334.41"/><line class="cls-4" x1="450.22" y1="331.5" x2="453.54" y2="332.6"/><line class="cls-4" x1="449.16" y1="328.88" x2="454.22" y2="330.55"/><line class="cls-4" x1="451.5" y1="327.64" x2="454.82" y2="328.74"/><line class="cls-4" x1="452.09" y1="325.84" x2="455.42" y2="326.94"/><line class="cls-4" x1="452.69" y1="324.03" x2="456.02" y2="325.13"/><line class="cls-4" x1="453.29" y1="322.22" x2="456.61" y2="323.32"/><line class="cls-4" x1="452.23" y1="319.59" x2="457.29" y2="321.27"/><line class="cls-4" x1="454.57" y1="318.36" x2="457.89" y2="319.46"/><line class="cls-4" x1="455.17" y1="316.55" x2="458.49" y2="317.65"/><line class="cls-4" x1="455.77" y1="314.75" x2="459.09" y2="315.85"/><line class="cls-4" x1="456.37" y1="312.94" x2="459.69" y2="314.04"/><line class="cls-4" x1="455.3" y1="310.31" x2="460.37" y2="311.99"/><line class="cls-4" x1="457.64" y1="309.08" x2="460.97" y2="310.18"/><line class="cls-4" x1="458.24" y1="307.27" x2="461.56" y2="308.37"/><line class="cls-4" x1="458.84" y1="305.47" x2="462.16" y2="306.57"/><line class="cls-4" x1="459.44" y1="303.66" x2="462.76" y2="304.76"/><line class="cls-1" x1="509.38" y1="1.09" x2="555.31" y2="22.8"/></g></g></svg>