     <svg width="48px" height="49px" viewBox="83 0 48 49" version="1.1" xmlns="http://www.w3.org/2000/svg" xmlns:xlink="http://www.w3.org/1999/xlink">
     	<defs></defs>
     	<path d="M107.000048,0 C100.481991,0 99.6646859,0.0276277635 97.1048307,0.144426516 C94.5503105,0.260939463 92.8056649,0.666686514 91.279088,1.26001655 C89.7008759,1.87325763 88.3624536,2.69389748 87.0281279,4.02812792 C85.6938975,5.36245363 84.8732576,6.70087587 84.2600166,8.27908805 C83.6666865,9.80566488 83.2609395,11.5503105 83.1444265,14.1048307 C83.0276278,16.6646859 83,17.4819913 83,24.0000476 C83,30.5180087 83.0276278,31.3353141 83.1444265,33.8951693 C83.2609395,36.4496895 83.6666865,38.1943351 84.2600166,39.720912 C84.8732576,41.2991241 85.6938975,42.6375464 87.0281279,43.9718721 C88.3624536,45.3061025 89.7008759,46.1267424 91.279088,46.7400787 C92.8056649,47.3333135 94.5503105,47.7390605 97.1048307,47.8555735 C99.6646859,47.9723722 100.481991,48 107.000048,48 C113.518009,48 114.335314,47.9723722 116.895169,47.8555735 C119.449689,47.7390605 121.194335,47.3333135 122.720912,46.7400787 C124.299124,46.1267424 125.637546,45.3061025 126.971872,43.9718721 C128.306103,42.6375464 129.126742,41.2991241 129.740079,39.720912 C130.333313,38.1943351 130.739061,36.4496895 130.855573,33.8951693 C130.972372,31.3353141 131,30.5180087 131,24.0000476 C131,17.4819913 130.972372,16.6646859 130.855573,14.1048307 C130.739061,11.5503105 130.333313,9.80566488 129.740079,8.27908805 C129.126742,6.70087587 128.306103,5.36245363 126.971872,4.02812792 C125.637546,2.69389748 124.299124,1.87325763 122.720912,1.26001655 C121.194335,0.666686514 119.449689,0.260939463 116.895169,0.144426516 C114.335314,0.0276277635 113.518009,0 107.000048,0 Z M107.000048,4.3243166 C113.40826,4.3243166 114.167356,4.34880051 116.69806,4.46426551 C119.038036,4.57096584 120.308818,4.96194633 121.154513,5.29062145 C122.274771,5.72599689 123.074262,6.24606572 123.91405,7.08594973 C124.753934,7.92573848 125.274003,8.72522879 125.709379,9.84548697 C126.038054,10.6911823 126.429034,11.9619642 126.535734,14.3019405 C126.651199,16.8326436 126.675683,17.5917403 126.675683,24.0000476 C126.675683,30.4082597 126.651199,31.1673564 126.535734,33.6980595 C126.429034,36.0380358 126.038054,37.3088177 125.709379,38.154513 C125.274003,39.2747712 124.753934,40.0742615 123.91405,40.9140503 C123.074262,41.7539343 122.274771,42.2740031 121.154513,42.7093786 C120.308818,43.0380537 119.038036,43.4290342 116.69806,43.5357345 C114.167737,43.6511995 113.408736,43.6756834 107.000048,43.6756834 C100.591264,43.6756834 99.8323578,43.6511995 97.3019405,43.5357345 C94.9619642,43.4290342 93.6911823,43.0380537 92.845487,42.7093786 C91.7252288,42.2740031 90.9257385,41.7539343 90.0859497,40.9140503 C89.246161,40.0742615 88.7259969,39.2747712 88.2906214,38.154513 C87.9619463,37.3088177 87.5709658,36.0380358 87.4642655,33.6980595 C87.3488005,31.1673564 87.3243166,30.4082597 87.3243166,24.0000476 C87.3243166,17.5917403 87.3488005,16.8326436 87.4642655,14.3019405 C87.5709658,11.9619642 87.9619463,10.6911823 88.2906214,9.84548697 C88.7259969,8.72522879 89.2460657,7.92573848 90.0859497,7.08594973 C90.9257385,6.24606572 91.7252288,5.72599689 92.845487,5.29062145 C93.6911823,4.96194633 94.9619642,4.57096584 97.3019405,4.46426551 C99.8326436,4.34880051 100.59174,4.3243166 107.000048,4.3243166 Z M107.000048,11.6756834 C100.193424,11.6756834 94.6756834,17.1934241 94.6756834,24.0000476 C94.6756834,30.8065759 100.193424,36.3243166 107.000048,36.3243166 C113.806576,36.3243166 119.324317,30.8065759 119.324317,24.0000476 C119.324317,17.1934241 113.806576,11.6756834 107.000048,11.6756834 Z M107.000048,32 C102.581701,32 99,28.4182986 99,24.0000476 C99,19.5817014 102.581701,16 107.000048,16 C111.418299,16 115,19.5817014 115,24.0000476 C115,28.4182986 111.418299,32 107.000048,32 Z M122.691284,11.1887679 C122.691284,12.7793649 121.401829,14.0687241 119.811232,14.0687241 C118.22073,14.0687241 116.931276,12.7793649 116.931276,11.1887679 C116.931276,9.59817085 118.22073,8.30871644 119.811232,8.30871644 C121.401829,8.30871644 122.691284,9.59817085 122.691284,11.1887679 Z" id="Instagram" stroke="none" fill-rule="evenodd"></path>
     </svg>