<svg width="45px" height="41px" viewBox="242 4 45 41" version="1.1" xmlns="http://www.w3.org/2000/svg" xmlns:xlink="http://www.w3.org/1999/xlink">
	<defs></defs>
	<path d="M286,44 L276.2754,44 L276.2754,29.9384005 C276.2754,26.257796 274.754233,23.7451495 271.409219,23.7451495 C268.850659,23.7451495 267.427799,25.4407377 266.765522,27.0748543 C266.517168,27.6613946 266.555974,28.478453 266.555974,29.2955113 L266.555974,44 L256.921919,44 C256.921919,44 257.046096,19.0912467 256.921919,16.8270474 L266.555974,16.8270474 L266.555974,21.0916309 C267.125118,19.2269962 270.203669,16.5657937 275.116416,16.5657937 C281.21143,16.5657937 286,20.4743549 286,28.8908241 L286,44 L286,44 Z M247.17921,13.4281872 L247.117121,13.4281872 C244.0127,13.4281872 242,11.3509637 242,8.71793558 C242,6.03368124 244.072201,4 247.238711,4 C250.402634,4 252.348071,6.02855862 252.41016,8.71025165 C252.41016,11.3432798 250.402634,13.4281872 247.17921,13.4281872 L247.17921,13.4281872 L247.17921,13.4281872 Z M243.109831,16.8270474 L251.685795,16.8270474 L251.685795,44 L243.109831,44 L243.109831,16.8270474 L243.109831,16.8270474 Z" id="LinkedIn" stroke="none" fill-rule="evenodd"></path>
</svg>