<?xml version="1.0" encoding="UTF-8"?>
<svg width="314px" height="503px" viewBox="0 0 314 503" version="1.1" xmlns="http://www.w3.org/2000/svg" xmlns:xlink="http://www.w3.org/1999/xlink">
    <!-- Generator: Sketch 49.2 (51160) - http://www.bohemiancoding.com/sketch -->
    <title>snaphand</title>
    <desc>Created with Sketch.</desc>
    <defs></defs>
    <g id="Page-1" stroke="none" stroke-width="1" fill="none" fill-rule="evenodd">
        <g id="Desktop" transform="translate(-169.000000, -258.000000)">
            <g id="snaphand" transform="translate(170.000000, 259.000000)">
                <path d="M115.5306,162.6402 C116.3816,164.1862 117.2586,165.7572 118.1606,167.3512" id="Stroke-1" stroke="#3F3F3F" stroke-width="1.258" stroke-linecap="round" stroke-linejoin="round"></path>
                <path d="M89.5462,97.48 C90.6822,104.089 92.7672,111.979 96.2122,121.372" id="Stroke-3" stroke="#3F3F3F" stroke-width="2.185" stroke-linecap="round" stroke-linejoin="round"></path>
                <path d="M150.2049,126.1358 C149.9989,125.7318 149.8299,125.3908 149.6989,125.1158 C146.5359,118.4978 135.1779,102.6438 122.1369,75.6998 C109.0929,48.7568 94.9619,65.5088 94.9619,65.5088" id="Stroke-5" stroke="#3F3F3F" stroke-width="2.185" stroke-linecap="round" stroke-linejoin="round"></path>
                <path d="M177.7518,183.5713 C174.6718,175.8293 171.2168,168.0773 167.8048,160.8503" id="Stroke-7" stroke="#3F3F3F" stroke-width="2.185" stroke-linecap="round" stroke-linejoin="round"></path>
                <path d="M268.4197,499.8535 C267.0857,501.1085 187.1037,406.8275 138.5027,383.3915 C89.9027,359.9545 74.9327,350.0645 74.9327,350.0645 C73.1387,348.7725 40.5637,324.5095 21.0707,308.6815 C1.5767,292.8545 11.0027,278.2485 11.0027,278.2485 C11.0027,278.2485 0.4187,269.4605 0.1367,263.9135 C-0.6013,249.4175 8.1067,239.3245 8.1067,239.3245 C8.1067,239.3245 2.1547,237.5105 9.5597,211.9845 C16.9647,186.4585 19.3687,173.5845 27.6587,158.1615 C35.9487,142.7365 32.6007,131.6215 75.3467,126.0645 C75.3467,126.0645 106.6787,118.0495 113.8107,119.5045 C125.1197,121.8135 167.5237,128.9055 170.1647,130.2245 C172.8067,131.5435 185.0897,144.8775 167.8047,160.8505" id="Stroke-9" stroke="#3F3F3F" stroke-width="2.185" stroke-linecap="round" stroke-linejoin="round"></path>
                <path d="M186.157,209.0064 C193.934,241.1964 198.678,254.9554 201.253,276.1924 C201.253,276.1924 210.01,303.3504 285.116,346.8134 C292.478,351.0734 299.219,354.9714 305.39,358.5384 C320.458362,419.40137 308.513277,466.782347 269.554742,500.681331" id="Stroke-11" stroke="#3F3F3F" stroke-width="2.185" stroke-linecap="round" stroke-linejoin="round"></path>
                <path d="M55.5472,129.833 L52.1612,123.685 C52.1612,123.685 59.2022,116.672 62.2992,110.104 C62.2992,110.104 93.9362,101.641 101.0952,84.167 C108.2542,66.694 98.8092,66.692 98.8092,66.692 C98.8092,66.692 53.6272,69.944 46.5852,74.326 C39.5432,78.708 28.0052,89.986 19.8452,99.406 C7.9462,110.423 1.5722,113.253 6.4552,129.758 C11.3372,146.262 14.4192,162.308 20.0522,172.668" id="Stroke-13" stroke="#3F3F3F" stroke-width="2.185" stroke-linecap="round" stroke-linejoin="round"></path>
                <path d="M115.5306,162.6387 C122.3446,163.1897 143.1716,166.3357 167.8056,160.8507" id="Stroke-15" stroke="#3F3F3F" stroke-width="1.258" stroke-linecap="round" stroke-linejoin="round"></path>
                <path d="M93.451,168.124 C94.382,167.899 111.153,163.355 113.342,162.631 C113.653,162.528 114.399,162.548 115.53,162.639" id="Stroke-17" stroke="#3F3F3F" stroke-width="1.258" stroke-linecap="round" stroke-linejoin="round"></path>
                <path d="M186.1697,208.9209 C181.2037,214.6799 174.1497,215.9569 146.2527,209.3639 C139.9467,207.8749 134.3317,206.3329 129.5367,206.1679 C117.9607,206.6819 98.2047,208.5069 98.2047,208.5069" id="Stroke-19" stroke="#3F3F3F" stroke-width="1.258" stroke-linecap="round" stroke-linejoin="round"></path>
                <path d="M93.451,168.1236 C82.809,168.2956 64.892,169.1316 58.339,172.6926 C48.77,177.8936 20.112,211.1966 8.374,239.6416" id="Stroke-21" stroke="#3F3F3F" stroke-width="1.258" stroke-linecap="round" stroke-linejoin="round"></path>
                <path d="M118.0354,168.0083 C109.6844,167.9543 101.7064,168.1053 101.7064,168.1053 C101.7064,168.1053 98.3484,168.0443 93.4524,168.1243" id="Stroke-23" stroke="#3F3F3F" stroke-width="1.258" stroke-linecap="round" stroke-linejoin="round"></path>
                <path d="M177.2244,183.3721 C166.2954,179.1851 140.7014,169.5691 134.8384,168.7081 C131.5524,168.2251 124.6764,168.0521 118.0364,168.0091" id="Stroke-25" stroke="#3F3F3F" stroke-width="1.258" stroke-linecap="round" stroke-linejoin="round"></path>
                <path d="M182.6326,185.7676 C182.4456,185.6876 180.1276,184.4856 177.2236,183.3716" id="Stroke-27" stroke="#3F3F3F" stroke-width="2.185" stroke-linecap="round" stroke-linejoin="round"></path>
                <path d="M188.2244,206.1885 C193.6544,198.2225 183.0704,185.6775 182.1814,185.2945" id="Stroke-29" stroke="#3F3F3F" stroke-width="1.258" stroke-linecap="round" stroke-linejoin="round"></path>
                <path d="M186.1697,208.9209 C186.8777,208.0979 187.5447,207.1849 188.2237,206.1889" id="Stroke-31" stroke="#3F3F3F" stroke-width="2.185" stroke-linecap="round" stroke-linejoin="round"></path>
                <path d="M12.3528,269.3027 C12.7378,268.9787 18.4328,263.5217 22.6558,255.7997 C26.8798,248.0767 42.9638,222.7207 55.5368,213.2057 C68.1088,203.6897 82.1498,208.0577 113.0418,209.4077 C130.3378,210.1647 135.2258,226.5257 141.4868,238.4447 C145.8208,246.6977 149.3768,251.4087 149.1188,252.1647 C149.1188,252.1647 143.5268,267.4337 129.9518,260.4327 C118.2718,254.4087 111.2748,248.3547 111.6598,248.0317 C112.0438,247.7077 101.4308,252.2727 77.2118,250.7807" id="Stroke-33" stroke="#3F3F3F" stroke-width="1.258" stroke-linecap="round" stroke-linejoin="round"></path>
                <path d="M50.5472,288.3789 C48.7622,289.2499 46.8862,290.0709 44.9142,290.8339" id="Stroke-35" stroke="#3F3F3F" stroke-width="1.457" stroke-linecap="round" stroke-linejoin="round"></path>
                <path d="M59.6663,283.0127 C57.7533,284.3547 55.6953,285.6427 53.4863,286.8567" id="Stroke-37" stroke="#3F3F3F" stroke-width="1.457" stroke-linecap="round" stroke-linejoin="round"></path>
                <path d="M83.5662,251.0459 C83.5662,251.0459 79.2792,267.7009 62.5812,280.8469" id="Stroke-39" stroke="#3F3F3F" stroke-width="1.457" stroke-linecap="round" stroke-linejoin="round"></path>
                <path d="M62.1629,318.4199 C61.6309,319.0089 61.0869,319.6019 60.5289,320.1969" id="Stroke-41" stroke="#3F3F3F" stroke-width="1.457" stroke-linecap="round" stroke-linejoin="round"></path>
                <path d="M67.2874,312.3291 C66.4294,313.4271 65.5274,314.5361 64.5794,315.6571" id="Stroke-43" stroke="#3F3F3F" stroke-width="1.457" stroke-linecap="round" stroke-linejoin="round"></path>
                <path d="M80.555,259.6641 C80.555,259.6641 90.735,280.0081 69.579,309.2821" id="Stroke-45" stroke="#3F3F3F" stroke-width="1.457" stroke-linecap="round" stroke-linejoin="round"></path>
                <path d="M101.7234,313.4502 C101.6174,315.3972 101.2774,317.0812 100.6574,318.4232" id="Stroke-47" stroke="#3F3F3F" stroke-width="1.457" stroke-linecap="round" stroke-linejoin="round"></path>
                <path d="M101.2903,306.1729 C101.5153,307.7439 101.6653,309.2389 101.7283,310.6409" id="Stroke-49" stroke="#3F3F3F" stroke-width="1.457" stroke-linecap="round" stroke-linejoin="round"></path>
                <path d="M82.8914,253.1484 C82.8914,253.1484 96.8244,282.5874 100.7454,302.9484" id="Stroke-51" stroke="#3F3F3F" stroke-width="1.457" stroke-linecap="round" stroke-linejoin="round"></path>
                <path d="M96.8665,63.7031 C96.8665,63.7031 100.7985,56.6811 104.1165,55.5801 C107.4365,54.4811 114.7035,64.6771 115.2045,65.0871 C115.2045,65.0871 106.8285,55.6141 96.8665,63.7031" id="Fill-53" fill="#FFFFFF"></path>
                <path d="M96.8665,63.7031 C96.8665,63.7031 100.7985,56.6811 104.1165,55.5801 C107.4365,54.4811 114.7035,64.6771 115.2045,65.0871 C115.2045,65.0871 106.8285,55.6141 96.8665,63.7031 Z" id="Stroke-55" stroke="#3F3F3F" stroke-width="2.185" stroke-linecap="round" stroke-linejoin="round"></path>
                <path d="M76.8904,68.6753 C80.8614,66.8183 85.9214,65.6333 94.7474,65.9443" id="Stroke-57" stroke="#3F3F3F" stroke-width="2.185" stroke-linecap="round" stroke-linejoin="round"></path>
                <path d="M94.7474,65.9439 C95.7414,65.9789 96.7824,66.0329 97.8754,66.1069 C99.6054,66.2239 101.8314,68.2729 102.2574,69.3559 C102.9404,71.0999 96.7844,77.4319 92.4834,80.1139 C89.2024,82.1599 90.5254,82.1059 74.2054,80.9889 C65.6384,80.4019 69.7814,72.9319 71.7774,71.6289 C73.4254,70.5529 75.0394,69.5409 76.8904,68.6749" id="Fill-59" fill="#EEEDED"></path>
                <path d="M143.0813,133.9834 C143.0813,133.9834 144.5433,124.3704 170.5763,131.5284 C174.9863,132.7404 179.9233,140.1104 178.9483,143.6654 C177.6123,148.5264 168.8203,152.2024 168.8203,152.2024 C168.8203,152.2024 142.6883,149.4294 143.0813,133.9834" id="Fill-61" fill="#FFFFFF"></path>
                <path d="M165.1922,185.0655 C166.7382,182.0745 173.4672,180.9105 186.3412,187.5425 C186.3412,187.5425 201.7142,192.2885 188.4272,205.8675 C187.1932,207.1285 176.2602,203.4525 170.4592,197.6005 C165.3342,192.4295 164.1832,187.0145 165.1922,185.0655" id="Fill-63" fill="#FFFFFF"></path>
                <path d="M145.678,258.0723 C136.532,239.4963 140.922,237.3493 140.728,236.9653 C140.728,236.9653 151.689,255.9473 151.9,256.1953 C152.111,256.4443 149.923,259.2193 145.678,258.0723" id="Fill-65" fill="#EEEDED"></path>
                <path d="M71.7771,71.6284 C77.3611,67.9854 82.5511,65.0694 97.8761,66.1064 C99.6061,66.2234 101.8331,68.2734 102.2571,69.3564 C102.9411,71.0994 96.7831,77.4334 92.4831,80.1144 C89.2021,82.1594 90.5241,82.1064 74.2051,80.9884 C65.6381,80.4014 69.7801,72.9314 71.7771,71.6284" id="Fill-67" fill="#FFFFFF"></path>
                <path d="M71.7771,71.6284 C77.3611,67.9854 82.5511,65.0694 97.8761,66.1064 C99.6061,66.2234 101.8331,68.2734 102.2571,69.3564 C102.9411,71.0994 96.7831,77.4334 92.4831,80.1144 C89.2021,82.1594 90.5241,82.1064 74.2051,80.9884 C65.6381,80.4014 69.7801,72.9314 71.7771,71.6284 Z" id="Stroke-69" stroke="#3F3F3F" stroke-width="1.457" stroke-linecap="round" stroke-linejoin="round"></path>
                <path d="M176.4451,147.3999 C173.3931,150.2899 168.8191,152.2019 168.8191,152.2019 C168.8191,152.2019 142.6891,149.4289 143.0811,133.9829 C143.0811,133.9829 144.5431,124.3699 170.5771,131.5279" id="Stroke-71" stroke="#3F3F3F" stroke-width="1.457" stroke-linecap="round" stroke-linejoin="round"></path>
                <path d="M169.8553,130.6724 C174.2633,131.8844 179.9243,140.1104 178.9483,143.6654 C178.5753,145.0194 177.3853,147.2254 176.2063,148.3424" id="Stroke-73" stroke="#3F3F3F" stroke-width="2.185" stroke-linecap="round" stroke-linejoin="round"></path>
                <path d="M188.4275,205.8677 C187.1935,207.1297 176.2605,203.4517 170.4585,197.5987 C165.3345,192.4297 164.1835,187.0137 165.1935,185.0657 C166.5915,182.3587 172.2385,181.1477 182.8415,185.8597" id="Stroke-75" stroke="#3F3F3F" stroke-width="1.457" stroke-linecap="round" stroke-linejoin="round"></path>
                <path d="M176.6736,183.1616 C177.7846,183.6556 185.1196,186.9126 186.3416,187.5416 C186.3416,187.5416 201.7146,192.2886 188.4276,205.8676" id="Stroke-77" stroke="#3F3F3F" stroke-width="2.185" stroke-linecap="round" stroke-linejoin="round"></path>
                <path d="M145.678,258.0723 C136.532,239.4963 140.922,237.3493 140.728,236.9653 C140.728,236.9653 151.689,255.9473 151.9,256.1953 C152.111,256.4443 149.923,259.2193 145.678,258.0723" id="Fill-79" fill="#FFFFFF"></path>
                <path d="M145.678,258.0723 C136.532,239.4963 140.922,237.3493 140.728,236.9653 C140.728,236.9653 151.689,255.9473 151.9,256.1953 C152.111,256.4443 149.923,259.2193 145.678,258.0723 Z" id="Stroke-81" stroke="#3F3F3F" stroke-width="1.457" stroke-linecap="round" stroke-linejoin="round"></path>
                <path d="M52.2513,108.6104 C51.6183,108.2884 51.0233,107.8944 50.4973,107.4124" id="Stroke-83" stroke="#3F3F3F" stroke-width="1.258" stroke-linecap="round" stroke-linejoin="round"></path>
                <path d="M62.5267,109.645 C62.5267,109.645 58.2437,110.433 54.3637,109.402" id="Stroke-85" stroke="#3F3F3F" stroke-width="1.258" stroke-linecap="round" stroke-linejoin="round"></path>
                <path d="M30.3118,132.4282 C29.8038,132.3252 29.2958,132.1922 28.7908,132.0282" id="Stroke-87" stroke="#3F3F3F" stroke-width="1.258" stroke-linecap="round" stroke-linejoin="round"></path>
                <path d="M36.7327,132.336 C35.5367,132.587 34.3117,132.725 33.0757,132.714" id="Stroke-89" stroke="#3F3F3F" stroke-width="1.258" stroke-linecap="round" stroke-linejoin="round"></path>
                <path d="M52.1038,123.3281 C52.1038,123.3281 46.1168,129.5361 38.5888,131.8551" id="Stroke-91" stroke="#3F3F3F" stroke-width="1.258" stroke-linecap="round" stroke-linejoin="round"></path>
                <path d="M140.1106,309.9756 C141.8256,311.7236 143.4046,313.1656 144.7976,314.2196" id="Stroke-93" stroke="#3F3F3F" stroke-width="1.457" stroke-linecap="round" stroke-linejoin="round"></path>
                <path d="M133.5467,302.6582 C134.8047,304.1572 136.0307,305.5732 137.2107,306.8822" id="Stroke-95" stroke="#3F3F3F" stroke-width="1.457" stroke-linecap="round" stroke-linejoin="round"></path>
                <path d="M96.0701,250.7339 C96.0701,250.7339 115.7931,280.9469 131.6091,300.3179" id="Stroke-97" stroke="#3F3F3F" stroke-width="1.457" stroke-linecap="round" stroke-linejoin="round"></path>
                <path d="M177.2205,362.0459 C176.2675,363.1949 175.2245,364.3759 174.0845,365.5919" id="Stroke-99" stroke="#3F3F3F" stroke-width="1.258" stroke-linecap="round" stroke-linejoin="round"></path>
                <path d="M182.5535,354.4424 C182.0065,355.4074 181.3935,356.3974 180.7085,357.4124" id="Stroke-101" stroke="#3F3F3F" stroke-width="1.258" stroke-linecap="round" stroke-linejoin="round"></path>
                <path d="M185.2293,348.627 C184.8543,349.694 184.4063,350.787 183.8743,351.912" id="Stroke-103" stroke="#3F3F3F" stroke-width="1.258" stroke-linecap="round" stroke-linejoin="round"></path>
                <path d="M187.077,321.2705 C185.79,329.6845 188.317,336.9105 186.046,345.9185" id="Stroke-105" stroke="#3F3F3F" stroke-width="1.258" stroke-linecap="round" stroke-linejoin="round"></path>
                <path d="M190.5389,311.2412 C189.4339,313.2612 188.6309,315.1812 188.0539,317.0302" id="Stroke-107" stroke="#3F3F3F" stroke-width="1.258" stroke-linecap="round" stroke-linejoin="round"></path>
                <path d="M200.9236,273.6143 C200.9236,273.6143 205.6576,286.6993 193.2516,306.8273" id="Stroke-109" stroke="#3F3F3F" stroke-width="1.258" stroke-linecap="round" stroke-linejoin="round"></path>
                <path d="M188.0809,282.4502 C189.8059,281.7602 191.5489,280.9582 193.3049,280.0372" id="Stroke-111" stroke="#3F3F3F" stroke-width="1.457" stroke-linecap="round" stroke-linejoin="round"></path>
                <path d="M179.41,285.0469 C180.796,284.7689 182.196,284.4219 183.608,284.0039" id="Stroke-113" stroke="#3F3F3F" stroke-width="1.457" stroke-linecap="round" stroke-linejoin="round"></path>
                <path d="M128.4715,267.6865 C138.8195,276.9345 155.8385,288.0955 175.9105,285.6155" id="Stroke-115" stroke="#3F3F3F" stroke-width="1.457" stroke-linecap="round" stroke-linejoin="round"></path>
                <path d="M123.0149,262.4092 C123.9659,263.4042 125.0369,264.4812 126.2209,265.6082" id="Stroke-117" stroke="#3F3F3F" stroke-width="1.457" stroke-linecap="round" stroke-linejoin="round"></path>
                <path d="M117.7415,256.3399 C117.7415,256.3399 118.8045,257.7659 120.7845,259.9909" id="Stroke-119" stroke="#3F3F3F" stroke-width="1.457" stroke-linecap="round" stroke-linejoin="round"></path>
                <path d="M113.9803,145.4463 C113.6043,146.5323 113.1023,147.5693 112.4483,148.5183" id="Stroke-121" stroke="#3F3F3F" stroke-width="1.457" stroke-linecap="round" stroke-linejoin="round"></path>
                <path d="M114.9349,140.128 C114.8869,141.137 114.7769,142.152 114.5869,143.149" id="Stroke-123" stroke="#3F3F3F" stroke-width="1.457" stroke-linecap="round" stroke-linejoin="round"></path>
                <path d="M113.2103,128.0171 C113.2103,128.0171 114.6423,132.2381 114.9193,137.2581" id="Stroke-125" stroke="#3F3F3F" stroke-width="1.457" stroke-linecap="round" stroke-linejoin="round"></path>
                <path d="M56.1541,155.3447 C56.3121,156.4417 56.3801,157.6197 56.3351,158.8827" id="Stroke-127" stroke="#3F3F3F" stroke-width="1.457" stroke-linecap="round" stroke-linejoin="round"></path>
                <path d="M47.1438,142.5938 C47.1438,142.5938 53.1968,145.3808 55.4848,152.4528" id="Stroke-129" stroke="#3F3F3F" stroke-width="1.457" stroke-linecap="round" stroke-linejoin="round"></path>
                <path d="M134.4739,195.5166 C133.9139,196.2606 133.2729,197.0156 132.5429,197.7766" id="Stroke-131" stroke="#3F3F3F" stroke-width="1.457" stroke-linecap="round" stroke-linejoin="round"></path>
                <path d="M135.0892,177.4185 C135.0892,177.4185 141.1082,184.6055 135.7102,193.6775" id="Stroke-133" stroke="#3F3F3F" stroke-width="1.457" stroke-linecap="round" stroke-linejoin="round"></path>
                <path d="M65.7684,184.292 C67.1784,187.197 67.8734,191.565 65.3594,197.647" id="Stroke-135" stroke="#3F3F3F" stroke-width="1.457" stroke-linecap="round" stroke-linejoin="round"></path>
                <path d="M61.824,179.689 C61.824,179.689 63.005,180.391 64.243,181.907" id="Stroke-137" stroke="#3F3F3F" stroke-width="1.457" stroke-linecap="round" stroke-linejoin="round"></path>
                <path d="M73.0755,224.2764 C74.5345,227.4484 75.3385,231.5594 73.6865,236.2344" id="Stroke-139" stroke="#3F3F3F" stroke-width="1.457" stroke-linecap="round" stroke-linejoin="round"></path>
                <path d="M70.6072,220.2515 C71.0172,220.7795 71.4432,221.3745 71.8572,222.0345" id="Stroke-141" stroke="#3F3F3F" stroke-width="1.457" stroke-linecap="round" stroke-linejoin="round"></path>
                <path d="M68.013,217.481 C68.013,217.481 68.609,217.97 69.442,218.877" id="Stroke-143" stroke="#3F3F3F" stroke-width="1.457" stroke-linecap="round" stroke-linejoin="round"></path>
                <path d="M149.7923,64.253 L175.8023,53.312" id="Stroke-145" stroke="#73D957" stroke-width="2.185" stroke-linecap="round" stroke-linejoin="round"></path>
                <path d="M72.5091,49.3101 L49.0021,33.0511" id="Stroke-147" stroke="#73D957" stroke-width="2.185" stroke-linecap="round" stroke-linejoin="round"></path>
                <path d="M118.7977,40.4673 L138.9737,7.8863" id="Stroke-149" stroke="#73D957" stroke-width="2.185" stroke-linecap="round" stroke-linejoin="round"></path>
                <path d="M92.4832,39.4092 L78.6912,0.0922" id="Stroke-151" stroke="#73D957" stroke-width="2.185" stroke-linecap="round" stroke-linejoin="round"></path>
            </g>
        </g>
    </g>
</svg>