
<svg viewBox="0 0 308 502" version="1.1" xmlns="http://www.w3.org/2000/svg" xmlns:xlink="http://www.w3.org/1999/xlink">
    <!-- Generator: Sketch 43.1 (39012) - http://www.bohemiancoding.com/sketch -->
    <desc>Created with Sketch.</desc>
    <defs></defs>
    <g id="Page-1" stroke="none" stroke-width="1" fill="none" fill-rule="evenodd">
        <g id="Index" transform="translate(-359.000000, -325.000000)">
            <g id="Group" transform="translate(360.000000, 326.000000)">
                <g id="Page-1">
                    <path d="M115.545455,162.65463 C116.396607,164.200926 117.273235,165.771528 118.175341,167.366435" id="Stroke-1" stroke="#0F5BE8" stroke-width="1.258" stroke-linecap="round" stroke-linejoin="round"></path>
                    <path d="M89.5611141,97.4945602 C90.6971415,104.103356 92.7815955,111.993403 96.2267348,121.386921" id="Stroke-3" stroke="#0F5BE8" stroke-width="2.185" stroke-linecap="round" stroke-linejoin="round"></path>
                    <path d="M150.219652,126.150579 C150.013523,125.746644 149.84445,125.405208 149.713593,125.130903 C146.551013,118.512847 135.193055,102.658681 122.151321,75.7142361 C109.107271,48.7709491 94.9769888,65.5232639 94.9769888,65.5232639" id="Stroke-5" stroke="#0F5BE8" stroke-width="2.185" stroke-linecap="round" stroke-linejoin="round"></path>
                    <path d="M177.766986,183.585764 C174.686626,175.843866 171.231064,168.091551 167.819508,160.864699" id="Stroke-7" stroke="#0F5BE8" stroke-width="2.185" stroke-linecap="round" stroke-linejoin="round"></path>
                    <path d="M268.434829,499.867708 C267.100778,501.123495 187.117962,406.842245 138.517759,383.405903 C89.9175557,359.968403 74.9477019,350.079514 74.9477019,350.079514 C73.1539134,348.78669 40.5785294,324.523958 21.0854103,308.696412 C1.59113323,292.868866 11.0174975,278.262384 11.0174975,278.262384 C11.0174975,278.262384 0.433103222,269.475347 0.151701931,263.927894 C-0.585963182,249.432523 8.12126442,239.338773 8.12126442,239.338773 C8.12126442,239.338773 2.17014823,237.525116 9.57459207,211.999653 C16.980194,186.473032 19.3831062,173.59919 27.673443,158.175579 C35.9637798,142.75081 32.6159151,131.636227 75.3611186,126.079514 C75.3611186,126.079514 106.693936,118.064468 113.825085,119.519329 C125.134406,121.828356 167.539149,128.919792 170.179457,130.239236 C172.820924,131.558681 185.104148,144.892014 167.819392,160.865394" id="Stroke-9" stroke="#0F5BE8" stroke-width="2.185" stroke-linecap="round" stroke-linejoin="round"></path>
                    <path d="M186.171736,209.021065 C193.949065,241.21088 198.693514,254.970139 201.267815,276.207407 C201.267815,276.207407 210.024838,303.364815 285.13119,346.827778 C292.492787,351.088194 299.233679,354.986343 305.404821,358.552315" id="Stroke-11" stroke="#0F5BE8" stroke-width="2.185" stroke-linecap="round" stroke-linejoin="round"></path>
                    <path d="M55.562048,129.847685 L52.1759683,123.699537 C52.1759683,123.699537 59.2167907,116.686806 62.3145209,110.118519 C62.3145209,110.118519 93.9507426,101.655556 101.109684,84.1821759 C108.268626,66.7087963 98.8237329,66.7064815 98.8237329,66.7064815 C98.8237329,66.7064815 53.6420342,69.9587963 46.6000538,74.3407407 C39.5580733,78.7226852 28.0206204,90.000463 19.859983,99.4206019 C7.96122467,110.437963 1.58742753,113.267824 6.46968203,129.772454 C11.3519365,146.277083 14.4334544,162.322222 20.0672703,172.683333" id="Stroke-13" stroke="#0F5BE8" stroke-width="2.185" stroke-linecap="round" stroke-linejoin="round"></path>
                    <path d="M115.545455,162.653472 C122.359303,163.204398 143.186473,166.350231 167.820087,160.865278" id="Stroke-15" stroke="#0F5BE8" stroke-width="1.258" stroke-linecap="round" stroke-linejoin="round"></path>
                    <path d="M93.4659913,168.138773 C94.3970474,167.914236 111.167638,163.370255 113.356315,162.645718 C113.667825,162.542708 114.413596,162.562384 115.544991,162.653819" id="Stroke-17" stroke="#0F5BE8" stroke-width="1.258" stroke-linecap="round" stroke-linejoin="round"></path>
                    <path d="M186.184243,208.935648 C181.21861,214.694907 174.165049,215.971528 146.266948,209.378935 C139.961475,207.889352 134.346187,206.347685 129.551943,206.182176 C117.975117,206.696065 98.2191254,208.521296 98.2191254,208.521296" id="Stroke-19" stroke="#0F5BE8" stroke-width="1.258" stroke-linecap="round" stroke-linejoin="round"></path>
                    <path d="M93.4659913,168.138194 C82.8236955,168.310648 64.9066553,169.146296 58.3533635,172.707639 C48.7845616,177.90787 20.1267931,211.211111 8.38900096,239.655556" id="Stroke-21" stroke="#0F5BE8" stroke-width="1.258" stroke-linecap="round" stroke-linejoin="round"></path>
                    <path d="M118.050389,168.022917 C109.699835,167.968519 101.721008,168.120139 101.721008,168.120139 C101.721008,168.120139 98.3638792,168.058796 93.4665703,168.138657" id="Stroke-23" stroke="#0F5BE8" stroke-width="1.258" stroke-linecap="round" stroke-linejoin="round"></path>
                    <path d="M177.238808,183.386806 C166.310479,179.199306 140.7157,169.583565 134.853752,168.722454 C131.567263,168.239815 124.690881,168.066204 118.050737,168.02338" id="Stroke-25" stroke="#0F5BE8" stroke-width="1.258" stroke-linecap="round" stroke-linejoin="round"></path>
                    <path d="M182.647851,185.782407 C182.461408,185.702546 180.143032,184.5 177.238692,183.386574" id="Stroke-27" stroke="#0F5BE8" stroke-width="2.185" stroke-linecap="round" stroke-linejoin="round"></path>
                    <path d="M188.239051,206.203241 C193.669054,198.236806 183.084659,185.691667 182.19645,185.309722" id="Stroke-29" stroke="#0F5BE8" stroke-width="1.258" stroke-linecap="round" stroke-linejoin="round"></path>
                    <path d="M186.184243,208.935648 C186.892957,208.112731 187.559982,207.199537 188.238588,206.203009" id="Stroke-31" stroke="#0F5BE8" stroke-width="2.185" stroke-linecap="round" stroke-linejoin="round"></path>
                    <path d="M12.3677604,269.317593 C12.7522264,268.993519 18.447418,263.536343 22.6707534,255.81412 C26.8952468,248.091898 42.9791256,222.735417 55.5518573,213.22037 C68.1234311,203.704167 82.1645449,208.072222 113.057311,209.422917 C130.352489,210.179861 135.240534,226.539815 141.502002,238.458796 C145.835351,246.712269 149.391661,251.424074 149.13342,252.179861 C149.13342,252.179861 143.541293,267.44838 129.966865,260.447222 C118.286975,254.424074 111.290157,248.369676 111.674623,248.046759 C112.059089,247.722685 101.445744,252.2875 77.2267049,250.795602" id="Stroke-33" stroke="#0F5BE8" stroke-width="1.258" stroke-linecap="round" stroke-linejoin="round"></path>
                    <path d="M50.5617902,288.393866 C48.777266,289.264236 46.9012574,290.085995 44.9291323,290.848727" id="Stroke-35" stroke="#0F5BE8" stroke-width="1.457" stroke-linecap="round" stroke-linejoin="round"></path>
                    <path d="M59.6812765,283.027315 C57.768211,284.36875 55.7103916,285.656944 53.5008704,286.871065" id="Stroke-37" stroke="#0F5BE8" stroke-width="1.457" stroke-linecap="round" stroke-linejoin="round"></path>
                    <path d="M83.5809314,251.060648 C83.5809314,251.060648 79.2939043,267.715741 62.5962696,280.861574" id="Stroke-39" stroke="#0F5BE8" stroke-width="1.457" stroke-linecap="round" stroke-linejoin="round"></path>
                    <path d="M62.1777576,318.434491 C61.6462218,319.023611 61.1019477,319.616204 60.5437773,320.212269" id="Stroke-41" stroke="#0F5BE8" stroke-width="1.457" stroke-linecap="round" stroke-linejoin="round"></path>
                    <path d="M67.3023878,312.343981 C66.4442876,313.441204 65.5421822,314.551157 64.5937556,315.671528" id="Stroke-43" stroke="#0F5BE8" stroke-width="1.457" stroke-linecap="round" stroke-linejoin="round"></path>
                    <path d="M80.5699375,259.679051 C80.5699375,259.679051 90.7501793,280.022801 69.5941292,309.297106" id="Stroke-45" stroke="#0F5BE8" stroke-width="1.457" stroke-linecap="round" stroke-linejoin="round"></path>
                    <path d="M101.738494,313.465162 C101.631956,315.411921 101.292653,317.095949 100.671949,318.437384" id="Stroke-47" stroke="#0F5BE8" stroke-width="1.457" stroke-linecap="round" stroke-linejoin="round"></path>
                    <path d="M101.305391,306.187847 C101.530049,307.758449 101.680593,309.253819 101.743127,310.65544" id="Stroke-49" stroke="#0F5BE8" stroke-width="1.457" stroke-linecap="round" stroke-linejoin="round"></path>
                    <path d="M82.9063789,253.163079 C82.9063789,253.163079 96.8386379,282.602894 100.759727,302.962847" id="Stroke-51" stroke="#0F5BE8" stroke-width="1.457" stroke-linecap="round" stroke-linejoin="round"></path>
                    <path d="M96.8812534,63.7178241 C96.8812534,63.7178241 100.812765,56.6958333 104.131679,55.5951389 C107.451751,54.4956019 114.71839,64.6912037 115.219817,65.1020833 C115.219817,65.1020833 106.843785,55.6287037 96.8812534,63.7178241" id="Fill-53" fill="#FFFFFF"></path>
                    <path d="M96.8812534,63.7178241 C96.8812534,63.7178241 100.812765,56.6958333 104.131679,55.5951389 C107.451751,54.4956019 114.71839,64.6912037 115.219817,65.1020833 C115.219817,65.1020833 106.843785,55.6287037 96.8812534,63.7178241 Z" id="Stroke-55" stroke="#0F5BE8" stroke-width="2.185" stroke-linecap="round" stroke-linejoin="round"></path>
                    <path d="M76.9052358,68.6899306 C80.8761207,66.8322917 85.9367118,65.6482639 94.7620585,65.9584491" id="Stroke-57" stroke="#0F5BE8" stroke-width="2.185" stroke-linecap="round" stroke-linejoin="round"></path>
                    <path d="M94.7620585,65.9585648 C95.7556482,65.993287 96.7967172,66.0476852 97.8898975,66.1217593 C99.6199943,66.2386574 101.846886,68.2872685 102.271883,69.3706019 C102.955121,71.1148148 96.7990332,77.4469907 92.4981098,80.1287037 C89.2174108,82.175 90.5398811,82.1206019 74.2209222,81.0037037 C65.6526582,80.4168981 69.7960896,72.9469907 71.7925333,71.64375 C73.44041,70.5673611 75.0547038,69.555787 76.9052358,68.6900463" id="Fill-59" fill="#EEEDED"></path>
                    <path d="M143.096146,133.998032 C143.096146,133.998032 144.558738,124.384606 170.591253,131.543171 C175.001031,132.754977 179.938871,140.125347 178.962652,143.679745 C177.627443,148.540856 168.834521,152.216782 168.834521,152.216782 C168.834521,152.216782 142.703574,149.443634 143.096146,133.998032" id="Fill-61" fill="#FFFFFF"></path>
                    <path d="M165.20734,185.079977 C166.75331,182.089236 173.482622,180.924884 186.356442,187.556829 C186.356442,187.556829 201.72929,192.303356 188.442054,205.88206 C187.207594,207.143634 176.27579,203.466551 170.47406,197.614699 C165.348619,192.44456 164.198696,187.029051 165.20734,185.079977" id="Fill-63" fill="#FFFFFF"></path>
                    <path d="M145.692681,258.086574 C136.54656,239.511343 140.936652,237.364352 140.743261,236.980093 C140.743261,236.980093 151.704015,255.961574 151.914776,256.210417 C152.125538,256.459259 149.938019,259.234722 145.692681,258.086574" id="Fill-65" fill="#EEEDED"></path>
                    <path d="M71.7919543,71.643287 C77.375975,67.9997685 82.5662655,65.0842593 97.8904765,66.1212963 C99.6205733,66.2381944 101.847465,68.287963 102.272462,69.3712963 C102.9557,71.1143519 96.7984542,77.4476852 92.4975308,80.1293981 C89.2168318,82.174537 90.539302,82.1212963 74.2203432,81.0032407 C65.6532373,80.4164352 69.7955106,72.9465278 71.7919543,71.643287" id="Fill-67" fill="#FFFFFF"></path>
                    <path d="M71.7919543,71.643287 C77.375975,67.9997685 82.5662655,65.0842593 97.8904765,66.1212963 C99.6205733,66.2381944 101.847465,68.287963 102.272462,69.3712963 C102.9557,71.1143519 96.7984542,77.4476852 92.4975308,80.1293981 C89.2168318,82.174537 90.539302,82.1212963 74.2203432,81.0032407 C65.6532373,80.4164352 69.7955106,72.9465278 71.7919543,71.643287 Z" id="Stroke-69" stroke="#0F5BE8" stroke-width="1.457" stroke-linecap="round" stroke-linejoin="round"></path>
                    <path d="M176.459686,147.414468 C173.408277,150.304514 168.834058,152.216551 168.834058,152.216551 C168.834058,152.216551 142.704269,149.443403 143.095683,133.997801 C143.095683,133.997801 144.558275,124.384375 170.591948,131.54294" id="Stroke-71" stroke="#0F5BE8" stroke-width="1.457" stroke-linecap="round" stroke-linejoin="round"></path>
                    <path d="M169.870032,130.686921 C174.278652,131.898727 179.939103,140.125579 178.962883,143.679977 C178.589998,145.034144 177.400701,147.240162 176.220668,148.35706" id="Stroke-73" stroke="#0F5BE8" stroke-width="2.185" stroke-linecap="round" stroke-linejoin="round"></path>
                    <path d="M188.442633,205.882292 C187.208173,207.143866 176.275211,203.466782 170.473481,197.613773 C165.349198,192.444792 164.198117,187.028125 165.207919,185.080208 C166.606819,182.373032 172.253373,181.162384 182.856296,185.87419" id="Stroke-75" stroke="#0F5BE8" stroke-width="1.457" stroke-linecap="round" stroke-linejoin="round"></path>
                    <path d="M176.688165,183.176042 C177.799874,183.670255 185.134836,186.927199 186.356557,187.556829 C186.356557,187.556829 201.729406,192.303356 188.442169,205.88206" id="Stroke-77" stroke="#0F5BE8" stroke-width="2.185" stroke-linecap="round" stroke-linejoin="round"></path>
                    <path d="M145.692681,258.086574 C136.54656,239.511343 140.936652,237.364352 140.743261,236.980093 C140.743261,236.980093 151.704015,255.961574 151.914776,256.210417 C152.125538,256.459259 149.938019,259.234722 145.692681,258.086574" id="Fill-79" fill="#FFFFFF"></path>
                    <path d="M145.692681,258.086574 C136.54656,239.511343 140.936652,237.364352 140.743261,236.980093 C140.743261,236.980093 151.704015,255.961574 151.914776,256.210417 C152.125538,256.459259 149.938019,259.234722 145.692681,258.086574 Z" id="Stroke-81" stroke="#0F5BE8" stroke-width="1.457" stroke-linecap="round" stroke-linejoin="round"></path>
                    <path d="M52.266063,108.625 C51.6326206,108.303241 51.0385512,107.908565 50.5116475,107.427083" id="Stroke-83" stroke="#0F5BE8" stroke-width="1.258" stroke-linecap="round" stroke-linejoin="round"></path>
                    <path d="M62.5412632,109.659722 C62.5412632,109.659722 58.2588683,110.447917 54.3783097,109.416667" id="Stroke-85" stroke="#0F5BE8" stroke-width="1.258" stroke-linecap="round" stroke-linejoin="round"></path>
                    <path d="M30.3268372,132.442824 C29.818462,132.339815 29.3112448,132.206713 28.8051857,132.042361" id="Stroke-87" stroke="#0F5BE8" stroke-width="1.258" stroke-linecap="round" stroke-linejoin="round"></path>
                    <path d="M36.7474187,132.350694 C35.5511737,132.601852 34.325978,132.739583 33.09036,132.729167" id="Stroke-89" stroke="#0F5BE8" stroke-width="1.258" stroke-linecap="round" stroke-linejoin="round"></path>
                    <path d="M52.1184142,123.34294 C52.1184142,123.34294 46.131399,129.550116 38.604204,131.86956" id="Stroke-91" stroke="#0F5BE8" stroke-width="1.258" stroke-linecap="round" stroke-linejoin="round"></path>
                    <path d="M140.125336,309.990162 C141.840379,311.737847 143.419932,313.181134 144.811884,314.234375" id="Stroke-93" stroke="#0F5BE8" stroke-width="1.457" stroke-linecap="round" stroke-linejoin="round"></path>
                    <path d="M133.561738,302.673264 C134.819359,304.172106 136.045712,305.587616 137.225745,306.896644" id="Stroke-95" stroke="#0F5BE8" stroke-width="1.457" stroke-linecap="round" stroke-linejoin="round"></path>
                    <path d="M96.0851077,250.748727 C96.0851077,250.748727 115.807517,280.96169 131.623891,300.333218" id="Stroke-97" stroke="#0F5BE8" stroke-width="1.457" stroke-linecap="round" stroke-linejoin="round"></path>
                    <path d="M177.23545,362.060532 C176.282391,363.209838 175.239006,364.390394 174.099505,365.606829" id="Stroke-99" stroke="#0F5BE8" stroke-width="1.258" stroke-linecap="round" stroke-linejoin="round"></path>
                    <path d="M182.568757,354.45706 C182.021009,355.422338 181.408411,356.411921 180.724015,357.426968" id="Stroke-101" stroke="#0F5BE8" stroke-width="1.258" stroke-linecap="round" stroke-linejoin="round"></path>
                    <path d="M185.244385,348.641782 C184.869184,349.708912 184.421026,350.801505 183.888332,351.926505" id="Stroke-103" stroke="#0F5BE8" stroke-width="1.258" stroke-linecap="round" stroke-linejoin="round"></path>
                    <path d="M187.092254,321.285069 C185.804525,329.699421 188.332504,336.925116 186.060449,345.933218" id="Stroke-105" stroke="#0F5BE8" stroke-width="1.258" stroke-linecap="round" stroke-linejoin="round"></path>
                    <path d="M190.553953,311.25544 C189.448034,313.275116 188.64552,315.196412 188.068821,317.044792" id="Stroke-107" stroke="#0F5BE8" stroke-width="1.258" stroke-linecap="round" stroke-linejoin="round"></path>
                    <path d="M200.938934,273.629051 C200.938934,273.629051 205.672961,286.713542 193.266986,306.842014" id="Stroke-109" stroke="#0F5BE8" stroke-width="1.258" stroke-linecap="round" stroke-linejoin="round"></path>
                    <path d="M188.095339,282.464931 C189.820804,281.773958 191.563639,280.973032 193.319213,280.051736" id="Stroke-111" stroke="#0F5BE8" stroke-width="1.457" stroke-linecap="round" stroke-linejoin="round"></path>
                    <path d="M179.424821,285.061806 C180.810983,284.78287 182.211042,284.436806 183.62268,284.018981" id="Stroke-113" stroke="#0F5BE8" stroke-width="1.457" stroke-linecap="round" stroke-linejoin="round"></path>
                    <path d="M128.486208,267.700694 C138.834364,276.949537 155.853931,288.110417 175.926065,285.630093" id="Stroke-115" stroke="#0F5BE8" stroke-width="1.457" stroke-linecap="round" stroke-linejoin="round"></path>
                    <path d="M123.029687,262.423958 C123.980429,263.419329 125.051607,264.495718 126.235114,265.623032" id="Stroke-117" stroke="#0F5BE8" stroke-width="1.457" stroke-linecap="round" stroke-linejoin="round"></path>
                    <path d="M117.756365,256.354398 C117.756365,256.354398 118.819437,257.780324 120.799668,260.006019" id="Stroke-119" stroke="#0F5BE8" stroke-width="1.457" stroke-linecap="round" stroke-linejoin="round"></path>
                    <path d="M113.995084,145.460764 C113.618724,146.547569 113.117297,147.583449 112.46301,148.532523" id="Stroke-121" stroke="#0F5BE8" stroke-width="1.457" stroke-linecap="round" stroke-linejoin="round"></path>
                    <path d="M114.949532,140.142824 C114.902053,141.152083 114.79204,142.16713 114.602123,143.163657" id="Stroke-123" stroke="#0F5BE8" stroke-width="1.457" stroke-linecap="round" stroke-linejoin="round"></path>
                    <path d="M113.224878,128.031944 C113.224878,128.031944 114.657361,132.253009 114.934131,137.272685" id="Stroke-125" stroke="#0F5BE8" stroke-width="1.457" stroke-linecap="round" stroke-linejoin="round"></path>
                    <path d="M56.1687399,155.359259 C56.32739,156.456481 56.3945558,157.634722 56.3493926,158.897454" id="Stroke-127" stroke="#0F5BE8" stroke-width="1.457" stroke-linecap="round" stroke-linejoin="round"></path>
                    <path d="M47.1589191,142.608565 C47.1589191,142.608565 53.2119419,145.395602 55.5002092,152.467361" id="Stroke-129" stroke="#0F5BE8" stroke-width="1.457" stroke-linecap="round" stroke-linejoin="round"></path>
                    <path d="M134.488973,195.531134 C133.928486,196.275347 133.288095,197.029977 132.557379,197.791551" id="Stroke-131" stroke="#0F5BE8" stroke-width="1.457" stroke-linecap="round" stroke-linejoin="round"></path>
                    <path d="M135.104234,177.433102 C135.104234,177.433102 141.122516,184.619444 135.724938,193.692361" id="Stroke-133" stroke="#0F5BE8" stroke-width="1.457" stroke-linecap="round" stroke-linejoin="round"></path>
                    <path d="M65.7830524,184.306829 C67.193533,187.211921 67.888351,191.579977 65.3742678,197.662153" id="Stroke-135" stroke="#0F5BE8" stroke-width="1.457" stroke-linecap="round" stroke-linejoin="round"></path>
                    <path d="M61.8390338,179.703819 C61.8390338,179.703819 63.0202244,180.405208 64.2581585,181.921412" id="Stroke-137" stroke="#0F5BE8" stroke-width="1.457" stroke-linecap="round" stroke-linejoin="round"></path>
                    <path d="M73.0902217,224.291088 C74.5493395,227.463542 75.3530124,231.573495 73.7016616,236.249421" id="Stroke-139" stroke="#0F5BE8" stroke-width="1.457" stroke-linecap="round" stroke-linejoin="round"></path>
                    <path d="M70.6221124,220.266204 C71.032055,220.793981 71.4582101,221.388889 71.8727848,222.048611" id="Stroke-141" stroke="#0F5BE8" stroke-width="1.457" stroke-linecap="round" stroke-linejoin="round"></path>
                    <path d="M68.0277778,217.49537 C68.0277778,217.49537 68.6241632,217.984954 69.4567868,218.891204" id="Stroke-143" stroke="#0F5BE8" stroke-width="1.457" stroke-linecap="round" stroke-linejoin="round"></path>
                    <path d="M149.80693,64.2677083 L175.817442,53.3267361" id="Stroke-145" stroke="#0F5BE8" stroke-width="2.185" stroke-linecap="round" stroke-linejoin="round"></path>
                    <path d="M72.5237135,49.3247685 L49.0168624,33.0655093" id="Stroke-147" stroke="#0F5BE8" stroke-width="2.185" stroke-linecap="round" stroke-linejoin="round"></path>
                    <path d="M118.812605,40.4820602 L138.988961,7.90104167" id="Stroke-149" stroke="#0F5BE8" stroke-width="2.185" stroke-linecap="round" stroke-linejoin="round"></path>
                    <path d="M92.497994,39.4240741 L78.7058566,0.106944444" id="Stroke-151" stroke="#0F5BE8" stroke-width="2.185" stroke-linecap="round" stroke-linejoin="round"></path>
                </g>
            </g>
        </g>
    </g>
</svg>