
<svg width="142px" height="436px" viewBox="0 0 142 436" version="1.1" xmlns="http://www.w3.org/2000/svg" xmlns:xlink="http://www.w3.org/1999/xlink">
    <!-- Generator: Sketch 45.1 (43504) - http://www.bohemiancoding.com/sketch -->
    <desc>Created with Sketch.</desc>
    <defs></defs>
    <g id="Page-1" stroke="none" stroke-width="1" fill="none" fill-rule="evenodd" stroke-linecap="round" stroke-linejoin="round">
        <g id="Landing-Content" transform="translate(-520.000000, -414.000000)">
            <g id="Page-1" transform="translate(521.000000, 415.000000)">
                <path d="M68.0182333,137.438772 C67.4051958,140.748991 67.283139,143.225919 66.021273,145.822151 C66.021273,147.71082 64.2482366,152.477462 64.0472557,153.99629" id="Stroke-853" stroke="#004EF0" stroke-width="0.737"></path>
                <path d="M25.5830108,286.407972 C25.5830108,286.407972 23.4612405,261.745145 22.2489314,256.591225 C21.0357047,251.438224 12.8505536,226.579005 12.8505536,222.94116 C12.8505536,216.066514 20.430009,191.412865 21.6423181,186.259863 C22.8546271,181.105943 23.157475,175.782245 25.5830108,171.168863 C28.0085467,166.554564 35.2842365,156.645015 38.9220815,147.04841 C42.5599264,137.451804 54.5398526,108.381165 61.6219034,110.256986 C64.6283565,111.05265 66.8418989,113.905844 68.2386698,117.550113" id="Stroke-855" stroke="#0056EB" stroke-width="2.393"></path>
                <path d="M99.3789527,127.816195 C104.448442,128.146575 111.480018,128.589834 112.751979,128.589834 C114.78106,128.589834 117.260741,129.491036 117.260741,129.491036" id="Stroke-857" stroke="#0056EB" stroke-width="2.393"></path>
                <path d="M107.331462,103.999324 C98.0551406,103.561571 88.6457501,103.664356 86.8240745,104.917045 C83.217432,107.396726 63.8278287,119.796968 59.9945093,124.30573 C56.1621075,128.81541 63.4469746,135.588189 68.0181415,137.439231 C71.6137713,138.893819 94.0391947,127.461772 94.0391947,127.461772 C94.0391947,127.461772 96.3610282,127.618702 99.3784939,127.816012" id="Stroke-859" stroke="#0056EB" stroke-width="2.393"></path>
                <path d="M98.1295678,273.332287 C98.1295678,273.332287 99.2244086,268.822607 99.2244086,267.694728 C99.2244086,266.568685 105.31165,257.776003 105.762251,256.648124 C106.21377,255.521163 117.936734,237.48428 118.162493,236.13156 C118.388253,234.778839 126.278815,225.986157 126.730334,225.309797 C127.180935,224.634355 134.845738,214.037433 135.973617,209.301995 C137.100578,204.567473 133.718777,198.289346 133.718777,198.289346 C133.718777,198.289346 134.620897,196.225392 135.297257,195.774791 C135.973617,195.32419 137.100578,190.589669 137.326337,189.011189 C137.552097,187.43271 133.718777,170.975224 132.591816,168.946144 C131.463937,166.917063 129.660616,153.38986 129.660616,152.261981 C129.660616,151.135938 132.591816,134.001174 132.591816,133.098137 L132.591816,112.80825 C132.591816,112.80825 130.112135,108.073728 126.955176,106.26949 C125.393215,105.376547 116.426166,104.428542 107.331553,103.999048" id="Stroke-861" stroke="#0056EB" stroke-width="2.393"></path>
                <path d="M112.986548,104.335393 L112.986548,96.3493874 C112.986548,96.3493874 103.507411,86.6545858 103.507411,82.822184 C103.507411,78.9897823 105.320827,72.9025408 108.246521,72.0004213 C111.173132,71.0983019 131.915456,88.1679072 131.915456,88.1679072 C131.915456,88.1679072 138.904817,109.651749 138.904817,114.385353 C138.904817,119.119874 132.591816,127.011354 132.591816,127.011354" id="Stroke-863" stroke="#0056EB" stroke-width="2.393"></path>
                <path d="M95.8492153,127.583186 C95.8492153,127.583186 95.334374,132.916979 91.9433959,135.588464" id="Stroke-865" stroke="#004EF0" stroke-width="1.106"></path>
                <path d="M129.660524,152.262165 C129.660524,152.262165 122.671163,132.092499 118.613002,131.807087 C114.555759,131.519841 109.595479,129.717437 106.664279,130.844398 C103.733996,131.972277 77.5798737,139.861922 74.6495914,141.666161 C71.7183914,143.469482 53.3658125,167.658765 52.1259718,170.20544 C51.4835673,171.522369 51.6661937,173.078824 52.5710664,174.232399 C54.3037231,176.44227 57.6800176,179.363375 62.7008677,177.739009 C70.3656711,175.259328 77.5798737,166.015127 77.5798737,166.015127 L85.2465125,161.506365 L105.311558,158.800925 L112.07516,154.344473" id="Stroke-867" stroke="#0056EB" stroke-width="2.393"></path>
                <path d="M105.311375,158.800925 C105.311375,158.800925 108.242575,160.604246 108.693176,162.182726" id="Stroke-869" stroke="#004EF0" stroke-width="0.737"></path>
                <path d="M134.185071,197.331704 L126.134825,182.164534 C126.134825,182.164534 114.574297,165.349137 112.682875,164.718663 C110.790535,164.087271 109.099175,162.589551 107.002183,162.182083 C104.906109,161.776451 101.862947,160.487971 98.1296595,162.182083 C94.3963716,163.878031 78.6317652,170.39293 78.001291,170.604006 C77.3708169,170.813246 70.0308866,174.807167 70.0226271,175.438559 C70.0143676,176.069033 67.4924711,192.253038 67.4924711,192.883512 C67.4924711,193.514904 66.0213648,202.421383 66.0213648,202.421383 C66.0213648,202.421383 69.1737354,206.33638 72.957498,203.813566 C76.7403428,201.290752 83.886634,194.985092 84.096792,193.514904 C84.3069501,192.04288 84.9374242,188.627123 83.4663179,188.548199" id="Stroke-871" stroke="#0056EB" stroke-width="2.393"></path>
                <path d="M102.601254,186.13441 C99.8646105,187.443998 95.1493615,189.582287 93.2359138,189.7383 C90.4643972,189.964059 84.3175039,190.284343 84.3175039,190.284343" id="Stroke-873" stroke="#004EF0" stroke-width="0.737"></path>
                <path d="M104.658508,185.126202 C104.658508,185.126202 104.339141,185.287721 103.80411,185.551107" id="Stroke-875" stroke="#004EF0" stroke-width="0.737"></path>
                <path d="M98.6973616,187.912494 C98.6973616,187.912494 99.3581205,192.541478 100.10331,193.816192 C98.1292924,195.940715 93.8361949,201.587451 94.8989155,204.660897 C92.8799299,208.370324 84.0413617,216.232438 84.3175956,217.187785" id="Stroke-877" stroke="#004EF0" stroke-width="0.737"></path>
                <path d="M107.046418,199.515788 C107.468569,199.768161 107.916417,200.028794 108.390878,200.296768" id="Stroke-879" stroke="#004EF0" stroke-width="0.737"></path>
                <path d="M100.103034,193.815916 C100.103034,193.815916 100.754616,195.406326 105.099106,198.290723" id="Stroke-881" stroke="#004EF0" stroke-width="0.737"></path>
                <path d="M103.089206,215.256809 C103.493921,215.555068 103.883034,215.780828 104.247369,215.913897" id="Stroke-883" stroke="#004EF0" stroke-width="0.737"></path>
                <path d="M99.6150823,211.62447 C100.310715,212.510071 101.030208,213.352538 101.732264,214.060101" id="Stroke-885" stroke="#004EF0" stroke-width="0.737"></path>
                <path d="M94.898732,204.660897 C94.898732,204.660897 96.6910405,207.722414 98.8862285,210.670133" id="Stroke-887" stroke="#004EF0" stroke-width="0.737"></path>
                <path d="M61.4077992,147.440552 C60.9773882,147.486438 60.5185278,147.513052 60.0312181,147.513052" id="Stroke-889" stroke="#004EF0" stroke-width="0.737"></path>
                <path d="M66.0209977,145.821968 C66.0209977,145.821968 64.7985937,146.809435 62.4822666,147.275637" id="Stroke-891" stroke="#004EF0" stroke-width="0.737"></path>
                <path d="M57.3156825,112.036538 C57.3156825,112.036538 60.2533065,110.36904 63.9719109,111.396887" id="Stroke-893" stroke="#004EF0" stroke-width="0.737"></path>
                <path d="M108.246888,72.000146 C108.246888,72.000146 111.236822,73.2519171 112.371125,76.3290347 C113.50451,79.4052345 119.171435,82.4823521 120.143302,82.3199155 C121.115168,82.1574789 123.484723,81.4912137 122.759723,80.9396635" id="Stroke-895" stroke="#004EF0" stroke-width="0.737"></path>
                <path d="M66.3794594,118.908706 C66.3794594,118.908706 72.5850869,115.384659 75.3474262,119.577725 C79.6368529,126.084365 68.7737927,133.896921 63.4473417,134.482427" id="Stroke-897" stroke="#004EF0" stroke-width="0.737"></path>
                <path d="M57.7852802,162.182267 C57.8247422,162.134545 63.4466993,157.73591 63.5852751,163.26793 C63.6944839,167.606914 62.4252761,171.534759 57.1557238,177.737633" id="Stroke-899" stroke="#004EF0" stroke-width="0.737"></path>
                <path d="M67.492104,192.883787 C67.492104,192.883787 71.9146001,192.465307 68.3731159,204.208461" id="Stroke-901" stroke="#004EF0" stroke-width="0.737"></path>
                <path d="M86.550043,161.329979 C86.550043,161.329979 88.9700726,166.090197 90.7027293,165.362444" id="Stroke-903" stroke="#004EF0" stroke-width="0.737"></path>
                <path d="M58.6510579,161.027958 C58.6510579,161.027958 55.0086244,164.277607 51.3992288,164.108746" id="Stroke-905" stroke="#004EF0" stroke-width="0.737"></path>
                <path d="M44.4819089,250.807749 C44.4598836,251.099585 44.4452,251.394173 44.438776,251.687844" id="Stroke-907" stroke="#004EF0" stroke-width="0.737"></path>
                <path d="M45.5981326,245.909966 C45.2209494,246.903857 44.9291142,247.917021 44.7308865,248.949457" id="Stroke-909" stroke="#004EF0" stroke-width="0.737"></path>
                <path d="M48.4767472,240.613341 C47.6948491,241.717359 47.0047231,242.851661 46.4274768,244.016249" id="Stroke-911" stroke="#004EF0" stroke-width="0.737"></path>
                <path d="M84.3171368,217.188152 C84.3171368,217.188152 60.9088344,225.490772 49.9585908,238.686678" id="Stroke-913" stroke="#004EF0" stroke-width="0.737"></path>
                <path d="M99.1503485,268.447902 C102.880883,269.122427 101.253764,271.979291 101.253764,271.979291 C88.4029212,279.869854 72.3951187,280.321372 66.0206306,281.673175 C59.6470602,283.026813 36.7728713,285.281653 29.784428,286.407696 C22.795067,287.535575 0.925782334,295.651897 0.925782334,295.651897 C0.925782334,295.651897 10.0341605,279.614727 24.7562362,277.375489" id="Stroke-915" stroke="#0056EB" stroke-width="2.393"></path>
                <path d="M0.926057651,295.65153 C0.926057651,295.65153 22.5695831,317.520815 25.0492644,320.903533 C27.5298635,324.284416 30.2353042,330.823176 28.8825839,333.754376 C27.5298635,336.684659 22.3438238,346.830979 22.3438238,347.732181" id="Stroke-917" stroke="#0056EB" stroke-width="2.393"></path>
                <path d="M29.1222008,333.012766 C30.1417885,326.57312 32.5076725,319.707651 36.0234606,314.216928 C36.6218145,313.280853 37.2743139,312.307151 37.3440607,311.198545" id="Stroke-919" stroke="#004EF0" stroke-width="0.737"></path>
                <path d="M101.253306,271.978924 C101.253306,271.978924 99.1012505,285.780526 99.2829592,288.140904 C99.4646679,290.501281 103.458588,300.850418 103.822006,303.755004 C104.184506,306.660508 105.456466,314.830975 107.090009,316.465436 C108.72447,318.098979 113.807725,323.728278 114.171142,324.454195 C114.53456,325.180112 118.346772,330.808493 118.346772,330.808493 C118.346772,330.808493 124.520279,339.524087 126.154739,349.146388 C126.154739,349.146388 131.237995,366.031532 122.705027,393.085021" id="Stroke-921" stroke="#0056EB" stroke-width="2.393"></path>
                <path d="M44.9385667,387.320542 C39.1055338,384.426051 32.8824696,382.316211 26.4896271,381.075452 C23.9034901,380.573459 21.2540304,380.2027 18.8523553,379.119789 C18.3925772,378.912384 17.9217865,378.660011 17.6556475,378.232353 C17.3546351,377.747797 17.3720718,377.135677 17.4381477,376.570361 C17.6758373,374.52935 18.4146025,372.547991 19.5718483,370.84929 C20.9842205,368.776159 23.0986491,366.87556 23.115168,364.367429 C23.131687,361.862051 21.0346952,359.919237 19.1267538,358.295789 C18.5963112,357.845188 18.0447611,357.358796 17.828179,356.697119 C17.5895716,355.968449 17.8061537,355.173703 18.0649509,354.451456 C19.0129564,351.802914 20.5418791,349.364531 22.5113078,347.35564 C22.5113078,347.35564 25.4663685,351.869908 33.2330389,352.051617 C41.0006271,352.233326 76.223666,352.233326 88.7523892,344.426275 C101.280195,336.619225 107.870347,337.321282 114.834012,325.531323" id="Stroke-923" stroke="#0056EB" stroke-width="2.393"></path>
                <path d="M50.9382577,390.660678 C49.9893345,390.070584 49.0266454,389.503432 48.0501906,388.959224" id="Stroke-925" stroke="#0056EB" stroke-width="2.393"></path>
                <path d="M54.2434288,394.33514 C54.0580493,393.410078 53.5028282,392.655711 52.7998542,392.013307" id="Stroke-927" stroke="#0056EB" stroke-width="2.393"></path>
                <path d="M17.9101314,357.215907 C13.4968125,362.887421 12.2083326,370.379693 11.9495354,377.561775 C11.6907381,384.74294 12.3111173,391.994769 11.1024791,399.078655 C10.3591254,403.431404 8.93390509,407.652002 8.28966515,412.020352 C7.17922308,419.553922 8.48146878,427.424295 11.9614657,434.197074" id="Stroke-929" stroke="#0056EB" stroke-width="2.393"></path>
                <path d="M19.8624905,350.73533 C19.8624905,350.73533 25.2045428,356.932698 30.2877978,357.216274 C35.3719706,357.498932 59.1565385,359.530765 76.7685168,353.974884 C94.3804951,348.420838 111.436335,340.068662 112.712884,337.525658 C113.989434,334.984489 118.346772,330.80886 118.346772,330.80886" id="Stroke-931" stroke="#004EF0" stroke-width="0.737"></path>
                <path d="M38.8779391,368.351254 C39.6185397,367.922679 40.3866719,367.542743 41.1676523,367.213281 C44.9312249,365.621953 49.0316011,365.038283 53.0805849,364.483979 C61.7631406,363.295531 70.4787343,362.175912 78.980499,360.050471 C90.8897608,357.073385 102.302536,352.119528 112.611292,345.455958" id="Stroke-933" stroke="#004EF0" stroke-width="0.737"></path>
                <path d="M34.3403608,372.102805 C35.0791259,371.212616 35.9316885,370.408693 36.8613396,369.695624" id="Stroke-935" stroke="#004EF0" stroke-width="0.737"></path>
                <path d="M32.3794669,375.314002 C32.5575047,374.885426 32.7612387,374.470616 32.9851626,374.069572" id="Stroke-937" stroke="#004EF0" stroke-width="0.737"></path>
                <path d="M105.443159,362.545661 C110.642047,358.763734 116.764162,355.841712 120.71495,350.777729" id="Stroke-939" stroke="#004EF0" stroke-width="0.737"></path>
                <path d="M101.768239,365.587355 C102.304188,365.068843 102.864915,364.572356 103.443997,364.092388" id="Stroke-941" stroke="#004EF0" stroke-width="0.737"></path>
                <path d="M98.7784881,369.157013 C99.2134877,368.494419 99.6861139,367.867616 100.19086,367.270179" id="Stroke-943" stroke="#004EF0" stroke-width="0.737"></path>
                <path d="M125.027136,384.638136 C125.027136,384.638136 125.972388,387.819874 130.874852,397.443093" id="Stroke-945" stroke="#0056EB" stroke-width="2.393"></path>
                <polyline id="Stroke-947" stroke="#0056EB" stroke-width="2.393" points="66.3979056 118.915039 105.711226 0.180332121 136.777907 14.8620282 116.432957 76.3080188"></polyline>
                <polyline id="Stroke-949" stroke="#0056EB" stroke-width="2.393" points="74.3494967 203.411604 51.014612 273.887967 19.9479303 259.206271 61.756533 132.934324"></polyline>
                <path d="M88.1395353,161.762868 L86.3453913,167.181091" id="Stroke-951" stroke="#0056EB" stroke-width="2.393"></path>
                <path d="M99.3793198,127.816195 L97.3796064,133.855715" id="Stroke-953" stroke="#0056EB" stroke-width="2.393"></path>
                <path d="M110.636633,93.8156523 L107.271351,103.979409" id="Stroke-955" stroke="#0056EB" stroke-width="2.393"></path>
                <path d="M64.5848565,136.258492 L61.1608405,135.125107" id="Stroke-957" stroke="#0056EB" stroke-width="0.403"></path>
                <path d="M62.9877472,137.136751 L60.7402491,136.392479" id="Stroke-959" stroke="#0056EB" stroke-width="0.403"></path>
                <path d="M62.5678899,138.404949 L60.3203919,137.660677" id="Stroke-961" stroke="#0056EB" stroke-width="0.403"></path>
                <path d="M62.1480327,139.673055 L59.9005347,138.928784" id="Stroke-963" stroke="#0056EB" stroke-width="0.403"></path>
                <path d="M61.7281755,140.941162 L59.4806774,140.19689" id="Stroke-965" stroke="#0056EB" stroke-width="0.403"></path>
                <path d="M62.4294059,142.768527 L59.0053899,141.635142" id="Stroke-967" stroke="#0056EB" stroke-width="0.403"></path>
                <path d="M60.8323883,143.646878 L58.5848902,142.902606" id="Stroke-969" stroke="#0056EB" stroke-width="0.403"></path>
                <path d="M60.4120722,144.914984 L58.1654919,144.170713" id="Stroke-971" stroke="#0056EB" stroke-width="0.403"></path>
                <path d="M59.9926738,146.183091 L57.7451758,145.438819" id="Stroke-973" stroke="#0056EB" stroke-width="0.403"></path>
                <path d="M59.5728166,147.451289 L57.3253186,146.707018" id="Stroke-975" stroke="#0056EB" stroke-width="0.403"></path>
                <path d="M60.2735881,149.278655 L56.8495721,148.145269" id="Stroke-977" stroke="#0056EB" stroke-width="0.403"></path>
                <path d="M58.6770294,150.156913 L56.4295314,149.412642" id="Stroke-979" stroke="#0056EB" stroke-width="0.403"></path>
                <path d="M58.2567133,151.425112 L56.010133,150.68084" id="Stroke-981" stroke="#0056EB" stroke-width="0.403"></path>
                <path d="M57.8372232,152.693218 L55.5897251,151.948947" id="Stroke-983" stroke="#0056EB" stroke-width="0.403"></path>
                <path d="M57.4169071,153.961324 L55.1703268,153.217053" id="Stroke-985" stroke="#0056EB" stroke-width="0.403"></path>
                <path d="M58.1182293,155.78869 L54.6942133,154.655305" id="Stroke-987" stroke="#0056EB" stroke-width="0.403"></path>
                <path d="M56.5212117,156.66704 L54.2737136,155.922769" id="Stroke-989" stroke="#0056EB" stroke-width="0.403"></path>
                <path d="M56.1012627,157.935147 L53.8537646,157.190875" id="Stroke-991" stroke="#0056EB" stroke-width="0.403"></path>
                <path d="M55.6818643,159.203253 L53.4343663,158.458982" id="Stroke-993" stroke="#0056EB" stroke-width="0.403"></path>
                <path d="M55.2615482,160.471452 L53.0149679,159.726262" id="Stroke-995" stroke="#0056EB" stroke-width="0.403"></path>
                <path d="M55.9628704,162.298817 L52.5379367,161.165432" id="Stroke-997" stroke="#0056EB" stroke-width="0.403"></path>
                <path d="M54.365761,163.177076 L52.118263,162.432804" id="Stroke-999" stroke="#0056EB" stroke-width="0.403"></path>
                <path d="M53.9459038,164.445274 L51.6984057,163.701003" id="Stroke-1001" stroke="#0056EB" stroke-width="0.403"></path>
                <path d="M53.5260466,165.713381 L51.2785485,164.969109" id="Stroke-1003" stroke="#0056EB" stroke-width="0.403"></path>
                <path d="M53.1061893,166.981487 L50.8586913,166.236298" id="Stroke-1005" stroke="#0056EB" stroke-width="0.403"></path>
                <path d="M53.8069609,168.808853 L50.3829449,167.675468" id="Stroke-1007" stroke="#0056EB" stroke-width="0.403"></path>
                <path d="M52.2099433,169.687203 L49.963363,168.942932" id="Stroke-1009" stroke="#0056EB" stroke-width="0.403"></path>
                <path d="M51.7905449,170.95531 L49.5430469,170.211038" id="Stroke-1011" stroke="#0056EB" stroke-width="0.403"></path>
                <path d="M51.3706877,172.223416 L49.1231896,171.479145" id="Stroke-1013" stroke="#0056EB" stroke-width="0.403"></path>
                <path d="M50.9507387,173.491614 L48.7032406,172.746425" id="Stroke-1015" stroke="#0056EB" stroke-width="0.403"></path>
                <path d="M51.651602,175.31898 L48.227586,174.185595" id="Stroke-1017" stroke="#0056EB" stroke-width="0.403"></path>
                <path d="M50.0545844,176.197239 L47.8080041,175.452967" id="Stroke-1019" stroke="#0056EB" stroke-width="0.403"></path>
                <path d="M49.6350943,177.465437 L47.3875962,176.721165" id="Stroke-1021" stroke="#0056EB" stroke-width="0.403"></path>
                <path d="M49.2147782,178.733543 L46.9681978,177.989272" id="Stroke-1023" stroke="#0056EB" stroke-width="0.403"></path>
                <path d="M48.7953798,180.00165 L46.5478818,179.256461" id="Stroke-1025" stroke="#0056EB" stroke-width="0.403"></path>
                <path d="M49.4962431,181.829015 L46.0722271,180.69563" id="Stroke-1027" stroke="#0056EB" stroke-width="0.403"></path>
                <path d="M47.8991337,182.707366 L45.6516357,181.963094" id="Stroke-1029" stroke="#0056EB" stroke-width="0.403"></path>
                <path d="M47.4797354,183.975472 L45.2322373,183.231201" id="Stroke-1031" stroke="#0056EB" stroke-width="0.403"></path>
                <path d="M47.0594193,185.243579 L44.812839,184.499307" id="Stroke-1033" stroke="#0056EB" stroke-width="0.403"></path>
                <path d="M46.6400209,186.511777 L44.3925229,185.766588" id="Stroke-1035" stroke="#0056EB" stroke-width="0.403"></path>
                <path d="M47.3407925,188.339143 L43.9167765,187.205758" id="Stroke-1037" stroke="#0056EB" stroke-width="0.403"></path>
                <path d="M45.7437749,189.217401 L43.4962768,188.47313" id="Stroke-1039" stroke="#0056EB" stroke-width="0.403"></path>
                <path d="M45.3239176,190.4856 L43.0764196,189.741328" id="Stroke-1041" stroke="#0056EB" stroke-width="0.403"></path>
                <path d="M44.9040604,191.753706 L42.6565624,191.009435" id="Stroke-1043" stroke="#0056EB" stroke-width="0.403"></path>
                <path d="M44.4845703,193.021813 L42.2370722,192.276623" id="Stroke-1045" stroke="#0056EB" stroke-width="0.403"></path>
                <path d="M45.1854336,194.849178 L41.7614176,193.715793" id="Stroke-1047" stroke="#0056EB" stroke-width="0.403"></path>
                <path d="M43.588416,195.727529 L41.3409179,194.983257" id="Stroke-1049" stroke="#0056EB" stroke-width="0.403"></path>
                <path d="M43.1685588,196.995635 L40.9210607,196.251364" id="Stroke-1051" stroke="#0056EB" stroke-width="0.403"></path>
                <path d="M42.7486098,198.263742 L40.5011117,197.51947" id="Stroke-1053" stroke="#0056EB" stroke-width="0.403"></path>
                <path d="M42.3287525,199.53194 L40.0812545,198.786751" id="Stroke-1055" stroke="#0056EB" stroke-width="0.403"></path>
                <path d="M43.0300747,201.359305 L39.6060587,200.22592" id="Stroke-1057" stroke="#0056EB" stroke-width="0.403"></path>
                <path d="M41.4329653,202.237564 L39.1854673,201.493293" id="Stroke-1059" stroke="#0056EB" stroke-width="0.403"></path>
                <path d="M41.0131081,203.50567 L38.7656101,202.761399" id="Stroke-1061" stroke="#0056EB" stroke-width="0.403"></path>
                <path d="M40.5932509,204.773869 L38.3457528,204.02868" id="Stroke-1063" stroke="#0056EB" stroke-width="0.403"></path>
                <path d="M40.1733937,206.041975 L37.9258956,205.296786" id="Stroke-1065" stroke="#0056EB" stroke-width="0.403"></path>
                <path d="M40.8746241,207.869341 L37.4506081,206.735956" id="Stroke-1067" stroke="#0056EB" stroke-width="0.403"></path>
                <path d="M39.2776065,208.747691 L37.0301084,208.00342" id="Stroke-1069" stroke="#0056EB" stroke-width="0.403"></path>
                <path d="M38.8572904,210.015798 L36.6107101,209.271526" id="Stroke-1071" stroke="#0056EB" stroke-width="0.403"></path>
                <path d="M38.437892,211.283904 L36.190394,210.538715" id="Stroke-1073" stroke="#0056EB" stroke-width="0.403"></path>
                <path d="M38.017943,212.552102 L35.770445,211.806913" id="Stroke-1075" stroke="#0056EB" stroke-width="0.403"></path>
                <path d="M38.7188063,214.379468 L35.2947903,213.246083" id="Stroke-1077" stroke="#0056EB" stroke-width="0.403"></path>
                <path d="M37.1222476,215.257727 L34.8747495,214.513455" id="Stroke-1079" stroke="#0056EB" stroke-width="0.403"></path>
                <path d="M36.7019315,216.525833 L34.4544335,215.781562" id="Stroke-1081" stroke="#0056EB" stroke-width="0.403"></path>
                <path d="M36.2824414,217.794031 L34.0349433,217.048842" id="Stroke-1083" stroke="#0056EB" stroke-width="0.403"></path>
                <path d="M35.8621253,219.062138 L33.6155449,218.316949" id="Stroke-1085" stroke="#0056EB" stroke-width="0.403"></path>
                <path d="M36.5634474,220.889503 L33.1394314,219.756118" id="Stroke-1087" stroke="#0056EB" stroke-width="0.403"></path>
                <path d="M34.9664298,221.767854 L32.7189318,221.023582" id="Stroke-1089" stroke="#0056EB" stroke-width="0.403"></path>
                <path d="M34.5464808,223.03596 L32.2989828,222.291689" id="Stroke-1091" stroke="#0056EB" stroke-width="0.403"></path>
                <path d="M34.1266236,224.304067 L31.8791256,223.558878" id="Stroke-1093" stroke="#0056EB" stroke-width="0.403"></path>
                <path d="M33.7067664,225.572265 L31.4592683,224.827076" id="Stroke-1095" stroke="#0056EB" stroke-width="0.403"></path>
                <path d="M34.4076297,227.399631 L30.9836137,226.266246" id="Stroke-1097" stroke="#0056EB" stroke-width="0.403"></path>
                <path d="M32.8109792,228.277889 L30.5634812,227.533618" id="Stroke-1099" stroke="#0056EB" stroke-width="0.403"></path>
                <path d="M32.391122,229.545996 L30.1436239,228.801724" id="Stroke-1101" stroke="#0056EB" stroke-width="0.403"></path>
                <path d="M31.9712647,230.814194 L29.7237667,230.069005" id="Stroke-1103" stroke="#0056EB" stroke-width="0.403"></path>
                <path d="M31.5514075,232.082301 L29.3039095,231.337111" id="Stroke-1105" stroke="#0056EB" stroke-width="0.403"></path>
                <path d="M32.252179,233.909666 L28.828163,232.776281" id="Stroke-1107" stroke="#0056EB" stroke-width="0.403"></path>
                <path d="M30.6551615,234.788017 L28.4085811,234.043745" id="Stroke-1109" stroke="#0056EB" stroke-width="0.403"></path>
                <path d="M30.2357631,236.056123 L27.988265,235.311852" id="Stroke-1111" stroke="#0056EB" stroke-width="0.403"></path>
                <path d="M29.8158141,237.32423 L27.568316,236.57904" id="Stroke-1113" stroke="#0056EB" stroke-width="0.403"></path>
                <path d="M29.3959569,238.592428 L27.1484588,237.847239" id="Stroke-1115" stroke="#0056EB" stroke-width="0.403"></path>
                <path d="M30.0968202,240.419793 L26.6728042,239.286408" id="Stroke-1117" stroke="#0056EB" stroke-width="0.403"></path>
                <path d="M28.4998026,241.298052 L26.2532223,240.553781" id="Stroke-1119" stroke="#0056EB" stroke-width="0.403"></path>
                <path d="M28.0803124,242.566159 L25.8328144,241.821887" id="Stroke-1121" stroke="#0056EB" stroke-width="0.403"></path>
                <path d="M27.6599963,243.834357 L25.413416,243.089168" id="Stroke-1123" stroke="#0056EB" stroke-width="0.403"></path>
                <path d="M27.240598,245.102463 L24.9930999,244.357274" id="Stroke-1125" stroke="#0056EB" stroke-width="0.403"></path>
                <path d="M27.9414613,246.929829 L24.5174453,245.796444" id="Stroke-1127" stroke="#0056EB" stroke-width="0.403"></path>
                <path d="M26.3443519,247.808179 L24.0968539,247.063908" id="Stroke-1129" stroke="#0056EB" stroke-width="0.403"></path>
                <path d="M25.9249536,249.076286 L23.6774555,248.332014" id="Stroke-1131" stroke="#0056EB" stroke-width="0.403"></path>
                <path d="M25.5046375,250.344392 L23.2580571,249.599203" id="Stroke-1133" stroke="#0056EB" stroke-width="0.403"></path>
                <path d="M25.0852391,251.612591 L22.8377411,250.867401" id="Stroke-1135" stroke="#0056EB" stroke-width="0.403"></path>
                <path d="M25.7860106,253.439956 L22.3619946,252.306571" id="Stroke-1137" stroke="#0056EB" stroke-width="0.403"></path>
                <path d="M24.188993,254.318215 L21.941495,253.573943" id="Stroke-1139" stroke="#0056EB" stroke-width="0.403"></path>
                <path d="M23.7691358,255.586321 L21.5216378,254.84205" id="Stroke-1141" stroke="#0056EB" stroke-width="0.403"></path>
                <path d="M23.3492786,256.85452 L21.1017805,256.10933" id="Stroke-1143" stroke="#0056EB" stroke-width="0.403"></path>
                <path d="M22.9297884,258.122626 L20.6822904,257.377437" id="Stroke-1145" stroke="#0056EB" stroke-width="0.403"></path>
                <path d="M109.044571,1.97998245 L105.620555,0.845679642" id="Stroke-1147" stroke="#0056EB" stroke-width="0.403"></path>
                <path d="M107.456914,2.82869057 L105.210334,2.08441907" id="Stroke-1149" stroke="#0056EB" stroke-width="0.403"></path>
                <path d="M107.047335,4.06724645 L104.799837,3.32297495" id="Stroke-1151" stroke="#0056EB" stroke-width="0.403"></path>
                <path d="M106.636839,5.30580233 L104.389341,4.56153083" id="Stroke-1153" stroke="#0056EB" stroke-width="0.403"></path>
                <path d="M106.226893,6.54435821 L103.979395,5.80008671" id="Stroke-1155" stroke="#0056EB" stroke-width="0.403"></path>
                <path d="M106.938861,8.33859399 L103.514845,7.2052089" id="Stroke-1157" stroke="#0056EB" stroke-width="0.403"></path>
                <path d="M105.351754,9.18730211 L103.104256,8.44303061" id="Stroke-1159" stroke="#0056EB" stroke-width="0.403"></path>
                <path d="M104.941258,10.4267757 L102.694678,9.68158649" id="Stroke-1161" stroke="#0056EB" stroke-width="0.403"></path>
                <path d="M104.531679,11.6653316 L102.284181,10.9201424" id="Stroke-1163" stroke="#0056EB" stroke-width="0.403"></path>
                <path d="M104.121183,12.9038875 L101.873685,12.1586982" id="Stroke-1165" stroke="#0056EB" stroke-width="0.403"></path>
                <path d="M104.833701,14.6981232 L101.408767,13.5647382" id="Stroke-1167" stroke="#0056EB" stroke-width="0.403"></path>
                <path d="M103.246044,15.5468314 L100.998546,14.8025599" id="Stroke-1169" stroke="#0056EB" stroke-width="0.403"></path>
                <path d="M102.836007,16.7853872 L100.588509,16.0411157" id="Stroke-1171" stroke="#0056EB" stroke-width="0.403"></path>
                <path d="M102.425602,18.0239431 L100.179022,17.2796716" id="Stroke-1173" stroke="#0056EB" stroke-width="0.403"></path>
                <path d="M102.016023,19.262499 L99.7685252,18.5182275" id="Stroke-1175" stroke="#0056EB" stroke-width="0.403"></path>
                <path d="M102.727624,21.0576525 L99.3036079,19.9242674" id="Stroke-1177" stroke="#0056EB" stroke-width="0.403"></path>
                <path d="M101.140426,21.9063606 L98.8938456,21.1620891" id="Stroke-1179" stroke="#0056EB" stroke-width="0.403"></path>
                <path d="M100.730388,23.1449165 L98.4828902,22.400645" id="Stroke-1181" stroke="#0056EB" stroke-width="0.403"></path>
                <path d="M100.320351,24.3834724 L98.0728526,23.6392009" id="Stroke-1183" stroke="#0056EB" stroke-width="0.403"></path>
                <path d="M99.9104048,25.6220283 L97.6629068,24.8777568" id="Stroke-1185" stroke="#0056EB" stroke-width="0.403"></path>
                <path d="M100.622373,27.416264 L97.1983565,26.282879" id="Stroke-1187" stroke="#0056EB" stroke-width="0.403"></path>
                <path d="M99.0351746,28.2658899 L96.7876765,27.5207007" id="Stroke-1189" stroke="#0056EB" stroke-width="0.403"></path>
                <path d="M98.6247699,29.5044458 L96.3781895,28.7592565" id="Stroke-1191" stroke="#0056EB" stroke-width="0.403"></path>
                <path d="M98.2147322,30.7430017 L95.9672342,29.9978124" id="Stroke-1193" stroke="#0056EB" stroke-width="0.403"></path>
                <path d="M97.8046946,31.9815575 L95.5571966,31.2363683" id="Stroke-1195" stroke="#0056EB" stroke-width="0.403"></path>
                <path d="M98.5167541,33.7757933 L95.0927381,32.6424082" id="Stroke-1197" stroke="#0056EB" stroke-width="0.403"></path>
                <path d="M96.9295561,34.6245014 L94.6820581,33.8802299" id="Stroke-1199" stroke="#0056EB" stroke-width="0.403"></path>
                <path d="M96.5195185,35.8630573 L94.2720205,35.1187858" id="Stroke-1201" stroke="#0056EB" stroke-width="0.403"></path>
                <path d="M96.1091138,37.1016132 L93.8625335,36.3573417" id="Stroke-1203" stroke="#0056EB" stroke-width="0.403"></path>
                <path d="M95.6995351,38.3401691 L93.452037,37.5958976" id="Stroke-1205" stroke="#0056EB" stroke-width="0.403"></path>
                <path d="M96.4111357,40.1353226 L92.9871197,39.0019375" id="Stroke-1207" stroke="#0056EB" stroke-width="0.403"></path>
                <path d="M94.8239377,40.9840307 L92.5764397,40.2397592" id="Stroke-1209" stroke="#0056EB" stroke-width="0.403"></path>
                <path d="M94.4139001,42.2225866 L92.1664021,41.4783151" id="Stroke-1211" stroke="#0056EB" stroke-width="0.403"></path>
                <path d="M94.0038625,43.4611424 L91.7563645,42.7168709" id="Stroke-1213" stroke="#0056EB" stroke-width="0.403"></path>
                <path d="M93.5934578,44.6996983 L91.3468775,43.9554268" id="Stroke-1215" stroke="#0056EB" stroke-width="0.403"></path>
                <path d="M94.3058844,46.4939341 L90.8818684,45.360549" id="Stroke-1217" stroke="#0056EB" stroke-width="0.403"></path>
                <path d="M92.7186864,47.3435599 L90.4711884,46.5983707" id="Stroke-1219" stroke="#0056EB" stroke-width="0.403"></path>
                <path d="M92.3082817,48.5821158 L90.0607837,47.8369266" id="Stroke-1221" stroke="#0056EB" stroke-width="0.403"></path>
                <path d="M91.8982441,49.8206717 L89.650746,49.0754825" id="Stroke-1223" stroke="#0056EB" stroke-width="0.403"></path>
                <path d="M91.4882065,51.0592276 L89.2407084,50.3149561" id="Stroke-1225" stroke="#0056EB" stroke-width="0.403"></path>
                <path d="M92.1998071,52.8534634 L88.7757911,51.7200783" id="Stroke-1227" stroke="#0056EB" stroke-width="0.403"></path>
                <path d="M90.6126091,53.7021715 L88.3660288,52.9579" id="Stroke-1229" stroke="#0056EB" stroke-width="0.403"></path>
                <path d="M90.2030304,54.9407274 L87.9555323,54.1964559" id="Stroke-1231" stroke="#0056EB" stroke-width="0.403"></path>
                <path d="M89.7926257,56.1792832 L87.5451276,55.4350117" id="Stroke-1233" stroke="#0056EB" stroke-width="0.403"></path>
                <path d="M89.382588,57.4178391 L87.13509,56.6735676" id="Stroke-1235" stroke="#0056EB" stroke-width="0.403"></path>
                <path d="M90.0946476,59.2129926 L86.6706316,58.0796075" id="Stroke-1237" stroke="#0056EB" stroke-width="0.403"></path>
                <path d="M88.5074496,60.0617007 L86.2599515,59.3174292" id="Stroke-1239" stroke="#0056EB" stroke-width="0.403"></path>
                <path d="M88.0969531,61.3002566 L85.8503728,60.5559851" id="Stroke-1241" stroke="#0056EB" stroke-width="0.403"></path>
                <path d="M87.6873743,62.5388125 L85.4398763,61.794541" id="Stroke-1243" stroke="#0056EB" stroke-width="0.403"></path>
                <path d="M87.2768779,63.7773684 L85.0293798,63.0330969" id="Stroke-1245" stroke="#0056EB" stroke-width="0.403"></path>
                <path d="M87.9889374,65.5716042 L84.5649214,64.4382191" id="Stroke-1247" stroke="#0056EB" stroke-width="0.403"></path>
                <path d="M86.4017394,66.42123 L84.1542413,65.6760408" id="Stroke-1249" stroke="#0056EB" stroke-width="0.403"></path>
                <path d="M85.9917018,67.6597859 L83.7442037,66.9155144" id="Stroke-1251" stroke="#0056EB" stroke-width="0.403"></path>
                <path d="M85.5812971,68.8983418 L83.3347167,68.1540703" id="Stroke-1253" stroke="#0056EB" stroke-width="0.403"></path>
                <path d="M85.1717183,70.1368976 L82.9242203,69.3926261" id="Stroke-1255" stroke="#0056EB" stroke-width="0.403"></path>
                <path d="M85.8833189,71.9311334 L82.4593029,70.7977483" id="Stroke-1257" stroke="#0056EB" stroke-width="0.403"></path>
                <path d="M84.296121,72.7798415 L82.0486229,72.03557" id="Stroke-1259" stroke="#0056EB" stroke-width="0.403"></path>
                <path d="M83.8860833,74.0183974 L81.6385853,73.2741259" id="Stroke-1261" stroke="#0056EB" stroke-width="0.403"></path>
                <path d="M83.4760457,75.257871 L81.2285477,74.5126818" id="Stroke-1263" stroke="#0056EB" stroke-width="0.403"></path>
                <path d="M83.065641,76.4964269 L80.8190607,75.7512377" id="Stroke-1265" stroke="#0056EB" stroke-width="0.403"></path>
                <path d="M83.7780676,78.2906627 L80.3540516,77.1572776" id="Stroke-1267" stroke="#0056EB" stroke-width="0.403"></path>
                <path d="M82.1908696,79.1393708 L79.9433716,78.3950993" id="Stroke-1269" stroke="#0056EB" stroke-width="0.403"></path>
                <path d="M81.7804649,80.3779267 L79.5329669,79.6336552" id="Stroke-1271" stroke="#0056EB" stroke-width="0.403"></path>
                <path d="M81.3704273,81.6164826 L79.1229293,80.8722111" id="Stroke-1273" stroke="#0056EB" stroke-width="0.403"></path>
                <path d="M80.9603897,82.8550384 L78.7128917,82.1107669" id="Stroke-1275" stroke="#0056EB" stroke-width="0.403"></path>
                <path d="M81.6724492,84.6501002 L78.2484332,83.5157974" id="Stroke-1277" stroke="#0056EB" stroke-width="0.403"></path>
                <path d="M80.0847924,85.4988083 L77.838212,84.7536191" id="Stroke-1279" stroke="#0056EB" stroke-width="0.403"></path>
                <path d="M79.6752136,86.7374559 L77.4277156,85.9931844" id="Stroke-1281" stroke="#0056EB" stroke-width="0.403"></path>
                <path d="M79.2648089,87.9760118 L77.0173109,87.2317403" id="Stroke-1283" stroke="#0056EB" stroke-width="0.403"></path>
                <path d="M78.8547713,89.2145677 L76.6072732,88.4702962" id="Stroke-1285" stroke="#0056EB" stroke-width="0.403"></path>
                <path d="M79.5668308,91.0088035 L76.1428148,89.8754184" id="Stroke-1287" stroke="#0056EB" stroke-width="0.403"></path>
                <path d="M77.9796328,91.8575116 L75.7321348,91.1132401" id="Stroke-1289" stroke="#0056EB" stroke-width="0.403"></path>
                <path d="M77.5695952,93.0960675 L75.3220972,92.351796" id="Stroke-1291" stroke="#0056EB" stroke-width="0.403"></path>
                <path d="M77.1595576,94.3355411 L74.9120595,93.5903519" id="Stroke-1293" stroke="#0056EB" stroke-width="0.403"></path>
                <path d="M76.7491529,95.574097 L74.5025726,94.8289077" id="Stroke-1295" stroke="#0056EB" stroke-width="0.403"></path>
                <path d="M77.4615795,97.368241 L74.0375635,96.2348559" id="Stroke-1297" stroke="#0056EB" stroke-width="0.403"></path>
                <path d="M75.8739226,98.2169491 L73.6264246,97.4726776" id="Stroke-1299" stroke="#0056EB" stroke-width="0.403"></path>
                <path d="M75.4639768,99.4555967 L73.2164787,98.7113252" id="Stroke-1301" stroke="#0056EB" stroke-width="0.403"></path>
                <path d="M75.0539392,100.694153 L72.8064411,99.9498811" id="Stroke-1303" stroke="#0056EB" stroke-width="0.403"></path>
                <path d="M74.6439015,101.932709 L72.3964035,101.188437" id="Stroke-1305" stroke="#0056EB" stroke-width="0.403"></path>
                <path d="M75.3555022,103.72777 L71.9314862,102.594385" id="Stroke-1307" stroke="#0056EB" stroke-width="0.403"></path>
                <path d="M73.7683042,104.576478 L71.5217239,103.832207" id="Stroke-1309" stroke="#0056EB" stroke-width="0.403"></path>
                <path d="M73.3582666,105.815034 L71.1107685,105.070763" id="Stroke-1311" stroke="#0056EB" stroke-width="0.403"></path>
                <path d="M72.9483207,107.053682 L70.7008227,106.30941" id="Stroke-1313" stroke="#0056EB" stroke-width="0.403"></path>
                <path d="M72.5382831,108.292238 L70.2907851,107.547966" id="Stroke-1315" stroke="#0056EB" stroke-width="0.403"></path>
                <path d="M73.2503426,110.086382 L69.8263266,108.952997" id="Stroke-1317" stroke="#0056EB" stroke-width="0.403"></path>
                <path d="M71.6631446,110.936008 L69.4156466,110.190818" id="Stroke-1319" stroke="#0056EB" stroke-width="0.403"></path>
                <path d="M71.2526482,112.174563 L69.0060679,111.429374" id="Stroke-1321" stroke="#0056EB" stroke-width="0.403"></path>
                <path d="M70.8430694,113.413119 L68.5955714,112.66793" id="Stroke-1323" stroke="#0056EB" stroke-width="0.403"></path>
                <path d="M70.4325729,114.651675 L68.1850749,113.906486" id="Stroke-1325" stroke="#0056EB" stroke-width="0.403"></path>
                <path d="M51.0148874,273.887875 L19.9472879,259.206179" id="Stroke-1327" stroke="#0056EB" stroke-width="2.393"></path>
                <path d="M114.043212,73.702885 L117.468146,74.8362701" id="Stroke-1329" stroke="#0056EB" stroke-width="0.403"></path>
                <path d="M115.647388,72.8031517 L117.894886,73.5474232" id="Stroke-1331" stroke="#0056EB" stroke-width="0.403"></path>
                <path d="M116.074862,71.5134787 L118.321443,72.2577502" id="Stroke-1333" stroke="#0056EB" stroke-width="0.403"></path>
                <path d="M116.501511,70.2238058 L118.749009,70.9680773" id="Stroke-1335" stroke="#0056EB" stroke-width="0.403"></path>
                <path d="M116.928526,68.9341329 L119.176024,69.6784044" id="Stroke-1337" stroke="#0056EB" stroke-width="0.403"></path>
                <path d="M116.23528,67.0817136 L119.660214,68.2150987" id="Stroke-1339" stroke="#0056EB" stroke-width="0.403"></path>
                <path d="M117.839547,66.1818884 L120.087045,66.9261599" id="Stroke-1341" stroke="#0056EB" stroke-width="0.403"></path>
                <path d="M118.267022,64.8922155 L120.513602,65.636487" id="Stroke-1343" stroke="#0056EB" stroke-width="0.403"></path>
                <path d="M118.693578,63.6026344 L120.941076,64.3478236" id="Stroke-1345" stroke="#0056EB" stroke-width="0.403"></path>
                <path d="M119.120686,62.3129614 L121.368184,63.0581507" id="Stroke-1347" stroke="#0056EB" stroke-width="0.403"></path>
                <path d="M118.427439,60.4613681 L121.852373,61.5947532" id="Stroke-1349" stroke="#0056EB" stroke-width="0.403"></path>
                <path d="M120.031615,59.5616347 L122.279113,60.3059062" id="Stroke-1351" stroke="#0056EB" stroke-width="0.403"></path>
                <path d="M120.459181,58.2719618 L122.705761,59.0162333" id="Stroke-1353" stroke="#0056EB" stroke-width="0.403"></path>
                <path d="M120.885738,56.9822889 L123.133236,57.7265604" id="Stroke-1355" stroke="#0056EB" stroke-width="0.403"></path>
                <path d="M121.312753,55.692616 L123.560251,56.4368875" id="Stroke-1357" stroke="#0056EB" stroke-width="0.403"></path>
                <path d="M120.619599,53.8401967 L124.044532,54.9735818" id="Stroke-1359" stroke="#0056EB" stroke-width="0.403"></path>
                <path d="M122.223775,52.9403715 L124.471273,53.684643" id="Stroke-1361" stroke="#0056EB" stroke-width="0.403"></path>
                <path d="M122.651249,51.6506986 L124.897829,52.3949701" id="Stroke-1363" stroke="#0056EB" stroke-width="0.403"></path>
                <path d="M123.077897,50.3611174 L125.325395,51.1053889" id="Stroke-1365" stroke="#0056EB" stroke-width="0.403"></path>
                <path d="M123.504913,49.0714445 L125.752411,49.8166337" id="Stroke-1367" stroke="#0056EB" stroke-width="0.403"></path>
                <path d="M122.811666,47.2198512 L126.2366,48.3532363" id="Stroke-1369" stroke="#0056EB" stroke-width="0.403"></path>
                <path d="M124.415934,46.320026 L126.663432,47.0642975" id="Stroke-1371" stroke="#0056EB" stroke-width="0.403"></path>
                <path d="M124.843408,45.0304449 L127.089989,45.7747164" id="Stroke-1373" stroke="#0056EB" stroke-width="0.403"></path>
                <path d="M125.270057,43.740772 L127.517555,44.4850435" id="Stroke-1375" stroke="#0056EB" stroke-width="0.403"></path>
                <path d="M125.697072,42.451099 L127.94457,43.1953705" id="Stroke-1377" stroke="#0056EB" stroke-width="0.403"></path>
                <path d="M125.004285,40.5986798 L128.428301,41.7320648" id="Stroke-1379" stroke="#0056EB" stroke-width="0.403"></path>
                <path d="M126.608094,39.6988546 L128.855592,40.4431261" id="Stroke-1381" stroke="#0056EB" stroke-width="0.403"></path>
                <path d="M127.035568,38.4091817 L129.282148,39.1534532" id="Stroke-1383" stroke="#0056EB" stroke-width="0.403"></path>
                <path d="M127.462124,37.1195087 L129.709622,37.8637802" id="Stroke-1385" stroke="#0056EB" stroke-width="0.403"></path>
                <path d="M127.889232,35.8299276 L130.13673,36.5751168" id="Stroke-1387" stroke="#0056EB" stroke-width="0.403"></path>
                <path d="M127.196444,33.9783343 L130.62046,35.1117194" id="Stroke-1389" stroke="#0056EB" stroke-width="0.403"></path>
                <path d="M128.800161,33.0785091 L131.047659,33.8227806" id="Stroke-1391" stroke="#0056EB" stroke-width="0.403"></path>
                <path d="M129.227727,31.788928 L131.474308,32.5331995" id="Stroke-1393" stroke="#0056EB" stroke-width="0.403"></path>
                <path d="M129.654284,30.499255 L131.901782,31.2435265" id="Stroke-1395" stroke="#0056EB" stroke-width="0.403"></path>
                <path d="M130.081299,29.2095821 L132.328797,29.9538536" id="Stroke-1397" stroke="#0056EB" stroke-width="0.403"></path>
                <path d="M129.388512,27.3571628 L132.812528,28.4905479" id="Stroke-1399" stroke="#0056EB" stroke-width="0.403"></path>
                <path d="M130.992321,26.4573377 L133.239819,27.2016092" id="Stroke-1401" stroke="#0056EB" stroke-width="0.403"></path>
                <path d="M131.419795,25.1676647 L133.666375,25.9119362" id="Stroke-1403" stroke="#0056EB" stroke-width="0.403"></path>
                <path d="M131.846443,23.8779918 L134.093941,24.6222633" id="Stroke-1405" stroke="#0056EB" stroke-width="0.403"></path>
                <path d="M132.273459,22.5884107 L134.520957,23.3335999" id="Stroke-1407" stroke="#0056EB" stroke-width="0.403"></path>
                <path d="M131.580671,20.7358996 L135.004687,21.8702024" id="Stroke-1409" stroke="#0056EB" stroke-width="0.403"></path>
                <path d="M133.18448,19.8360745 L135.431978,20.5812637" id="Stroke-1411" stroke="#0056EB" stroke-width="0.403"></path>
                <path d="M133.611955,18.5473193 L135.858535,19.2915908" id="Stroke-1413" stroke="#0056EB" stroke-width="0.403"></path>
                <path d="M134.038511,17.2577381 L136.286009,18.0020096" id="Stroke-1415" stroke="#0056EB" stroke-width="0.403"></path>
                <path d="M134.465618,15.9680652 L136.713116,16.7123367" id="Stroke-1417" stroke="#0056EB" stroke-width="0.403"></path>
                <path d="M104.534341,102.422037 L107.958357,103.555422" id="Stroke-1419" stroke="#0056EB" stroke-width="0.403"></path>
                <path d="M106.048029,101.795601 L108.295527,102.539873" id="Stroke-1421" stroke="#0056EB" stroke-width="0.403"></path>
                <path d="M106.384557,100.779225 L108.632055,101.523497" id="Stroke-1423" stroke="#0056EB" stroke-width="0.403"></path>
                <path d="M106.721086,99.7629414 L108.968584,100.508131" id="Stroke-1425" stroke="#0056EB" stroke-width="0.403"></path>
                <path d="M107.057247,98.7475752 L109.304745,99.4918467" id="Stroke-1427" stroke="#0056EB" stroke-width="0.403"></path>
                <path d="M106.261858,97.205162 L109.685874,98.3385471" id="Stroke-1429" stroke="#0056EB" stroke-width="0.403"></path>
                <path d="M107.775547,96.5787258 L110.023045,97.3229973" id="Stroke-1431" stroke="#0056EB" stroke-width="0.403"></path>
                <path d="M108.112075,95.5624419 L110.359573,96.3067134" id="Stroke-1433" stroke="#0056EB" stroke-width="0.403"></path>
                <path d="M108.448144,94.5460662 L110.695642,95.2903377" id="Stroke-1435" stroke="#0056EB" stroke-width="0.403"></path>
                <path d="M108.785131,93.5297823 L111.031712,94.2749715" id="Stroke-1437" stroke="#0056EB" stroke-width="0.403"></path>
                <path d="M94.4574001,132.857327 L97.8814161,133.99163" id="Stroke-1439" stroke="#0056EB" stroke-width="0.403"></path>
                <path d="M96.0266107,132.062397 L98.2741088,132.806669" id="Stroke-1441" stroke="#0056EB" stroke-width="0.403"></path>
                <path d="M96.4192117,130.876702 L98.6667097,131.620974" id="Stroke-1443" stroke="#0056EB" stroke-width="0.403"></path>
                <path d="M96.8117208,129.691925 L99.0592188,130.436196" id="Stroke-1445" stroke="#0056EB" stroke-width="0.403"></path>
                <path d="M97.20423,128.50623 L99.451728,129.250501" id="Stroke-1447" stroke="#0056EB" stroke-width="0.403"></path>
                <path d="M83.3308623,166.46169 L86.7548783,167.595075" id="Stroke-1449" stroke="#0056EB" stroke-width="0.403"></path>
                <path d="M84.8782312,165.733112 L87.1257293,166.478301" id="Stroke-1451" stroke="#0056EB" stroke-width="0.403"></path>
                <path d="M85.2488068,164.615511 L87.4953872,165.359783" id="Stroke-1453" stroke="#0056EB" stroke-width="0.403"></path>
                <path d="M85.6189236,163.497085 L87.8655039,164.241357" id="Stroke-1455" stroke="#0056EB" stroke-width="0.403"></path>
                <path d="M85.9890404,162.379485 L88.2356207,163.123756" id="Stroke-1457" stroke="#0056EB" stroke-width="0.403"></path>
                <path d="M48.3526713,272.104468 L51.7766873,273.237853" id="Stroke-1459" stroke="#0056EB" stroke-width="0.403"></path>
                <path d="M49.9344548,271.27182 L52.1819528,272.016092" id="Stroke-1461" stroke="#0056EB" stroke-width="0.403"></path>
                <path d="M50.3395367,270.048498 L52.5870347,270.793688" id="Stroke-1463" stroke="#0056EB" stroke-width="0.403"></path>
                <path d="M50.7441597,268.826094 L52.9916578,269.570366" id="Stroke-1465" stroke="#0056EB" stroke-width="0.403"></path>
                <path d="M51.1488746,267.603691 L53.3963726,268.347962" id="Stroke-1467" stroke="#0056EB" stroke-width="0.403"></path>
                <path d="M50.4309417,265.826433 L53.8549577,266.960735" id="Stroke-1469" stroke="#0056EB" stroke-width="0.403"></path>
                <path d="M52.013184,264.993876 L54.260682,265.738148" id="Stroke-1471" stroke="#0056EB" stroke-width="0.403"></path>
                <path d="M52.4178988,263.771472 L54.6653968,264.515744" id="Stroke-1473" stroke="#0056EB" stroke-width="0.403"></path>
                <path d="M52.8229807,262.548151 L55.0704788,263.292422" id="Stroke-1475" stroke="#0056EB" stroke-width="0.403"></path>
                <path d="M53.2280626,261.325747 L55.474643,262.070018" id="Stroke-1477" stroke="#0056EB" stroke-width="0.403"></path>
                <path d="M52.5097626,259.549406 L55.9337786,260.682791" id="Stroke-1479" stroke="#0056EB" stroke-width="0.403"></path>
                <path d="M54.0920049,258.715932 L56.3385852,259.460204" id="Stroke-1481" stroke="#0056EB" stroke-width="0.403"></path>
                <path d="M54.496628,257.493528 L56.744126,258.2378" id="Stroke-1483" stroke="#0056EB" stroke-width="0.403"></path>
                <path d="M54.9012511,256.270207 L57.1487491,257.015396" id="Stroke-1485" stroke="#0056EB" stroke-width="0.403"></path>
                <path d="M55.306333,255.047711 L57.553831,255.791982" id="Stroke-1487" stroke="#0056EB" stroke-width="0.403"></path>
                <path d="M54.5884918,253.271463 L58.0125078,254.404848" id="Stroke-1489" stroke="#0056EB" stroke-width="0.403"></path>
                <path d="M56.1702753,252.437989 L58.4177733,253.183178" id="Stroke-1491" stroke="#0056EB" stroke-width="0.403"></path>
                <path d="M56.5753572,251.215493 L58.8219375,251.959764" id="Stroke-1493" stroke="#0056EB" stroke-width="0.403"></path>
                <path d="M56.980072,249.992171 L59.2275701,250.73736" id="Stroke-1495" stroke="#0056EB" stroke-width="0.403"></path>
                <path d="M57.3846951,248.769767 L59.6321931,249.514039" id="Stroke-1497" stroke="#0056EB" stroke-width="0.403"></path>
                <path d="M56.6667622,246.993519 L60.0907782,248.126904" id="Stroke-1499" stroke="#0056EB" stroke-width="0.403"></path>
                <path d="M58.2486374,246.160045 L60.4961354,246.905234" id="Stroke-1501" stroke="#0056EB" stroke-width="0.403"></path>
                <path d="M58.6537193,244.937549 L60.9012173,245.68182" id="Stroke-1503" stroke="#0056EB" stroke-width="0.403"></path>
                <path d="M59.0588012,243.715145 L61.3062993,244.459416" id="Stroke-1505" stroke="#0056EB" stroke-width="0.403"></path>
                <path d="M59.4634243,242.491823 L61.7109223,243.237012" id="Stroke-1507" stroke="#0056EB" stroke-width="0.403"></path>
                <path d="M58.7455831,240.715483 L62.1695991,241.848868" id="Stroke-1509" stroke="#0056EB" stroke-width="0.403"></path>
                <path d="M60.3278254,239.882927 L62.5744057,240.627198" id="Stroke-1511" stroke="#0056EB" stroke-width="0.403"></path>
                <path d="M60.7324485,238.659605 L62.9799465,239.403877" id="Stroke-1513" stroke="#0056EB" stroke-width="0.403"></path>
                <path d="M61.1370716,237.437201 L63.3845696,238.181473" id="Stroke-1515" stroke="#0056EB" stroke-width="0.403"></path>
                <path d="M61.5421535,236.213879 L63.7896515,236.959069" id="Stroke-1517" stroke="#0056EB" stroke-width="0.403"></path>
                <path d="M60.8243123,234.437539 L64.2483283,235.570924" id="Stroke-1519" stroke="#0056EB" stroke-width="0.403"></path>
                <path d="M62.4061875,233.604983 L64.6536856,234.349254" id="Stroke-1521" stroke="#0056EB" stroke-width="0.403"></path>
                <path d="M62.8112695,232.381661 L65.0578498,233.125933" id="Stroke-1523" stroke="#0056EB" stroke-width="0.403"></path>
                <path d="M63.2158925,231.159257 L65.4633906,231.903529" id="Stroke-1525" stroke="#0056EB" stroke-width="0.403"></path>
                <path d="M63.6205156,229.936761 L65.8680136,230.681033" id="Stroke-1527" stroke="#0056EB" stroke-width="0.403"></path>
                <path d="M62.9026744,228.159595 L66.3266904,229.29298" id="Stroke-1529" stroke="#0056EB" stroke-width="0.403"></path>
                <path d="M64.4844579,227.327039 L66.7319559,228.07131" id="Stroke-1531" stroke="#0056EB" stroke-width="0.403"></path>
                <path d="M64.8895398,226.103717 L67.1370378,226.848906" id="Stroke-1533" stroke="#0056EB" stroke-width="0.403"></path>
                <path d="M65.2946217,224.881221 L67.541202,225.625493" id="Stroke-1535" stroke="#0056EB" stroke-width="0.403"></path>
                <path d="M65.6992448,223.658817 L67.9467428,224.403089" id="Stroke-1537" stroke="#0056EB" stroke-width="0.403"></path>
                <path d="M64.9814036,221.881651 L68.4054196,223.015954" id="Stroke-1539" stroke="#0056EB" stroke-width="0.403"></path>
                <path d="M66.5631871,221.049095 L68.8106851,221.793367" id="Stroke-1541" stroke="#0056EB" stroke-width="0.403"></path>
                <path d="M66.9679019,219.825682 L69.2154,220.570871" id="Stroke-1543" stroke="#0056EB" stroke-width="0.403"></path>
                <path d="M67.3729838,218.603278 L69.6204819,219.347549" id="Stroke-1545" stroke="#0056EB" stroke-width="0.403"></path>
                <path d="M67.7780658,217.380874 L70.0255638,218.125145" id="Stroke-1547" stroke="#0056EB" stroke-width="0.403"></path>
                <path d="M67.0601328,215.604533 L70.4841488,216.737918" id="Stroke-1549" stroke="#0056EB" stroke-width="0.403"></path>
                <path d="M68.642008,214.771059 L70.8895061,215.515331" id="Stroke-1551" stroke="#0056EB" stroke-width="0.403"></path>
                <path d="M69.04709,213.548655 L71.2936703,214.292927" id="Stroke-1553" stroke="#0056EB" stroke-width="0.403"></path>
                <path d="M69.451713,212.325334 L71.6992111,213.070523" id="Stroke-1555" stroke="#0056EB" stroke-width="0.403"></path>
                <path d="M69.8563361,211.10293 L72.1038341,211.847201" id="Stroke-1557" stroke="#0056EB" stroke-width="0.403"></path>
                <path d="M69.138495,209.326589 L72.562511,210.459975" id="Stroke-1559" stroke="#0056EB" stroke-width="0.403"></path>
                <path d="M70.7202784,208.493116 L72.9677764,209.237387" id="Stroke-1561" stroke="#0056EB" stroke-width="0.403"></path>
                <path d="M71.1253603,207.270712 L73.3728583,208.014983" id="Stroke-1563" stroke="#0056EB" stroke-width="0.403"></path>
                <path d="M71.5304422,206.04739 L73.7770226,206.792579" id="Stroke-1565" stroke="#0056EB" stroke-width="0.403"></path>
                <path d="M71.9351571,204.824894 L74.1826551,205.569166" id="Stroke-1567" stroke="#0056EB" stroke-width="0.403"></path>
                <path d="M105.711134,0.180423893 L136.778733,14.8621199" id="Stroke-1569" stroke="#0056EB" stroke-width="2.393"></path>
            </g>
        </g>
    </g>
</svg>