
<svg width="210px" height="434px" viewBox="0 0 210 434" version="1.1" xmlns="http://www.w3.org/2000/svg" xmlns:xlink="http://www.w3.org/1999/xlink">
    <!-- Generator: Sketch 45.1 (43504) - http://www.bohemiancoding.com/sketch -->
    <desc>Created with Sketch.</desc>
    <defs></defs>
    <g id="Page-1" stroke="none" stroke-width="1" fill="none" fill-rule="evenodd" stroke-linecap="round" stroke-linejoin="round">
        <g id="Landing-Content" transform="translate(-209.000000, -373.000000)" stroke="#FFFFFF">
            <g id="Page-1" transform="translate(209.000000, 374.000000)">
                <path d="M122.150288,254.32201 C121.610243,254.200026 121.064275,254.035407 120.512387,253.823415" id="Stroke-1" stroke-width="1.842"></path>
                <path d="M129.025923,253.574354 C127.968334,254.033867 126.888242,254.350078 125.782096,254.492195" id="Stroke-3" stroke-width="1.842"></path>
                <path d="M131.731126,76.9235047 C133.351263,72.1365205 137.363708,66.0124495 142.412425,65.8265127 C158.069013,65.2509376 159.457026,94.6336883 159.457026,94.6336883 L160.225643,102.484484 L161.742745,107.820989 L166.63158,128.152052 C166.63158,128.152052 171.401984,144.214859 171.747803,147.841219 C172.093622,151.468763 172.784075,162.86657 173.013831,163.442145 C173.244772,164.018904 176.353588,193.723788 174.5108,200.169991 C173.684151,203.065631 170.050686,208.01605 166.115221,212.786454 C161.285601,218.639318 156.262939,224.544291 154.880849,225.385152 C148.432277,229.306405 140.991252,245.910442 131.565322,252.174262" id="Stroke-5" stroke-width="1.842"></path>
                <path d="M72.9620716,285.30204 C72.9620716,285.30204 81.937963,253.715287 80.4457314,250.599366 C73.1290594,235.321757 73.0058911,227.409376 71.6238004,224.646379 C70.242894,221.883382 65.7626463,215.743915 64.3319988,212.131767 C58.8048204,203.151138 46.5957605,189.808693 46.5957605,186.354058 C46.5957605,182.900608 45.9053073,178.065067 46.5957605,173.229526 C47.287398,168.393985 52.8133921,163.55726 52.8133921,163.55726 C52.8133921,163.55726 48.2277408,154.807572 49.6086471,147.899487 C50.1344811,145.278607 56.4575164,136.325218 56.4575164,136.325218 L62.4051252,122.812232 L57.1882362,108.041508 C57.1882362,108.041508 49.8206388,77.6674888 57.4191768,70.759404 C58.10963,56.2515968 63.9648625,42.7812459 63.9648625,42.7812459 L69.5500722,35.35088 C76.458157,29.1332484 86.4963752,21.5690554 86.4963752,21.5690554 C86.4963752,21.5690554 99.0986263,31.292247 87.2543341,45.5501645 C84.5398938,48.8164937 85.8556631,46.6231501 84.5398938,48.8164937 C84.0851185,49.5756369 84.5398938,62.8209687 84.5398938,62.8209687 C84.5398938,62.8209687 94.1470229,61.8936534 96.9112043,62.5841066 C99.6742014,63.2757441 129.492778,71.6807977 131.565322,76.5163387 C133.637866,81.3518796 133.686423,86.2265028 125.693509,92.1741116 C120.74309,95.8585025 105.632469,91.8602693 105.632469,91.8602693 L122.584694,110.365125 L128.802325,122.800389 L133.769325,130.705663 C133.946971,130.989898 134.745197,131.875762 134.976137,132.118546 C135.569477,132.741493 137.219222,133.379837 138.324184,134.257411 C138.961343,134.761928 139.183994,135.903603 139.553499,136.870001 C139.596134,136.98251 139.639953,137.091467 139.687326,137.196871 C139.799835,137.447944 139.926556,137.678885 140.081701,137.873112 C140.672672,138.614491 141.357204,138.434475 142.099767,138.889251 C143.147882,139.531147 144.272977,140.714274 145.073571,141.247213 C140.647802,132.822026 134.380429,116.197856 132.783978,105.952383 C132.425132,103.648899 131.93009,102.821066 131.575981,101.115658 C131.575981,101.115658 130.174941,94.7345915 130.330086,87.827691" id="Stroke-7" stroke-width="1.842"></path>
                <path d="M171.402103,205.886778 C171.402103,205.886778 161.098599,223.139817 159.716508,227.111996 C158.334417,231.084174 138.47471,299.383377 136.824965,322.321109" id="Stroke-9" stroke-width="1.842"></path>
                <path d="M84.5402491,62.820495 C84.5402491,62.820495 69.9838852,63.3096154 57.4195321,70.7589302" id="Stroke-11" stroke-width="1.842"></path>
                <path d="M70.0001103,92.0848146 C69.4221666,92.2150888 68.9579168,92.3240454 68.6393372,92.4045785" id="Stroke-13" stroke-width="1.842"></path>
                <path d="M108.078426,92.4045785 C108.078426,92.4045785 92.6006683,88.9381008 90.6631359,88.7569013 C87.8350017,88.4916157 78.0135124,90.3663796 72.3193461,91.5779296" id="Stroke-15" stroke-width="1.842"></path>
                <path d="M77.7258433,94.663296 C77.0081509,94.7675154 76.234796,94.823178 75.4069627,94.8196251" id="Stroke-17" stroke-width="0.583"></path>
                <path d="M86.24163,89.1557771 C86.24163,89.1557771 84.4770069,92.8117445 79.6260699,94.2494978" id="Stroke-19" stroke-width="0.583"></path>
                <path d="M88.6692302,88.7937333 C88.6692302,88.7937333 87.3570139,95.377317 89.2282249,106.990669" id="Stroke-21" stroke-width="1.842"></path>
                <path d="M62.4050068,122.812705 C62.4050068,122.812705 73.7684688,103.457514 81.8277037,104.839605 C89.6702097,106.183798 102.529456,112.10772 125.921963,128.766236 C127.191544,129.671049 128.185181,130.912207 128.782073,132.352329 C130.530116,136.575581 133.996594,142.288696 136.288235,147.323201 C137.778098,150.595452 142.103201,155.918929 140.151457,160.975936 C138.841609,164.368987 134.705996,168.731988 128.793917,164.262399 C124.71515,161.178453 114.756281,151.123655 114.756281,151.123655 C114.756281,151.123655 102.589856,144.588628 92.5172929,139.637024 C88.1898212,137.508818 84.2496192,135.673136 81.8277037,134.774244" id="Stroke-23" stroke-width="1.842"></path>
                <path d="M75.2426988,147.891315 C74.9809662,147.881841 74.7216021,147.866445 74.4586851,147.841574" id="Stroke-25" stroke-width="0.583"></path>
                <path d="M79.3022794,147.483676 C78.4483913,147.677903 77.5755542,147.81173 76.6885055,147.869761" id="Stroke-27" stroke-width="0.583"></path>
                <path d="M92.517056,139.637024 C92.517056,139.637024 87.6222995,144.787592 81.16899,146.956065" id="Stroke-29" stroke-width="0.583"></path>
                <path d="M52.8137474,163.557497 C52.8137474,163.557497 74.9106181,154.131567 83.4873968,155.062436 C92.0665442,155.993304 125.665441,174.796606 126.602231,179.267379 C127.356637,182.870053 128.612006,189.834985 128.178549,193.590434 C128.063671,194.584071 127.837467,195.359794 127.447829,195.797989 C125.584908,197.893035 121.782086,198.356101 119.4561,196.959798 C117.127745,195.562312 114.470151,190.617814 114.470151,190.617814 L84.3294418,179.591881" id="Stroke-31" stroke-width="1.842"></path>
                <path d="M71.6343407,188.5853 C80.5948362,187.866423 90.8379402,181.973293 90.8379402,181.973293" id="Stroke-33" stroke-width="0.583"></path>
                <path d="M67.6557671,188.512939 C68.4078044,188.613605 69.183528,188.659793 69.9770162,188.657424" id="Stroke-35" stroke-width="0.583"></path>
                <path d="M65.7625278,188.116313 C65.9863626,188.18145 66.2149346,188.240665 66.4446909,188.293959" id="Stroke-37" stroke-width="0.583"></path>
                <path d="M67.6557671,193.475201 C78.0303296,191.27712 91.7114878,182.292938 91.7114878,182.292938" id="Stroke-39" stroke-width="0.583"></path>
                <path d="M63.0641942,193.947622 C63.9180822,193.979599 64.8264486,193.926305 65.7762659,193.800768" id="Stroke-41" stroke-width="0.583"></path>
                <path d="M60.7071788,193.590316 C60.9925977,193.674402 61.2898597,193.741908 61.5965962,193.796386" id="Stroke-43" stroke-width="0.583"></path>
                <path d="M69.4460897,203.474692 C69.0730318,203.569437 68.6976053,203.647601 68.3233631,203.711554" id="Stroke-45" stroke-width="0.583"></path>
                <path d="M72.6844691,202.306606 C71.9750669,202.637029 71.2609275,202.922448 70.5408666,203.158126" id="Stroke-47" stroke-width="0.583"></path>
                <path d="M92.517056,182.586766 C92.517056,182.586766 84.1368729,196.036983 74.1353683,201.56653" id="Stroke-49" stroke-width="0.583"></path>
                <path d="M125.112131,90.6616283 C111.490189,88.8141035 108.576784,81.187142 112.508696,74.4472293 C115.19116,69.8497348 129.42776,74.4472293 129.42776,74.4472293 C129.42776,74.4472293 134.317779,78.8635242 131.278837,84.1372602 C128.24108,89.4109961 125.112131,90.6616283 125.112131,90.6616283 Z" id="Stroke-51" stroke-width="0.583"></path>
                <path d="M150.045189,148.474233 C150.045189,148.474233 148.751922,144.664305 145.073453,141.246384" id="Stroke-53" stroke-width="0.583"></path>
                <path d="M78.158472,57.3517031 C77.8754217,57.5542202 77.5817126,57.7460786 77.2785291,57.9249095" id="Stroke-55" stroke-width="0.583"></path>
                <path d="M84.5402491,48.8169674 C84.5402491,48.8169674 82.9603785,52.9975845 79.6727318,56.1028474" id="Stroke-57" stroke-width="0.583"></path>
                <path d="M72.0263476,33.1756564 C72.0263476,33.1756564 79.112079,36.8707061 87.6355638,22.6151571" id="Stroke-59" stroke-width="0.583"></path>
                <path d="M140.081464,154.99718 C140.081464,154.99718 136.012172,144.860664 131.190843,149.059046 C128.349682,151.534255 129.197648,158.818951 134.403878,166.113121" id="Stroke-61" stroke-width="0.583"></path>
                <path d="M136.631449,107.933025 C137.822865,108.323847 139.329308,108.551235 141.219469,108.435172" id="Stroke-63" stroke-width="0.583"></path>
                <path d="M132.562749,104.768073 C132.562749,104.768073 133.246096,106.306492 135.352985,107.398427" id="Stroke-65" stroke-width="0.583"></path>
                <path d="M139.63036,140.581394 C139.63036,140.581394 139.985654,139.438534 139.687207,137.197818" id="Stroke-67" stroke-width="0.583"></path>
                <path d="M135.977946,132.821434 C135.977946,132.821434 133.61643,131.941491 132.78386,132.075319" id="Stroke-69" stroke-width="0.583"></path>
                <path d="M97.5815242,156.700219 C97.4334854,156.857732 97.2878151,156.984454 97.1468822,157.07683" id="Stroke-71" stroke-width="0.583"></path>
                <path d="M99.5523358,153.435903 C99.191121,154.197415 98.8239847,154.90208 98.4627699,155.494235" id="Stroke-73" stroke-width="0.583"></path>
                <path d="M102.846259,144.860664 C102.846259,144.860664 101.683266,148.522553 100.256172,151.864678" id="Stroke-75" stroke-width="0.583"></path>
                <path d="M113.507307,150.455467 C113.507307,150.455467 109.716328,164.098727 107.14282,165.408575" id="Stroke-77" stroke-width="0.583"></path>
                <path d="M150.042821,219.634731 C150.087825,220.337027 150.090193,221.068931 150.045189,221.831628" id="Stroke-79" stroke-width="0.583"></path>
                <path d="M149.256438,215.623234 C149.531198,216.429749 149.745559,217.283637 149.885307,218.188451" id="Stroke-81" stroke-width="0.583"></path>
                <path d="M127.292329,182.862118 C127.292329,182.862118 130.294557,196.683025 134.83402,200.999838 C138.160749,204.164316 145.173053,207.32761 148.394379,213.596167" id="Stroke-83" stroke-width="0.583"></path>
                <path d="M134.380784,71.5270742 C134.380784,71.5270742 137.766729,67.0456422 143.53906,67.5347625 C148.334334,67.9421655 150.014871,68.8671122 153.398447,72.4034642" id="Stroke-85" stroke-width="0.583"></path>
                <path d="M88.3581118,99.3606279 C88.3581118,99.3606279 90.4022322,103.626515 92.5174113,103.551904" id="Stroke-87" stroke-width="0.583"></path>
                <path d="M128.178193,193.590316 C128.178193,193.590316 127.706838,189.82776 125.061087,191.735685 C123.098684,193.152121 122.923406,195.576405 123.328441,197.75909" id="Stroke-89" stroke-width="0.583"></path>
                <path d="M35.7880955,428.540048 C35.6151862,429.384462 35.4103004,430.264405 35.1722539,431.179877" id="Stroke-91" stroke-width="1.842"></path>
                <path d="M36.5768465,420.013958 C36.6443522,421.565405 36.5803995,423.288577 36.3411687,425.21782" id="Stroke-93" stroke-width="1.842"></path>
                <path d="M142.351788,324.552587 C134.536521,321.844068 122.723021,315.293645 98.0455372,302.794429 C59.9249415,283.48661 74.4836741,279.791561 74.4836741,279.791561 C74.4836741,279.791561 68.0114156,279.195852 67.0213318,283.65123 C66.031248,288.107791 62.895193,298.111664 60.9150254,302.928256 C58.9348577,307.744848 45.0736843,336.128041 43.4239393,337.943589 C41.7730101,339.759137 39.1331814,341.079644 39.1331814,341.079644 C39.1331814,341.079644 33.6877204,340.749221 29.5615816,348.17485 C25.4354428,355.600479 21.3104883,370.947962 21.4762918,371.773427 C21.640911,372.597707 22.9602332,382.333926 24.776966,387.944006 C26.5913301,393.555271 29.7262008,399.990815 31.0478916,404.776615 C31.868619,407.756341 34.9951995,410.609346 36.1605613,416.479975" id="Stroke-95" stroke-width="1.842"></path>
                <path d="M149.109465,326.054411 C148.08859,325.98809 147.036922,325.83413 145.916564,325.585424" id="Stroke-97" stroke-width="1.842"></path>
                <path d="M152.99661,325.897135 C152.488541,325.968194 151.986393,326.020303 151.486614,326.053464" id="Stroke-99" stroke-width="1.842"></path>
                <path d="M140.117349,302.001533 C140.138666,301.902051 158.277571,310.714508 158.111767,325.40233 C158.111767,325.40233 158.111767,333.653423 152.996729,345.204006 C147.88169,356.755774 134.515559,393.720482 134.844797,396.195692 C135.17522,398.670901 135.162193,401.971575 134.838876,403.62132 C134.515559,405.272249 135.162193,412.862497 134.838876,415.007284 C134.515559,417.153255 133.68891,427.054093 133.68891,428.539219" id="Stroke-101" stroke-width="1.842"></path>
                <path d="M22.4969309,378.008468 C22.4969309,378.008468 19.9909292,390.750467 16.8548743,393.554915 C13.7200036,396.360548 9.09882292,403.456938 6.78823257,408.241553 C4.47882654,413.027353 0.517306952,426.559288 0.517306952,426.559288" id="Stroke-103" stroke-width="0.875"></path>
                <path d="M39.92513,340.662174 C38.698184,344.694753 41.8851643,348.613637 44.8281766,351.630077 C49.5997648,356.522464 54.5513682,361.538021 60.8507173,364.184955 C64.347987,365.654685 68.1602835,366.343954 71.5284633,368.088444 C74.3198839,369.533303 76.6967956,371.648482 79.110421,373.662995 C85.7390085,379.19491 92.8685594,384.12638 100.384196,388.374503 C102.725578,389.698563 105.138019,390.969328 107.752977,391.60175 C111.85543,392.595387 116.244486,391.967702 120.298382,393.149644 C123.183363,393.992874 125.806611,395.730257 128.785153,396.127002 C131.764879,396.523746 133.689384,397.381187 135.120031,394.541209" id="Stroke-105" stroke-width="1.842"></path>
                <path d="M35.5347715,342.405125 C34.8277379,342.547242 34.5541621,343.421263 34.5754797,344.14014 C34.6050875,345.047322 34.8822162,345.927265 35.2138232,346.771678 C38.0905141,354.097825 44.8173994,359.080221 51.2197835,363.657582 C54.5417753,366.032125 57.8625827,368.406668 61.1822059,370.780027 C64.8204086,373.380773 68.4621643,375.985073 72.3088057,378.261318 C76.1755804,380.549406 80.2318449,382.497598 84.2833721,384.442236 C92.6078926,388.439285 100.932413,392.43515 109.256934,396.432198 C112.135993,397.813105 115.045845,399.205854 118.162951,399.893939 C122.656226,400.882838 127.436104,400.373585 131.796737,401.838577 C132.491927,402.071886 133.220278,402.35849 133.93797,402.205714 C134.655663,402.052937 135.273873,401.222736 134.909105,400.585576" id="Stroke-107" stroke-width="0.583"></path>
                <path d="M128.179378,190.172632 C135.059039,189.098462 141.926857,187.249753 148.673876,184.580316 C197.761189,165.157619 221.809804,109.620549 202.387107,60.5344199 C182.965595,11.4471064 127.42734,-12.6015085 78.3400268,6.82118844 L83.0666112,24.2092394" id="Stroke-109" stroke-width="1.842"></path>
                <path d="M118.600791,154.933583 L124.516423,176.698846" id="Stroke-111" stroke-width="1.842"></path>
                <path d="M101.190001,90.8830944 L108.274548,116.946222" id="Stroke-113" stroke-width="1.842"></path>
                <path d="M88.4494222,44.0119817 L93.3915511,62.1911523" id="Stroke-115" stroke-width="1.842"></path>
                <path d="M128.880253,186.091141 L129.502016,189.722238" id="Stroke-117" stroke-width="0.319"></path>
                <path d="M130.420804,187.101951 L130.864921,189.478862" id="Stroke-119" stroke-width="0.319"></path>
                <path d="M131.744982,186.844718 L132.222259,189.214524" id="Stroke-121" stroke-width="0.319"></path>
                <path d="M133.06466,186.5683 L133.577466,188.931" id="Stroke-123" stroke-width="0.319"></path>
                <path d="M134.380784,186.272696 L134.926752,188.62829" id="Stroke-125" stroke-width="0.319"></path>
                <path d="M135.561661,184.685364 L136.452262,188.260799" id="Stroke-127" stroke-width="0.319"></path>
                <path d="M137.173863,185.578809 L137.792073,187.915454" id="Stroke-129" stroke-width="0.319"></path>
                <path d="M138.474947,185.223752 L139.127502,187.552107" id="Stroke-131" stroke-width="0.319"></path>
                <path d="M139.770346,184.850813 L140.456062,187.169693" id="Stroke-133" stroke-width="0.319"></path>
                <path d="M141.061008,184.45928 L141.779884,186.767501" id="Stroke-135" stroke-width="0.319"></path>
                <path d="M142.121558,182.789757 L143.275077,186.289395" id="Stroke-137" stroke-width="0.319"></path>
                <path d="M143.796292,183.561809 L144.585043,185.847529" id="Stroke-139" stroke-width="0.319"></path>
                <path d="M145.067413,183.113073 L145.889324,185.38695" id="Stroke-141" stroke-width="0.319"></path>
                <path d="M146.332612,182.645744 L147.187684,184.907778" id="Stroke-143" stroke-width="0.319"></path>
                <path d="M147.590942,182.160059 L148.477991,184.409065" id="Stroke-145" stroke-width="0.319"></path>
                <path d="M148.51731,180.395672 L149.923087,183.800566" id="Stroke-147" stroke-width="0.319"></path>
                <path d="M150.242969,181.039345 L151.197524,183.261112" id="Stroke-149" stroke-width="0.319"></path>
                <path d="M151.48389,180.513156 L152.470421,182.720711" id="Stroke-151" stroke-width="0.319"></path>
                <path d="M152.708704,179.949898 L153.726027,182.143241" id="Stroke-153" stroke-width="0.319"></path>
                <path d="M153.924281,179.363546 L154.972396,181.541493" id="Stroke-155" stroke-width="0.319"></path>
                <path d="M154.733757,177.566235 L156.384687,180.859804" id="Stroke-157" stroke-width="0.319"></path>
                <path d="M156.505605,178.092425 L157.620041,180.238396" id="Stroke-159" stroke-width="0.319"></path>
                <path d="M157.689915,177.447094 L158.835144,179.576485" id="Stroke-161" stroke-width="0.319"></path>
                <path d="M158.874226,176.801763 L160.050247,178.914573" id="Stroke-163" stroke-width="0.319"></path>
                <path d="M160.058537,176.156906 L161.26535,178.251951" id="Stroke-165" stroke-width="0.319"></path>
                <path d="M160.716659,174.276931 L162.606819,177.43904" id="Stroke-167" stroke-width="0.319"></path>
                <path d="M162.517403,174.661476 L163.788169,176.718624" id="Stroke-169" stroke-width="0.319"></path>
                <path d="M163.668198,173.958943 L164.969755,175.997142" id="Stroke-171" stroke-width="0.319"></path>
                <path d="M164.794714,173.218157 L166.124695,175.237407" id="Stroke-173" stroke-width="0.319"></path>
                <path d="M165.91069,172.46008 L167.269095,174.459196" id="Stroke-175" stroke-width="0.319"></path>
                <path d="M166.446236,170.565064 L168.567336,173.576766" id="Stroke-177" stroke-width="0.319"></path>
                <path d="M168.272443,170.818269 L169.693616,172.773567" id="Stroke-179" stroke-width="0.319"></path>
                <path d="M169.349218,170.005832 L170.799999,171.940996" id="Stroke-181" stroke-width="0.319"></path>
                <path d="M170.425875,169.193869 L171.903895,171.107715" id="Stroke-183" stroke-width="0.319"></path>
                <path d="M171.499216,168.377405 L173.004475,170.268749" id="Stroke-185" stroke-width="0.319"></path>
                <path d="M171.868129,166.419384 L174.210696,169.262914" id="Stroke-187" stroke-width="0.319"></path>
                <path d="M173.708193,166.532722 L175.271483,168.376694" id="Stroke-189" stroke-width="0.319"></path>
                <path d="M174.743399,165.668768 L176.335112,167.489053" id="Stroke-191" stroke-width="0.319"></path>
                <path d="M175.740352,164.761467 L177.35812,166.558067" id="Stroke-193" stroke-width="0.319"></path>
                <path d="M176.731501,163.847179 L178.376509,165.620093" id="Stroke-195" stroke-width="0.319"></path>
                <path d="M176.980088,161.896619 L179.528725,164.556581" id="Stroke-197" stroke-width="0.319"></path>
                <path d="M178.817902,161.865472 L180.517388,163.586276" id="Stroke-199" stroke-width="0.319"></path>
                <path d="M179.762745,160.903693 L181.487101,162.599626" id="Stroke-201" stroke-width="0.319"></path>
                <path d="M180.707706,159.942033 L182.456933,161.611911" id="Stroke-203" stroke-width="0.319"></path>
                <path d="M181.638693,158.966516 L183.411606,160.610339" id="Stroke-205" stroke-width="0.319"></path>
                <path d="M181.712712,156.979006 L184.455576,159.438819" id="Stroke-207" stroke-width="0.319"></path>
                <path d="M183.55171,156.81711 L185.375549,158.404087" id="Stroke-209" stroke-width="0.319"></path>
                <path d="M184.444562,155.806775 L186.292087,157.366512" id="Stroke-211" stroke-width="0.319"></path>
                <path d="M185.291107,154.756647 L187.15995,156.289145" id="Stroke-213" stroke-width="0.319"></path>
                <path d="M186.136587,153.706518 L188.029116,155.211777" id="Stroke-215" stroke-width="0.319"></path>
                <path d="M186.092649,151.743286 L189.013159,153.989924" id="Stroke-217" stroke-width="0.319"></path>
                <path d="M187.896828,151.430983 L189.835545,152.877027" id="Stroke-219" stroke-width="0.319"></path>
                <path d="M188.690198,150.340352 L190.649048,151.757972" id="Stroke-221" stroke-width="0.319"></path>
                <path d="M189.483568,149.24972 L191.462551,150.638916" id="Stroke-223" stroke-width="0.319"></path>
                <path d="M190.250409,148.141205 L192.249525,149.500794" id="Stroke-225" stroke-width="0.319"></path>
                <path d="M190.029535,146.166367 L193.109927,148.18917" id="Stroke-227" stroke-width="0.319"></path>
                <path d="M191.827911,145.733264 L193.868478,147.031269" id="Stroke-229" stroke-width="0.319"></path>
                <path d="M192.553064,144.596918 L194.611396,145.864131" id="Stroke-231" stroke-width="0.319"></path>
                <path d="M193.235464,143.434043 L195.312745,144.671648" id="Stroke-233" stroke-width="0.319"></path>
                <path d="M193.917864,142.27105 L196.01291,143.479047" id="Stroke-235" stroke-width="0.319"></path>
                <path d="M193.584717,140.337307 L196.807227,142.124432" id="Stroke-237" stroke-width="0.319"></path>
                <path d="M195.31843,139.75735 L197.450189,140.90021" id="Stroke-239" stroke-width="0.319"></path>
                <path d="M195.944101,138.562026 L198.090073,139.674093" id="Stroke-241" stroke-width="0.319"></path>
                <path d="M196.568707,137.367293 L198.731258,138.448569" id="Stroke-243" stroke-width="0.319"></path>
                <path d="M197.160862,136.155861 L199.33881,137.206345" id="Stroke-245" stroke-width="0.319"></path>
                <path d="M196.653148,134.235383 L199.996458,135.782093" id="Stroke-247" stroke-width="0.319"></path>
                <path d="M198.368267,133.542561 L200.577007,134.526723" id="Stroke-249" stroke-width="0.319"></path>
                <path d="M198.918735,132.312062 L201.141686,133.264248" id="Stroke-251" stroke-width="0.319"></path>
                <path d="M199.424199,131.061193 L201.660177,131.982587" id="Stroke-253" stroke-width="0.319"></path>
                <path d="M199.930728,129.810916 L202.17855,130.700334" id="Stroke-255" stroke-width="0.319"></path>
                <path d="M199.318913,127.945982 L202.766442,129.246355" id="Stroke-257" stroke-width="0.319"></path>
                <path d="M200.950894,127.120873 L203.225955,127.9416" id="Stroke-259" stroke-width="0.319"></path>
                <path d="M201.39501,125.84691 L203.68073,126.635661" id="Stroke-261" stroke-width="0.319"></path>
                <path d="M201.839127,124.573539 L204.135505,125.329129" id="Stroke-263" stroke-width="0.319"></path>
                <path d="M202.249609,123.289154 L204.556646,124.011583" id="Stroke-265" stroke-width="0.319"></path>
                <path d="M201.466661,121.463539 L205.000644,122.506916" id="Stroke-267" stroke-width="0.319"></path>
                <path d="M203.062757,120.528407 L205.391112,121.179778" id="Stroke-269" stroke-width="0.319"></path>
                <path d="M203.427051,119.230284 L205.76488,119.84731" id="Stroke-271" stroke-width="0.319"></path>
                <path d="M203.743972,117.919844 L206.090092,118.502525" id="Stroke-273" stroke-width="0.319"></path>
                <path d="M204.060775,116.60893 L206.415185,117.157266" id="Stroke-275" stroke-width="0.319"></path>
                <path d="M203.18178,114.854966 L206.783269,115.631874" id="Stroke-277" stroke-width="0.319"></path>
                <path d="M204.671524,113.797376 L207.042515,114.272285" id="Stroke-279" stroke-width="0.319"></path>
                <path d="M204.92473,112.472488 L207.301642,112.914236" id="Stroke-281" stroke-width="0.319"></path>
                <path d="M205.17687,111.148192 L207.560887,111.55441" id="Stroke-283" stroke-width="0.319"></path>
                <path d="M205.386256,109.816434 L207.776195,110.187123" id="Stroke-285" stroke-width="0.319"></path>
                <path d="M204.344181,108.127844 L207.993042,108.633545" id="Stroke-287" stroke-width="0.319"></path>
                <path d="M205.78525,106.966153 L208.184664,107.262231" id="Stroke-289" stroke-width="0.319"></path>
                <path d="M205.944895,105.627408 L208.347862,105.889141" id="Stroke-291" stroke-width="0.319"></path>
                <path d="M206.065103,104.284637 L208.471622,104.509656" id="Stroke-293" stroke-width="0.319"></path>
                <path d="M206.186613,102.941273 L208.596686,103.131947" id="Stroke-295" stroke-width="0.319"></path>
                <path d="M205.04624,101.338901 L208.722341,101.567473" id="Stroke-297" stroke-width="0.319"></path>
                <path d="M206.364615,100.070148 L208.779425,100.185027" id="Stroke-299" stroke-width="0.319"></path>
                <path d="M206.418975,98.7227581 L208.834969,98.8021069" id="Stroke-301" stroke-width="0.319"></path>
                <path d="M206.473335,97.3753677 L208.891698,97.4191872" id="Stroke-303" stroke-width="0.319"></path>
                <path d="M206.471085,96.0269115 L208.889447,96.0352016" id="Stroke-305" stroke-width="0.319"></path>
                <path d="M205.191911,94.514665 L208.875117,94.464924" id="Stroke-307" stroke-width="0.319"></path>
                <path d="M206.446806,93.1493915 L208.863985,93.0818858" id="Stroke-309" stroke-width="0.319"></path>
                <path d="M206.392446,91.8025933 L208.80844,91.6995583" id="Stroke-311" stroke-width="0.319"></path>
                <path d="M206.313808,90.4563872 L208.727434,90.3178229" id="Stroke-313" stroke-width="0.319"></path>
                <path d="M206.236354,89.1100627 L208.647611,88.9359691" id="Stroke-315" stroke-width="0.319"></path>
                <path d="M204.857698,87.698009 L208.527877,87.3711392" id="Stroke-317" stroke-width="0.319"></path>
                <path d="M205.974858,86.2447412 L208.380194,85.9948517" id="Stroke-319" stroke-width="0.319"></path>
                <path d="M205.831557,84.9037461 L208.232155,84.6195115" id="Stroke-321" stroke-width="0.319"></path>
                <path d="M205.682334,83.5638169 L208.079379,83.244053" id="Stroke-323" stroke-width="0.319"></path>
                <path d="M205.472948,82.2314673 L207.865255,81.8773583" id="Stroke-325" stroke-width="0.319"></path>
                <path d="M203.984506,80.9275411 L207.619156,80.3270955" id="Stroke-327" stroke-width="0.319"></path>
                <path d="M205.024212,79.3886476 L207.403493,78.9599271" id="Stroke-329" stroke-width="0.319"></path>
                <path d="M204.760585,78.0667199 L207.133943,77.6024701" id="Stroke-331" stroke-width="0.319"></path>
                <path d="M204.485232,76.7465687 L206.850301,76.2491582" id="Stroke-333" stroke-width="0.319"></path>
                <path d="M204.209999,75.426299 L206.567961,74.8933592" id="Stroke-335" stroke-width="0.319"></path>
                <path d="M202.630128,74.2367773 L206.209115,73.3663089" id="Stroke-337" stroke-width="0.319"></path>
                <path d="M203.52073,72.6327468 L205.862112,72.0275639" id="Stroke-339" stroke-width="0.319"></path>
                <path d="M203.180714,71.3275178 L205.512622,70.6891743" id="Stroke-341" stroke-width="0.319"></path>
                <path d="M202.830276,70.0258419 L205.15271,69.3531533" id="Stroke-343" stroke-width="0.319"></path>
                <path d="M202.426663,68.7386145 L204.738438,68.0339495" id="Stroke-345" stroke-width="0.319"></path>
                <path d="M200.763536,67.6682344 L204.27028,66.5360333" id="Stroke-347" stroke-width="0.319"></path>
                <path d="M201.566143,65.991724 L203.8566,65.2160004" id="Stroke-349" stroke-width="0.319"></path>
                <path d="M201.106986,64.7241562 L203.3856,63.9152719" id="Stroke-351" stroke-width="0.319"></path>
                <path d="M200.640841,63.4583648 L202.907612,62.6186885" id="Stroke-353" stroke-width="0.319"></path>
                <path d="M200.175999,62.192455 L202.429743,61.319618" id="Stroke-355" stroke-width="0.319"></path>
                <path d="M198.437668,61.2470197 L201.852036,59.8625604" id="Stroke-357" stroke-width="0.319"></path>
                <path d="M199.084183,59.5295322 L201.313056,58.5891894" id="Stroke-359" stroke-width="0.319"></path>
                <path d="M198.557994,58.287427 L200.772655,57.3162922" id="Stroke-361" stroke-width="0.319"></path>
                <path d="M198.022448,57.0498223 L200.221714,56.046711" id="Stroke-363" stroke-width="0.319"></path>
                <path d="M197.436096,55.83543 L199.62115,54.8015267" id="Stroke-365" stroke-width="0.319"></path>
                <path d="M195.635352,55.018374 L198.938394,53.3887623" id="Stroke-367" stroke-width="0.319"></path>
                <path d="M196.184635,53.2436843 L198.336528,52.1434595" id="Stroke-369" stroke-width="0.319"></path>
                <path d="M195.546291,52.0558205 L197.683972,50.9236194" id="Stroke-371" stroke-width="0.319"></path>
                <path d="M194.90096,50.8715098 L197.020877,49.7097009" id="Stroke-373" stroke-width="0.319"></path>
                <path d="M194.255511,49.687199 L196.358847,48.494598" id="Stroke-375" stroke-width="0.319"></path>
                <path d="M192.398156,49.0065756 L195.573294,47.1365488" id="Stroke-377" stroke-width="0.319"></path>
                <path d="M192.786729,47.2128184 L194.852167,45.9562647" id="Stroke-379" stroke-width="0.319"></path>
                <path d="M192.084669,46.0620236 L194.131158,44.7746778" id="Stroke-381" stroke-width="0.319"></path>
                <path d="M191.368754,44.9188084 L193.397478,43.6018549" id="Stroke-383" stroke-width="0.319"></path>
                <path d="M190.611268,43.8038983 L192.618675,42.4573369" id="Stroke-385" stroke-width="0.319"></path>
                <path d="M188.711042,43.2614839 L191.736956,41.1605166" id="Stroke-387" stroke-width="0.319"></path>
                <path d="M188.993263,41.4236704 L190.958035,40.0155249" id="Stroke-389" stroke-width="0.319"></path>
                <path d="M188.181299,40.3468951 L190.125938,38.9103261" id="Stroke-391" stroke-width="0.319"></path>
                <path d="M187.369454,39.2707119 L189.292775,37.8057194" id="Stroke-393" stroke-width="0.319"></path>
                <path d="M186.556425,38.1939365 L188.458428,36.7005206" id="Stroke-395" stroke-width="0.319"></path>
                <path d="M184.613326,37.8031139 L187.472253,35.4806805" id="Stroke-397" stroke-width="0.319"></path>
                <path d="M184.731284,35.9693271 L186.58473,34.41788" id="Stroke-399" stroke-width="0.319"></path>
                <path d="M183.867447,34.9342395 L185.698392,33.3555532" id="Stroke-401" stroke-width="0.319"></path>
                <path d="M182.982649,33.917035 L184.789907,32.3111095" id="Stroke-403" stroke-width="0.319"></path>
                <path d="M182.068953,32.9258853 L183.852525,31.293905" id="Stroke-405" stroke-width="0.319"></path>
                <path d="M180.112116,32.6714953 L182.788659,30.1394388" id="Stroke-407" stroke-width="0.319"></path>
                <path d="M180.108563,30.8192332 L181.84121,29.1315904" id="Stroke-409" stroke-width="0.319"></path>
                <path d="M179.147495,29.8737979 L180.852903,28.1612845" id="Stroke-411" stroke-width="0.319"></path>
                <path d="M178.185243,28.9288363 L179.866964,27.1914524" id="Stroke-413" stroke-width="0.319"></path>
                <path d="M177.224174,27.983401 L178.878657,26.2211466" id="Stroke-415" stroke-width="0.319"></path>
                <path d="M175.236072,27.8965911 L177.714834,25.1703076" id="Stroke-417" stroke-width="0.319"></path>
                <path d="M175.081046,26.0623305 L176.68105,24.2491507" id="Stroke-419" stroke-width="0.319"></path>
                <path d="M174.073671,25.1660441 L175.646436,23.3291781" id="Stroke-421" stroke-width="0.319"></path>
                <path d="M173.039768,24.3009051 L174.586478,22.4415371" id="Stroke-423" stroke-width="0.319"></path>
                <path d="M171.989639,23.4548335 L173.507926,21.5729636" id="Stroke-425" stroke-width="0.319"></path>
                <path d="M170.020012,23.4941526 L172.285599,20.5890382" id="Stroke-427" stroke-width="0.319"></path>
                <path d="M169.733172,21.670314 L171.191058,19.742256" id="Stroke-429" stroke-width="0.319"></path>
                <path d="M168.64254,20.8769442 L170.073188,18.9275686" id="Stroke-431" stroke-width="0.319"></path>
                <path d="M167.551908,20.0835744 L168.954132,18.1140655" id="Stroke-433" stroke-width="0.319"></path>
                <path d="M166.460092,19.2918626 L167.832708,17.3022205" id="Stroke-435" stroke-width="0.319"></path>
                <path d="M164.478977,19.5081178 L166.520729,16.4419371" id="Stroke-437" stroke-width="0.319"></path>
                <path d="M164.052151,17.7154265 L165.361999,15.6831492" id="Stroke-439" stroke-width="0.319"></path>
                <path d="M162.924569,16.9764166 L164.204809,14.9263746" id="Stroke-441" stroke-width="0.319"></path>
                <path d="M161.769156,16.2819367 L163.020972,14.2129458" id="Stroke-443" stroke-width="0.319"></path>
                <path d="M160.605689,15.5989447 L161.826713,13.5121891" id="Stroke-445" stroke-width="0.319"></path>
                <path d="M158.664959,15.9280647 L160.473401,12.7185824" id="Stroke-447" stroke-width="0.319"></path>
                <path d="M158.106319,14.1723239 L159.263391,12.0488547" id="Stroke-449" stroke-width="0.319"></path>
                <path d="M156.911586,13.5472447 L158.037866,11.4071951" id="Stroke-451" stroke-width="0.319"></path>
                <path d="M155.716854,12.9221655 L156.812341,10.7667198" id="Stroke-453" stroke-width="0.319"></path>
                <path d="M154.518687,12.3033631 L155.582198,10.1325214" id="Stroke-455" stroke-width="0.319"></path>
                <path d="M152.590747,12.8076426 L154.158774,9.47380774" id="Stroke-457" stroke-width="0.319"></path>
                <path d="M151.904913,11.0959582 L152.904471,8.89432448" id="Stroke-459" stroke-width="0.319"></path>
                <path d="M150.681283,10.5298577 L151.64768,8.31401219" id="Stroke-461" stroke-width="0.319"></path>
                <path d="M149.435625,10.0123139 L150.37123,7.78225665" id="Stroke-463" stroke-width="0.319"></path>
                <path d="M148.185466,9.50685001 L149.09028,7.26376538" id="Stroke-465" stroke-width="0.319"></path>
                <path d="M146.312952,10.1152305 L147.634643,6.67599194" id="Stroke-467" stroke-width="0.319"></path>
                <path d="M145.505726,8.45790595 L146.340665,6.18876648" id="Stroke-469" stroke-width="0.319"></path>
                <path d="M144.232355,8.0137894 L145.035318,5.73280683" id="Stroke-471" stroke-width="0.319"></path>
                <path d="M142.958984,7.56967286 L143.728786,5.27803149" id="Stroke-473" stroke-width="0.319"></path>
                <path d="M141.683245,7.13064885 L142.42107,4.82834868" id="Stroke-475" stroke-width="0.319"></path>
                <path d="M139.850168,7.91075437 L140.914864,4.38387684" id="Stroke-477" stroke-width="0.319"></path>
                <path d="M138.922616,6.31761949 L139.588199,3.99281742" id="Stroke-479" stroke-width="0.319"></path>
                <path d="M137.629586,5.93603456 L138.260823,3.60294231" id="Stroke-481" stroke-width="0.319"></path>
                <path d="M136.321514,5.60750675 L136.920776,3.26494001" id="Stroke-483" stroke-width="0.319"></path>
                <path d="M135.011075,5.28999302 L135.575991,2.93913611" id="Stroke-485" stroke-width="0.319"></path>
                <path d="M133.248583,6.1667383 L134.050362,2.56998644" id="Stroke-487" stroke-width="0.319"></path>
                <path d="M132.205324,4.64987304 L132.696813,2.28243578" id="Stroke-489" stroke-width="0.319"></path>
                <path d="M130.881027,4.39773328 L131.338171,2.02319015" id="Stroke-491" stroke-width="0.319"></path>
                <path d="M129.555665,4.14500135 L129.97728,1.76453667" id="Stroke-493" stroke-width="0.319"></path>
                <path d="M128.229119,3.90565214 L128.616388,1.51926591" id="Stroke-495" stroke-width="0.319"></path>
                <path d="M126.532475,4.94713505 L127.061862,1.30064214" id="Stroke-497" stroke-width="0.319"></path>
                <path d="M125.379312,3.50665784 L125.69197,1.10961281" id="Stroke-499" stroke-width="0.319"></path>
                <path d="M124.043528,3.31929987 L124.320656,0.917517596" id="Stroke-501" stroke-width="0.319"></path>
                <path d="M122.700756,3.19672371 L122.942355,0.791388497" id="Stroke-503" stroke-width="0.319"></path>
                <path d="M121.357984,3.07580558 L121.565239,0.666917434" id="Stroke-505" stroke-width="0.319"></path>
                <path d="M119.748032,4.202322 L120.001475,0.526221312" id="Stroke-507" stroke-width="0.319"></path>
                <path d="M118.488636,2.86760374 L118.61891,0.452794043" id="Stroke-509" stroke-width="0.319"></path>
                <path d="M117.141246,2.81265172 L117.235991,0.396657712" id="Stroke-511" stroke-width="0.319"></path>
                <path d="M115.793856,2.75841028 L115.854255,0.341231967" id="Stroke-513" stroke-width="0.319"></path>
                <path d="M114.446465,2.72998683 L114.471336,0.311624197" id="Stroke-515" stroke-width="0.319"></path>
                <path d="M112.925573,4.00975306 L112.900703,0.325362202" id="Stroke-517" stroke-width="0.319"></path>
                <path d="M111.568945,2.75544951 L111.516836,0.337086879" id="Stroke-519" stroke-width="0.319"></path>
                <path d="M110.220371,2.77913572 L110.133916,0.363141717" id="Stroke-521" stroke-width="0.319"></path>
                <path d="M108.874164,2.8571818 L108.750996,0.442372108" id="Stroke-523" stroke-width="0.319"></path>
                <path d="M107.527958,2.93593847 L107.369261,0.522313086" id="Stroke-525" stroke-width="0.319"></path>
                <path d="M106.105364,4.2861712 L105.802181,0.614807759" id="Stroke-527" stroke-width="0.319"></path>
                <path d="M104.66086,3.16605006 L104.427551,0.759530537" id="Stroke-529" stroke-width="0.319"></path>
                <path d="M103.319273,3.3106544 L103.050435,0.907687817" id="Stroke-531" stroke-width="0.319"></path>
                <path d="M101.978752,3.45514032 L101.674384,1.05691098" id="Stroke-533" stroke-width="0.319"></path>
                <path d="M100.642968,3.63906379 L100.304255,1.24557168" id="Stroke-535" stroke-width="0.319"></path>
                <path d="M99.3314618,5.12809774 L98.7547025,1.489895" id="Stroke-537" stroke-width="0.319"></path>
                <path d="M97.800148,4.08720699 L97.3868235,1.70555799" id="Stroke-539" stroke-width="0.319"></path>
                <path d="M96.4724172,4.32205582 L96.0247477,1.94632838" id="Stroke-541" stroke-width="0.319"></path>
                <path d="M95.1528581,4.59728964 L94.6708436,2.22866807" id="Stroke-543" stroke-width="0.319"></path>
                <path d="M93.8319963,4.87252347 L93.3156368,2.50982345" id="Stroke-545" stroke-width="0.319"></path>
                <path d="M92.6280259,6.42515491 L91.7812437,2.83906185" id="Stroke-547" stroke-width="0.319"></path>
                <path d="M91.0320487,5.53230301 L90.4422619,3.18736765" id="Stroke-549" stroke-width="0.319"></path>
                <path d="M89.7274119,5.87184491 L89.1044645,3.53638404" id="Stroke-551" stroke-width="0.319"></path>
                <path d="M88.4217093,6.21186054 L87.7644168,3.88468984" id="Stroke-553" stroke-width="0.319"></path>
                <path d="M87.1298631,6.59759057 L86.4394099,4.27989435" id="Stroke-555" stroke-width="0.319"></path>
                <path d="M86.0519034,8.26237624 L84.9422042,4.74971044" id="Stroke-557" stroke-width="0.319"></path>
                <path d="M84.3829726,7.45799235 L83.6214608,5.16279805" id="Stroke-559" stroke-width="0.319"></path>
                <path d="M83.1049829,7.88884462 L82.312679,5.60549342" id="Stroke-561" stroke-width="0.319"></path>
                <path d="M81.8397837,8.35427876 L81.014319,6.08277067" id="Stroke-563" stroke-width="0.319"></path>
                <path d="M80.5732817,8.82042348 L79.7158407,6.55957419" id="Stroke-565" stroke-width="0.319"></path>
                <path d="M128.179378,190.172632 C135.059039,189.098462 141.926857,187.249753 148.673876,184.580316 C197.761189,165.157619 221.809804,109.620549 202.387107,60.5344199 C182.965595,11.4471064 127.42734,-12.6015085 78.3400268,6.82118844" id="Stroke-567" stroke-width="1.842"></path>
                <path d="M123.652587,158.513162 L120.097286,159.47956" id="Stroke-569" stroke-width="0.319"></path>
                <path d="M122.760919,160.061175 L120.427827,160.694781" id="Stroke-571" stroke-width="0.319"></path>
                <path d="M123.091697,161.276159 L120.758605,161.91095" id="Stroke-573" stroke-width="0.319"></path>
                <path d="M123.422475,162.491736 L121.088198,163.126526" id="Stroke-575" stroke-width="0.319"></path>
                <path d="M123.752069,163.707194 L121.418976,164.341984" id="Stroke-577" stroke-width="0.319"></path>
                <path d="M125.34923,164.753295 L121.793929,165.719693" id="Stroke-579" stroke-width="0.319"></path>
                <path d="M124.457563,166.300834 L122.123286,166.935625" id="Stroke-581" stroke-width="0.319"></path>
                <path d="M124.787156,167.516293 L122.454064,168.151083" id="Stroke-583" stroke-width="0.319"></path>
                <path d="M125.117934,168.731869 L122.784842,169.36666" id="Stroke-585" stroke-width="0.319"></path>
                <path d="M125.448712,169.947446 L123.114436,170.581052" id="Stroke-587" stroke-width="0.319"></path>
                <path d="M127.044808,170.993547 L123.489507,171.959945" id="Stroke-589" stroke-width="0.319"></path>
                <path d="M126.153022,172.540968 L123.81993,173.175759" id="Stroke-591" stroke-width="0.319"></path>
                <path d="M126.4838,173.756545 L124.150708,174.391335" id="Stroke-593" stroke-width="0.319"></path>
                <path d="M126.814578,174.972003 L124.480301,175.605609" id="Stroke-595" stroke-width="0.319"></path>
                <path d="M127.14429,176.186987 L124.811198,176.821778" id="Stroke-597" stroke-width="0.319"></path>
                <path d="M105.620744,92.1726904 L102.064259,93.139088" id="Stroke-599" stroke-width="0.319"></path>
                <path d="M104.744117,93.7768394 L102.409841,94.4104457" id="Stroke-601" stroke-width="0.319"></path>
                <path d="M105.089936,95.0484339 L102.75566,95.6820402" id="Stroke-603" stroke-width="0.319"></path>
                <path d="M105.434571,96.3200284 L103.101478,96.954819" id="Stroke-605" stroke-width="0.319"></path>
                <path d="M105.780389,97.5917413 L103.447297,98.2265319" id="Stroke-607" stroke-width="0.319"></path>
                <path d="M107.39496,98.7020327 L103.839659,99.6684303" id="Stroke-609" stroke-width="0.319"></path>
                <path d="M106.518215,100.305589 L104.185123,100.94038" id="Stroke-611" stroke-width="0.319"></path>
                <path d="M106.864034,101.577776 L104.530941,102.211382" id="Stroke-613" stroke-width="0.319"></path>
                <path d="M107.209852,102.849371 L104.87676,103.482977" id="Stroke-615" stroke-width="0.319"></path>
                <path d="M107.555671,104.120965 L105.222579,104.755756" id="Stroke-617" stroke-width="0.319"></path>
                <path d="M109.170242,105.231256 L105.614941,106.197654" id="Stroke-619" stroke-width="0.319"></path>
                <path d="M108.293615,106.834813 L105.959339,107.469604" id="Stroke-621" stroke-width="0.319"></path>
                <path d="M108.639434,108.106526 L106.305157,108.741317" id="Stroke-623" stroke-width="0.319"></path>
                <path d="M108.985253,109.378713 L106.650976,110.012319" id="Stroke-625" stroke-width="0.319"></path>
                <path d="M109.329887,110.650307 L106.996795,111.283914" id="Stroke-627" stroke-width="0.319"></path>
                <path d="M110.944458,111.760007 L107.389157,112.726404" id="Stroke-629" stroke-width="0.319"></path>
                <path d="M110.067713,113.364156 L107.734621,113.998946" id="Stroke-631" stroke-width="0.319"></path>
                <path d="M110.413532,114.635868 L108.080439,115.270659" id="Stroke-633" stroke-width="0.319"></path>
                <path d="M110.75935,115.907463 L108.426258,116.542254" id="Stroke-635" stroke-width="0.319"></path>
                <path d="M111.105169,117.17965 L108.772077,117.813256" id="Stroke-637" stroke-width="0.319"></path>
                <path d="M92.2336504,42.925495 L88.6783494,43.8918926" id="Stroke-639" stroke-width="0.319"></path>
                <path d="M91.3500361,44.5012205 L89.0157596,45.136011" id="Stroke-641" stroke-width="0.319"></path>
                <path d="M91.6878016,45.7456942 L89.3547093,46.3793005" id="Stroke-643" stroke-width="0.319"></path>
                <path d="M92.0266329,46.9895759 L89.6923563,47.6243664" id="Stroke-645" stroke-width="0.319"></path>
                <path d="M92.3643983,48.2334575 L90.0313061,48.8682481" id="Stroke-647" stroke-width="0.319"></path>
                <path d="M93.9696132,49.3118909 L90.4143122,50.2782885" id="Stroke-649" stroke-width="0.319"></path>
                <path d="M93.0859989,50.888327 L90.7529066,51.5231176" id="Stroke-651" stroke-width="0.319"></path>
                <path d="M93.4237643,52.1322086 L91.0906721,52.7669992" id="Stroke-653" stroke-width="0.319"></path>
                <path d="M93.7625956,53.3766824 L91.4283191,54.0102886" id="Stroke-655" stroke-width="0.319"></path>
                <path d="M94.1003611,54.620564 L91.7672688,55.2553546" id="Stroke-657" stroke-width="0.319"></path>
                <path d="M95.7056944,55.6989974 L92.1503934,56.665395" id="Stroke-659" stroke-width="0.319"></path>
                <path d="M94.8220801,57.2754335 L92.4889878,57.9102241" id="Stroke-661" stroke-width="0.319"></path>
                <path d="M95.1597271,58.5193151 L92.8266348,59.1541057" id="Stroke-663" stroke-width="0.319"></path>
                <path d="M95.4986768,59.7631967 L93.1644003,60.3979873" id="Stroke-665" stroke-width="0.319"></path>
                <path d="M95.8363238,61.0075521 L93.5032316,61.6411583" id="Stroke-667" stroke-width="0.319"></path>
                <path d="M82.6724726,7.75063555 L79.1171716,8.71703315" id="Stroke-669" stroke-width="0.319"></path>
                <path d="M81.8362307,9.50282336 L79.5031385,10.1364296" id="Stroke-671" stroke-width="0.319"></path>
                <path d="M82.2225529,10.9224567 L79.8894606,11.5572473" id="Stroke-673" stroke-width="0.319"></path>
                <path d="M82.6088751,12.3426822 L80.2745985,12.9762885" id="Stroke-675" stroke-width="0.319"></path>
                <path d="M82.9940129,13.762434 L80.6609207,14.3972246" id="Stroke-677" stroke-width="0.319"></path>
                <path d="M84.654772,15.0408975 L81.099471,16.0072951" id="Stroke-679" stroke-width="0.319"></path>
                <path d="M83.8186485,16.7930853 L81.484372,17.4278759" id="Stroke-681" stroke-width="0.319"></path>
                <path d="M84.203668,18.2134292 L81.8705757,18.8470355" id="Stroke-683" stroke-width="0.319"></path>
                <path d="M84.5899902,19.6330625 L82.2568979,20.2678531" id="Stroke-685" stroke-width="0.319"></path>
                <path d="M84.9763123,21.053288 L82.6420358,21.6868943" id="Stroke-687" stroke-width="0.319"></path>
                <path d="M123.863157,71.5819078 L111.758316,27.0541908 C112.332707,27.0399791 112.905914,27.0328732 113.480304,27.0328732 C127.08922,27.0328732 140.299022,31.0476868 151.682617,38.6438562 C163.300706,46.3951703 172.17001,57.3926802 177.334789,70.4461537 C184.081808,87.4954918 183.783361,106.150755 176.497481,122.976259 C170.392359,137.076663 159.990558,148.478023 146.74641,155.771009 L128.754361,89.5775102" id="Stroke-689" stroke-width="1.842"></path>
                <path d="M120.040676,69.7927695 L123.597161,68.8299248" id="Stroke-691" stroke-width="0.319"></path>
                <path d="M120.88959,68.0839275 L123.223866,67.4515055" id="Stroke-693" stroke-width="0.319"></path>
                <path d="M120.517242,66.7059819 L122.850334,66.0735599" id="Stroke-695" stroke-width="0.319"></path>
                <path d="M120.143592,65.3279178 L122.477869,64.6954959" id="Stroke-697" stroke-width="0.319"></path>
                <path d="M119.770061,63.9498538 L122.104337,63.3174318" id="Stroke-699" stroke-width="0.319"></path>
                <path d="M118.124342,62.7175784 L121.680828,61.7547337" id="Stroke-701" stroke-width="0.319"></path>
                <path d="M118.974322,61.0087364 L121.308599,60.3763144" id="Stroke-703" stroke-width="0.319"></path>
                <path d="M118.600791,59.6306723 L120.935067,58.9994347" id="Stroke-705" stroke-width="0.319"></path>
                <path d="M118.228325,58.2527267 L120.562601,57.6214891" id="Stroke-707" stroke-width="0.319"></path>
                <path d="M117.854793,56.8746627 L120.18907,56.2434251" id="Stroke-709" stroke-width="0.319"></path>
                <path d="M116.209075,55.6428611 L119.76556,54.6800164" id="Stroke-711" stroke-width="0.319"></path>
                <path d="M117.059055,53.9341375 L119.393331,53.3017155" id="Stroke-713" stroke-width="0.319"></path>
                <path d="M116.685523,52.5560734 L119.0198,51.9236515" id="Stroke-715" stroke-width="0.319"></path>
                <path d="M116.313176,51.1780094 L118.646268,50.5455874" id="Stroke-717" stroke-width="0.319"></path>
                <path d="M115.939526,49.8000638 L118.273802,49.1676418" id="Stroke-719" stroke-width="0.319"></path>
                <path d="M114.293807,48.5682621 L117.850293,47.6054175" id="Stroke-721" stroke-width="0.319"></path>
                <path d="M115.143787,46.8589464 L117.47688,46.2277087" id="Stroke-723" stroke-width="0.319"></path>
                <path d="M114.770256,45.4814745 L117.104532,44.8490525" id="Stroke-725" stroke-width="0.319"></path>
                <path d="M114.396724,44.1034105 L116.731001,43.4709885" id="Stroke-727" stroke-width="0.319"></path>
                <path d="M114.024258,42.7253464 L116.358535,42.0929245" id="Stroke-729" stroke-width="0.319"></path>
                <path d="M112.37854,41.4930711 L115.935025,40.5302264" id="Stroke-731" stroke-width="0.319"></path>
                <path d="M113.227454,39.784229 L115.561731,39.1518071" id="Stroke-733" stroke-width="0.319"></path>
                <path d="M112.854988,38.406165 L115.189265,37.773743" id="Stroke-735" stroke-width="0.319"></path>
                <path d="M112.481457,37.0282194 L114.815733,36.3957974" id="Stroke-737" stroke-width="0.319"></path>
                <path d="M112.108991,35.6501554 L114.442083,35.0189177" id="Stroke-739" stroke-width="0.319"></path>
                <path d="M110.463273,34.4184721 L114.019758,33.4556275" id="Stroke-741" stroke-width="0.319"></path>
                <path d="M111.312187,32.7096301 L113.646463,32.0772081" id="Stroke-743" stroke-width="0.319"></path>
                <path d="M110.939721,31.3315661 L113.272813,30.6991441" id="Stroke-745" stroke-width="0.319"></path>
                <path d="M110.566189,29.953502 L112.900466,29.3210801" id="Stroke-747" stroke-width="0.319"></path>
                <path d="M110.192658,28.5755564 L112.526934,27.9431345" id="Stroke-749" stroke-width="0.319"></path>
                <path d="M143.112826,155.009378 L146.669311,154.046534" id="Stroke-751" stroke-width="0.319"></path>
                <path d="M143.99644,153.429508 L146.330717,152.797086" id="Stroke-753" stroke-width="0.319"></path>
                <path d="M143.658675,152.180415 L145.992952,151.547993" id="Stroke-755" stroke-width="0.319"></path>
                <path d="M143.319844,150.930731 L145.65412,150.299493" id="Stroke-757" stroke-width="0.319"></path>
                <path d="M142.982078,149.681756 L145.316355,149.049334" id="Stroke-759" stroke-width="0.319"></path>
                <path d="M141.375679,148.595743 L144.932164,147.632899" id="Stroke-761" stroke-width="0.319"></path>
                <path d="M142.260359,147.015873 L144.594636,146.383451" id="Stroke-763" stroke-width="0.319"></path>
                <path d="M141.921528,145.766188 L144.255805,145.13495" id="Stroke-765" stroke-width="0.319"></path>
                <path d="M141.583763,144.517095 L143.918039,143.884674" id="Stroke-767" stroke-width="0.319"></path>
                <path d="M141.244931,143.268003 L143.579208,142.635581" id="Stroke-769" stroke-width="0.319"></path>
                <path d="M139.639598,142.18199 L143.196083,141.219145" id="Stroke-771" stroke-width="0.319"></path>
                <path d="M140.523212,140.602238 L142.857489,139.969816" id="Stroke-773" stroke-width="0.319"></path>
                <path d="M140.185565,139.352553 L142.519842,138.721315" id="Stroke-775" stroke-width="0.319"></path>
                <path d="M139.846615,138.10346 L142.180892,137.471038" id="Stroke-777" stroke-width="0.319"></path>
                <path d="M139.508968,136.854368 L141.843245,136.221946" id="Stroke-779" stroke-width="0.319"></path>
                <path d="M137.902451,135.768355 L141.458936,134.80551" id="Stroke-781" stroke-width="0.319"></path>
                <path d="M138.787249,134.187892 L141.121526,133.556654" id="Stroke-783" stroke-width="0.319"></path>
                <path d="M138.448418,132.9388 L140.782695,132.306378" id="Stroke-785" stroke-width="0.319"></path>
                <path d="M138.110653,131.689825 L140.444929,131.057403" id="Stroke-787" stroke-width="0.319"></path>
                <path d="M137.773006,130.440733 L140.106098,129.808311" id="Stroke-789" stroke-width="0.319"></path>
                <path d="M136.166488,129.35472 L139.722973,128.391875" id="Stroke-791" stroke-width="0.319"></path>
                <path d="M137.050102,127.774257 L139.384379,127.143019" id="Stroke-793" stroke-width="0.319"></path>
                <path d="M136.712455,126.525164 L139.046732,125.892742" id="Stroke-795" stroke-width="0.319"></path>
                <path d="M136.37469,125.276072 L138.707782,124.64365" id="Stroke-797" stroke-width="0.319"></path>
                <path d="M136.035859,124.026506 L138.370135,123.395268" id="Stroke-799" stroke-width="0.319"></path>
                <path d="M134.429341,122.941085 L137.985826,121.97824" id="Stroke-801" stroke-width="0.319"></path>
                <path d="M135.31414,121.360622 L137.648416,120.7282" id="Stroke-803" stroke-width="0.319"></path>
                <path d="M134.976374,120.111529 L137.309466,119.479107" id="Stroke-805" stroke-width="0.319"></path>
                <path d="M134.637543,118.862437 L136.971819,118.230015" id="Stroke-807" stroke-width="0.319"></path>
                <path d="M134.299896,117.612752 L136.634172,116.981514" id="Stroke-809" stroke-width="0.319"></path>
                <path d="M132.693378,116.527331 L136.249864,115.564487" id="Stroke-811" stroke-width="0.319"></path>
                <path d="M133.578177,114.946987 L135.911269,114.314565" id="Stroke-813" stroke-width="0.319"></path>
                <path d="M133.239227,113.697894 L135.573504,113.065472" id="Stroke-815" stroke-width="0.319"></path>
                <path d="M132.90158,112.44821 L135.235857,111.816972" id="Stroke-817" stroke-width="0.319"></path>
                <path d="M132.562749,111.199117 L134.897025,110.566695" id="Stroke-819" stroke-width="0.319"></path>
                <path d="M130.957416,110.113104 L134.513901,109.150259" id="Stroke-821" stroke-width="0.319"></path>
                <path d="M131.84103,108.533233 L134.175306,107.900811" id="Stroke-823" stroke-width="0.319"></path>
                <path d="M131.503264,107.284141 L133.837541,106.651719" id="Stroke-825" stroke-width="0.319"></path>
                <path d="M131.164433,106.034574 L133.49871,105.403337" id="Stroke-827" stroke-width="0.319"></path>
                <path d="M130.826668,104.785482 L133.160944,104.15306" id="Stroke-829" stroke-width="0.319"></path>
                <path d="M129.220268,103.699469 L132.776754,102.736624" id="Stroke-831" stroke-width="0.319"></path>
                <path d="M130.105067,102.119598 L132.439344,101.487176" id="Stroke-833" stroke-width="0.319"></path>
                <path d="M129.766117,100.869914 L132.100394,100.238676" id="Stroke-835" stroke-width="0.319"></path>
                <path d="M129.42847,99.620821 L131.762747,98.9895833" id="Stroke-837" stroke-width="0.319"></path>
                <path d="M129.089521,98.3717284 L131.423797,97.7393064" id="Stroke-839" stroke-width="0.319"></path>
                <path d="M127.484306,97.2858338 L131.040791,96.3229892" id="Stroke-841" stroke-width="0.319"></path>
                <path d="M128.36792,95.7059632 L130.702197,95.0735413" id="Stroke-843" stroke-width="0.319"></path>
                <path d="M128.030155,94.4562785 L130.364431,93.8250409" id="Stroke-845" stroke-width="0.319"></path>
                <path d="M127.691323,93.2071859 L130.0256,92.574764" id="Stroke-847" stroke-width="0.319"></path>
                <path d="M127.353558,91.9580933 L129.687834,91.3256714" id="Stroke-849" stroke-width="0.319"></path>
                <path d="M111.758672,27.0540724 C112.331878,27.0398606 112.906269,27.0327548 113.48066,27.0327548 C127.088391,27.0327548 140.299377,31.0475683 151.682973,38.6437377 C163.299877,46.3962362 172.170365,57.3925618 177.335144,70.4460353 C184.080979,87.4953734 183.782532,106.150637 176.497837,122.97614 C170.392715,137.076545 159.990913,148.477904 146.746765,155.77089" id="Stroke-851" stroke-width="1.842"></path>
            </g>
        </g>
    </g>
</svg>