<svg xmlns="http://www.w3.org/2000/svg" viewBox="0 0 1242.37 931.09"><defs><style>.cls-1{fill:#fff;}.cls-1,.cls-18,.cls-19,.cls-20,.cls-22{stroke:#000;stroke-miterlimit:10;}.cls-2{fill:#ffb64d;}.cls-3{fill:#4aff4a;}.cls-4{font-size:13.85px;}.cls-21,.cls-23,.cls-4,.cls-8{font-family:HelveticaNeue, Helvetica Neue;}.cls-5{letter-spacing:-0.02em;}.cls-6{letter-spacing:0em;}.cls-7{letter-spacing:-0.02em;}.cls-8{font-size:12.46px;}.cls-9{letter-spacing:-0.02em;}.cls-10{fill:#17fbff;}.cls-11{letter-spacing:-0.02em;}.cls-12{letter-spacing:-0.09em;}.cls-13{letter-spacing:0em;}.cls-14{letter-spacing:-0.07em;}.cls-15{letter-spacing:0em;}.cls-16{letter-spacing:-0.02em;}.cls-17{letter-spacing:0em;}.cls-18,.cls-19,.cls-20,.cls-22{fill:none;stroke-width:0.75px;}.cls-19{stroke-dasharray:2;}.cls-20{stroke-dasharray:2.01 2.01;}.cls-21{font-size:11.08px;}.cls-22{stroke-dasharray:1.9 1.9;}.cls-23{font-size:12.46px;}</style></defs><title>escrow-workflow</title><g id="Layer_2" data-name="Layer 2"><g id="Layer_1-2" data-name="Layer 1"><rect class="cls-1" x="0.5" y="0.5" width="1241.37" height="930.09"/><rect class="cls-2" x="976.18" y="662.73" width="32.31" height="32.31" transform="translate(-189.4 900.53) rotate(-45)"/><rect class="cls-2" x="997" y="571.27" width="32.31" height="32.31" transform="translate(-118.63 888.46) rotate(-45)"/><rect class="cls-2" x="997" y="426.99" width="32.31" height="32.31" transform="translate(-16.6 846.2) rotate(-45)"/><rect class="cls-2" x="745.85" y="395.05" width="32.31" height="32.31" transform="translate(-67.58 659.25) rotate(-45)"/><rect class="cls-2" x="451.9" y="826.28" width="32.31" height="32.31" transform="translate(-458.6 577.71) rotate(-45)"/><rect class="cls-2" x="451.9" y="826.28" width="32.31" height="32.31" transform="translate(-458.6 577.71) rotate(-45)"/><rect class="cls-2" x="625.02" y="354.38" width="32.31" height="32.31" transform="translate(-74.21 561.9) rotate(-45)"/><rect class="cls-3" x="244.06" y="178.39" width="32.31" height="32.31" transform="translate(-61.35 240.98) rotate(-45)"/><rect class="cls-3" x="783.11" y="405.08" width="16.12" height="16.12" transform="translate(-60.41 680.45) rotate(-45)"/><rect class="cls-3" x="220.5" y="686.04" width="32.31" height="32.31" transform="translate(-427.21 373.01) rotate(-45)"/><rect class="cls-3" x="976.18" y="822.57" width="32.31" height="32.31" transform="translate(-302.42 947.34) rotate(-45)"/><rect class="cls-3" x="606.79" y="708.5" width="32.31" height="32.31" transform="translate(-329.95 652.73) rotate(-45)"/><rect class="cls-3" x="130.51" y="758.73" width="32.31" height="32.31" transform="translate(-504.97 330.66) rotate(-45)"/><text class="cls-4" transform="translate(106.59 70.11)">Esc<tspan class="cls-5" x="22.82" y="0">r</tspan><tspan class="cls-6" x="27.18" y="0">ow - C</tspan><tspan class="cls-7" x="68.7" y="0">r</tspan><tspan class="cls-6" x="73.06" y="0">eative F</tspan><tspan class="cls-7" x="121.52" y="0">r</tspan><tspan x="125.88" y="0">eelance Request</tspan></text><text class="cls-4" transform="translate(130.19 108.65)">Point of Market Entry (POME): </text><text class="cls-4" transform="translate(141.21 133.04)">1. Every p<tspan class="cls-7" x="61.81" y="0">r</tspan><tspan x="66.17" y="0">oject c</tspan><tspan class="cls-7" x="107.7" y="0">r</tspan><tspan class="cls-6" x="112.06" y="0">eated should have the capacity to enable an Esc</tspan><tspan class="cls-7" x="412.12" y="0">r</tspan><tspan x="416.48" y="0">ow instance. </tspan><tspan x="0" y="16.61">2. If a user has no p</tspan><tspan class="cls-7" x="122.34" y="16.61">r</tspan><tspan x="126.7" y="16.61">ojects, Esc</tspan><tspan class="cls-7" x="194.39" y="16.61">r</tspan><tspan x="198.75" y="16.61">ow lives as a p</tspan><tspan class="cls-7" x="290.02" y="16.61">r</tspan><tspan x="294.38" y="16.61">oject.</tspan></text><text class="cls-8" transform="translate(202.28 192.95)">Set up work <tspan class="cls-9" x="70.62" y="0">r</tspan><tspan x="74.54" y="0">equest.</tspan></text><text class="cls-8" transform="translate(152.08 211.39)">Who am I paying or who is paying me?</text><text class="cls-8" transform="translate(220.86 264.97)">Set start date.</text><text class="cls-8" transform="translate(196.85 327.76)">Set expected end date</text><rect class="cls-10" x="244.06" y="372.06" width="32.31" height="32.31" transform="translate(-198.3 297.7) rotate(-45)"/><text class="cls-8" transform="translate(176.65 392.08)">Choose number of milestones</text><rect class="cls-10" x="244.06" y="560.45" width="32.31" height="32.31" transform="translate(-331.5 352.88) rotate(-45)"/><text class="cls-8" transform="translate(188.67 581.38)">How do you want to pay?</text><rect class="cls-10" x="244.06" y="686.04" width="32.31" height="32.31" transform="translate(-420.31 389.66) rotate(-45)"/><text class="cls-8" transform="translate(171.13 697.05)">Do you want to use StratusCo<tspan class="cls-9" x="167.55" y="0">r</tspan><tspan x="171.47" y="0">e</tspan><tspan x="64.62" y="14.95">storage?</tspan></text><text class="cls-8" transform="translate(308.66 453.35)">1 milestone</text><text class="cls-8" transform="translate(147.59 453.35)">(n) Milestones</text><text class="cls-8" transform="translate(310.58 634.26)">C<tspan class="cls-9" x="9" y="0">r</tspan><tspan x="12.92" y="0">edit Ca</tspan><tspan class="cls-9" x="52.85" y="0">r</tspan><tspan x="56.77" y="0">d</tspan></text><text class="cls-8" transform="translate(145.68 634.26)">StratusCo<tspan class="cls-9" x="56.07" y="0">r</tspan><tspan x="60" y="0">e</tspan><tspan x="16.03" y="14.95">Funds</tspan></text><text class="cls-8" transform="translate(188.21 830.12)">Exploding o<tspan class="cls-9" x="66.23" y="0">f</tspan><tspan x="69.69" y="0">fer generated</tspan></text><text class="cls-8" transform="translate(398.11 841.04)">Exploding o<tspan class="cls-9" x="66.23" y="0">f</tspan><tspan x="69.69" y="0">fer confirmed.</tspan><tspan x="26.65" y="14.95">User sends o</tspan><tspan class="cls-11" x="100.27" y="14.95">f</tspan><tspan x="103.74" y="14.95">fe</tspan><tspan class="cls-12" x="114.12" y="14.95">r</tspan><tspan x="117.12" y="14.95">.</tspan></text><rect class="cls-10" x="666.33" y="822.57" width="32.31" height="32.31" transform="translate(-393.17 728.24) rotate(-45)"/><text class="cls-8" transform="translate(613.37 841.06)">Exploding o<tspan class="cls-11" x="66.23" y="0">f</tspan><tspan x="69.69" y="0">fer </tspan><tspan class="cls-11" x="87.69" y="0">r</tspan><tspan x="91.61" y="0">eceived.</tspan></text><text class="cls-8" transform="translate(100.04 759.85)">User is member: <tspan x="-5.18" y="14.95">storage is included</tspan><tspan x="-7.74" y="29.91">in their membership</tspan><tspan x="38.78" y="44.86">tier</tspan></text><text class="cls-8" transform="translate(330.46 759.85)">User buys storage</text><text class="cls-8" transform="translate(228.92 759.85)">User doesn<tspan class="cls-11" x="63.92" y="0">’</tspan><tspan class="cls-13" x="67.16" y="0">t</tspan><tspan x="1.62" y="14.95">buy storage.</tspan></text><text class="cls-8" transform="translate(569.41 719.11)">Inaction: o<tspan class="cls-11" x="58.39" y="0">f</tspan><tspan x="61.85" y="0">fer goes</tspan><tspan x="37.74" y="14.95">awa</tspan><tspan class="cls-14" x="60.57" y="14.95">y</tspan><tspan class="cls-15" x="65.87" y="14.95">.</tspan></text><text class="cls-8" transform="translate(720.66 759.85)">Denies o<tspan class="cls-16" x="48.7" y="0">f</tspan><tspan x="52.16" y="0">fer w/ comments</tspan></text><text class="cls-8" transform="translate(935.43 841.06)">Use<tspan class="cls-11" x="21.92" y="0">r</tspan><tspan x="25.84" y="0">comfirms o</tspan><tspan class="cls-16" x="88.4" y="0">f</tspan><tspan class="cls-17" x="91.86" y="0">fer</tspan><tspan x="0" y="14.95">and opens esc</tspan><tspan class="cls-11" x="81.94" y="14.95">r</tspan><tspan x="85.87" y="14.95">ow account</tspan></text><text class="cls-8" transform="translate(933.5 753.59)">P<tspan class="cls-16" x="8.07" y="0">r</tspan><tspan x="12" y="0">oject is c</tspan><tspan class="cls-11" x="61.84" y="0">r</tspan><tspan x="65.77" y="0">eated w/ </tspan><tspan x="20.41" y="14.95">(n) milestones</tspan></text><rect class="cls-10" x="976.18" y="571.89" width="32.31" height="32.31" transform="translate(-125.16 873.92) rotate(-45)"/><text class="cls-8" transform="translate(924.36 590.38)">E-mail p<tspan class="cls-11" x="46.17" y="0">r</tspan><tspan x="50.09" y="0">ompts a choice</tspan></text><text class="cls-8" transform="translate(883.37 510.68)">Need mo<tspan class="cls-11" x="51.01" y="0">r</tspan><tspan x="54.94" y="0">e time</tspan><tspan x="0" y="14.95">w/ milestone</tspan></text><text class="cls-8" transform="translate(1035.61 510.68)">Milestone Complete</text><rect class="cls-10" x="979.83" y="427.42" width="32.31" height="32.31" transform="translate(-21.93 834.19) rotate(-45)"/><text class="cls-8" transform="translate(949.38 445.91)">Milestone <tspan class="cls-11" x="57.47" y="0">r</tspan><tspan x="61.39" y="0">eview</tspan></text><text class="cls-8" transform="translate(1073.09 273.2)">Payment and<tspan x="-3.33" y="14.95">asset </tspan><tspan class="cls-16" x="29.9" y="14.95">r</tspan><tspan x="33.83" y="14.95">eleased</tspan></text><text class="cls-8" transform="translate(932.96 309.92)">Scrap it</text><text class="cls-8" transform="translate(956.05 250.08)">Payment back<tspan x="17.09" y="14.95">to payer</tspan></text><text class="cls-8" transform="translate(764.52 264.97)">Continue work</text><rect class="cls-10" x="899.39" y="346.97" width="32.31" height="32.31" transform="translate(11.39 753.75) rotate(-45)"/><text class="cls-8" transform="translate(894.2 365.47)">Hates it</text><text class="cls-8" transform="translate(1055.68 365.47)">Loves it</text><text class="cls-8" transform="translate(296.9 516.15)">Define milestone</text><text class="cls-8" transform="translate(130.74 516.15)">Define milestones (n)</text><line class="cls-18" x1="260.21" y1="218.58" x2="260.21" y2="246.27"/><line class="cls-18" x1="259.5" y1="277.53" x2="259.5" y2="305.23"/><line class="cls-18" x1="259.5" y1="333.84" x2="259.5" y2="361.53"/><line class="cls-18" x1="259.5" y1="731.82" x2="259.5" y2="745.66"/><line class="cls-18" x1="259.5" y1="783.97" x2="259.5" y2="811.66"/><line class="cls-18" x1="992.34" y1="774.89" x2="992.34" y2="802.58"/><line class="cls-18" x1="992.34" y1="709.66" x2="992.34" y2="737.36"/><line class="cls-18" x1="992.34" y1="620.41" x2="992.34" y2="648.11"/><line class="cls-18" x1="188.67" y1="465.79" x2="188.67" y2="493.48"/><line class="cls-18" x1="332.21" y1="465.79" x2="332.21" y2="493.48"/><line class="cls-18" x1="216.43" y1="410.69" x2="196.85" y2="430.27"/><line class="cls-18" x1="318.45" y1="430.27" x2="298.87" y2="410.69"/><line class="cls-18" x1="216.43" y1="594.47" x2="196.85" y2="614.05"/><line class="cls-18" x1="318.45" y1="614.05" x2="298.87" y2="594.47"/><line class="cls-18" x1="951.12" y1="559.82" x2="931.54" y2="540.24"/><line class="cls-18" x1="1053.14" y1="540.24" x2="1033.56" y2="559.82"/><line class="cls-19" x1="951.12" y1="413.14" x2="931.54" y2="393.56"/><line class="cls-19" x1="1053.14" y1="393.56" x2="1033.56" y2="413.14"/><line class="cls-18" x1="951.12" y1="465.79" x2="931.54" y2="485.37"/><line class="cls-18" x1="1053.14" y1="485.37" x2="1033.56" y2="465.79"/><line class="cls-18" x1="216.43" y1="551.25" x2="196.85" y2="531.67"/><line class="cls-18" x1="318.45" y1="531.67" x2="298.87" y2="551.25"/><line class="cls-18" x1="216.43" y1="676.85" x2="196.85" y2="657.26"/><line class="cls-18" x1="318.45" y1="657.26" x2="298.87" y2="676.85"/><line class="cls-18" x1="198.46" y1="727.31" x2="178.88" y2="746.89"/><line class="cls-18" x1="305.92" y1="727.31" x2="325.5" y2="746.89"/><path class="cls-19" d="M791.17,731.82s0-473.22-475.46-473.22"/><polyline class="cls-18" points="259.5 838.72 259.5 853.95 397.95 853.95"/><line class="cls-18" x1="553.44" y1="846.34" x2="554.44" y2="846.34"/><line class="cls-20" x1="556.45" y1="846.34" x2="607.78" y2="846.34"/><line class="cls-18" x1="608.79" y1="846.34" x2="609.79" y2="846.34"/><line class="cls-18" x1="632.5" y1="756.41" x2="658.25" y2="807.57"/><line class="cls-18" x1="710.17" y1="818.35" x2="755.86" y2="770.19"/><line class="cls-18" x1="315.71" y1="258.59" x2="328.27" y2="250.29"/><line class="cls-18" x1="315.71" y1="258.59" x2="328.27" y2="266.9"/><path class="cls-18" d="M872.93,529.88S776,661.95,927.47,737.1"/><path class="cls-19" d="M776.4,271.5S691.48,613,927.47,737.1"/><line class="cls-18" x1="927.47" y1="737.1" x2="909.87" y2="741.88"/><line class="cls-18" x1="927.47" y1="737.1" x2="920.12" y2="724.65"/><line class="cls-18" x1="1079.15" y1="342.3" x2="1100.85" y2="300.13"/><line class="cls-18" x1="935.16" y1="342.3" x2="946.25" y2="323.76"/><line class="cls-18" x1="830.86" y1="277.53" x2="884.92" y2="342.3"/><rect class="cls-10" x="859.95" y="108.65" width="10.52" height="10.52"/><text class="cls-21" transform="translate(885.69 115.99)">User Choice</text><rect class="cls-3" x="859.95" y="130.95" width="10.52" height="10.52"/><text class="cls-21" transform="translate(885.49 138.71)">Monetization Opportunity</text><rect class="cls-2" x="859.95" y="153.67" width="10.52" height="10.52"/><text class="cls-21" transform="translate(886.09 161.43)">Hubspot Integration</text><line class="cls-18" x1="862.01" y1="182.07" x2="863.01" y2="182.07"/><line class="cls-22" x1="864.91" y1="182.07" x2="871.55" y2="182.07"/><line class="cls-18" x1="872.5" y1="182.07" x2="873.5" y2="182.07"/><text class="cls-21" transform="translate(885.69 184.15)">User Action Change</text><text class="cls-8" transform="translate(861.5 87.88)">Key</text><rect class="cls-18" x="847.12" y="68.79" width="202.49" height="138.97"/><line class="cls-18" x1="961.3" y1="292.66" x2="971.97" y2="274.2"/><line class="cls-18" x1="854.29" y1="94.72" x2="1037.62" y2="94.72"/><text class="cls-8" transform="translate(783.15 453.99) rotate(-90)">if user extends<tspan x="-10.98" y="14.95">end date, they pay</tspan><tspan x="27.23" y="29.91">a fee</tspan></text><text class="cls-23" transform="matrix(-0.05, -1, 1, -0.05, 756.84, 466.76)">Revision of Milestones</text><line class="cls-18" x1="762" y1="838.72" x2="920.12" y2="838.72"/></g></g></svg>