<svg xmlns="http://www.w3.org/2000/svg" viewBox="0 0 269.92 167.76"><defs><style>.cls-1{fill:#fffbe0;}.cls-2{fill:#fef7b5;}.cls-3{fill:#fffdee;}.cls-4,.cls-5,.cls-6,.cls-7,.cls-8,.cls-9{fill:none;stroke-linecap:round;stroke-linejoin:round;}.cls-4,.cls-9{stroke:#333;}.cls-4,.cls-5,.cls-6,.cls-7,.cls-8{stroke-width:2.1px;}.cls-5{stroke:#231f20;}.cls-6{stroke:#e92125;}.cls-7{stroke:#f28466;}.cls-8{stroke:#ed5c40;}.cls-9{stroke-width:4.2px;}.cls-10{font-size:13.35px;fill:#333;font-family:Lato-Bold, Lato;font-weight:700;letter-spacing:0.02em;}.cls-11{letter-spacing:0.06em;}.cls-12{letter-spacing:0.06em;}.cls-13{letter-spacing:0.06em;}.cls-14{letter-spacing:0.03em;}.cls-15{letter-spacing:0.03em;}</style></defs><title>almanac-logo</title><g id="Layer_2" data-name="Layer 2"><g id="Layer_1-2" data-name="Layer 1"><rect class="cls-1" x="113.86" y="11.19" width="12.19" height="49.28"/><rect class="cls-1" x="132.9" y="33.75" width="6.65" height="28.31"/><circle class="cls-2" cx="156.89" cy="5.86" r="4.83"/><circle class="cls-1" cx="169.36" cy="18.13" r="3.62"/><circle class="cls-3" cx="146.64" cy="20.74" r="3.02"/><path class="cls-2" d="M144.06,59.18c.55-.14,17.62,0,17.62,0l11.1-20.25s-14.7-6.38-24.55,3.19S144.06,59.18,144.06,59.18Z"/><line class="cls-4" x1="110.77" y1="61.7" x2="164.94" y2="61.7"/><path class="cls-4" d="M164.94,61.7s-1.58-26.36,19.84-32.23"/><path class="cls-4" d="M164.94,61.7s9.31-27.91,35.27-28"/><path class="cls-4" d="M143,61.13a22,22,0,0,1,27.21-21.29"/><line class="cls-5" x1="119.35" y1="10.78" x2="119.35" y2="61.51"/><line class="cls-5" x1="119.16" y1="23.55" x2="110.77" y2="15.16"/><line class="cls-5" x1="120.12" y1="23.55" x2="128.51" y2="15.16"/><line class="cls-5" x1="119.16" y1="32.9" x2="110.77" y2="24.51"/><line class="cls-5" x1="120.12" y1="32.9" x2="128.51" y2="24.51"/><line class="cls-5" x1="119.16" y1="43.2" x2="110.77" y2="34.81"/><line class="cls-5" x1="120.12" y1="43.2" x2="128.51" y2="34.81"/><line class="cls-4" x1="119.35" y1="10.78" x2="119.35" y2="61.51"/><line class="cls-4" x1="119.16" y1="23.55" x2="110.77" y2="15.16"/><line class="cls-4" x1="120.12" y1="23.55" x2="128.51" y2="15.16"/><line class="cls-4" x1="119.16" y1="32.9" x2="110.77" y2="24.51"/><line class="cls-4" x1="120.12" y1="32.9" x2="128.51" y2="24.51"/><line class="cls-4" x1="119.16" y1="43.2" x2="110.77" y2="34.81"/><line class="cls-4" x1="120.12" y1="43.2" x2="128.51" y2="34.81"/><line class="cls-4" x1="136.7" y1="34.1" x2="136.7" y2="61.56"/><line class="cls-4" x1="136.59" y1="41.02" x2="132.05" y2="36.47"/><line class="cls-4" x1="137.11" y1="41.02" x2="141.65" y2="36.47"/><line class="cls-4" x1="136.59" y1="46.08" x2="132.05" y2="41.53"/><line class="cls-4" x1="137.11" y1="46.08" x2="141.65" y2="41.53"/><line class="cls-4" x1="136.59" y1="51.65" x2="132.05" y2="47.11"/><line class="cls-4" x1="137.11" y1="51.65" x2="141.65" y2="47.11"/><line class="cls-6" x1="146.25" y1="17.93" x2="146.25" y2="27.08"/><line class="cls-6" x1="142.24" y1="22.51" x2="150.25" y2="22.51"/><line class="cls-7" x1="159.4" y1="1.05" x2="159.4" y2="10.2"/><line class="cls-7" x1="155.4" y1="5.63" x2="163.41" y2="5.63"/><line class="cls-8" x1="168.56" y1="14.21" x2="168.56" y2="23.36"/><line class="cls-8" x1="164.55" y1="18.79" x2="172.56" y2="18.79"/><path class="cls-9" d="M64.89,127.84c2.44-20.93,4-50.66-6.29-52.14-16-2.31-28.68,89.85-50.46,90-8.74,0-13.57-16.34,26.09-42.16,14.05-9.15,32.41-9.71,41.78-22.87C94.3,74.93,98.24,48.56,90.82,47.76c-8.59-.92-26.37,55.26-10.2,55.42,10.17.1,11.64-17.14,19.93-19.62,6.68-2,4.53,9.68,2.37,17.13"/><path class="cls-9" d="M105.12,85.73c1.53-2.67,13.75-14.29,9.14,13.65"/><path class="cls-9" d="M115.23,85.74s3-7.31,7.57-5.71c8.34,2.91-4,17.83,7.29,16.6,8.16-.89,5.72-24.5,19.54-20.38"/><path class="cls-9" d="M150.62,76.24s-3,16.78,4.46,15.93,5.17-19,13.18-19.25,4.65,17.65,4.65,17.65"/><path class="cls-9" d="M136.59,87.67c-2.86,10.15,13.72,10,14-11.43"/><path class="cls-9" d="M194.39,81.44C191.53,91.59,208,90,208.42,70"/><path class="cls-9" d="M173.5,81.8s.59-12.11,8.79-10.19.17,16.59,5.32,16.69c10.49.2,4.13-23.45,20.72-19.81"/><path class="cls-9" d="M208.27,69.11s-.16,27.43,9.53,7.35c10.21-21.15,15.52-9.52,15.52-9.52"/><path class="cls-9" d="M221.14,70.55c-5.64,7.62,9.31,28.62,46.68-14.25"/><text class="cls-10" transform="translate(116.96 117.32)">M<tspan class="cls-11" x="12.68" y="0">E</tspan><tspan class="cls-12" x="21.13" y="0">T</tspan><tspan class="cls-13" x="29.8" y="0">RI</tspan><tspan class="cls-14" x="44.34" y="0">C</tspan><tspan class="cls-15" x="53.76" y="0">S</tspan></text></g></g></svg>