<svg xmlns="http://www.w3.org/2000/svg" viewBox="0 0 117.2 117.2"><defs><style>.cls-1,.cls-6{fill:none;}.cls-1,.cls-2,.cls-3,.cls-5,.cls-6{stroke:#383838;}.cls-1{stroke-miterlimit:10;stroke-width:2.2px;}.cls-2{fill:#ff5c64;}.cls-2,.cls-3,.cls-5,.cls-6{stroke-linecap:round;stroke-linejoin:round;stroke-width:1.59px;}.cls-3{fill:#fff;}.cls-4{fill:#383838;}.cls-5{fill:#60e4f5;}</style></defs><title>Asset 4</title><g id="Layer_2" data-name="Layer 2"><g id="Layer_1-2" data-name="Layer 1"><circle class="cls-1" cx="58.6" cy="58.6" r="57.5"/><rect class="cls-2" x="72.95" y="36" width="19.8" height="7.12" transform="translate(105.5 128.53) rotate(-129.8)"/><polygon class="cls-3" points="25.28 87.53 28.7 78.24 32.11 68.95 38.45 76.55 44.79 84.16 35.03 85.84 25.28 87.53"/><polygon class="cls-4" points="25.28 87.53 26.29 84.79 27.29 82.05 29.16 84.29 31.03 86.53 28.16 87.03 25.28 87.53"/><rect class="cls-5" x="45.72" y="39.9" width="19.8" height="44.7" transform="translate(43.4 144.82) rotate(-129.8)"/><rect class="cls-6" x="66.56" y="40.12" width="19.8" height="9.53" transform="translate(90.91 132.36) rotate(-129.8)"/><line class="cls-6" x1="81.26" y1="53.77" x2="68.59" y2="38.56"/><line class="cls-6" x1="77.06" y1="44.38" x2="70.72" y2="36.78"/><line class="cls-6" x1="83.4" y1="51.99" x2="79.93" y2="47.83"/><line class="cls-6" x1="49.65" y1="67.22" x2="72.79" y2="47.94"/><line class="cls-6" x1="44.56" y1="71.46" x2="46.37" y2="69.96"/><line class="cls-6" x1="38.45" y1="76.55" x2="41.36" y2="74.13"/></g></g></svg>