<svg xmlns="http://www.w3.org/2000/svg" viewBox="0 0 98.6 127.05"><defs><style>.cls-1{fill:#45f4b5;}.cls-2{fill:none;stroke:#383838;stroke-linecap:round;stroke-linejoin:round;stroke-width:2.54px;}</style></defs><title>Asset 7</title><g id="Layer_2" data-name="Layer 2"><g id="Layer_1-2" data-name="Layer 1"><path class="cls-1" d="M49.3,1.27c-33.8,0-48,22.1-48,48.56,0,32.3,37.76,67.69,46.32,75.3a2.57,2.57,0,0,0,3.42,0c8.56-7.61,46.32-43,46.32-75.3C97.33,23.37,83.11,1.27,49.3,1.27ZM73,40.08C73,46.51,67.11,64,52.34,66.33a13.32,13.32,0,0,1-2.67.27H49.3c-17-.28-23.67-19.66-23.67-26.51h0c0-.35,0-.7,0-1.06A13.25,13.25,0,0,1,49.3,30.83,13.25,13.25,0,0,1,73,39c0,.36,0,.71,0,1.06Z"/><path class="cls-2" d="M19,93.71a207.41,207.41,0,0,0,28.62,31.42,2.57,2.57,0,0,0,3.42,0c8.56-7.61,46.32-43,46.32-75.3,0-26.46-14.23-48.56-48-48.56s-48,22.1-48,48.56c0,10.35,3.88,21,9.42,31M73,40.08C73,46.51,67.11,64,52.34,66.33a13.32,13.32,0,0,1-2.67.27H49.3c-17-.28-23.67-19.66-23.67-26.51h0c0-.35,0-.7,0-1.06A13.25,13.25,0,0,1,49.3,30.83,13.25,13.25,0,0,1,73,39c0,.36,0,.71,0,1.06Z"/></g></g></svg>