<svg xmlns="http://www.w3.org/2000/svg" viewBox="0 0 258.26 236.52"><defs><style>.cls-1,.cls-4{fill:#fff;}.cls-1,.cls-2{fill-rule:evenodd;}.cls-2{fill:#38ddf3;}.cls-3{fill:#ff5c64;}.cls-5,.cls-6,.cls-7{fill:none;}.cls-5{stroke:#000;stroke-linecap:round;stroke-linejoin:round;stroke-width:3px;}.cls-6,.cls-7{stroke:#9b9b9b;stroke-miterlimit:10;}.cls-6{stroke-width:0.56px;}.cls-7{stroke-width:0.32px;}</style></defs><title>Asset 2</title><g id="Layer_2" data-name="Layer 2"><g id="Guidelines"><path class="cls-1" d="M211.07,106.75a17.25,17.25,0,0,0-3-1.62c-4.87-2-7.83.11-9.84,1.54-2.28,1.62-6.25,5.77-10.08,9.78-3.55,3.71-7.23,7.55-10.08,10-2.28,1.92-4.65,2.4-7,1.42l-.53-.24a5.79,5.79,0,0,1-3.3-5.52c0-16.42.06-52.35.08-76.06,0-11.66,0-20.37,0-22.37a10.29,10.29,0,0,0-6-9.11,10,10,0,0,0-3.79-.71c-8.06,0-9.82,7.83-9.83,9.78,0,3.58-.15,61.47-.17,68A4.51,4.51,0,0,1,143,96a4.42,4.42,0,0,1-1.67-.32,4,4,0,0,1-2.43-4c0-5.59.07-12.93.14-21,.17-21.43.39-48.09-.13-59.29-.08-1.79-1.38-7.32-6.1-9.26a9.74,9.74,0,0,0-3.68-.69c-6.07,0-9.82,5.68-9.83,9.78l0,11.64c0,18.31-.09,53.17-.13,68.55a4.37,4.37,0,0,1-1.6,3.44,4.64,4.64,0,0,1-2.9,1,4.36,4.36,0,0,1-1.63-.34,4.5,4.5,0,0,1-2.86-4.12c-.33-21.4,0-57.68.14-71.33,0-2.63,0-4.38,0-5,0-2.3-1.16-7.12-5.6-8.95a10.68,10.68,0,0,0-4-.74c-7.89,0-9.68,7.13-9.68,9.64,0,.85,0,3.18,0,6.57-.1,13.49-.32,45.08-.18,64,0,3.74,0,7.39,0,10.32,0,1.2,0,2.29,0,3.2a5.16,5.16,0,0,1-1,3.32,4.24,4.24,0,0,1-3.47,1.54,4.74,4.74,0,0,1-1.74-.36,4.33,4.33,0,0,1-2.74-4.14V96c0-3,0-6.65,0-10.16,0-8.07,0-16.75,0-25.18,0-5.87,0-11.63,0-17a10.42,10.42,0,0,0-6.15-9,9.18,9.18,0,0,0-3.48-.67c-5.53,0-9.67,4.53-9.68,8.59,0,6.46-.05,14.22-.09,22.7-.13,30.76-.32,72.89.17,93.34.38,16.05,10.29,36.17,31.59,44.91h0a58.5,58.5,0,0,0,22.19,4.21c10.35,0,23.74-1.14,35.49-10.4,21.69-17.11,46.87-55.17,59.94-76.34l.83-1.34C216,114.6,213.91,108.64,211.07,106.75ZM147.6,139.94c0,7.74-7.05,28.74-24.84,31.59a16,16,0,0,1-3.21.32h-.44c-20.48-.33-28.49-23.66-28.49-31.9h.06c0-.42-.06-.84-.06-1.27a16,16,0,0,1,28.49-9.86,16,16,0,0,1,28.49,9.86c0,.43,0,.85-.06,1.27Z"/><path class="cls-2" d="M119.11,171.84h0Z"/><path class="cls-3" d="M131.64,122.71a15.92,15.92,0,0,0-12.54,6.09,16,16,0,0,0-28.49,9.86c0,.43,0,.85.06,1.27h-.06c0,8.25,8,31.57,28.49,31.9h.44a16,16,0,0,0,3.21-.32c17.78-2.84,24.84-23.85,24.84-31.59h-.06c0-.42.06-.84.06-1.27A16,16,0,0,0,131.64,122.71Z"/><path class="cls-4" d="M118.66,171.85h0Z"/><path class="cls-5" d="M110.2,39.78c.05-7.21.11-15.5.15-19.63,0-2.63,0-4.38,0-5,0-2.3-1.16-7.12-5.6-8.95a10.68,10.68,0,0,0-4-.74c-7.89,0-9.68,7.13-9.68,9.64,0,.85,0,3.18,0,6.57-.1,13.49-.32,45.08-.18,64,0,3.74,0,7.39,0,10.32,0,1.2,0,2.29,0,3.2a5.16,5.16,0,0,1-1,3.32,4.24,4.24,0,0,1-3.47,1.54,4.74,4.74,0,0,1-1.74-.36,4.33,4.33,0,0,1-2.74-4.14V96c0-3,0-6.65,0-10.16,0-3.66,0-7.45,0-11.28V63.71q0-1.55,0-3.1c0-5.87,0-11.63,0-17a10.42,10.42,0,0,0-6.15-9,9.18,9.18,0,0,0-3.48-.67c-5.53,0-9.67,4.53-9.68,8.59,0,6.46-.05,14.22-.09,22.7-.13,30.76-.32,72.89.17,93.34.38,16.05,10.29,36.17,31.59,44.91h0a58.5,58.5,0,0,0,22.19,4.21c10.35,0,23.74-1.14,35.49-10.4,15.16-12,32-34.15,45.26-53.65m-87.1-92.73c0-1.64,0-5,0-6.63M167.27,87c0-14.07,0-29.09,0-41,0-11.66,0-20.37,0-22.37a10.29,10.29,0,0,0-6-9.11,10,10,0,0,0-3.79-.71c-8.06,0-9.82,7.83-9.83,9.78,0,3.58-.15,61.47-.17,68A4.51,4.51,0,0,1,143,96a4.42,4.42,0,0,1-1.67-.32,4,4,0,0,1-2.43-4c0-5.59.07-12.93.14-21,.17-21.43.39-48.09-.13-59.29-.08-1.79-1.38-7.32-6.1-9.26a9.74,9.74,0,0,0-3.68-.69c-6.07,0-9.82,5.68-9.83,9.78l0,11.64c0,18.31-.09,53.17-.13,68.55a4.37,4.37,0,0,1-1.6,3.44,4.64,4.64,0,0,1-2.9,1,4.36,4.36,0,0,1-1.63-.34,4.5,4.5,0,0,1-2.86-4.12c-.15-10.12-.16-23.57-.11-36.39m94.7,77.1c2.63-4.07,5-7.87,7.1-11.24l.83-1.34c3.23-5,1.18-11-1.65-12.87a17.25,17.25,0,0,0-3-1.62c-4.87-2-7.83.11-9.84,1.54-2.28,1.62-6.25,5.77-10.08,9.78-3.55,3.71-7.23,7.55-10.08,10-2.28,1.92-4.65,2.4-7,1.42l-.53-.24a5.79,5.79,0,0,1-3.3-5.52c0-6.85,0-17.09,0-28.42m-39.68,76.59a24.07,24.07,0,0,1-4.82,1.29,16,16,0,0,1-3.21.32h-.44c-20.48-.33-28.49-23.66-28.49-31.9h.06c0-.42-.06-.84-.06-1.27a16,16,0,0,1,28.49-9.86,16,16,0,0,1,28.49,9.86c0,.43,0,.85-.06,1.27h.06c0,3.39-1.35,9.31-4.36,15.15m-5,7.43a29.21,29.21,0,0,1-5.49,5"/><line class="cls-6" x1="62.23" y1="208.04" x2="62.23" y2="1.16"/><line class="cls-6" x1="82.05" y1="208.04" x2="82.05" y2="1.16"/><line class="cls-6" x1="90.61" y1="208.04" x2="90.61" y2="1.16"/><line class="cls-6" x1="110.44" y1="208.04" x2="110.44" y2="1.16"/><line class="cls-6" x1="119.44" y1="209.46" x2="119.44" y2="1.16"/><line class="cls-6" x1="139.21" y1="208.04" x2="139.21" y2="1.16"/><line class="cls-6" x1="147.6" y1="208.04" x2="147.6" y2="1.16"/><line class="cls-6" x1="167.42" y1="208.04" x2="167.42" y2="1.16"/><line class="cls-7" x1="51.52" y1="1.16" x2="235.25" y2="1.16"/><line class="cls-6" y1="101.85" x2="258.26" y2="101.85"/><line class="cls-6" y1="93.86" x2="258.26" y2="93.86"/><line class="cls-6" x1="25.48" y1="211.85" x2="232.35" y2="211.85"/><line class="cls-6" x1="96.47" y1="208.04" x2="242.76" y2="61.76"/><line class="cls-6" x1="139.21" y1="236.37" x2="231.06" y2="90.09"/><path class="cls-7" d="M180.39,1.16"/><path class="cls-6" d="M170.58,211.85"/><line class="cls-6" x1="215.56" y1="208.04" x2="215.56" y2="1.16"/><circle class="cls-6" cx="72.14" cy="43.93" r="9.91"/><circle class="cls-6" cx="100.59" cy="15.37" r="9.98"/><circle class="cls-6" cx="129.07" cy="11.15" r="9.77"/><circle class="cls-6" cx="157.51" cy="23.72" r="9.91"/><circle class="cls-6" cx="86.33" cy="99.73" r="4.28"/><circle class="cls-6" cx="114.91" cy="91.5" r="4.47"/><circle class="cls-6" cx="143.4" cy="91.77" r="4.2"/><circle class="cls-6" cx="204.66" cy="113.84" r="9.77"/><circle class="cls-6" cx="114.68" cy="154.66" r="52.75"/><circle class="cls-6" cx="106.57" cy="138.66" r="15.96"/><circle class="cls-6" cx="119.55" cy="155.89" r="15.96"/><circle class="cls-6" cx="131.64" cy="138.66" r="15.96"/><circle class="cls-6" cx="173.55" cy="122.32" r="6.13"/><path class="cls-6" d="M90.61,139.94c0,8.3,8.13,31.91,28.94,31.91"/><path class="cls-6" d="M147.6,139.94c0,8.3-8.13,31.91-28.94,31.91"/></g></g></svg>