<svg xmlns="http://www.w3.org/2000/svg" viewBox="0 0 252.4 239.8"><defs><style>.cls-1{fill:#fff;}.cls-1,.cls-7{stroke:#383838;stroke-width:2.29px;}.cls-1,.cls-6,.cls-7{stroke-linecap:round;stroke-linejoin:round;}.cls-2{font-size:29.15px;fill:#383838;font-family:SofiaProRegular, Sofia Pro;}.cls-3{letter-spacing:-0.01em;}.cls-4{letter-spacing:-0.01em;}.cls-5{fill:#45f4b5;}.cls-6,.cls-7{fill:none;}.cls-6{stroke:#45f4b5;stroke-width:2.59px;}.cls-8{fill:#38ddf3;}.cls-9{fill:#ff5c64;}.cls-10{fill:#ffdee0;}</style></defs><title>Asset 5</title><g id="Layer_2" data-name="Layer 2"><g id="Layer_1-2" data-name="Layer 1"><path class="cls-1" d="M237.1,1.14H32.91A14,14,0,0,0,19,15.06V61.47A14,14,0,0,0,32.91,75.39H70.73l8,13.92a1.7,1.7,0,0,0,3,0l8-13.92H237.33a14,14,0,0,0,13.92-13.92V15.06A14.32,14.32,0,0,0,237.1,1.14Z"/><text class="cls-2" transform="translate(45.14 46.5)"><tspan class="cls-3">U</tspan><tspan x="19.59" y="0">nion Squa</tspan><tspan class="cls-4" x="152.59" y="0">r</tspan><tspan x="163.75" y="0">e</tspan></text><path class="cls-5" d="M68.31,198.78c20.42,0,37,6.22,37,13.9s-16.55,13.9-37,13.9-37-6.22-37-13.9c0-2.88,2.33-5.55,6.31-7.77,6.64-3.7,17.9-6.13,30.66-6.13m0-2.52c-12.71,0-24.63,2.41-31.88,6.44-6.29,3.5-7.61,7.35-7.61,10,0,10.66,20.35,16.42,39.49,16.42s39.49-5.75,39.49-16.42-20.35-16.42-39.49-16.42Z"/><path class="cls-6" d="M32.56,190.82a153,153,0,0,1,35.65-4c37,0,66.91,11.56,66.91,25.82s-30,25.82-66.91,25.82S1.3,226.94,1.3,212.68c0-7.6,8.5-14.43,22-19.15"/><path class="cls-7" d="M33.22,191.72a154.48,154.48,0,0,1,35.09-3.8c36.38,0,65.87,11.09,65.87,24.76s-29.49,24.76-65.87,24.76S2.44,226.36,2.44,212.68c0-7.29,8.37-13.84,21.69-18.37"/><path class="cls-7" d="M37.65,204.91c6.64-3.7,17.9-6.13,30.66-6.13,20.42,0,37,6.22,37,13.9s-16.55,13.9-37,13.9-37-6.22-37-13.9c0-2.88,2.33-5.55,6.31-7.77"/><path class="cls-8" d="M68.31,115.73c-26.32,0-37.4,17.21-37.4,37.81,0,25.15,29.4,52.71,36.07,58.64a2,2,0,0,0,2.67,0c6.67-5.93,36.07-33.48,36.07-58.64C105.71,132.94,94.64,115.73,68.31,115.73Zm18.43,30.22c0,5-4.56,18.6-16.07,20.44a10.37,10.37,0,0,1-2.08.21h-.29c-13.25-.22-18.43-15.31-18.43-20.64h0c0-.27,0-.55,0-.82a10.32,10.32,0,0,1,18.43-6.38,10.32,10.32,0,0,1,18.43,6.38c0,.28,0,.55,0,.82Z"/><path class="cls-7" d="M44.7,187.71A161.51,161.51,0,0,0,67,212.17a2,2,0,0,0,2.67,0c6.67-5.93,36.07-33.48,36.07-58.64,0-20.6-11.08-37.81-37.4-37.81s-37.4,17.21-37.4,37.81c0,8.06,3,16.36,7.34,24.13m48.5-31.71c0,5-4.56,18.6-16.07,20.44a10.37,10.37,0,0,1-2.08.21h-.29c-13.25-.22-18.43-15.31-18.43-20.64h0c0-.27,0-.55,0-.82a10.32,10.32,0,0,1,18.43-6.38,10.32,10.32,0,0,1,18.43,6.38c0,.28,0,.55,0,.82Z"/><path class="cls-9" d="M40.53,91.47a3.46,3.46,0,0,0-2.95.68,3.46,3.46,0,0,0-6.51.7c0,.09,0,.18-.05.27h0c-.4,1.74.16,7.07,4.47,8.13h0l.08,0a3.48,3.48,0,0,0,.7.09c3.9.27,6.41-3.83,6.79-5.47h0c0-.09.05-.18.07-.27A3.46,3.46,0,0,0,40.53,91.47Z"/><path class="cls-7" d="M40.53,91.47a3.46,3.46,0,0,0-2.95.68,3.46,3.46,0,0,0-6.51.7c0,.09,0,.18-.05.27h0c-.4,1.74.16,7.07,4.47,8.13h0l.08,0a3.48,3.48,0,0,0,.7.09c3.9.27,6.41-3.83,6.79-5.47h0c0-.09.05-.18.07-.27A3.46,3.46,0,0,0,40.53,91.47Z"/><line class="cls-7" x1="20.71" y1="95.77" x2="20.71" y2="102.9"/><line class="cls-7" x1="24.27" y1="99.33" x2="17.14" y2="99.33"/><line class="cls-7" x1="56.37" y1="101.75" x2="56.37" y2="108.88"/><line class="cls-7" x1="59.93" y1="105.32" x2="52.8" y2="105.32"/><path class="cls-9" d="M39.65,108.37a6.91,6.91,0,0,0-4.46,4.09,6.92,6.92,0,0,0-10.63,7.63c.05.18.11.35.18.52h0c1,3.43,7.24,12.14,15.8,9.74h0l.15,0a7,7,0,0,0,1.3-.53c7-3.39,7.38-13,6.42-16.22h0c0-.18-.08-.36-.13-.54A6.92,6.92,0,0,0,39.65,108.37Z"/><path class="cls-7" d="M39.65,108.37a6.91,6.91,0,0,0-4.46,4.09,6.92,6.92,0,0,0-10.63,7.63c.05.18.11.35.18.52h0c1,3.43,7.24,12.14,15.8,9.74h0l.15,0a7,7,0,0,0,1.3-.53c7-3.39,7.38-13,6.42-16.22h0c0-.18-.08-.36-.13-.54A6.92,6.92,0,0,0,39.65,108.37Z"/><path class="cls-10" d="M44.11,112.45a3.36,3.36,0,0,1,0,4.75c-1.31,1.31-.87-1.26-2.18-2.57s-3.88-.86-2.57-2.17A3.36,3.36,0,0,1,44.11,112.45Z"/><path class="cls-10" d="M33.32,92.92a2.12,2.12,0,0,0,0,3c.83.83.55-.8,1.38-1.62s2.45-.54,1.63-1.37A2.12,2.12,0,0,0,33.32,92.92Z"/></g></g></svg>