<svg xmlns="http://www.w3.org/2000/svg" viewBox="0 0 135.9 87.39"><defs><style>.cls-1{fill:#fff;}.cls-1,.cls-2,.cls-3{stroke:#383838;stroke-width:2.19px;}.cls-1,.cls-2{stroke-linecap:round;stroke-linejoin:round;}.cls-2{fill:none;}.cls-3{fill:#ff5c64;stroke-miterlimit:10;}.cls-4{font-size:22.99px;fill:#383838;font-family:SofiaProRegular, Sofia Pro;}</style></defs><title>Asset 6</title><g id="Layer_2" data-name="Layer 2"><g id="Layer_1-2" data-name="Layer 1"><rect class="cls-1" x="1.1" y="1.1" width="118.12" height="77.49"/><polyline class="cls-2" points="1.1 1.1 60.16 52.12 119.22 1.1"/><line class="cls-2" x1="32.75" y1="46.64" x2="42.46" y2="36.84"/><line class="cls-2" x1="1.1" y1="78.58" x2="27.84" y2="51.59"/><line class="cls-2" x1="119.22" y1="78.58" x2="77.85" y2="36.84"/><path class="cls-3" d="M123.53,51.59a11.24,11.24,0,0,0-8.85,4.3,11.26,11.26,0,0,0-20.12,7c0,.3,0,.6,0,.9h0c0,5.82,5.66,22.29,20.12,22.53H115a11.32,11.32,0,0,0,2.27-.23c12.56-2,17.54-16.84,17.54-22.31h0c0-.3,0-.6,0-.9A11.27,11.27,0,0,0,123.53,51.59Z"/><text class="cls-4" transform="translate(110.56 78.58)">1</text></g></g></svg>