<svg xmlns="http://www.w3.org/2000/svg" viewBox="0 0 648.62 217.37"><defs><style>.cls-1,.cls-4{fill:#fff;}.cls-1,.cls-2{fill-rule:evenodd;}.cls-2{fill:#38ddf3;}.cls-3{fill:#ff5c64;}.cls-5,.cls-7{fill:none;}.cls-5{stroke:#000;stroke-linecap:round;stroke-linejoin:round;stroke-width:2px;}.cls-6{fill:#383838;}.cls-7{stroke:#727272;stroke-miterlimit:10;stroke-width:0.51px;}</style></defs><title>Asset 3</title><g id="Layer_2" data-name="Layer 2"><g id="Guidelines"><path class="cls-1" d="M134.35,79a10.91,10.91,0,0,0-2.14-.22,5.77,5.77,0,0,0-5.37,3.29,65.15,65.15,0,0,0-3.51,8.16c-1.17,3-2.38,6.16-3.46,8.26a4.12,4.12,0,0,1-3.76,2.54h-.37a3.66,3.66,0,0,1-3.27-2.42C108.5,89,99.78,68.07,94,54.22L88.59,41.15a6.51,6.51,0,0,0-5.71-3.86,6.33,6.33,0,0,0-2.39.5c-4.71,1.95-3.83,7-3.36,8.1L93.56,85.6A2.85,2.85,0,0,1,92,89.31a2.79,2.79,0,0,1-1.06.22,2.53,2.53,0,0,1-2.39-1.74c-1.35-3.26-3.1-7.56-5-12.27C78.45,63,72.09,47.35,69.07,40.93c-.48-1-2.58-3.94-5.81-3.92a6.16,6.16,0,0,0-2.32.5,6.46,6.46,0,0,0-3.36,8.1l2.82,6.8C64.83,63.1,73.27,83.47,77,92.46a2.77,2.77,0,0,1-.1,2.4,2.93,2.93,0,0,1-1.44,1.31,2.76,2.76,0,0,1-1,.2,2.84,2.84,0,0,1-2.67-1.71C66.36,82.24,57.74,61,54.49,53l-1.18-2.9c-.56-1.34-2.41-3.88-5.44-3.86a6.75,6.75,0,0,0-2.54.55c-4.61,1.91-3.92,6.52-3.31,8l1.57,3.84C46.82,66.48,54.37,85,59,96c.93,2.18,1.8,4.32,2.5,6l.77,1.87a3.26,3.26,0,0,1,.2,2.19,2.68,2.68,0,0,1-1.65,1.74,3,3,0,0,1-1.1.21,2.74,2.74,0,0,1-2.61-1.75l-.88-2.11-2.46-5.94c-1.94-4.72-4-9.79-6.1-14.71-1.43-3.43-2.82-6.79-4.12-9.92a6.59,6.59,0,0,0-5.78-3.76,5.81,5.81,0,0,0-2.2.45c-3.23,1.34-4.55,5-3.56,7.37,1.56,3.77,3.43,8.32,5.47,13.27,7.4,18,17.54,42.63,22.79,54.45a32.18,32.18,0,0,0,29.36,18.54h0a37,37,0,0,0,14-2.94c6-2.5,13.58-6.43,18.19-14.7,8.51-15.26,13.95-43.6,16.43-59.14.08-.49.13-.83.16-1C139.11,82.43,136.46,79.45,134.35,79Zm-29,34.81c1.88,4.52,2.87,18.5-6.82,24.48a10.14,10.14,0,0,1-1.8,1l-.52.22.26-.11c-12,4.78-22.39-6.88-24.39-11.7h0c-.12-.24-.24-.48-.34-.73A10.09,10.09,0,0,1,86,114.27a10.09,10.09,0,0,1,19-1.17c.1.25.19.5.28.76Z"/><path class="cls-2" d="M96.48,139.39l.26-.1-.22.08Z"/><path class="cls-3" d="M91.86,107.66A10.07,10.07,0,0,0,86,114.27,10.09,10.09,0,0,0,71.78,127c.1.25.22.49.34.73h0c2,4.81,12.35,16.48,24.39,11.7l0,0,.22-.08a10.14,10.14,0,0,0,1.8-1c9.69-6,8.7-20,6.82-24.48h0c-.08-.25-.17-.51-.28-.76A10.09,10.09,0,0,0,91.86,107.66Z"/><path class="cls-4" d="M96.23,139.51l.52-.22-.26.1Z"/><path class="cls-5" d="M59.17,64.47c-1.72-4.22-3.7-9.08-4.68-11.5l-1.18-2.9c-.56-1.34-2.41-3.88-5.44-3.86a6.75,6.75,0,0,0-2.54.55c-4.61,1.91-3.92,6.52-3.31,8l1.57,3.84C46.82,66.48,54.37,85,59,96c.93,2.18,1.8,4.32,2.5,6l.77,1.87a3.26,3.26,0,0,1,.2,2.19,2.68,2.68,0,0,1-1.65,1.74,3,3,0,0,1-1.1.21,2.74,2.74,0,0,1-2.61-1.75l-.88-2.11-2.46-5.94-2.72-6.59-2.62-6.31-.75-1.81c-1.43-3.43-2.82-6.79-4.12-9.92a6.59,6.59,0,0,0-5.78-3.76,5.81,5.81,0,0,0-2.2.45c-3.23,1.34-4.55,5-3.56,7.37,1.56,3.77,3.43,8.32,5.47,13.27,7.4,18,17.54,42.63,22.79,54.45a32.18,32.18,0,0,0,29.36,18.54h0a37,37,0,0,0,14-2.94c6-2.5,13.58-6.43,18.19-14.7,5.94-10.67,10.39-27.72,13.38-42.33M61.83,71l-1.6-3.88M104,78.17l-10-24L88.59,41.15a6.51,6.51,0,0,0-5.71-3.86,6.33,6.33,0,0,0-2.39.5c-4.71,1.95-3.83,7-3.36,8.1L93.56,85.6A2.85,2.85,0,0,1,92,89.31a2.79,2.79,0,0,1-1.06.22,2.53,2.53,0,0,1-2.39-1.74c-1.35-3.26-3.1-7.56-5-12.27C78.45,63,72.09,47.35,69.07,40.93c-.48-1-2.58-3.94-5.81-3.92a6.16,6.16,0,0,0-2.32.5,6.46,6.46,0,0,0-3.36,8.1l2.82,6.8C64.83,63.1,73.27,83.47,77,92.46a2.77,2.77,0,0,1-.1,2.4,2.93,2.93,0,0,1-1.44,1.31,2.76,2.76,0,0,1-1,.2,2.84,2.84,0,0,1-2.67-1.71c-2.55-5.87-5.83-13.72-8.91-21.22m74,22c.55-3,1-5.82,1.41-8.29.08-.49.13-.83.16-1,.67-3.72-2-6.7-4.09-7.11a10.91,10.91,0,0,0-2.14-.22,5.77,5.77,0,0,0-5.37,3.29,65.15,65.15,0,0,0-3.51,8.16c-1.17,3-2.38,6.16-3.46,8.26a4.12,4.12,0,0,1-3.76,2.54h-.37a3.66,3.66,0,0,1-3.27-2.42c-1.66-4-4.14-10-6.89-16.6M101,136.4a15.22,15.22,0,0,1-2.5,1.92,10.14,10.14,0,0,1-1.8,1l-.52.22.26-.11c-12,4.78-22.39-6.88-24.39-11.7h0c-.12-.24-.24-.48-.34-.73A10.09,10.09,0,0,1,86,114.27a10.09,10.09,0,0,1,19-1.17c.1.25.19.5.28.76h0a23.38,23.38,0,0,1,1.14,9.9m-1.1,5.55a18.47,18.47,0,0,1-2,4.24"/><path class="cls-6" d="M160.71,119.39c0-22.26,16.7-36.4,36.55-36.4,20,0,36.86,14.14,36.86,36.4s-16.85,36.86-36.86,36.86C177.41,156.24,160.71,141.65,160.71,119.39Zm57.92,0c0-12.94-9.63-21.21-21.36-21.21-11.58,0-21.21,8.27-21.21,21.21,0,13.24,9.63,21.81,21.21,21.81C209,141.2,218.63,132.63,218.63,119.39Z"/><path class="cls-6" d="M260,154.74H244.5V46.28H260V90.56c6.57-7.4,16.47-7.4,22.11-7.4,17.9,0,28.59,11.55,28.59,31.56v40H295.2V115.63c0-11-6.92-16.94-15.64-17-8.06,0-19.56,4.5-19.56,18.34Z"/><path class="cls-6" d="M364.1,154.74H348.6V46.28H364.1V90.56c6.57-7.4,16.47-7.4,22.11-7.4,17.9,0,28.59,11.55,28.59,31.56v40H399.3V115.63c0-11-6.92-16.94-15.64-17-8.06,0-19.56,4.5-19.56,18.34Z"/><path class="cls-6" d="M528.52,189H512.27l15.19-37.61L498.81,83.16l16.85,0,20.08,49.43,20-49.46h16.78Z"/><path class="cls-6" d="M496.47,124.32H440.54c1.51,10.58,10.25,17.2,21.56,17.2,7.84,0,15.53-3.53,19.14-9.85,3.92,1.76,8.59,3.67,12.66,5.44-6.18,12.05-19.29,17.64-32.56,17.64-20,0-36.18-14.26-36.18-36s16.13-35.57,36.18-35.57S496.62,97,496.62,118.73C496.62,120.35,496.62,122.85,496.47,124.32Zm-15.07-11c-1.51-10.73-9.5-16.9-20-16.9-10.85,0-19.29,6.32-20.8,16.9Z"/><line class="cls-7" x1="13.59" y1="46.06" x2="648.62" y2="46.06"/><line class="cls-7" x1="13.59" y1="83.16" x2="648.62" y2="83.16"/><line class="cls-7" x1="15.2" y1="154.74" x2="648.62" y2="154.74"/><line class="cls-7" x1="244.44" y1="217.27" x2="244.44" y2="2.33"/><line class="cls-7" x1="259.87" y1="217.27" x2="259.87" y2="2.33"/><line class="cls-7" x1="295.47" y1="217.27" x2="295.47" y2="2.33"/><line class="cls-7" x1="310.9" y1="217.27" x2="310.9" y2="2.33"/><line class="cls-7" x1="399.26" y1="217.27" x2="399.26" y2="2.33"/><line class="cls-7" x1="414.69" y1="217.27" x2="414.69" y2="2.33"/><line class="cls-7" x1="284.92" y1="83.16" x2="529.03" y2="83.16"/><line class="cls-7" x1="15.2" y1="98.6" x2="496.7" y2="98.6"/><line class="cls-7" x1="15.2" y1="141.02" x2="496.7" y2="141.02"/><line class="cls-7" x1="425" y1="217.27" x2="425" y2="2.33"/><line class="cls-7" x1="440.43" y1="217.27" x2="440.43" y2="2.33"/><line class="cls-7" x1="461.92" y1="217.27" x2="461.92" y2="2.33"/><line class="cls-7" x1="481.27" y1="217.27" x2="481.27" y2="2.33"/><line class="cls-7" x1="496.7" y1="217.27" x2="496.7" y2="2.33"/><line class="cls-7" x1="500.86" y1="217.27" x2="588.98" y2="2.33"/><line class="cls-7" x1="517.54" y1="217.27" x2="605.66" y2="2.32"/><line class="cls-7" x1="570.55" y1="217.27" x2="482.42" y2="2.32"/><line class="cls-7" x1="553.87" y1="217.27" x2="465.75" y2="2.33"/><line class="cls-7" x1="157.56" y1="208.56" x2="72.1" y2="0.1"/><line class="cls-7" x1="85.7" y1="208.56" x2="0.24" y2="0.1"/><line class="cls-7" x1="160.63" y1="186.88" x2="323.04" y2="24.44"/><line class="cls-7" x1="160.64" y1="208.31" x2="338.27" y2="30.65"/><line class="cls-7" x1="218.63" y1="217.27" x2="218.63" y2="2.33"/><line class="cls-7" x1="234.06" y1="217.27" x2="234.06" y2="2.33"/><line class="cls-7" x1="160.63" y1="217.27" x2="160.63" y2="2.33"/><line class="cls-7" x1="176.06" y1="217.27" x2="176.06" y2="2.33"/><line class="cls-7" x1="348.49" y1="217.27" x2="348.49" y2="2.33"/><line class="cls-7" x1="364.22" y1="217.27" x2="364.22" y2="2.33"/></g></g></svg>