<svg xmlns="http://www.w3.org/2000/svg" xmlns:xlink="http://www.w3.org/1999/xlink" viewBox="0 0 257.88 361.62"><defs><style>.cls-1{fill:#fff;}.cls-2,.cls-3{fill-rule:evenodd;}.cls-2{fill:url(#linear-gradient);}.cls-3{fill:#38ddf3;}.cls-4{fill:url(#linear-gradient-2);}.cls-5{fill:none;stroke:#000;stroke-linecap:round;stroke-linejoin:round;stroke-width:2.06px;}.cls-6{fill:#ffdee0;}</style><linearGradient id="linear-gradient" x1="89.64" y1="10.33" x2="163.18" y2="156.5" gradientUnits="userSpaceOnUse"><stop offset="0" stop-color="#60e4f5"/><stop offset="0.22" stop-color="#5de6ee"/><stop offset="0.54" stop-color="#55eadc"/><stop offset="0.91" stop-color="#48f2bd"/><stop offset="1" stop-color="#45f4b5"/></linearGradient><linearGradient id="linear-gradient-2" x1="114.25" y1="127.11" x2="150.97" y2="127.11" gradientUnits="userSpaceOnUse"><stop offset="0" stop-color="#ff5c64"/><stop offset="0.19" stop-color="#ff5561"/><stop offset="0.47" stop-color="#ff4359"/><stop offset="0.79" stop-color="#ff244b"/><stop offset="1" stop-color="#ff0c40"/></linearGradient></defs><title>Asset 3</title><g id="Layer_2" data-name="Layer 2"><g id="Layer_1-2" data-name="Layer 1"><path class="cls-1" d="M0,318c0-13.94,10.46-22.79,22.89-22.79S46,304.07,46,318s-10.55,23.08-23.08,23.08S0,332,0,318Zm36.26,0c0-8.1-6-13.28-13.38-13.28S9.61,309.91,9.61,318c0,8.29,6,13.66,13.28,13.66S36.26,326.3,36.26,318Z"/><path class="cls-1" d="M62.17,340.15h-9.7V272.23h9.7V300c4.12-4.63,10.31-4.63,13.84-4.63,11.21,0,17.9,7.24,17.9,19.76v25.06h-9.7V315.66c0-6.88-4.33-10.61-9.8-10.64-5,0-12.25,2.82-12.25,11.49Z"/><path class="cls-1" d="M127.35,340.15h-9.7V272.23h9.7V300c4.12-4.63,10.31-4.63,13.84-4.63,11.21,0,17.9,7.24,17.9,19.76v25.06h-9.7V315.66c0-6.88-4.33-10.61-9.8-10.64-5,0-12.25,2.82-12.25,11.49Z"/><path class="cls-1" d="M230.31,361.62H220.14l9.51-23.55-17.94-42.75,10.55,0,12.57,31,12.54-31h10.51Z"/><path class="cls-1" d="M210.24,321.1h-35c.94,6.63,6.42,10.77,13.5,10.77,4.91,0,9.72-2.21,12-6.17,2.45,1.1,5.38,2.3,7.93,3.41-3.87,7.55-12.08,11-20.39,11-12.55,0-22.65-8.93-22.65-22.55s10.1-22.27,22.65-22.27,22.09,8.65,22.09,22.27C210.34,318.61,210.34,320.18,210.24,321.1Zm-9.44-6.9c-.94-6.72-5.95-10.58-12.55-10.58-6.8,0-12.08,4-13,10.58Z"/><rect class="cls-1" x="25.71" width="206.25" height="206.25" rx="45.99" ry="45.99"/><path class="cls-2" d="M179.61,81a11.26,11.26,0,0,0-2.21-.23,6,6,0,0,0-5.54,3.4,67.22,67.22,0,0,0-3.62,8.42c-1.21,3.13-2.46,6.36-3.57,8.52a4.25,4.25,0,0,1-3.88,2.62h-.38a3.78,3.78,0,0,1-3.37-2.5c-4.1-9.9-13.09-31.55-19-45.84l-5.6-13.48a6.71,6.71,0,0,0-5.89-4,6.54,6.54,0,0,0-2.46.52c-4.86,2-4,7.18-3.47,8.36l16.95,41a2.94,2.94,0,0,1-1.59,3.83,2.88,2.88,0,0,1-1.09.23,2.61,2.61,0,0,1-2.47-1.8c-1.39-3.37-3.2-7.8-5.18-12.66-5.27-12.95-11.83-29.07-15-35.68-.5-1.06-2.67-4.06-6-4a6.35,6.35,0,0,0-2.39.51c-3.66,1.51-4.49,5.89-3.47,8.35l2.91,7c4.57,11,13.28,32,17.12,41.33a2.85,2.85,0,0,1-.1,2.47,3,3,0,0,1-1.49,1.35,2.84,2.84,0,0,1-1.06.21A2.93,2.93,0,0,1,115,97.13c-5.56-12.81-14.46-34.74-17.81-43l-1.22-3c-.57-1.38-2.48-4-5.62-4a7,7,0,0,0-2.62.57c-4.75,2-4,6.72-3.42,8.23l1.62,4c3.33,8.15,11.12,27.24,15.94,38.58,1,2.25,1.86,4.45,2.58,6.22l.79,1.93a3.37,3.37,0,0,1,.21,2.26,2.77,2.77,0,0,1-1.7,1.8,3.09,3.09,0,0,1-1.14.22,2.82,2.82,0,0,1-2.69-1.81l-.9-2.18c-.75-1.82-1.66-4-2.53-6.13-2-4.87-4.18-10.1-6.29-15.18-1.47-3.54-2.91-7-4.25-10.24a6.8,6.8,0,0,0-6-3.88,6,6,0,0,0-2.27.47c-3.33,1.38-4.69,5.15-3.67,7.61,1.61,3.89,3.54,8.58,5.64,13.69,7.64,18.56,18.1,44,23.52,56.18a33.2,33.2,0,0,0,30.29,19.13h0a38.17,38.17,0,0,0,14.42-3c6.24-2.58,14-6.64,18.77-15.17,8.78-15.75,14.39-45,17-61,.08-.51.14-.85.17-1C184.52,84.52,181.79,81.45,179.61,81ZM149.7,116.93c1.94,4.66,3,19.08-7,25.26a10.46,10.46,0,0,1-1.85,1l-.53.22.26-.12c-12.42,4.94-23.1-7.1-25.17-12.07h0c-.13-.24-.24-.49-.35-.75a10.41,10.41,0,0,1,14.69-13.09,10.41,10.41,0,0,1,19.64-1.21c.11.26.2.52.29.78Z"/><path class="cls-3" d="M140.54,143.3l.27-.11-.22.09Z"/><path class="cls-4" d="M135.77,110.56a10.39,10.39,0,0,0-6,6.82,10.41,10.41,0,0,0-14.69,13.09c.11.26.23.51.35.75h0c2.07,5,12.75,17,25.17,12.07l0,0,.22-.09a10.46,10.46,0,0,0,1.85-1c10-6.17,9-20.6,7-25.26h0c-.09-.26-.18-.52-.29-.78A10.41,10.41,0,0,0,135.77,110.56Z"/><path class="cls-1" d="M140.27,143.41l.53-.22-.27.11Z"/><path class="cls-5" d="M102,66c-1.78-4.36-3.82-9.37-4.83-11.86l-1.22-3c-.57-1.38-2.48-4-5.62-4a7,7,0,0,0-2.62.57c-4.75,2-4,6.72-3.42,8.23l1.62,4c3.33,8.15,11.12,27.24,15.94,38.58,1,2.25,1.86,4.45,2.58,6.22l.79,1.93a3.37,3.37,0,0,1,.21,2.26,2.77,2.77,0,0,1-1.7,1.8,3.09,3.09,0,0,1-1.14.22,2.82,2.82,0,0,1-2.69-1.81l-.9-2.18c-.75-1.82-1.66-4-2.53-6.13L93.71,94,91,87.5l-.78-1.87c-1.47-3.54-2.91-7-4.25-10.24a6.8,6.8,0,0,0-6-3.88,6,6,0,0,0-2.27.47c-3.33,1.38-4.69,5.15-3.67,7.61,1.61,3.89,3.54,8.58,5.64,13.69,7.64,18.56,18.1,44,23.52,56.18a33.2,33.2,0,0,0,30.29,19.13h0a38.17,38.17,0,0,0,14.42-3c6.24-2.58,14-6.64,18.77-15.17,6.13-11,10.72-28.6,13.8-43.67m-75.73-34-1.65-4m45.13,11.42L138,55.41l-5.6-13.48a6.71,6.71,0,0,0-5.89-4,6.54,6.54,0,0,0-2.46.52c-4.86,2-4,7.18-3.47,8.36l16.95,41a2.94,2.94,0,0,1-1.59,3.83,2.88,2.88,0,0,1-1.09.23,2.61,2.61,0,0,1-2.47-1.8c-1.39-3.37-3.2-7.8-5.18-12.66-5.27-12.95-11.83-29.07-15-35.68-.5-1.06-2.67-4.06-6-4a6.35,6.35,0,0,0-2.39.51c-3.66,1.51-4.49,5.89-3.47,8.35l2.91,7c4.57,11,13.28,32,17.12,41.33a2.85,2.85,0,0,1-.1,2.47,3,3,0,0,1-1.49,1.35,2.84,2.84,0,0,1-1.06.21A2.93,2.93,0,0,1,115,97.13c-2.63-6.06-6-14.16-9.19-21.89m76.38,22.68c.56-3.11,1-6,1.46-8.55.08-.51.14-.85.17-1,.69-3.84-2-6.91-4.22-7.34a11.26,11.26,0,0,0-2.21-.23,6,6,0,0,0-5.54,3.4,67.22,67.22,0,0,0-3.62,8.42c-1.21,3.13-2.46,6.36-3.57,8.52a4.25,4.25,0,0,1-3.88,2.62h-.38a3.78,3.78,0,0,1-3.37-2.5c-1.71-4.13-4.27-10.3-7.1-17.13m-4.69,56.09a15.71,15.71,0,0,1-2.58,2,10.46,10.46,0,0,1-1.85,1l-.53.22.26-.12c-12.42,4.94-23.1-7.1-25.17-12.07h0c-.13-.24-.24-.49-.35-.75a10.41,10.41,0,0,1,14.69-13.09,10.41,10.41,0,0,1,19.64-1.21c.11.26.2.52.29.78h0a24.12,24.12,0,0,1,1.17,10.22m-1.13,5.72a19.06,19.06,0,0,1-2.06,4.37"/><path class="cls-6" d="M142.84,114.11a4.57,4.57,0,0,1,1.84,6.19c-1.2,2.22-1.62-1.31-3.83-2.51s-5.4.37-4.2-1.84A4.57,4.57,0,0,1,142.84,114.11Z"/></g></g></svg>