<svg xmlns="http://www.w3.org/2000/svg" viewBox="0 0 117.2 117.2"><defs><style>.cls-1{fill:none;stroke:#383838;stroke-linecap:round;stroke-linejoin:round;stroke-width:2.2px;}.cls-2{fill:#38ddf3;}</style></defs><title>Asset 8</title><g id="Layer_2" data-name="Layer 2"><g id="Layer_1-2" data-name="Layer 1"><circle class="cls-1" cx="58.6" cy="58.6" r="57.5"/><path class="cls-2" d="M65.71,59.31C72.6,66,84.09,67.14,86.1,70.42s1.82,16.24,1.82,16.24S71.79,93.41,58.6,93.41s-29.33-6.75-29.33-6.75-.18-13,1.82-16.24S44.6,66,51.5,59.31"/><path class="cls-1" d="M45.1,63.7a25.94,25.94,0,0,0,6.4-4.4"/><path class="cls-1" d="M70.14,92.08A58.3,58.3,0,0,1,58.6,93.41c-13.18,0-29.33-6.75-29.33-6.75s-.18-13,1.82-16.24c1.08-1.76,4.88-2.91,9.25-4.62"/><path class="cls-1" d="M65.71,59.31C72.6,66,84.09,67.14,86.1,70.42s1.82,16.24,1.82,16.24a109.29,109.29,0,0,1-12.3,4.11"/><path class="cls-2" d="M58.6,62.39c6.75,0,13.5-8.41,13.5-18.79S68.82,24.82,58.6,24.82,45.1,33.23,45.1,43.61s6.75,18.79,13.5,18.79"/><path class="cls-1" d="M58.6,62.39c6.75,0,13.5-8.41,13.5-18.79S68.82,24.82,58.6,24.82,45.1,33.23,45.1,43.61s6.75,18.79,13.5,18.79"/></g></g></svg>