<svg xmlns="http://www.w3.org/2000/svg" viewBox="0 0 101.06 121.1"><defs><style>.cls-1{fill:#45f4b5;}.cls-2{fill:none;stroke:#383838;stroke-linecap:round;stroke-linejoin:round;stroke-width:2.26px;}</style></defs><title>Asset 9</title><g id="Layer_2" data-name="Layer 2"><g id="Layer_1-2" data-name="Layer 1"><path class="cls-1" d="M3.84,117.27a9.26,9.26,0,0,0,13.08,0L38.74,95.45a40.36,40.36,0,1,0-13.06-13.1L3.84,104.17a9.27,9.27,0,0,0,0,13.1m31.27-56A24.7,24.7,0,1,1,59.81,86a24.74,24.74,0,0,1-24.7-24.7"/><path class="cls-2" d="M59.81,21.16A40.08,40.08,0,0,0,25.68,82.35L3.84,104.17a9.27,9.27,0,0,0,0,13.1M34.69,99.51l4.06-4.06A40.13,40.13,0,1,0,67.9,22M29,105.23,31.21,103M3.84,117.27a9.26,9.26,0,0,0,13.08,0L26.23,108M35.11,61.3A24.7,24.7,0,1,1,59.81,86a24.74,24.74,0,0,1-24.7-24.7"/><path class="cls-2" d="M49.61,45.95a18.59,18.59,0,0,1,15.88-2.34"/><path class="cls-2" d="M43.57,52.68a18.59,18.59,0,0,1,2.66-3.8"/><path class="cls-2" d="M78.33,64a18.55,18.55,0,0,1-30.41,11.4"/><line class="cls-2" x1="78.99" y1="1.13" x2="78.99" y2="7.52"/><line class="cls-2" x1="82.19" y1="4.32" x2="75.8" y2="4.32"/><line class="cls-2" x1="90.87" y1="20.4" x2="90.87" y2="26.79"/><line class="cls-2" x1="94.06" y1="23.59" x2="87.67" y2="23.59"/><line class="cls-2" x1="65.49" y1="13.46" x2="65.49" y2="19.86"/><line class="cls-2" x1="68.68" y1="16.66" x2="62.29" y2="16.66"/></g></g></svg>