<svg xmlns="http://www.w3.org/2000/svg" viewBox="0 0 117.2 117.2"><defs><style>.cls-1{fill:#38ddf3;}.cls-2{fill:none;stroke:#383838;stroke-linecap:round;stroke-linejoin:round;stroke-width:2.2px;}</style></defs><title>Asset 10</title><g id="Layer_2" data-name="Layer 2"><g id="Layer_1-2" data-name="Layer 1"><g id="_9WK8mj.tif" data-name="9WK8mj.tif"><path class="cls-1" d="M89.45,55.7v5.78a.77.77,0,0,0-.12.2A3.71,3.71,0,0,1,85.26,65c-.67,0-1.34,0-2,0a3.61,3.61,0,0,0-3.46,2.41,3.49,3.49,0,0,0,.92,4c.52.51,1,1,1.55,1.52a4,4,0,0,1,0,5.75q-1.69,1.71-3.42,3.4A4,4,0,0,1,73,82c-.5-.48-1-1-1.48-1.47a3.55,3.55,0,0,0-4.12-.89,3.62,3.62,0,0,0-2.35,3.59c0,.8,0,1.61,0,2.41a3.91,3.91,0,0,1-4,3.81c-1.55,0-3.11,0-4.66,0a4,4,0,0,1-4.08-4c0-.83,0-1.66,0-2.49A3.52,3.52,0,0,0,50,79.64a3.45,3.45,0,0,0-3.94.73c-.59.55-1.13,1.14-1.72,1.69a4,4,0,0,1-5.53.08q-1.92-1.82-3.75-3.74a3.87,3.87,0,0,1,0-5.38c.47-.51,1-1,1.48-1.48a3.62,3.62,0,0,0,1.1-4.21,3.73,3.73,0,0,0-3.72-2.4c-.86,0-1.72,0-2.57,0A3.9,3.9,0,0,1,27.76,61q0-2.45,0-4.9a3.85,3.85,0,0,1,3.52-3.82c1-.09,2,0,3-.08a3.54,3.54,0,0,0,3.35-2.32A3.46,3.46,0,0,0,36.86,46c-.53-.57-1.1-1.1-1.64-1.65a3.91,3.91,0,0,1,0-5.68c1.18-1.21,2.39-2.38,3.62-3.54a4,4,0,0,1,5.59,0c.58.55,1.13,1.15,1.72,1.69a3.46,3.46,0,0,0,3.94.72,3.52,3.52,0,0,0,2.32-3.35c0-.51,0-1,0-1.53a4.4,4.4,0,0,1,3.18-4.94H62c2.39.84,3.33,2.59,3.16,5,0,.45,0,.91,0,1.36a3.73,3.73,0,0,0,6.38,2.61c.56-.54,1.09-1.11,1.65-1.64a4,4,0,0,1,5.53,0q1.86,1.77,3.65,3.62a3.9,3.9,0,0,1,0,5.62c-.48.5-1,1-1.49,1.46a3.53,3.53,0,0,0-1,4.09,3.68,3.68,0,0,0,3.65,2.36c.86,0,1.72,0,2.57.06a3.54,3.54,0,0,1,3.21,2.81C89.33,55.31,89.4,55.5,89.45,55.7ZM45.9,58.57a12.85,12.85,0,1,0,13-12.82A12.83,12.83,0,0,0,45.9,58.57Z"/></g><g id="_9WK8mj.tif-2" data-name="9WK8mj.tif"><path class="cls-2" d="M31.35,64.89A3.9,3.9,0,0,1,27.76,61q0-2.45,0-4.9a3.85,3.85,0,0,1,3.52-3.82c1-.09,2,0,3-.08a3.54,3.54,0,0,0,3.35-2.32A3.46,3.46,0,0,0,36.86,46c-.53-.57-1.1-1.1-1.64-1.65a3.91,3.91,0,0,1,0-5.68c1.18-1.21,2.39-2.38,3.62-3.54a4,4,0,0,1,5.59,0c.58.55,1.13,1.15,1.72,1.69a3.46,3.46,0,0,0,3.94.72,3.52,3.52,0,0,0,2.32-3.35c0-.51,0-1,0-1.53a4.4,4.4,0,0,1,3.18-4.94H62c2.39.84,3.33,2.59,3.16,5,0,.45,0,.91,0,1.36a3.73,3.73,0,0,0,6.38,2.61c.56-.54,1.09-1.11,1.65-1.64a4,4,0,0,1,5.53,0q1.86,1.77,3.65,3.62A3.85,3.85,0,0,1,83,43.46m-1.59,1.79-.56.54a3.53,3.53,0,0,0-1,4.09,3.68,3.68,0,0,0,3.65,2.36c.86,0,1.72,0,2.57.06a3.54,3.54,0,0,1,3.21,2.81c0,.2.12.4.17.6v5.78a.77.77,0,0,0-.12.2A3.71,3.71,0,0,1,85.26,65c-.67,0-1.34,0-2,0a3.61,3.61,0,0,0-3.46,2.41,3.49,3.49,0,0,0,.92,4c.52.51,1,1,1.55,1.52a4,4,0,0,1,0,5.75q-1.69,1.71-3.42,3.4A4,4,0,0,1,73,82c-.5-.48-1-1-1.48-1.47a3.55,3.55,0,0,0-4.12-.89,3.62,3.62,0,0,0-2.35,3.59c0,.8,0,1.61,0,2.41a3.91,3.91,0,0,1-4,3.81c-1.55,0-3.11,0-4.66,0a4,4,0,0,1-4.08-4c0-.83,0-1.66,0-2.49A3.52,3.52,0,0,0,50,79.64a3.45,3.45,0,0,0-3.94.73c-.59.55-1.13,1.14-1.72,1.69a4,4,0,0,1-5.53.08q-1.92-1.82-3.75-3.74a3.87,3.87,0,0,1,0-5.38c.47-.51,1-1,1.48-1.48a3.62,3.62,0,0,0,1.1-4.21,3.49,3.49,0,0,0-2.45-2.22m15.63,3.62A12.86,12.86,0,0,0,71.6,58.58a12.92,12.92,0,0,0-6.43-11.11m-2.87-1.23a12.52,12.52,0,0,0-3.43-.49,12.86,12.86,0,0,0-10.78,20"/></g><circle class="cls-2" cx="58.6" cy="58.6" r="57.5"/></g></g></svg>