<svg xmlns="http://www.w3.org/2000/svg" xmlns:xlink="http://www.w3.org/1999/xlink" viewBox="0 0 155.32 162.34"><defs><style>.cls-1{fill:url(#radial-gradient);}.cls-2,.cls-3,.cls-4,.cls-7{fill:none;stroke:#436ffd;}.cls-2,.cls-3,.cls-4{stroke-linecap:round;stroke-linejoin:round;}.cls-2{stroke-width:0.37px;}.cls-3{stroke-width:0.75px;stroke-dasharray:3;}.cls-4{stroke-width:1.75px;}.cls-5{fill:url(#linear-gradient);}.cls-6{fill:url(#linear-gradient-2);}.cls-7{stroke-miterlimit:10;}</style><radialGradient id="radial-gradient" cx="60.21" cy="30.61" r="26.84" gradientUnits="userSpaceOnUse"><stop offset="0" stop-color="#cdf"/><stop offset="1" stop-color="#fff"/></radialGradient><linearGradient id="linear-gradient" x1="52.8" y1="283.36" x2="91.89" y2="283.36" gradientTransform="translate(129.28 -207.49) rotate(15.43)" xlink:href="#radial-gradient"/><linearGradient id="linear-gradient-2" x1="9" y1="129.89" x2="55.66" y2="129.89" xlink:href="#radial-gradient"/></defs><title>3d-shapes</title><g id="Layer_2" data-name="Layer 2"><g id="Layer_1-2" data-name="Layer 1"><circle class="cls-1" cx="60.21" cy="30.61" r="26.84"/><circle class="cls-2" cx="59.71" cy="30.61" r="29.74"/><path class="cls-3" d="M62.61,60.35C50.13,60.35,39.87,47,40,30.61S50.52.65,62.61.88"/><path class="cls-3" d="M62.61.88C75.08,1.12,85.2,14.19,85.2,30.61S75.08,60.35,62.61,60.35"/><ellipse class="cls-4" cx="61.52" cy="30.61" rx="27.92" ry="29.74"/><ellipse class="cls-3" cx="59.77" cy="30.61" rx="9.43" ry="29.74"/><path class="cls-4" d="M60.21,60.35C55,60.35,50.34,47,50.34,30.61S54.44.88,60.21.88"/><path class="cls-4" d="M60.21.88C68.32.88,79.7,14.19,79.7,30.61S68.32,60.35,60.21,60.35"/><path class="cls-3" d="M30,30.7c0-4,13.31-7.33,29.74-7.33s29.74,3.28,29.74,7.33"/><path class="cls-4" d="M89.45,30.7c0,4-13.31,7.33-29.74,7.33S30,34.74,30,30.7"/><path class="cls-4" d="M82.08,10.44a1.86,1.86,0,0,1,.59,1.26c0,3.08-10.18,5.58-22.74,5.58s-22.74-2.5-22.74-5.58a1.94,1.94,0,0,1,.68-1.36"/><path class="cls-3" d="M37.88,10.34c2.48-2.42,11.41-4.22,22.05-4.22S79.74,8,82.08,10.44"/><path class="cls-4" d="M82.59,50.13c-.92,2.88-10.71,5.14-22.67,5.14s-22-2.32-22.69-5.24"/><path class="cls-3" d="M37.23,50a1.43,1.43,0,0,1,0-.34c0-3.08,10.18-5.58,22.74-5.58s22.74,2.5,22.74,5.58a1.45,1.45,0,0,1-.07.44"/><circle class="cls-4" cx="60.06" cy="30.61" r="29.67"/><path class="cls-5" d="M130.12,61.34c-10.41-2.87-19.76-1.85-20.9,2.27l-8.88,32.18c-1.14,4.13,6.37,9.8,16.78,12.68s19.76,1.85,20.9-2.27L146.9,74C148,69.89,140.53,64.21,130.12,61.34Z"/><ellipse class="cls-4" cx="131.1" cy="65.28" rx="9.55" ry="24.07" transform="translate(33.29 174.29) rotate(-74.57)"/><path class="cls-3" d="M96.92,98.5c1.4-5.08,12.93-6.34,25.74-2.8s22.06,10.53,20.66,15.61"/><path class="cls-4" d="M143.36,111.31c-1.4,5.08-12.93,6.34-25.74,2.8S95.56,103.58,97,98.5"/><line class="cls-4" x1="107.9" y1="58.88" x2="96.77" y2="99.19"/><line class="cls-4" x1="154.3" y1="71.68" x2="143.36" y2="111.31"/><polygon class="cls-6" points="50.88 105.66 19.41 110.44 8.99 122.65 13.77 154.13 45.25 149.35 55.66 137.13 50.88 105.66"/><rect class="cls-4" x="3.79" y="116.62" width="41.94" height="41.94" transform="translate(-20.37 5.28) rotate(-8.63)"/><polyline class="cls-3" points="62.35 139.08 20.89 145.37 14.59 103.91"/><polyline class="cls-4" points="14.59 103.91 56.06 97.61 62.35 139.08"/><line class="cls-4" x1="0.88" y1="120" x2="14.59" y2="103.91"/><line class="cls-4" x1="42.34" y1="113.71" x2="56.06" y2="97.61"/><line class="cls-3" x1="7.17" y1="161.46" x2="20.89" y2="145.37"/><line class="cls-4" x1="48.64" y1="155.17" x2="62.35" y2="139.08"/><line class="cls-7" x1="116.85" y1="0.52" x2="116.85" y2="7.02"/><line class="cls-7" x1="120.09" y1="3.77" x2="113.6" y2="3.77"/><line class="cls-7" x1="4.12" y1="38.03" x2="4.12" y2="44.52"/><line class="cls-7" x1="7.37" y1="41.27" x2="0.88" y2="41.27"/><line class="cls-7" x1="24.14" y1="62.03" x2="24.14" y2="68.53"/><line class="cls-7" x1="27.38" y1="65.28" x2="20.89" y2="65.28"/><line class="cls-7" x1="100.22" y1="135.83" x2="100.22" y2="142.32"/><line class="cls-7" x1="103.47" y1="139.08" x2="96.98" y2="139.08"/></g></g></svg>