<svg xmlns="http://www.w3.org/2000/svg" xmlns:xlink="http://www.w3.org/1999/xlink" viewBox="0 0 173.36 159.51"><defs><style>.cls-1{fill:url(#linear-gradient);}.cls-10,.cls-2,.cls-4,.cls-5{fill:none;}.cls-10,.cls-12,.cls-2,.cls-4,.cls-5,.cls-6,.cls-9{stroke:#436ffd;}.cls-10,.cls-2,.cls-4,.cls-9{stroke-linecap:round;stroke-linejoin:round;}.cls-2{stroke-width:1.76px;}.cls-3{fill:url(#linear-gradient-2);}.cls-4{stroke-width:1.75px;}.cls-12,.cls-5,.cls-6{stroke-miterlimit:10;}.cls-12,.cls-6{fill:#cdf;}.cls-7{fill:url(#radial-gradient);}.cls-8,.cls-9{fill:#fff;}.cls-9{stroke-width:1.72px;}.cls-10{stroke-width:1.32px;}.cls-11{fill:#436ffd;}.cls-12{stroke-width:1.17px;}</style><linearGradient id="linear-gradient" x1="107.5" y1="33.23" x2="95.22" y2="46.65" gradientUnits="userSpaceOnUse"><stop offset="0" stop-color="#fff"/><stop offset="1" stop-color="#cdf"/></linearGradient><linearGradient id="linear-gradient-2" x1="99.13" y1="85.25" x2="99.13" y2="138.76" xlink:href="#linear-gradient"/><radialGradient id="radial-gradient" cx="132.92" cy="118.85" r="39" gradientUnits="userSpaceOnUse"><stop offset="0.84" stop-color="#fefeff"/><stop offset="1" stop-color="#cdf"/></radialGradient></defs><title>lock</title><g id="Layer_2" data-name="Layer 2"><g id="Layer_1-2" data-name="Layer 1"><path class="cls-1" d="M106.33,67.11c-3.81,0-3.23-.59-3.23-.59s1-13.7-2.81-24.24C94.71,27,88.61,27.81,83,27.42,85.4,26.14,106.33,17.75,106.33,67.11Z"/><polygon class="cls-2" points="144.07 69.81 55.39 80.98 55.47 155.35 144.15 141.28 144.07 69.81"/><polygon class="cls-3" points="137.03 76 61.18 85.56 61.24 149.16 137.09 137.13 137.03 76"/><line class="cls-2" x1="32.49" y1="67.11" x2="55.39" y2="80.98"/><polyline class="cls-2" points="52.26 64.64 32.49 67.11 32.56 135.55 55.47 155.35"/><line class="cls-2" x1="102.52" y1="58.36" x2="68.23" y2="62.64"/><polyline class="cls-2" points="144.07 69.81 121.16 56.03 118.28 56.39"/><path class="cls-4" d="M83,27.42c22.46-2.68,19.43,38.83,19.43,38.83s1.52,1,7.38.8,8.27-2.1,8.27-2.1c.78-15.12.93-53.2-32.35-53.16C47.1,11.82,52.51,71.2,52.51,71.2a21.16,21.16,0,0,0,11.18,1.34c4.27-.64,4.45-2,4.45-2S66,23.45,91.52,26.22"/><path class="cls-2" d="M61.08,32.24a24.84,24.84,0,0,1,2.34-4.06"/><path class="cls-2" d="M57.74,42.74c.4-1.84.86-3.65,1.4-5.38"/><path class="cls-2" d="M55.38,72.15a143.69,143.69,0,0,1,1.69-25.93"/><path class="cls-2" d="M105.55,56.54c.06,1.7.07,3.52,0,5.44"/><path class="cls-2" d="M100.94,34.68s3.24,5.14,4.32,17"/><line class="cls-2" x1="122.66" y1="138.88" x2="126.01" y2="138.31"/><line class="cls-2" x1="109.25" y1="141.15" x2="117.19" y2="139.81"/><polyline class="cls-2" points="61.18 124.14 61.2 149.3 103.91 142.06"/><line class="cls-2" x1="61.17" y1="115.75" x2="61.17" y2="119.65"/><line class="cls-2" x1="36.65" y1="107.39" x2="36.68" y2="133.14"/><line class="cls-2" x1="36.64" y1="89.65" x2="36.65" y2="101.54"/><line class="cls-2" x1="36.62" y1="78.53" x2="36.63" y2="83.6"/><line class="cls-5" x1="28.25" y1="24.83" x2="28.25" y2="31.32"/><line class="cls-5" x1="31.49" y1="28.07" x2="25" y2="28.07"/><line class="cls-6" x1="130.58" y1="43.67" x2="130.58" y2="50.16"/><line class="cls-6" x1="133.83" y1="46.91" x2="127.33" y2="46.91"/><line class="cls-5" x1="127.33" x2="127.33" y2="6.49"/><line class="cls-5" x1="130.58" y1="3.25" x2="124.09" y2="3.25"/><line class="cls-5" x1="3.25" y1="117.53" x2="3.25" y2="124.03"/><line class="cls-5" x1="6.49" y1="120.78" y2="120.78"/><circle class="cls-7" cx="132.92" cy="118.85" r="39"/><circle class="cls-8" cx="132.92" cy="118.86" r="39.41" transform="translate(-36.69 63.83) rotate(-23.83)"/><path class="cls-9" d="M137,158.46a39.41,39.41,0,0,1-24.67-72.71"/><path class="cls-9" d="M149.08,155.28a39.2,39.2,0,0,1-5,1.83"/><path class="cls-9" d="M119.14,82.4A39.41,39.41,0,0,1,155,152"/><ellipse class="cls-10" cx="132.93" cy="118.85" rx="22.5" ry="7.57" transform="translate(-36.69 63.84) rotate(-23.83)"/><ellipse class="cls-10" cx="132.93" cy="118.85" rx="7.57" ry="22.5" transform="translate(-36.69 63.84) rotate(-23.83)"/><ellipse class="cls-10" cx="132.93" cy="118.85" rx="7.57" ry="22.5" transform="translate(-25.91 199.88) rotate(-68.83)"/><ellipse class="cls-10" cx="132.93" cy="118.85" rx="22.5" ry="7.57" transform="translate(-25.91 199.88) rotate(-68.83)"/><circle class="cls-11" cx="123.84" cy="98.27" r="2.82" transform="translate(-29.15 58.41) rotate(-23.83)"/><circle class="cls-12" cx="123.84" cy="98.27" r="2.82" transform="translate(-31.56 127.34) rotate(-49.03)"/><circle class="cls-12" cx="139.67" cy="108.41" r="2.82" transform="translate(-33.76 142.79) rotate(-49.03)"/><circle class="cls-12" cx="142.02" cy="139.43" r="2.82" transform="translate(-56.38 155.24) rotate(-49.03)"/><circle class="cls-12" cx="122.82" cy="126.4" r="2.82" transform="translate(-40.6 60.4) rotate(-23.83)"/><circle class="cls-8" cx="132.93" cy="118.85" r="4.1"/></g></g></svg>