<svg xmlns="http://www.w3.org/2000/svg" xmlns:xlink="http://www.w3.org/1999/xlink" viewBox="0 0 224.18 191.16"><defs><style>.cls-1,.cls-10,.cls-11,.cls-12,.cls-13,.cls-2,.cls-3,.cls-4,.cls-5,.cls-6,.cls-7,.cls-8,.cls-9{stroke:#436ffd;stroke-linecap:round;stroke-linejoin:round;}.cls-1,.cls-10,.cls-11,.cls-12,.cls-13,.cls-3,.cls-4,.cls-6,.cls-8,.cls-9{stroke-width:1.75px;}.cls-1{fill:url(#linear-gradient);}.cls-2,.cls-3{fill:#fff;}.cls-2{stroke-width:2.23px;}.cls-4{fill:url(#linear-gradient-2);}.cls-5,.cls-7{fill:none;}.cls-5{stroke-width:2.25px;}.cls-6{fill:url(#linear-gradient-3);}.cls-7{stroke-width:2.34px;}.cls-8{fill:url(#linear-gradient-4);}.cls-9{fill:url(#linear-gradient-5);}.cls-10{fill:url(#linear-gradient-6);}.cls-11{fill:url(#linear-gradient-7);}.cls-12{fill:url(#linear-gradient-8);}.cls-13{fill:url(#linear-gradient-9);}</style><linearGradient id="linear-gradient" x1="114.2" y1="102.96" x2="164.84" y2="102.96" gradientUnits="userSpaceOnUse"><stop offset="0" stop-color="#fff"/><stop offset="1" stop-color="#cdf"/></linearGradient><linearGradient id="linear-gradient-2" x1="130.91" y1="96.94" x2="206.83" y2="96.94" gradientTransform="translate(68.63 -70) rotate(29.16)" xlink:href="#linear-gradient"/><linearGradient id="linear-gradient-3" x1="172.67" y1="91.02" x2="223.31" y2="91.02" gradientUnits="userSpaceOnUse"><stop offset="0" stop-color="#cdf"/><stop offset="1" stop-color="#fff"/></linearGradient><linearGradient id="linear-gradient-4" x1="36.97" y1="28.72" x2="78.41" y2="28.72" xlink:href="#linear-gradient"/><linearGradient id="linear-gradient-5" x1="52.98" y1="31.35" x2="122.09" y2="31.35" gradientTransform="translate(8.89 -18.24) rotate(12.53)" xlink:href="#linear-gradient"/><linearGradient id="linear-gradient-6" x1="96.41" y1="34.02" x2="137.85" y2="34.02" xlink:href="#linear-gradient-3"/><linearGradient id="linear-gradient-7" x1="0.88" y1="140.85" x2="38.64" y2="140.85" xlink:href="#linear-gradient"/><linearGradient id="linear-gradient-8" x1="14.42" y1="153.17" x2="79.73" y2="153.17" gradientTransform="translate(-17.53 6.53) rotate(-6.69)" xlink:href="#linear-gradient"/><linearGradient id="linear-gradient-9" x1="55.26" y1="165.43" x2="93.02" y2="165.43" xlink:href="#linear-gradient-3"/></defs><title>money</title><g id="Layer_2" data-name="Layer 2"><g id="Layer_1-2" data-name="Layer 1"><polygon class="cls-1" points="141.41 73.33 114.2 90.58 137.63 132.58 164.84 115.33 141.41 73.33"/><polygon class="cls-2" points="140.78 83.14 122.58 94.68 138.26 122.77 156.46 111.23 140.78 83.14"/><polygon class="cls-3" points="141.41 73.33 130.91 90.58 154.34 132.58 164.84 115.33 141.41 73.33"/><polygon class="cls-3" points="141.41 73.33 130.91 90.58 154.34 132.58 164.84 115.33 141.41 73.33"/><rect class="cls-4" x="138.82" y="72.89" width="60.11" height="48.09" transform="translate(-25.83 94.57) rotate(-29.16)"/><line class="cls-5" x1="141.3" y1="93.75" x2="137.79" y2="95.71"/><line class="cls-5" x1="149.49" y1="89.18" x2="143.89" y2="92.3"/><path class="cls-5" d="M149.49,89.18"/><polyline class="cls-5" points="174.5 112.37 194.48 101.22 178.67 72.89 153.12 87.15"/><line class="cls-5" x1="153.86" y1="123.88" x2="170.84" y2="114.41"/><polygon class="cls-3" points="183.16 61.4 172.67 78.65 196.1 120.64 206.59 103.4 183.16 61.4"/><polygon class="cls-6" points="196.1 120.64 223.31 103.4 199.88 61.4 172.67 78.65 196.1 120.64"/><polyline class="cls-7" points="192.62 114.41 215.79 99.72 199.31 70.2 180.41 82.19"/><path class="cls-7" d="M205.27,80.88A12.23,12.23,0,0,1,189,76.75"/><path class="cls-7" d="M205.55,106.22a12.13,12.13,0,0,1,4.33-17.08"/><path class="cls-7" d="M128.35,105a11.85,11.85,0,0,0,5.92-8.43"/><path class="cls-7" d="M132.86,113.11a11.08,11.08,0,0,1,10.55-.13"/><circle class="cls-5" cx="157.93" cy="102.96" r="13.82"/><polygon class="cls-8" points="67.98 0.88 36.97 9.62 47.4 56.56 78.41 47.82 67.98 0.88"/><polygon class="cls-2" points="64.57 10.09 43.83 15.94 50.81 47.35 71.55 41.5 64.57 10.09"/><polygon class="cls-3" points="67.98 0.88 52.98 14.4 63.41 61.34 78.41 47.82 67.98 0.88"/><polygon class="cls-3" points="67.98 0.88 52.98 14.4 63.41 61.34 78.41 47.82 67.98 0.88"/><rect class="cls-9" x="57.48" y="7.31" width="60.11" height="48.09" transform="translate(-4.72 19.74) rotate(-12.53)"/><line class="cls-5" x1="62.03" y1="20.41" x2="58.1" y2="21.28"/><line class="cls-5" x1="71.19" y1="18.37" x2="64.92" y2="19.76"/><path class="cls-5" d="M71.19,18.37"/><polyline class="cls-5" points="88.51 47.75 110.85 42.79 103.81 11.12 75.25 17.47"/><line class="cls-5" x1="65.44" y1="52.88" x2="84.42" y2="48.66"/><polygon class="cls-3" points="111.4 1.4 96.41 14.92 106.84 61.86 121.83 48.34 111.4 1.4"/><polygon class="cls-10" points="106.84 61.86 137.85 53.12 127.42 6.18 96.41 14.92 106.84 61.86"/><polyline class="cls-7" points="105.29 54.89 131.69 47.45 124.36 14.45 102.81 20.52"/><path class="cls-7" d="M127,26.38a12.23,12.23,0,0,1-14.42-8.62"/><path class="cls-7" d="M120,50.74a12.13,12.13,0,0,1,9-15.13"/><path class="cls-7" d="M46.4,27.5a11.85,11.85,0,0,0,8.08-6.39"/><path class="cls-7" d="M48.41,36.55a11.08,11.08,0,0,1,10.14,2.9"/><circle class="cls-5" cx="75.34" cy="33.99" r="13.82" transform="translate(21.21 96.45) rotate(-73.37)"/><polygon class="cls-11" points="38.64 117.95 6.48 116 0.88 163.76 33.03 165.71 38.64 117.95"/><polygon class="cls-2" points="32.39 125.53 10.88 124.22 7.13 156.18 28.64 157.48 32.39 125.53"/><polygon class="cls-3" points="38.64 117.95 20.03 125.78 14.42 173.54 33.03 165.71 38.64 117.95"/><polygon class="cls-3" points="38.64 117.95 20.03 125.78 14.42 173.54 33.03 165.71 38.64 117.95"/><rect class="cls-12" x="17.02" y="129.12" width="60.11" height="48.09" transform="translate(18.17 -4.44) rotate(6.69)"/><line class="cls-5" x1="26.59" y1="134.43" x2="22.6" y2="133.96"/><line class="cls-5" x1="35.91" y1="135.53" x2="29.54" y2="134.78"/><path class="cls-5" d="M35.91,135.53"/><polyline class="cls-5" points="42.59 168.97 65.32 171.64 69.1 139.42 40.04 136.01"/><line class="cls-5" x1="19.12" y1="166.22" x2="38.44" y2="168.48"/><polygon class="cls-3" points="79.47 132.74 60.86 140.57 55.26 188.33 73.87 180.5 79.47 132.74"/><polygon class="cls-13" points="55.26 188.33 87.41 190.28 93.02 142.53 60.86 140.57 55.26 188.33"/><polyline class="cls-7" points="56.09 181.24 83.47 182.9 87.41 149.33 65.06 147.97"/><path class="cls-7" d="M86,161.47A12.23,12.23,0,0,1,75.2,148.58"/><path class="cls-7" d="M71.36,182.17a12.13,12.13,0,0,1,13.52-11.31"/><path class="cls-7" d="M9.49,136a11.85,11.85,0,0,0,9.74-3.37"/><path class="cls-7" d="M8.42,145.19A11.08,11.08,0,0,1,17,151.26"/><circle class="cls-5" cx="34.68" cy="151.64" r="13.82" transform="translate(-108.54 90.94) rotate(-54.15)"/><circle class="cls-3" cx="8.42" cy="56.56" r="5.07"/><circle class="cls-3" cx="206.77" cy="24.31" r="7.58"/><circle class="cls-3" cx="156.46" cy="171.64" r="11.06"/></g></g></svg>