<svg xmlns="http://www.w3.org/2000/svg" xmlns:xlink="http://www.w3.org/1999/xlink" viewBox="0 0 173.44 159.17"><defs><style>.cls-1{fill:url(#linear-gradient);}.cls-2,.cls-7{fill:#fff;}.cls-3,.cls-4,.cls-5,.cls-6{fill:none;}.cls-3,.cls-4,.cls-5,.cls-6,.cls-7{stroke:#436ffd;stroke-linecap:round;stroke-linejoin:round;}.cls-3{stroke-width:2.2px;}.cls-4{stroke-width:1.98px;}.cls-5,.cls-7{stroke-width:2.12px;}.cls-6{stroke-width:1.8px;}</style><linearGradient id="linear-gradient" x1="-64.43" y1="154.27" x2="-64.43" y2="39.42" gradientTransform="translate(143.63)" gradientUnits="userSpaceOnUse"><stop offset="0" stop-color="#fff"/><stop offset="1" stop-color="#cdf"/></linearGradient></defs><title>pinky-promise</title><g id="Layer_2" data-name="Layer 2"><g id="Layer_1-2" data-name="Layer 1"><rect class="cls-1" x="17.87" y="31.4" width="122.67" height="122.67" transform="translate(158.4 185.46) rotate(180)"/><path class="cls-2" d="M153.88,86c-2.75-1.86-5.61-4.14-6.3-7.39-.5-2.37.24-4.93-.62-7.19-1.2-3.13-4.85-4.36-7.89-5.77-5.81-2.69-10.54-7.18-15.79-10.84a124.86,124.86,0,0,0-14.58-8.33L97.22,40.61a2.17,2.17,0,0,0-1.39-.35,2,2,0,0,0-1.07.81,15.27,15.27,0,0,0-3.34,9,13.38,13.38,0,0,0-6.14,9.13,6,6,0,0,1-.39,1.63,4.9,4.9,0,0,1-1,1.25l-5.39,5.58a1.29,1.29,0,0,1-.4.32c-.44.18-.91-.14-1.26-.46a23.57,23.57,0,0,0-4.22-3.43,5.23,5.23,0,0,0-5.19-.18,5,5,0,0,0-1.86,5,14.26,14.26,0,0,0,2.34,5.14c2.63,4.15,5.47,8.36,9.59,11A45.91,45.91,0,0,0,86.23,89a82.48,82.48,0,0,1,17.71,9.38c4.58,3.2,8.92,6.94,14.17,8.82a15.42,15.42,0,0,0,9.86.5c3.05-1,5.91-3.28,9.08-2.77a14.6,14.6,0,0,1,3.13,1.1c5.07,2.07,10.71,2.08,16.19,2.06,3.83,0,7.79-.05,11.28-1.61,4.25-1.9,8.54-7.54,3.52-10.92C165.78,91.9,159.35,89.7,153.88,86Z"/><path class="cls-2" d="M26.29,145.64c1.14-2.91,2.35-5.92,4.63-8,3.58-3.34,9-3.81,13.09-6.54,3.67-2.46,5.9-6.5,8-10.39l20.46-38a1.67,1.67,0,0,0,.29-1.28,1.62,1.62,0,0,0-.61-.7c-4.4-3.37-9.44-5.79-14.43-8.18L50.4,69,33.85,61.05a4,4,0,0,0-1.95-.55,3.16,3.16,0,0,0-1.74.81,14.3,14.3,0,0,0-3.41,5L13.16,94.42c-3.08,6.36-6.24,13.47-4.28,20.26,1.07,3.7,3.58,6.88,4.52,10.61s.27,7.5,0,11.27a54.25,54.25,0,0,0,.39,11.35c.4,2.83.69,7.94,2.74,10.1C21.67,163.41,25.24,148.33,26.29,145.64Z"/><path class="cls-3" d="M68.91,88.84,49.44,126a15.44,15.44,0,0,1-10.87,8c-3.62.68-7.16,1.77-8.59,4.58-1.74,3.42-5.19,10.84-8,17"/><path class="cls-4" d="M26.39,59.67H31.3a2.91,2.91,0,0,1,2.91,2.91V84a4.6,4.6,0,0,1-4.6,4.6H28.08a4.6,4.6,0,0,1-4.6-4.6V62.57a2.91,2.91,0,0,1,2.91-2.91Z" transform="translate(36.73 -5.02) rotate(26.95)"/><path class="cls-5" d="M35.84,64.9H42.4a2.9,2.9,0,0,1,2.9,2.9V88.52a5.3,5.3,0,0,1-5.3,5.3H38.25a5.3,5.3,0,0,1-5.3-5.3V67.79a2.9,2.9,0,0,1,2.9-2.9Z" transform="translate(40.21 -9.11) rotate(26.95)"/><path class="cls-5" d="M47,70.49H53.3a3,3,0,0,1,3,3V94.11a5.3,5.3,0,0,1-5.3,5.3H49.26a5.3,5.3,0,0,1-5.3-5.3V73.5A3,3,0,0,1,47,70.49Z" transform="translate(43.95 -13.49) rotate(26.95)"/><line class="cls-5" x1="51.86" y1="95.13" x2="62.17" y2="74.85"/><line class="cls-5" x1="73.18" y1="80.45" x2="60.07" y2="106.23"/><path class="cls-6" d="M66.34,63.63h6.33a3,3,0,0,1,3,3V79.19a5.3,5.3,0,0,1-5.3,5.3H68.63a5.3,5.3,0,0,1-5.3-5.3V66.64a3,3,0,0,1,3-3Z" transform="translate(41.11 -23.46) rotate(26.95)"/><path class="cls-5" d="M1.06,142.73c3.07-5.52,6.44-11.65,8-14.74C11,124.2,9,119.42,7.25,115.38a8.26,8.26,0,0,1,0-6.57L20,79.7,31.77,83.9,24.31,98.56"/><path class="cls-5" d="M27,122.76l6.64-13.07a4.08,4.08,0,0,0-1.79-5.48l-5.75-2.92"/><path class="cls-7" d="M19.5,83.11H37.71A5.87,5.87,0,0,1,43.59,89v1.93a5.87,5.87,0,0,1-5.87,5.87H19.5a5.16,5.16,0,0,1-5.16-5.16V88.27a5.16,5.16,0,0,1,5.16-5.16Z" transform="translate(43.91 -3.36) rotate(26.95)"/><path class="cls-3" d="M80,85.53l36.72,20.35a15.44,15.44,0,0,0,13.48.7c3.39-1.43,7-2.47,9.7-.91,3.34,1.9,10.3,6.19,16.06,9.77"/><path class="cls-4" d="M104.58,36.73h1.52a4.6,4.6,0,0,1,4.6,4.6V62.75a2.91,2.91,0,0,1-2.91,2.91h-4.91A2.91,2.91,0,0,1,100,62.75V41.34A4.6,4.6,0,0,1,104.58,36.73Z" transform="translate(201.97 -14.99) rotate(119.67)"/><path class="cls-5" d="M98.75,46.76h1.75a5.3,5.3,0,0,1,5.3,5.3V72.78a2.9,2.9,0,0,1-2.9,2.9H96.35a2.9,2.9,0,0,1-2.9-2.9V52.06a5.3,5.3,0,0,1,5.3-5.3Z" transform="translate(202.14 4.96) rotate(119.67)"/><path class="cls-5" d="M92.64,57.49h1.75a5.3,5.3,0,0,1,5.3,5.3V83.4a3,3,0,0,1-3,3H90.35a3,3,0,0,1-3-3V62.79a5.3,5.3,0,0,1,5.3-5.3Z" transform="translate(202.32 26.31) rotate(119.67)"/><line class="cls-5" x1="97.67" y1="81.4" x2="77.9" y2="70.14"/><line class="cls-5" x1="71.79" y1="80.87" x2="96.92" y2="95.18"/><path class="cls-5" d="M166.27,93.19c-5.6-2.92-11.79-6.18-14.8-7.9-4.8-2.73-5-10.53-6.13-15.11L115.79,51l-7.53,10,14.29,8.14"/><path class="cls-5" d="M126.65,86.85l-5.79-3.3A4.08,4.08,0,0,1,119.34,78l3.44-6"/><line class="cls-5" x1="133.6" y1="90.81" x2="130.15" y2="88.84"/><path class="cls-7" d="M98.82,55.88h19.54a5.87,5.87,0,0,1,5.87,5.87v1.93a5.87,5.87,0,0,1-5.87,5.87H98.82A3.83,3.83,0,0,1,95,65.74v-6A3.83,3.83,0,0,1,98.82,55.88Z" transform="translate(218.37 -1.47) rotate(119.67)"/><path class="cls-7" d="M70.47,63.07h1.75a5.3,5.3,0,0,1,5.3,5.3V80.93a3,3,0,0,1-3,3H68.18a3,3,0,0,1-3-3V68.38a5.3,5.3,0,0,1,5.3-5.3Z" transform="translate(170.53 47.91) rotate(119.67)"/><path class="cls-5" d="M57.18,56.46c6.59-2,7.12-15.59,14.75-17.93A6.4,6.4,0,1,1,75.7,50.77C68.07,53.11,60,42.19,53.42,44.22a6.4,6.4,0,0,0,3.77,12.24Z"/><line class="cls-5" x1="58.85" y1="25.45" x2="55.35" y2="13.2"/><line class="cls-5" x1="47.6" y1="31.4" x2="40.54" y2="26.7"/><line class="cls-5" x1="39.12" y1="42.7" x2="35.1" y2="41.38"/><line class="cls-5" x1="73.18" y1="24.45" x2="74.85" y2="15.95"/><line class="cls-5" x1="86.1" y1="31.4" x2="88.85" y2="27.2"/><circle class="cls-5" cx="3.95" cy="57.62" r="2.89"/><circle class="cls-5" cx="93.51" cy="4.47" r="3.4"/><circle class="cls-5" cx="105.34" cy="126.77" r="2.93"/></g></g></svg>