<svg xmlns="http://www.w3.org/2000/svg" xmlns:xlink="http://www.w3.org/1999/xlink" viewBox="0 0 98.99 152.34"><defs><style>.cls-1{fill:url(#linear-gradient);}.cls-2{fill:#fff;}.cls-2,.cls-6,.cls-7,.cls-8,.cls-9{stroke:#436ffd;stroke-linecap:round;stroke-linejoin:round;}.cls-2,.cls-7{stroke-width:1.75px;}.cls-3{fill:url(#linear-gradient-2);}.cls-4,.cls-6{fill:#cdf;}.cls-5{fill:#fafcff;}.cls-6,.cls-9{stroke-width:1.48px;}.cls-7,.cls-8,.cls-9{fill:none;}.cls-8{stroke-width:1.11px;}.cls-10{fill:#436ffd;}</style><linearGradient id="linear-gradient" x1="82.96" y1="149.74" x2="7.54" y2="122.85" gradientUnits="userSpaceOnUse"><stop offset="0" stop-color="#fff"/><stop offset="1" stop-color="#cdf"/></linearGradient><linearGradient id="linear-gradient-2" x1="90.31" y1="40.17" x2="15.44" y2="-12.24" xlink:href="#linear-gradient"/></defs><title>sand-timer</title><g id="Layer_2" data-name="Layer 2"><g id="Layer_1-2" data-name="Layer 1"><path class="cls-1" d="M98.37,132v8.72c0,5.92-21.77,10.72-48.62,10.72s-48.62-4.8-48.62-10.72V132Z"/><path class="cls-2" d="M90,126.1c5.1,1.7,8.07,3.73,8.07,5.92,0,5.92-21.77,10.72-48.62,10.72S.88,137.94.88,132c0-2.22,3.06-4.28,8.3-6"/><ellipse class="cls-3" cx="49.49" cy="11.6" rx="48.62" ry="10.72"/><path class="cls-4" d="M88,47.2h0c0-2.81-17.25-5.08-38.52-5.08s-38.52,2.28-38.52,5.08h0v0a.78.78,0,0,0,.1.33C15.49,63.14,27.29,75.07,41.9,78.18c0,0,5.24,3.09,8,3.1s7.19-3.1,7.19-3.1C71.81,75,83.68,63,88,47.2Z"/><path class="cls-5" d="M11.72,47.21a2.79,2.79,0,0,0,.12,1.18L13,53.12A11.26,11.26,0,0,0,14,56a47,47,0,0,0,3.09,4.74c1.32,1.76,2.74,3.2,4.11,4.92a42.33,42.33,0,0,0,9.08,8.27,21.15,21.15,0,0,0,10.94,3.62L33,66.2a29,29,0,0,1-2.86-4.51c-.67-1.42-1.12-2.95-1.88-4.32s-1.92-2.67-2.59-4.16a44.46,44.46,0,0,1-2.25-8,2.58,2.58,0,0,0-.78-1.59c-.92-.78-1.6-.33-2.75,0C18.14,44.15,12.15,45,11.72,47.21Z"/><path class="cls-4" d="M89.62,130c0,1.23-17.61,6.2-39.86,6.2S10,131.48,10,129.78c0-1.5-2.28-8.13-.45-9.87,5.82-5.54,23.28-6.43,40.21-6.43,17.2,0,34.62,1.16,40.28,6.83C91.7,122,89.62,128.56,89.62,130Z"/><path class="cls-6" d="M13.33,123.23c-2.47-.88-3.86-1.87-3.86-2.92,0-3.77,18-6.83,40.28-6.83S90,116.54,90,120.31s-18,6.83-40.28,6.83A204.82,204.82,0,0,1,27.92,126"/><ellipse class="cls-7" cx="49.49" cy="11.6" rx="48.62" ry="10.72"/><path class="cls-7" d="M98.11,20.32C98.11,26.24,76.35,31,49.49,31S.88,26.24.88,20.32"/><line class="cls-7" x1="0.88" y1="11.6" x2="0.88" y2="20.7"/><line class="cls-7" x1="98.11" y1="11.6" x2="98.11" y2="20.32"/><path class="cls-7" d="M98.11,132v8.72c0,5.92-21.77,10.72-48.62,10.72S.88,146.66.88,140.74V132"/><path class="cls-7" d="M10,129.78a50.78,50.78,0,0,1-.52-7.26c0-21.85,14.33-40.17,32.75-44.35h0C23.57,74.2,9.47,55.86,9.47,33.83A50.78,50.78,0,0,1,10,26.57"/><path class="cls-7" d="M89.62,26.38a50.76,50.76,0,0,1,.55,7.45c0,22-14.1,40.37-32.74,44.35h0c18.65,4,32.74,22.32,32.74,44.35a50.76,50.76,0,0,1-.55,7.45l-.15.26c-.55.62-17.72,5.94-39.58,5.94s-39-5.33-39.58-5.94"/><path class="cls-7" d="M40.94,52.13q-2.31-.07-4.5-.18"/><path class="cls-7" d="M32.42,51.72c-12.55-.84-21.15-2.56-21.15-4.54,0-2.81,17.25-5.08,38.52-5.08s38.52,2.28,38.52,5.08-17.25,5.08-38.52,5.08q-2.13,0-4.2,0"/><path class="cls-8" d="M28,57.48a88.09,88.09,0,0,0,14.2,20.7s5.24,3.09,8,3.1,7.19-3.1,7.19-3.1"/><path class="cls-8" d="M23.55,46.68a81.18,81.18,0,0,0,3.1,7.89"/><path class="cls-9" d="M23.57,125.5q-1.56-.23-3-.48"/><path class="cls-9" d="M28.68,126.13,27.18,126"/><path class="cls-9" d="M77.88,115.42c7.5,1.24,12.16,3,12.16,4.89,0,3.77-18,6.83-40.28,6.83-5.68,0-11.08-.2-16-.56"/><path class="cls-9" d="M18,116.1c7.37-1.59,18.84-2.62,31.72-2.62a197.91,197.91,0,0,1,23.93,1.33"/><path class="cls-9" d="M14.44,123.59c-3.17-1-5-2.09-5-3.29,0-1.36,2.35-2.63,6.41-3.7"/><circle class="cls-10" cx="46.49" cy="90.16" r="1.11"/><circle class="cls-10" cx="56.06" cy="91.27" r="0.62"/><circle class="cls-10" cx="58.97" cy="98.34" r="1.87"/><circle class="cls-10" cx="47.6" cy="103.75" r="1.53"/><circle class="cls-10" cx="37.17" cy="94.67" r="1.53"/><circle class="cls-10" cx="52.31" cy="98.34"/><circle class="cls-10" cx="55.43" cy="84.76" r="0.52"/><circle class="cls-10" cx="42.22" cy="82.95" r="1.28"/><circle class="cls-10" cx="51.62" cy="94.32" r="0.69"/><circle class="cls-10" cx="58.47" cy="106.43" r="0.69"/><circle class="cls-10" cx="50.49" cy="85.28" r="0.69"/><circle class="cls-10" cx="40.02" cy="89.05" r="0.69"/><circle class="cls-10" cx="42.22" cy="100.21" r="0.69"/><circle class="cls-10" cx="46.49" cy="95.57" r="0.9"/><circle class="cls-10" cx="53.01" cy="102.23" r="0.9"/><circle class="cls-10" cx="53.01" cy="107.91" r="0.35"/><path class="cls-4" d="M48.29,110.1a5.51,5.51,0,0,0-2.74.73,6.58,6.58,0,0,0-12.9-1,6.44,6.44,0,1,0,3.52,7.67,6.54,6.54,0,0,0,6.7-.62,5.54,5.54,0,1,0,5.42-6.73Z"/><path class="cls-7" d="M53.4,113.49a5.54,5.54,0,0,0-7.85-2.66,6.58,6.58,0,0,0-12.9-1,6.44,6.44,0,0,0-9.09,5.34"/><path class="cls-4" d="M70.9,40.39a2.76,2.76,0,0,0-1.37.38A3.31,3.31,0,0,0,63,40.23a3.24,3.24,0,1,0,1.77,3.85,3.28,3.28,0,0,0,3.37-.31,2.78,2.78,0,1,0,2.72-3.38Z"/><path class="cls-7" d="M73.68,43.17a2.79,2.79,0,0,0-2.79-2.79,2.76,2.76,0,0,0-1.37.38A3.31,3.31,0,0,0,63,40.23a3.23,3.23,0,0,0-4.44,2"/></g></g></svg>