<svg xmlns="http://www.w3.org/2000/svg" xmlns:xlink="http://www.w3.org/1999/xlink" viewBox="0 0 205.52 206.21"><defs><style>.cls-1{fill:url(#linear-gradient);}.cls-2{fill:url(#linear-gradient-2);}.cls-3,.cls-4,.cls-5,.cls-7{fill:none;}.cls-3,.cls-4,.cls-5,.cls-6,.cls-7{stroke:#436ffd;}.cls-3{stroke-miterlimit:10;}.cls-4,.cls-5,.cls-6,.cls-7{stroke-linecap:round;stroke-linejoin:round;}.cls-4,.cls-6{stroke-width:1.75px;}.cls-5{stroke-width:1.48px;}.cls-6{fill:#fff;}.cls-7{stroke-width:0.72px;}.cls-8{fill:url(#linear-gradient-3);}</style><linearGradient id="linear-gradient" x1="152.25" y1="-14.42" x2="152.25" y2="28.13" gradientUnits="userSpaceOnUse"><stop offset="0" stop-color="#fff"/><stop offset="0.48" stop-color="#fdfeff"/><stop offset="0.68" stop-color="#f6f9ff"/><stop offset="0.82" stop-color="#eaf1ff"/><stop offset="0.94" stop-color="#d8e5ff"/><stop offset="1" stop-color="#cdf"/></linearGradient><linearGradient id="linear-gradient-2" x1="-86.67" y1="-23.9" x2="1.59" y2="-23.9" gradientTransform="translate(98.27 171.94) rotate(90)" gradientUnits="userSpaceOnUse"><stop offset="0" stop-color="#fff"/><stop offset="1" stop-color="#cdf"/></linearGradient><linearGradient id="linear-gradient-3" x1="45.73" y1="35.75" x2="45.73" y2="72.75" xlink:href="#linear-gradient"/></defs><title>vault</title><g id="Layer_2" data-name="Layer 2"><g id="Layer_1-2" data-name="Layer 1"><path class="cls-1" d="M193.19,27.93a9,9,0,0,0-5.49,1.86,34.14,34.14,0,0,0-65.26-7.9A15.76,15.76,0,0,0,102.22,37H202.27A9.08,9.08,0,0,0,193.19,27.93Z"/><rect class="cls-2" x="78.04" y="85.27" width="88.26" height="88.26"/><line class="cls-3" x1="76.11" y1="37.84" x2="76.11" y2="44.33"/><line class="cls-3" x1="79.36" y1="41.08" x2="72.87" y2="41.08"/><line class="cls-3" x1="202.27" y1="101.7" x2="202.27" y2="108.19"/><line class="cls-3" x1="205.52" y1="104.94" x2="199.03" y2="104.94"/><line class="cls-3" x1="37.44" y1="95.09" x2="37.44" y2="101.58"/><line class="cls-3" x1="40.69" y1="98.34" x2="34.19" y2="98.34"/><rect class="cls-4" x="54.53" y="61.75" width="135.29" height="135.29" transform="translate(244.34 258.79) rotate(-180)"/><polyline class="cls-5" points="60.63 180.13 60.63 67.85 68.51 67.85"/><polyline class="cls-5" points="183.71 182.44 183.71 190.94 71.29 190.94"/><line class="cls-5" x1="183.71" y1="168.2" x2="183.71" y2="174.6"/><polyline class="cls-5" points="171.16 67.85 183.71 67.85 183.71 159.04"/><line class="cls-5" x1="97.24" y1="67.85" x2="162.82" y2="67.85"/><line class="cls-5" x1="76.77" y1="67.85" x2="87.59" y2="67.85"/><polyline class="cls-4" points="149.6 85.27 166.3 85.27 166.3 173.53 78.04 173.53 78.04 85.27 143.1 85.27"/><circle class="cls-6" cx="123.26" cy="129.4" r="30.7"/><circle class="cls-4" cx="123.26" cy="129.4" r="24.6"/><line class="cls-7" x1="105.54" y1="131.03" x2="99.66" y2="131.57"/><line class="cls-7" x1="103.94" y1="133.42" x2="100.04" y2="134.22"/><line class="cls-7" x1="104.53" y1="135.57" x2="100.75" y2="136.82"/><line class="cls-7" x1="105.36" y1="137.64" x2="101.74" y2="139.31"/><line class="cls-7" x1="108.01" y1="138.54" x2="102.95" y2="141.59"/><line class="cls-7" x1="107.62" y1="141.38" x2="104.46" y2="143.81"/><line class="cls-7" x1="109.07" y1="143.08" x2="106.2" y2="145.85"/><line class="cls-7" x1="110.7" y1="144.61" x2="108.16" y2="147.68"/><line class="cls-7" x1="113.49" y1="144.27" x2="110.24" y2="149.2"/><line class="cls-7" x1="114.37" y1="146.99" x2="112.57" y2="150.54"/><line class="cls-7" x1="116.41" y1="147.88" x2="115.03" y2="151.61"/><line class="cls-7" x1="118.55" y1="148.53" x2="117.6" y2="152.4"/><line class="cls-7" x1="120.91" y1="147.02" x2="120.13" y2="152.88"/><line class="cls-7" x1="122.88" y1="149.11" x2="122.8" y2="153.09"/><line class="cls-7" x1="125.11" y1="149.03" x2="125.48" y2="153"/><line class="cls-7" x1="127.32" y1="148.7" x2="128.14" y2="152.6"/><line class="cls-7" x1="128.79" y1="146.31" x2="130.63" y2="151.92"/><line class="cls-7" x1="131.47" y1="147.32" x2="133.13" y2="150.94"/><line class="cls-7" x1="133.44" y1="146.27" x2="135.5" y2="149.68"/><line class="cls-7" x1="135.28" y1="145.01" x2="137.71" y2="148.17"/><line class="cls-7" x1="135.58" y1="142.23" x2="139.67" y2="146.49"/><line class="cls-7" x1="138.44" y1="141.99" x2="141.51" y2="144.53"/><line class="cls-7" x1="139.76" y1="140.19" x2="143.09" y2="142.37"/><line class="cls-7" x1="140.87" y1="138.25" x2="144.43" y2="140.04"/><line class="cls-7" x1="139.92" y1="135.61" x2="145.46" y2="137.67"/><line class="cls-7" x1="142.39" y1="134.15" x2="146.25" y2="135.11"/><line class="cls-7" x1="142.8" y1="131.96" x2="146.75" y2="132.47"/><line class="cls-7" x1="142.97" y1="129.73" x2="146.95" y2="129.8"/><line class="cls-7" x1="140.98" y1="127.76" x2="146.86" y2="127.23"/><line class="cls-7" x1="142.58" y1="125.38" x2="146.47" y2="124.57"/><line class="cls-7" x1="141.99" y1="123.22" x2="145.77" y2="121.98"/><line class="cls-7" x1="141.16" y1="121.15" x2="144.78" y2="119.48"/><line class="cls-7" x1="138.51" y1="120.25" x2="143.57" y2="117.2"/><line class="cls-7" x1="138.9" y1="117.41" x2="142.06" y2="114.98"/><line class="cls-7" x1="137.45" y1="115.71" x2="140.32" y2="112.95"/><line class="cls-7" x1="135.82" y1="114.18" x2="138.36" y2="111.12"/><line class="cls-7" x1="133.03" y1="114.53" x2="136.28" y2="109.59"/><line class="cls-7" x1="132.15" y1="111.8" x2="133.95" y2="108.25"/><line class="cls-7" x1="130.11" y1="110.91" x2="131.49" y2="107.18"/><line class="cls-7" x1="127.97" y1="110.26" x2="128.92" y2="106.39"/><line class="cls-7" x1="125.61" y1="111.77" x2="126.39" y2="105.91"/><line class="cls-7" x1="123.64" y1="109.69" x2="123.71" y2="105.71"/><line class="cls-7" x1="121.41" y1="109.76" x2="121.04" y2="105.8"/><line class="cls-7" x1="119.2" y1="110.09" x2="118.38" y2="106.19"/><line class="cls-7" x1="117.73" y1="112.49" x2="115.89" y2="106.87"/><line class="cls-7" x1="115.05" y1="111.47" x2="113.39" y2="107.86"/><line class="cls-7" x1="113.08" y1="112.52" x2="111.02" y2="109.11"/><line class="cls-7" x1="111.24" y1="113.78" x2="108.81" y2="110.63"/><line class="cls-7" x1="110.94" y1="116.57" x2="106.85" y2="112.31"/><line class="cls-7" x1="108.08" y1="116.8" x2="105.01" y2="114.26"/><line class="cls-7" x1="106.75" y1="118.6" x2="103.43" y2="116.42"/><line class="cls-7" x1="105.65" y1="120.54" x2="102.09" y2="118.75"/><line class="cls-7" x1="106.6" y1="123.18" x2="101.06" y2="121.12"/><line class="cls-7" x1="104.13" y1="124.64" x2="100.27" y2="123.68"/><line class="cls-7" x1="103.72" y1="126.83" x2="99.77" y2="126.32"/><line class="cls-7" x1="103.55" y1="129.06" x2="99.57" y2="128.99"/><rect class="cls-6" x="68.9" y="157.27" width="22.35" height="12.05" transform="translate(160.15 326.59) rotate(-180)"/><rect class="cls-6" x="68.9" y="89.19" width="22.35" height="12.05" transform="translate(160.15 190.42) rotate(-180)"/><circle class="cls-4" cx="123.26" cy="129.4" r="13.28"/><rect class="cls-4" x="61.38" y="197.04" width="16.66" height="8.29"/><rect class="cls-4" x="166.3" y="197.04" width="16.66" height="8.29"/><path class="cls-4" d="M171.17,5.53A34.15,34.15,0,0,0,122.44,21.9a15.78,15.78,0,0,0-17.28,5.95"/><path class="cls-4" d="M178.55,11.34a34.33,34.33,0,0,0-4.24-3.73"/><path class="cls-4" d="M201.95,34.59A9.07,9.07,0,0,0,187.7,29.8a34,34,0,0,0-6.29-15.09"/><path class="cls-4" d="M103,32.16a15.76,15.76,0,0,0-.57,2.4"/><path class="cls-8" d="M70,53.29a20.88,20.88,0,0,0-10.5,2.83A22.31,22.31,0,0,0,19,59.57,15.08,15.08,0,0,0,.49,74.29H91A21,21,0,0,0,70,53.29Z"/><path class="cls-4" d="M2.13,67.44A15,15,0,0,0,.88,70.87"/><path class="cls-4" d="M40,44.79A22.32,22.32,0,0,0,19,59.57a15,15,0,0,0-15.16,5.2"/><path class="cls-4" d="M79.49,55.58a21,21,0,0,0-20,.55,22.34,22.34,0,0,0-15.39-11"/><path class="cls-4" d="M90.7,71A21,21,0,0,0,83.27,58"/></g></g></svg>