<svg xmlns="http://www.w3.org/2000/svg" viewBox="0 0 280.43 433.99"><defs><style>.cls-1{fill:#fff;}.cls-2,.cls-3,.cls-4,.cls-8,.cls-9{fill:none;}.cls-2,.cls-3,.cls-4,.cls-7,.cls-8{stroke:#444745;}.cls-2,.cls-3,.cls-4,.cls-7,.cls-8,.cls-9{stroke-linecap:round;stroke-linejoin:round;}.cls-2{stroke-width:1.26px;}.cls-3{stroke-width:2.18px;}.cls-4,.cls-7{stroke-width:1.46px;}.cls-5,.cls-7{fill:#4848ff;}.cls-6{fill:#efeeee;}.cls-8{stroke-width:6px;}.cls-9{stroke:#4848ff;stroke-width:2.19px;}</style></defs><title>Asset 2</title><g id="Layer_2" data-name="Layer 2"><g id="Layer_1-2" data-name="Layer 1"><path class="cls-1" d="M83.65,58l-.56,1.23a37.85,37.85,0,0,0-18.5,1.57,45.09,45.09,0,0,1-13.84,1.93c-7.5.09-10.88,1.84-16,7.36C31,74.2,24.54,80.9,20.58,84.77c-5,4.92-8.61,6.23-12.65,12-1.21,1.73-2.61,7.89-3.19,9.93-.8,2.82,1.87,5.77,2.49,8.63,2.58,12,4.21,24,11.21,34.08a20,20,0,0,0,1.65-1.84L8.7,185.46C7.34,190,6,194.62,6.25,199.33a23.1,23.1,0,0,0,1.87,7.6c-5.3,6.71-9.59,19.93-3.52,28.33,2.24,3.09,5.46,6,5.5,9.8a10.75,10.75,0,0,1-.11,1.47c-1.63,3-2.44,6.19-1.47,9.39s3.62,5.69,6.17,7.93A475.89,475.89,0,0,0,78,310.77c21.67,13.45,46.4,22.5,66.72,37.58,8.11,6,16.22,12,23.78,18.72,22.79,20.16,43.16,46.12,64.35,65.81,0,0,26.54-29.47,28.66-32.82,9.28-14.64,16.85-30.92,17.84-48.24.68-11.83-6.22-32.63-14.57-41,0,0-35.27-22.53-50.18-31.06-21.64-12.4-39.74-39.47-39.74-39.47,0-.2,0-.41,0-.61,0-5-4.41-21.34-4.92-23.49l-10.26-43.59c-.72-3-1.66-6.41-4.34-8l-4.65-14.49a52.42,52.42,0,0,0-3.94-9.87,56,56,0,0,0,5.54-8.5c2.25-4.27,3.91-9.6,1.46-13.75-2.19-3.71-6.81-5.05-11-6.08l-12.53-3.08c-2.85-7.7-9.46-15.15-13.49-22.27L104.89,65.73c-2.33-4.12-4.87-8.44-9-10.7S85.48,53.67,83.65,58Zm16.58,82.74c1.77,2.2,3.55,4.43,5.15,6.77-3.43-1.26-7.61-1.18-11.38-1.23a67.71,67.71,0,0,1-9.9-.89ZM78.09,85.42c.66,6.15,2.66,14.73,4.53,17.48a3.63,3.63,0,0,0,1.74,1.32,5.72,5.72,0,0,0,2.55.12c1.49-.15,3-.25,4.56-.32l-.38.72c-7.63,2-15.29,3.92-23.12,4.8-5.69.64-11.54.73-16.92,2.71a20.37,20.37,0,0,0-2.74,1.25,21.34,21.34,0,0,0-11.78,5.83,22.75,22.75,0,0,1,11.67-6.53,4.56,4.56,0,0,1-.47-2.66l-1.69-2.26c4.37-7.32,7.74-11.39,15.82-14.1,3.2-1.07,6.15-2.78,9.32-4A21.28,21.28,0,0,0,78.09,85.42Z"/><path class="cls-2" d="M100.78,141.53q1.1,2,2.27,4.07"/><path class="cls-3" d="M78.34,85.23a119.15,119.15,0,0,0,5.76,20.64"/><path class="cls-3" d="M130.72,110l-.44-.88c-2.73-5.72-12.54-19.42-23.8-42.7S83,57.61,83,57.61"/><path class="cls-3" d="M154.51,159.62c-2.66-6.69-5.64-13.39-8.59-19.63"/><path class="cls-2" d="M154.51,159.62"/><path class="cls-3" d="M161.77,181.59c6.72,27.81,10.81,39.7,13,58,0,0,7.56,23.46,72.42,61l17.51,10.13s48.78,46.14-31.92,122.1c-1.15,1.08-70.22-80.37-112.19-100.62s-54.9-28.79-54.9-28.79c-1.55-1.12-29.68-22.08-46.51-35.76s-8.69-26.3-8.69-26.3S1.37,233.83,1.13,229A32.6,32.6,0,0,1,8,207.79s-5.14-1.57,1.25-23.62S17.74,151,24.9,137.66s4.27-22.93,41.18-27.73c0,0,27.06-6.92,33.21-5.67,9.77,2,46.38,8.12,48.66,9.26s12.89,12.66-2,26.46"/><path class="cls-3" d="M49,113.19l-2.92-5.31s6.08-6.06,8.75-11.73c0,0,27.32-7.31,33.5-22.41s-2-15.1-2-15.1-39,2.81-45.1,6.6S25.2,78.76,18.15,86.9c-10.28,9.52-15.78,12-11.56,26.22s6.88,28.12,11.74,37.08"/><path class="cls-2" d="M100.78,141.53c5.88.48,23.87,3.19,45.14-1.55"/><path class="cls-2" d="M81.71,146.27c.8-.19,15.29-4.12,17.18-4.75a6.66,6.66,0,0,1,1.89,0"/><path class="cls-2" d="M161.78,181.52c-4.29,5-10.38,6.08-34.47.38-5.45-1.29-10.29-2.62-14.43-2.76-10,.44-27.06,2-27.06,2"/><path class="cls-2" d="M81.71,146.27c-9.19.15-24.66.87-30.32,3.95-8.26,4.49-33,33.27-43.15,57.84"/><path class="cls-2" d="M102.94,146.17c-7.21,0-14.1.08-14.1.08s-2.9-.05-7.13,0"/><path class="cls-2" d="M154.05,159.45c-9.44-3.62-31.54-11.93-36.6-12.67a137.59,137.59,0,0,0-14.51-.6"/><path class="cls-3" d="M158.72,161.52c-.16-.07-2.16-1.11-4.67-2.07"/><path class="cls-2" d="M163.55,179.16c4.69-6.88-4.45-17.72-5.22-18.05"/><path class="cls-3" d="M161.78,181.52a26.21,26.21,0,0,0,1.77-2.36"/><path class="cls-2" d="M11.68,233.69A50.58,50.58,0,0,0,20.58,222c3.65-6.67,17.54-28.58,28.39-36.8s23-4.45,49.66-3.28c14.93.65,19.16,14.79,24.56,25.09,3.74,7.13,6.81,11.2,6.59,11.85,0,0-4.83,13.19-16.55,7.14-10.09-5.2-16.13-10.43-15.8-10.71S88.6,219,67.69,217.69"/><path class="cls-4" d="M44.66,250.17q-2.31,1.13-4.86,2.12"/><path class="cls-4" d="M52.54,245.54a57.6,57.6,0,0,1-5.34,3.32"/><path class="cls-4" d="M73.18,217.92s-3.7,14.39-18.12,25.75"/><path class="cls-4" d="M54.69,276.13l-1.41,1.54"/><path class="cls-4" d="M59.12,270.86q-1.11,1.42-2.34,2.87"/><path class="cls-4" d="M70.58,225.36s8.79,17.58-9.48,42.87"/><path class="cls-4" d="M88.85,271.83a11.87,11.87,0,0,1-.92,4.3"/><path class="cls-4" d="M88.48,265.55c.19,1.36.32,2.65.38,3.86"/><path class="cls-4" d="M72.59,219.73s12,25.44,15.42,43"/><path class="cls-5" d="M84.66,56.05s3.39-6.07,6.26-7,9.14,7.86,9.57,8.21C100.5,57.25,93.26,49.06,84.66,56.05Z"/><path class="cls-3" d="M84.66,56.05s3.39-6.07,6.26-7,9.14,7.86,9.57,8.21C100.5,57.25,93.26,49.06,84.66,56.05Z"/><path class="cls-3" d="M67.41,60.35c3.43-1.61,7.8-2.63,15.42-2.36"/><path class="cls-6" d="M82.83,58q1.29,0,2.7.14a5.74,5.74,0,0,1,3.78,2.81c.59,1.51-4.73,7-8.44,9.3C78,72,79.18,72,65.09,71c-7.4-.51-3.82-7-2.1-8.09a35.51,35.51,0,0,1,4.42-2.55"/><path class="cls-5" d="M124.57,116.77s1.26-8.31,23.74-2.12c3.81,1,8.07,7.42,7.23,10.49-1.15,4.2-8.75,7.38-8.75,7.38S124.23,130.12,124.57,116.77Z"/><path class="cls-5" d="M143.66,160.91c1.34-2.58,7.15-3.59,18.26,2.14,0,0,13.28,4.1,1.8,15.83-1.07,1.09-10.51-2.09-15.52-7.14C143.78,167.27,142.79,162.59,143.66,160.91Z"/><path class="cls-6" d="M126.81,224c-7.9-16-4.11-17.9-4.27-18.24,0,0,9.47,16.4,9.65,16.62S130.48,225,126.81,224Z"/><path class="cls-7" d="M63,62.9c4.82-3.15,9.3-5.67,22.54-4.77a5.74,5.74,0,0,1,3.78,2.81c.59,1.51-4.73,7-8.44,9.3C78,72,79.18,72,65.09,71,57.69,70.48,61.27,64,63,62.9Z"/><path class="cls-4" d="M153.38,128.37a25.33,25.33,0,0,1-6.59,4.15s-22.56-2.4-22.23-15.74c0,0,1.26-8.31,23.74-2.12"/><path class="cls-3" d="M147.69,113.91c3.81,1,8.7,8.16,7.85,11.23a10.49,10.49,0,0,1-2.37,4"/><path class="cls-4" d="M163.73,178.88c-1.07,1.09-10.51-2.09-15.52-7.14-4.43-4.47-5.42-9.15-4.55-10.83,1.21-2.34,6.08-3.38,15.24.69"/><path class="cls-3" d="M153.58,159.26c1,.43,7.29,3.24,8.35,3.79,0,0,13.28,4.1,1.8,15.83"/><path class="cls-7" d="M126.81,224c-7.9-16-4.11-17.9-4.27-18.24,0,0,9.47,16.4,9.65,16.62S130.48,225,126.81,224Z"/><path class="cls-2" d="M46.13,94.85a6.75,6.75,0,0,1-1.52-1"/><path class="cls-2" d="M55,95.75a18.45,18.45,0,0,1-7-.21"/><path class="cls-2" d="M27.19,115.43a12,12,0,0,1-1.31-.35"/><path class="cls-2" d="M32.73,115.35a14.76,14.76,0,0,1-3.16.33"/><path class="cls-2" d="M46,107.57s-5.17,5.36-11.67,7.37"/><path class="cls-4" d="M122,268.83a38.49,38.49,0,0,0,4,3.67"/><path class="cls-4" d="M116.33,262.51c1.09,1.29,2.14,2.52,3.16,3.65"/><path class="cls-4" d="M84,217.65s17,26.1,30.69,42.84"/><path class="cls-2" d="M154,313.82q-1.23,1.49-2.71,3.06"/><path class="cls-2" d="M158.66,307.25q-.71,1.25-1.59,2.57"/><path class="cls-2" d="M161,302.23a29.25,29.25,0,0,1-1.17,2.84"/><path class="cls-2" d="M162.56,278.59c-1.11,7.27,1.07,13.51-.89,21.3"/><path class="cls-2" d="M165.55,269.92a27.27,27.27,0,0,0-2.15,5"/><path class="cls-2" d="M174.52,237.42s4.09,11.3-6.63,28.7"/><path class="cls-4" d="M163.43,245a48.2,48.2,0,0,0,4.51-2.09"/><path class="cls-4" d="M155.94,247.29q1.8-.36,3.63-.9"/><path class="cls-4" d="M112,232.29c8.94,8,23.63,17.63,41,15.49"/><path class="cls-4" d="M107.24,227.73c.82.86,1.75,1.79,2.77,2.76"/><path class="cls-4" d="M102.69,222.49s.92,1.23,2.63,3.16"/><path class="cls-4" d="M99.44,126.68a11,11,0,0,1-1.32,2.65"/><path class="cls-4" d="M100.26,122.08a18.62,18.62,0,0,1-.3,2.61"/><path class="cls-4" d="M98.77,111.62a33.52,33.52,0,0,1,1.48,8"/><path class="cls-4" d="M49.5,135.23a17.06,17.06,0,0,1,.16,3.06"/><path class="cls-4" d="M41.72,124.21a14.93,14.93,0,0,1,7.2,8.52"/><path class="cls-4" d="M117.14,169.94a21.5,21.5,0,0,1-1.67,2"/><path class="cls-4" d="M117.67,154.3a12.34,12.34,0,0,1,.54,14"/><path class="cls-4" d="M57.81,160.24c1.22,2.51,1.82,6.28-.35,11.54"/><path class="cls-4" d="M54.4,156.26a8.94,8.94,0,0,1,2.09,1.92"/><path class="cls-4" d="M64.12,194.79a13.41,13.41,0,0,1,.53,10.33"/><path class="cls-4" d="M62,191.31a18.69,18.69,0,0,1,1.08,1.54"/><path class="cls-4" d="M59.74,188.92A13.78,13.78,0,0,1,61,190.12"/><path class="cls-8" d="M90.64,34.14"/><line class="cls-9" x1="130.36" y1="56.53" x2="152.82" y2="47.07"/><line class="cls-9" x1="63.63" y1="43.62" x2="43.33" y2="29.57"/><line class="cls-9" x1="103.6" y1="35.98" x2="121.02" y2="7.83"/><line class="cls-9" x1="80.88" y1="35.06" x2="68.97" y2="1.09"/></g></g></svg>